<svg xmlns="http://www.w3.org/2000/svg" width="360" height="242.044" viewBox="0 0 360 242.044">
  <g id="Grupo_20680" data-name="Grupo 20680" transform="translate(-235 -2438)">
    <rect id="Rectángulo_4428" data-name="Rectángulo 4428" width="360" height="242" transform="translate(235 2438)" fill="#2ec8ee"/>
    <g id="Grupo_17812" data-name="Grupo 17812" transform="translate(-166.33 2153.38)">
      <path id="Trazado_34399" data-name="Trazado 34399" d="M411.33,329.938c.4-1.669.733-3.358,1.209-5a41.012,41.012,0,0,1,7.963-15.091,42.318,42.318,0,0,1,10.05-8.851,41.368,41.368,0,0,1,14.261-5.607,40.894,40.894,0,0,1,10.431-.68,41.971,41.971,0,0,1,18.443,5.557,42.5,42.5,0,0,1,10.517,8.686,40.117,40.117,0,0,1,8.678,15.9c.233.819.481,1.633.722,2.45v18.47a38.476,38.476,0,0,1-9.952,19.171,40.213,40.213,0,0,1-23.039,12.82c-12.854,2.3-24.538-.572-34.694-8.912a40.94,40.94,0,0,1-14.076-22.314c-.3-1.2-.248-2.443-.513-3.643Z" fill="#a8b09b"/>
      <path id="Trazado_34400" data-name="Trazado 34400" d="M452.745,300.193c19.637-.453,37.163,16.369,36.3,37.694a35.544,35.544,0,0,1-10.673,24.359,34.976,34.976,0,0,1-25.592,10.562,36.417,36.417,0,0,1-36.393-37.837C417,316.243,432.691,299.879,452.745,300.193Z" fill="#616454"/>
      <path id="Trazado_34401" data-name="Trazado 34401" d="M469.518,329.346c-.719-1.556-.415-3.145-.379-4.715.123-5.45-4.1-7.072-8.116-6.941-.638.02-.57.508-.659.8a7.318,7.318,0,0,0,2.95,8.118,6.445,6.445,0,0,0,3.409,1.119c1.255,0,1.611.67,1.665,1.615.086,1.492.023,2.993.023,4.827-1.5-2.677-3.819-3.25-6.268-3.486a10.714,10.714,0,0,0-2.464.23c-.577.082-.564.69-.575,1.019-.12,3.629,1.48,7.754,6.227,8.32a10.425,10.425,0,0,0,1.268.256c1.819.009,1.819.033,1.819,1.8,0,1.359-.024,2.719.011,4.077.016.6-.126.84-.787.837q-6.775-.041-13.55,0c-.65,0-.811-.217-.8-.826.035-1.6.031-3.2,0-4.8a3.79,3.79,0,0,0-.731-2.427c-.158-.2-.334-.5-.68-.24a.55.55,0,0,0-.2.737c1.141,2.176.466,4.524.667,6.789.074.834-.441.755-.976.754q-6.656-.009-13.311,0c-5.715,0-11.432-.016-17.147.016-.888,0-1.226-.21-1.492-1.158A34.778,34.778,0,0,1,445.1,302.607a35.632,35.632,0,0,1,5.958-.766,33.147,33.147,0,0,1,18.8,4.5,35.067,35.067,0,0,1,16.614,22.308,32.567,32.567,0,0,1,.693,11.278,49.3,49.3,0,0,1-1.227,6.452c-.172.666-.507.847-1.168.844-4.8-.026-9.593-.039-14.389.008-.89.008-1.032-.3-1.023-1.1.04-3.517.017-7.035.018-10.553,0-1.4.17-1.5,1.587-1.326,4.869.61,7.53-2.079,7.766-6.529a2.2,2.2,0,0,1,.017-.714c.578-1.305-.345-1.312-1.178-1.393-2.125-.205-4.188-.191-6.03,1.178A7.751,7.751,0,0,0,469.518,329.346Z" fill="#f4f3e8"/>
      <path id="Trazado_34402" data-name="Trazado 34402" d="M449.183,358.732a13.656,13.656,0,0,1,3.173-1.139c.3,2.48-1.281,3.3-3.458,3.654,1.376.608,3.389-.574,3.829-2.072.488-1.664.536-1.694,2.194-1.082.391.144.756.356,1.417.673-.894-1.352-2.266-1.138-3.218-1.732.333-.656.966-.921,1.35-1.4,2.114-2.633,1.9-3.9-.678-6.081-.472-.4-.923-.709-.674-1.323.232-.573.84-.286,1.27-.288q6.535-.033,13.072.005c.394,0,.988-.349,1.191.395.172.634-.322.841-.686,1.1-2.9,2.057-2.942,4.687-.083,6.855.224.169.545.256.471.591-.068.3-.389.325-.651.429-.821.323-1.861.267-2.313,1.291a11.214,11.214,0,0,1,2.242-.8c.227-.052.549-.338.72-.042a1.079,1.079,0,0,1,0,.808,3.731,3.731,0,0,1-2.662,2.485c-.32.083-.756-.094-.951.345,1.545.422,3.655-.934,4.081-2.9.231-1.066.654-.946,1.353-.714a5.533,5.533,0,0,1,2.111.937c.318-.423.022-.577-.209-.694-.279-.141-.614-.176-.883-.328-.548-.311-1.5-.175-1.649-.75-.147-.558.73-.868,1.127-1.312,1.959-2.184,1.786-4.187-.547-5.918-.255-.189-.471-.436-.739-.6-.37-.226-.24-.56-.221-.854.026-.409.377-.342.641-.342,5.234-.005,10.469,0,15.83,0a33.588,33.588,0,0,1-3.8,7.7,34.318,34.318,0,0,1-22.644,15.1,30.559,30.559,0,0,1-7.311.68,34.916,34.916,0,0,1-21.251-7.868,35.754,35.754,0,0,1-10.563-14.413c-.4-.99-.233-1.227.858-1.222,10.033.038,20.068.019,30.1.036.43,0,1.038-.286,1.27.29.248.614-.147.97-.679,1.325a5.144,5.144,0,0,0-1.4,1.457c-1.037,1.6-.777,3,.736,4.517,1.42,1.424,1.408,1.394-.413,2.08C450.081,357.786,449.461,357.884,449.183,358.732Z" fill="#cdcbad"/>
      <path id="Trazado_34403" data-name="Trazado 34403" d="M468.3,338.328c-1.566-1.626-3.11-3.159-5.285-3.771,1.941,1.513,4.38,2.475,5.407,5-3.738.715-7.791-1.073-8.4-5.27-.391-2.675-.4-2.568,2.348-2.7C466.341,331.4,468.765,334.762,468.3,338.328Z" fill="#eee9d3"/>
      <path id="Trazado_34404" data-name="Trazado 34404" d="M468.077,325.494c-.857-1.7-1.635-3.508-3.865-3.856a9.516,9.516,0,0,1,2.7,2.555,17.706,17.706,0,0,1,.8,1.812c.519,1.041-.028,1.115-.851,1.058a6.32,6.32,0,0,1-5.748-4.57,14.33,14.33,0,0,1-.112-3.681c-.007-.5.422-.393.712-.381,3.03.119,6.393,1.352,6.492,5.327C468.221,324.364,468.633,324.964,468.077,325.494Z" fill="#eee9d3"/>
      <path id="Trazado_34405" data-name="Trazado 34405" d="M469.325,332.608c.624-2.888,1.525-5.316,4.579-6.121a17.622,17.622,0,0,1,3.673-.139c.392-.02.431.253.434.557.029,2.451-.925,5.771-4.109,6.514a26.474,26.474,0,0,1-4.44.136,14.464,14.464,0,0,1,5.539-4.43C472.7,329.477,471.231,331.24,469.325,332.608Z" fill="#eee9d3"/>
      <path id="Trazado_34406" data-name="Trazado 34406" d="M455.461,352.683a5.844,5.844,0,0,1-2.268,3.589c-.6.264-.98-.193-1.376-.454a3.534,3.534,0,0,1-1.756-3.012c.037-1.518,1.1-2.527,2.316-3.332.147-.1.272-.052.434,0A4.426,4.426,0,0,1,455.461,352.683Z" fill="#eee9d3"/>
      <path id="Trazado_34407" data-name="Trazado 34407" d="M471.536,352.9a5.191,5.191,0,0,1-2.338,3.379c-.211.065-.563.081-.684-.043-.969-.988-2.354-1.722-2.253-3.413a4.2,4.2,0,0,1,2.265-3.244c.158-.105.287-.228.531-.149A4.6,4.6,0,0,1,471.536,352.9Z" fill="#eee9d3"/>
      <path id="Trazado_34408" data-name="Trazado 34408" d="M441.169,314.586a6.065,6.065,0,1,1,.021,12.129,6.065,6.065,0,1,1-.021-12.129Z" fill="#616454"/>
      <path id="Trazado_34409" data-name="Trazado 34409" d="M435.885,326.341c.727-.009.771.331.475.746-.519.728-1.075,1.433-1.644,2.123a6.676,6.676,0,0,0-.965,1.178.516.516,0,0,1-.818.148.5.5,0,0,1-.184-.727c.912-1.123,1.855-2.222,2.8-3.318C435.639,326.388,435.824,326.367,435.885,326.341Z" fill="#616454"/>
      <path id="Trazado_34410" data-name="Trazado 34410" d="M433.215,310.75c.431-.035.636.307.857.564.764.89,1.491,1.813,2.244,2.713a.57.57,0,0,1,.027.841c-.34.386-.555.065-.772-.148a28.343,28.343,0,0,1-2.663-3.135.68.68,0,0,1-.195-.642C432.791,310.694,433.03,310.771,433.215,310.75Z" fill="#616454"/>
      <path id="Trazado_34411" data-name="Trazado 34411" d="M446.341,326.343a.679.679,0,0,1,.686.334,16.537,16.537,0,0,0,2.092,2.545c.438.416.573,1.029.185,1.357s-.741-.227-1.017-.558c-.7-.846-1.395-1.7-2.12-2.526a1.02,1.02,0,0,1-.286-.861C445.916,326.362,446.108,326.351,446.341,326.343Z" fill="#616454"/>
      <path id="Trazado_34412" data-name="Trazado 34412" d="M448.1,317.2a.532.532,0,0,1-.488-.318c-.164-.271.085-.55.2-.619q1.926-1.2,3.912-2.291c.107-.06.428.14.565.294a.393.393,0,0,1-.065.542A37.376,37.376,0,0,1,448.1,317.2Z" fill="#616454"/>
      <path id="Trazado_34413" data-name="Trazado 34413" d="M452.338,326.675c.038.788-.479.728-.793.563-1.2-.63-2.376-1.321-3.536-2.028a.658.658,0,0,1-.3-.783.478.478,0,0,1,.718-.172q1.887,1.047,3.754,2.128C452.288,326.444,452.319,326.635,452.338,326.675Z" fill="#616454"/>
      <path id="Trazado_34414" data-name="Trazado 34414" d="M434.6,324.739c-.009.363-.24.508-.546.672-1.026.552-2.023,1.157-3.031,1.74-.325.188-.721.317-.927-.055-.16-.29-.083-.612.345-.847,1.121-.614,2.171-1.358,3.288-1.979C434.08,324.073,434.627,323.979,434.6,324.739Z" fill="#616454"/>
      <path id="Trazado_34415" data-name="Trazado 34415" d="M436.965,308.6c.285-.005.427.053.526.36.408,1.257.861,2.5,1.328,3.735.134.352.12.627-.19.828-.408.263-.655-.141-.74-.357q-.74-1.895-1.353-3.837C436.443,309.032,436.39,308.552,436.965,308.6Z" fill="#616454"/>
      <path id="Trazado_34416" data-name="Trazado 34416" d="M445.277,308.6c.723-.031.663.429.56.73-.438,1.284-.93,2.549-1.41,3.819-.1.271-.272.534-.6.418a.508.508,0,0,1-.345-.57,30.826,30.826,0,0,1,1.488-4.283C445,308.626,445.245,308.611,445.277,308.6Z" fill="#616454"/>
      <path id="Trazado_34417" data-name="Trazado 34417" d="M436.427,332.1c.505-1.337,1.021-2.675,1.51-4.023a.391.391,0,0,1,.553-.269.568.568,0,0,1,.4.759c-.457,1.28-.94,2.551-1.428,3.819a.582.582,0,0,1-.647.413C436.355,332.744,436.622,332.36,436.427,332.1Z" fill="#616454"/>
      <path id="Trazado_34418" data-name="Trazado 34418" d="M434.574,316.733c-.091.251-.193.652-.687.365-1.177-.682-2.343-1.383-3.505-2.088-.3-.181-.5-.494-.248-.79a.589.589,0,0,1,.808-.135c1.061.648,2.155,1.24,3.218,1.884A.728.728,0,0,1,434.574,316.733Z" fill="#616454"/>
      <path id="Trazado_34419" data-name="Trazado 34419" d="M446.26,315.058c-.535,0-.474-.478-.358-.674a17,17,0,0,1,2.9-3.538.544.544,0,0,1,.537-.011.565.565,0,0,1,.106.538A19.621,19.621,0,0,1,446.49,315C446.442,315.048,446.34,315.039,446.26,315.058Z" fill="#616454"/>
      <path id="Trazado_34420" data-name="Trazado 34420" d="M429.577,323.216c-.549.007-1.049.085-1.106-.33-.052-.381.283-.592.771-.656,1.194-.156,2.367-.464,3.555-.671.333-.059.835-.144.939.275.1.395-.194.641-.68.715C431.827,322.737,430.611,323.013,429.577,323.216Z" fill="#616454"/>
      <path id="Trazado_34421" data-name="Trazado 34421" d="M443.718,327.783c.442.005.614.018.725.331.44,1.243.953,2.459,1.4,3.7a.684.684,0,0,1-.309.928c-.4.157-.525-.191-.641-.5-.461-1.234-.953-2.457-1.382-3.7C443.408,328.252,443.321,327.784,443.718,327.783Z" fill="#616454"/>
      <path id="Trazado_34422" data-name="Trazado 34422" d="M449.551,319.66c-.4.033-.951.284-.971-.37-.014-.43.39-.61.916-.657a22.054,22.054,0,0,0,3.328-.589c.479-.118.81-.093.929.37.146.571-.417.636-.738.7C451.869,319.34,450.707,319.485,449.551,319.66Z" fill="#616454"/>
      <path id="Trazado_34423" data-name="Trazado 34423" d="M433,319.639c-1.267.058-2.48-.494-3.773-.569-.3-.018-.91-.194-.792-.679.08-.325.555-.5.983-.417l3.642.7c.367.071.7.29.669.647A.445.445,0,0,1,433,319.639Z" fill="#616454"/>
      <path id="Trazado_34424" data-name="Trazado 34424" d="M452.853,323.26c-1.189-.242-2.449-.507-3.712-.751-.354-.069-.672-.213-.576-.592.086-.339.455-.431.795-.37q1.961.353,3.916.732a.53.53,0,0,1,.475.694C453.625,323.42,453.208,323.128,452.853,323.26Z" fill="#616454"/>
      <path id="Trazado_34425" data-name="Trazado 34425" d="M441.552,330.9c0,.678.007,1.356,0,2.034,0,.257.083.6-.366.587a.52.52,0,0,1-.566-.5c-.018-1.434-.025-2.87.019-4.3a.584.584,0,0,1,.633-.557c.307.058.289.422.287.708C441.549,329.542,441.553,330.22,441.552,330.9Z" fill="#616454"/>
      <path id="Trazado_34426" data-name="Trazado 34426" d="M441.551,310.313c0,.717-.007,1.435,0,2.153,0,.317-.13.6-.421.626-.389.039-.532-.27-.533-.628q0-1.973,0-3.947a.712.712,0,0,1,.614-.761c.361,0,.345.443.342.763C441.549,309.117,441.553,309.715,441.551,310.313Z" fill="#616454"/>
      <path id="Trazado_34427" data-name="Trazado 34427" d="M439.067,357.4l-3.389,1.107c.976-1.265,2.473-.936,3.448-1.791a10.289,10.289,0,0,1-2.315-2.348,3.016,3.016,0,0,1,0-3.444,2.456,2.456,0,0,1,.225-.277c1.582-1.876,2.389-2.159,3.491-1.22,2.284,1.946,2.6,3.689,1,5.582a10.2,10.2,0,0,1-1.182,1.187c-.7.594-.411.9.289,1.067a3.363,3.363,0,0,1,2.385,1.255,14.305,14.305,0,0,0-2.685-.9c-.446-.058-.706-.093-.7.435.014,1.915-1.305,2.679-3.738,2.939C437.3,360.117,439.678,360.107,439.067,357.4Z" fill="#616454"/>
      <path id="Trazado_34428" data-name="Trazado 34428" d="M441.12,325.86c-2.866.318-5.48-2.516-5.355-5.207a5.377,5.377,0,0,1,5.284-5.354,5.435,5.435,0,0,1,5.372,5.392C446.406,323.191,443.8,326.3,441.12,325.86Z" fill="#eee9d3"/>
      <path id="Trazado_34429" data-name="Trazado 34429" d="M442.038,352.932a4.421,4.421,0,0,1-2.221,3.159.813.813,0,0,1-.528.176c-.946-.208-2.5-2.278-2.533-3.336a3.883,3.883,0,0,1,2.335-3.531c.49-.154.8.16,1.165.413A3.512,3.512,0,0,1,442.038,352.932Z" fill="#eee9d3"/>
    </g>
    <rect id="Rectángulo_4434" data-name="Rectángulo 4434" width="360" height="38" transform="translate(235 2642)" fill="#2fb239"/>
    <g id="Grupo_17845" data-name="Grupo 17845" transform="translate(178.307 2496.331)">
      <ellipse id="Elipse_1173" data-name="Elipse 1173" cx="40.872" cy="2.89" rx="40.872" ry="2.89" transform="translate(334.95 163.52)" fill="#baa694" opacity="0.7"/>
      <rect id="Rectángulo_4429" data-name="Rectángulo 4429" width="63.436" height="36.415" transform="translate(343.164 129.582)" fill="#ffa539"/>
      <ellipse id="Elipse_1174" data-name="Elipse 1174" cx="44.264" cy="5.902" rx="44.264" ry="5.902" transform="translate(68.497 149.674)" fill="#843528"/>
      <ellipse id="Elipse_1175" data-name="Elipse 1175" cx="40.985" cy="5.574" rx="40.985" ry="5.574" transform="translate(94.727 158.855)" fill="#843528"/>
      <ellipse id="Elipse_1176" data-name="Elipse 1176" cx="32.46" cy="6.23" rx="32.46" ry="6.23" transform="translate(143.253 152.298)" fill="#843528"/>
      <g id="Grupo_17814" data-name="Grupo 17814" transform="translate(75.194 108.198)">
        <path id="Trazado_34430" data-name="Trazado 34430" d="M151.557,152.065c0,1.645-15.7,2.979-35.068,2.979s-35.068-1.334-35.068-2.979,15.7-2.98,35.068-2.98S151.557,150.419,151.557,152.065Z" transform="translate(-73.844 -104.387)" fill="#e4e4e4" opacity="0.2"/>
        <g id="Grupo_17813" data-name="Grupo 17813" transform="translate(0)">
          <path id="Trazado_34431" data-name="Trazado 34431" d="M98.439,152.627c-.578-1.124-3.481-7.61-3.417-9.119s2.75-5.7,3-8.611-1.707-9.328-7.454-9.91-3.581,3.289-2.415,5.788,3.456,4.289,3.206,6.287-.665,2.874-.208,5.414,2.165,10.15,2.165,10.15Z" transform="translate(-73.552 -105.706)" fill="#ca6575"/>
          <path id="Trazado_34432" data-name="Trazado 34432" d="M128.823,137.891c.344.689,6.114,14.684,6.114,14.684h4.134c.646,0,.173-.474-.172-1.033a19.925,19.925,0,0,1-1.938-5.986c-.258-2.369.366-11.158.366-11.158S130.987,132.067,128.823,137.891Z" transform="translate(-71.257 -105.214)" fill="#ca6575"/>
          <path id="Trazado_34433" data-name="Trazado 34433" d="M154.005,112.643c.339,2.24.521,8.31-5.158,6.877C148.353,117.67,149.577,114.284,154.005,112.643Z" transform="translate(-70.17 -106.376)" fill="#b55b69"/>
          <path id="Trazado_34434" data-name="Trazado 34434" d="M97.391,106.733c-4.455.086-14.143,2.313-15.745,12.453s4.715,16.989,11.92,18.858,17.434,3.113,25.44,2.313,9.34-2.224,12.1-2.669,7.5-.672,10.337-1.012,7.6-.68,10.43-.68a25.214,25.214,0,0,0,11.677-2.834c3.8-2.211,4.422-2.949,4.422-3.458v-2.833a.317.317,0,0,0-.335-.316,9.6,9.6,0,0,1-5.237-1.011c-4.711-3.032-10.357-10.748-14.1-13.356a27.264,27.264,0,0,0-14.228-4.875C128.912,107.2,106.8,106.55,97.391,106.733Z" transform="translate(-73.845 -106.701)" fill="#ec9295"/>
          <path id="Trazado_34435" data-name="Trazado 34435" d="M94.909,153.748c-.578-1.124-3.481-7.61-3.417-9.119s2.75-5.7,3-8.611-1.707-9.328-7.454-9.91-3.581,3.289-2.415,5.787,3.456,4.289,3.206,6.287-.666,2.874-.208,5.414,2.165,10.15,2.165,10.15Z" transform="translate(-73.745 -105.645)" fill="#ec9295"/>
          <path id="Trazado_34436" data-name="Trazado 34436" d="M125.536,136.4c.4.792,7.032,16.886,7.032,16.886h4.753c.743,0,.2-.545-.2-1.189a22.906,22.906,0,0,1-2.228-6.883c-.3-2.724-.3-10.2-.3-10.2S128.8,133.374,125.536,136.4Z" transform="translate(-71.436 -105.18)" fill="#ec9295"/>
          <path id="Trazado_34437" data-name="Trazado 34437" d="M151.351,109.994c.483,3.194.742,11.847-7.354,9.8C143.292,117.162,145.037,112.334,151.351,109.994Z" transform="translate(-70.437 -106.521)" fill="#ca6575"/>
          <path id="Trazado_34438" data-name="Trazado 34438" d="M83.02,118.031A7.429,7.429,0,0,1,78.211,120a4.01,4.01,0,0,1-3.969-4.511,3.5,3.5,0,0,1,3.562-3.59,2.588,2.588,0,0,1,2.709,2.683,1.824,1.824,0,0,1-2.289,1.951c-1.023-.148-1.689-1.6-.663-2.236" transform="translate(-74.236 -106.417)" fill="none" stroke="#ec9295" stroke-linecap="round" stroke-miterlimit="10" stroke-width="2.87"/>
        </g>
      </g>
      <g id="Grupo_17816" data-name="Grupo 17816" transform="translate(156.231 136.559)">
        <path id="Trazado_34439" data-name="Trazado 34439" d="M157.667,152.8c0,.7,6.646,1.261,14.844,1.261s14.844-.564,14.844-1.261-6.646-1.261-14.844-1.261S157.667,152.1,157.667,152.8Z" transform="translate(-150.721 -132.615)" fill="#e4e4e4" opacity="0.3"/>
        <g id="Grupo_17815" data-name="Grupo 17815" transform="translate(0 0)">
          <path id="Trazado_34440" data-name="Trazado 34440" d="M178.871,153.035a18.207,18.207,0,0,0,1.446-3.861c-.027-.638-1.164-2.411-1.27-3.645s.722-3.947,3.155-4.194,1.515,1.392,1.022,2.45-1.463,1.815-1.357,2.662a5.714,5.714,0,0,1,.089,2.291c-.194,1.076-.916,4.3-.916,4.3Z" transform="translate(-149.563 -133.173)" fill="#ca6575"/>
          <path id="Trazado_34441" data-name="Trazado 34441" d="M165.986,146.8c-.146.291-2.589,6.216-2.589,6.216h-1.75c-.273,0-.073-.2.073-.438a8.458,8.458,0,0,0,.82-2.534c.11-1-.155-4.723-.155-4.723S165.069,144.332,165.986,146.8Z" transform="translate(-150.511 -132.965)" fill="#ca6575"/>
          <path id="Trazado_34442" data-name="Trazado 34442" d="M155.212,136.109c-.142.949-.22,3.518,2.184,2.912C157.606,138.237,157.087,136.8,155.212,136.109Z" transform="translate(-150.858 -133.457)" fill="#b55b69"/>
          <path id="Trazado_34443" data-name="Trazado 34443" d="M180.955,133.608c1.886.037,5.987.979,6.665,5.272a6.835,6.835,0,0,1-5.046,7.982,33.933,33.933,0,0,1-10.768.979,25.018,25.018,0,0,1-5.121-1.129c-1.166-.189-3.175-.285-4.375-.428s-3.215-.289-4.414-.289a10.673,10.673,0,0,1-4.943-1.2c-1.608-.936-1.872-1.248-1.872-1.464v-1.2a.134.134,0,0,1,.141-.134,4.065,4.065,0,0,0,2.218-.428c1.993-1.283,4.384-4.549,5.967-5.654a11.552,11.552,0,0,1,6.023-2.064C167.613,133.8,176.974,133.531,180.955,133.608Z" transform="translate(-151.08 -133.594)" fill="#ec9295"/>
          <path id="Trazado_34444" data-name="Trazado 34444" d="M180.365,153.509a18.26,18.26,0,0,0,1.447-3.86c-.027-.639-1.164-2.411-1.271-3.645s.723-3.948,3.155-4.2,1.515,1.392,1.022,2.45-1.463,1.816-1.356,2.662a5.719,5.719,0,0,1,.088,2.292c-.194,1.075-.916,4.3-.916,4.3Z" transform="translate(-149.482 -133.147)" fill="#ec9295"/>
          <path id="Trazado_34445" data-name="Trazado 34445" d="M167.411,146.164c-.168.335-2.976,7.147-2.976,7.147h-2.012c-.315,0-.084-.23.083-.5a9.713,9.713,0,0,0,.944-2.914c.125-1.153.125-4.317.125-4.317S166.028,144.885,167.411,146.164Z" transform="translate(-150.469 -132.95)" fill="#ec9295"/>
          <path id="Trazado_34446" data-name="Trazado 34446" d="M156.386,134.988c-.2,1.352-.314,5.014,3.112,4.15C159.8,138.022,159.059,135.978,156.386,134.988Z" transform="translate(-150.795 -133.518)" fill="#ca6575"/>
          <path id="Trazado_34447" data-name="Trazado 34447" d="M185.335,138.39a3.144,3.144,0,0,0,2.035.831,1.7,1.7,0,0,0,1.68-1.91,1.481,1.481,0,0,0-1.508-1.52,1.1,1.1,0,0,0-1.147,1.136.772.772,0,0,0,.969.826c.433-.062.716-.679.282-.946" transform="translate(-149.21 -133.474)" fill="none" stroke="#ec9295" stroke-linecap="round" stroke-miterlimit="10" stroke-width="2.87"/>
        </g>
      </g>
      <ellipse id="Elipse_1177" data-name="Elipse 1177" cx="17.706" cy="2.951" rx="17.706" ry="2.951" transform="translate(56.693 164.101)" fill="#843528"/>
      <ellipse id="Elipse_1178" data-name="Elipse 1178" cx="10.888" cy="2.094" rx="10.888" ry="2.094" transform="translate(95.22 179.525)" fill="#843528"/>
      <g id="Grupo_17822" data-name="Grupo 17822" transform="translate(217.773 83.48)">
        <g id="Grupo_17821" data-name="Grupo 17821">
          <g id="Grupo_17817" data-name="Grupo 17817" transform="translate(40.295 40.468)">
            <path id="Trazado_34448" data-name="Trazado 34448" d="M248.787,121.636a24.569,24.569,0,0,1,17.469,7.292l3.125-.175a9.933,9.933,0,0,0,.932,1.654c.277.577.547,1.16.818,1.741a9.686,9.686,0,0,1-.743,2.394c-.544.743-1.1,1.48-1.645,2.219a22.509,22.509,0,0,0-1.164-2.253A21.951,21.951,0,0,0,248.787,124,1.181,1.181,0,0,1,248.787,121.636Z" transform="translate(-247.647 -121.636)" fill="#152139"/>
          </g>
          <ellipse id="Elipse_1179" data-name="Elipse 1179" cx="22.317" cy="3.355" rx="22.317" ry="3.355" transform="translate(0 76.708)" fill="#baa694" opacity="0.7"/>
          <path id="Trazado_34449" data-name="Trazado 34449" d="M211.461,153.7l3.405,1.16s8.4-8.157,11.531-12.727c2.625-3.827,7.5-14.666,7.5-14.666l-10.041-3.1s-2.458,14.366-4.614,17.767C217.027,145.626,211.461,153.7,211.461,153.7Z" transform="translate(-209.327 -81.019)" fill="#152139"/>
          <path id="Trazado_34450" data-name="Trazado 34450" d="M224.849,100.563a7.016,7.016,0,0,1,4.3-1.813,2.626,2.626,0,0,1,2.415.713,3.231,3.231,0,0,0,2,.241h.061l0-.011a4.484,4.484,0,0,0,.825-.266c-.063.1-.092.161-.034.169a4.633,4.633,0,0,1,2.887,1.466c1.526,1.831-.322,10.351,1.526,13.431,1.374,2.289,8.014,7.784,8.014,7.784l-.649,1.6L235.775,118l-1.171,4.273-12.871-.611S221.967,102.921,224.849,100.563Z" transform="translate(-208.766 -82.418)" fill="#ffa539"/>
          <path id="Trazado_34451" data-name="Trazado 34451" d="M238.177,114c1.231,2.369,8.436,7.158,8.436,7.158l-1.306,2.611-10.259-5.04,2.1-12.324S237.337,112.383,238.177,114Z" transform="translate(-208.039 -81.999)" fill="#ffa539"/>
          <path id="Trazado_34452" data-name="Trazado 34452" d="M245.691,121.009c.039.035.252.059,1.1-.04,1.334-1.076,1.762-1.486,2.5-1.3s1,.3,1.9.511c.226.053.565.429.337.735a1.266,1.266,0,0,0,.5.331.734.734,0,0,1,.084.608.6.6,0,0,0-.078-.012,3.237,3.237,0,0,0-.851.165,3.182,3.182,0,0,0-1,.387.466.466,0,0,0-.192.207.344.344,0,0,1-.034.018c-.45.3-.2,1.145.376,1.043a3.349,3.349,0,0,1,.659-.04,3.382,3.382,0,0,0,.348.092.544.544,0,0,1-.287.1c.217.369-.343.669-.8.7a8.586,8.586,0,0,1-4.2-1.693c-.867-.385-.944-.553-.944-.553Z" transform="translate(-207.49 -81.278)" fill="#f9c28f"/>
          <path id="Trazado_34453" data-name="Trazado 34453" d="M241.422,83.836c-1.164-1.062-3.73-.987-9.442,3.868-6.511,5.535-7.182,6.886-6.159,8.312.963,1.342,4.537.244,10.23-4.148S242.862,85.146,241.422,83.836Z" transform="translate(-208.564 -83.261)" fill="#152139"/>
          <path id="Trazado_34454" data-name="Trazado 34454" d="M227.734,92.467c.522,1.289.781,1.357,3.473,3.124.564.37-.8,2.774-1.293,4.049a1.84,1.84,0,0,0,.639,1.794c.657.585,2.455.936,3.1-.167.662-1.137,1.261-3.223,1.391-3.329.3-.249,1.64-.075,2.975-.739a3.382,3.382,0,0,0,2.03-2.585,3.9,3.9,0,0,0,.095-2.7c-.052-.166.143-.883.109-1.046a21.156,21.156,0,0,0-1.875-4.733c-1.374-2.753-4.573-3.294-7.711-1.583A6.249,6.249,0,0,0,227.734,92.467Z" transform="translate(-208.462 -83.245)" fill="#f9c28f"/>
          <path id="Trazado_34455" data-name="Trazado 34455" d="M232.431,83.981c-3.044.625-5.1,2.5-5.242,5.9-.186,4.331,1.446,3.936,3.577,5.865.032.028,1.013-1.422.474-1.893-1.946-1.7-.321-2.905.179-2.269a3.343,3.343,0,0,0,1.273,1s-.416-.713-.312-.863c.055-.078.83.53.858.438.086-.279.018-.891.075-1.213.109-.606.5-.81,1.621-1.319a8.838,8.838,0,0,0,2.574-2.4c.088-.1-2.266,3.034-2.236,3.033a6.252,6.252,0,0,0,3.525-2.749c.028-.071-1.383,2.707-1.282,2.682.576-.151,2.186-.741,2.313-1.411C240.481,85.331,234.392,83.579,232.431,83.981Z" transform="translate(-208.469 -83.226)" fill="#cf6223"/>
          <path id="Trazado_34456" data-name="Trazado 34456" d="M231.628,92.719s-.926-.023-1.085-.362c-.389-.83.25-.988.25-.988a.153.153,0,0,1,.21.05l.675,1.038A.189.189,0,0,1,231.628,92.719Z" transform="translate(-208.292 -82.821)" fill="#e49752"/>
          <path id="Trazado_34457" data-name="Trazado 34457" d="M240.866,84.86s-5.589,1.578-8.632,4.455-5.3,5.5-5.3,5.5l-.677-1.735.947-.748a21.109,21.109,0,0,1,.474-5.878,6.913,6.913,0,0,1,5.022-3.187,18.357,18.357,0,0,1,5.079.89s.7-.455.824-.375C239.013,84.049,240.866,84.86,240.866,84.86Z" transform="translate(-208.519 -83.262)" fill="#152139"/>
          <path id="Trazado_34458" data-name="Trazado 34458" d="M234,99.6s-.66,1.8-2.153,1.561-2.008-2.432-2.008-2.432l-.629.017a3.526,3.526,0,0,0,2.2,2.977,1.969,1.969,0,0,0,2.547-1.063l.176-.578Z" transform="translate(-208.358 -82.418)" fill="#152139"/>
          <path id="Trazado_34459" data-name="Trazado 34459" d="M221.782,147.614l-4.618-3.815-7.727,11.846s4.731,6.868,5.657,6.234c.8-.552-1.623-6.506-1.623-6.506Z" transform="translate(-209.437 -79.958)" fill="#470c00"/>
          <path id="Trazado_34460" data-name="Trazado 34460" d="M244.63,158.1s-5.254-10.416-7.6-14.584c-4.765-8.474-13.687-9.994-15.284-16.68-.709-2.964,0-12.206,0-12.206l9.064-3.288s.011-5.812-.421-7.341a5.711,5.711,0,0,0-4.542-4.165,4.632,4.632,0,0,1,.969-.694c1.347-.385,3.264.588,4.54,3.833.631,1.6.85,8.129.85,8.129l2.093.151a50.038,50.038,0,0,0,.836-8.565,12.69,12.69,0,0,0-.71-3.114l1.309.355a12.814,12.814,0,0,1,.6,2.926,29.724,29.724,0,0,1-.99,8.653l1.692.379s-1.237,8.247-2.125,10.87a21.345,21.345,0,0,0-1.26,3.162c0,.611,7.234,6.281,9.654,14.131,1.441,4.677,3.133,17.627,3.133,17.627S246.72,157.971,244.63,158.1Z" transform="translate(-208.782 -82.4)" fill="#152139"/>
          <path id="Trazado_34461" data-name="Trazado 34461" d="M244.351,145.208,238.7,147.2l6.166,12.728s8.325-.511,8.257-1.632c-.058-.973-6.411-1.964-6.411-1.964Z" transform="translate(-207.84 -79.881)" fill="#470c00"/>
          <path id="Trazado_34462" data-name="Trazado 34462" d="M225.445,100.586c-1.9.238-1.291,1.366-1.725,2.909-.565,2.8-1.708,10.024,1.843,16.485,2.611,4.75,14.16,8.67,14.16,8.67l.864-2.741s-6.2-3.676-9.124-7.936c-1.792-2.613-2.015-8.076-1.725-10.759C229.95,105.246,229.72,100.047,225.445,100.586Z" transform="translate(-208.692 -82.319)" fill="#ffa539"/>
          <g id="Grupo_17820" data-name="Grupo 17820" transform="translate(33.428 40.667)">
            <g id="Grupo_17819" data-name="Grupo 17819" transform="translate(0 3.315)">
              <g id="Grupo_17818" data-name="Grupo 17818">
                <path id="Trazado_34463" data-name="Trazado 34463" d="M295.037,152.39c-4.225-2.4-5.845-8.244-10.623-9.058,3.08.351,5.222.592,5.222.592L300.9,129.946l-41.158,2.315a24.569,24.569,0,0,0-17.469-7.292,1.181,1.181,0,0,0,0,2.361,21.7,21.7,0,0,1,21.894,21.2c.065,2.864-.819,6.43,1.741,8.553,2.07,1.716,4.74.794,6.352-1.055,2.262-2.594,3.3-5.97,5.946-8.306,3.283-2.9,7.028-2.655,9.809.606,1.868,2.19,3.252,4.632,5.83,6.1A1.181,1.181,0,0,0,295.037,152.39ZM281.7,143.385c-3.249.608-5.715,2.861-7.59,5.457-1.023,1.417-1.817,2.964-2.766,4.427-.637.981-1.569,2.5-2.974,2.4-1.871-.132-1.958-2.443-1.956-3.694.006-3.592.072-6.847-1.055-10.316-.07-.214-.149-.424-.225-.636,4.256.577,12.769,1.567,18.551,2.228A8.17,8.17,0,0,0,281.7,143.385Z" transform="translate(-241.135 -124.968)" fill="#152139"/>
              </g>
              <circle id="Elipse_1180" data-name="Elipse 1180" cx="2.143" cy="2.143" r="2.143" transform="translate(51.417 26.096)" fill="#00adf9"/>
              <path id="Trazado_34464" data-name="Trazado 34464" d="M292.27,145.416a6.676,6.676,0,1,0,6.675,6.675A6.676,6.676,0,0,0,292.27,145.416Zm0,10.848a4.172,4.172,0,1,1,4.172-4.173A4.173,4.173,0,0,1,292.27,156.264Z" transform="translate(-238.709 -123.852)" fill="#470c00"/>
            </g>
            <path id="Trazado_34465" data-name="Trazado 34465" d="M299.939,129.688l-11.266,13.978-24.5-2.9a21.8,21.8,0,0,0-2.011-4.68,16.667,16.667,0,0,0-3.383-4.08Z" transform="translate(-240.172 -121.395)" fill="#00adf9"/>
            <path id="Trazado_34466" data-name="Trazado 34466" d="M293.6,130.466s-6.672-10.511-15.87-8.349-16.419,10.165-16.419,10.165Z" transform="translate(-240.034 -121.824)" fill="#843528"/>
          </g>
          <path id="Trazado_34467" data-name="Trazado 34467" d="M239.712,124.606a9.42,9.42,0,0,0,1.653.082c1.623-.137,3.319-1.506,3.979-1.012a14.143,14.143,0,0,1,1.868,1.537.538.538,0,0,1-.507.826c.381.123.154,1.046-.421.956.444.419-.012.916-.407.912.224.407-.393.712-.889.728a10.36,10.36,0,0,1-4.7-2.182,11.018,11.018,0,0,0-1.031-.392Z" transform="translate(-207.809 -81.062)" fill="#f9c28f"/>
          <path id="Trazado_34468" data-name="Trazado 34468" d="M239.311,124.36l.444.248-.863,2.741-.56-.208Z" transform="translate(-207.86 -81.019)" fill="#152139"/>
          <path id="Trazado_34469" data-name="Trazado 34469" d="M246.1,120.406l-1.306,2.611-.436-.264,1.386-2.588Z" transform="translate(-207.531 -81.248)" fill="#152139"/>
          <path id="Trazado_34470" data-name="Trazado 34470" d="M271.48,119.954s-7.431-3.3-4.129-6.6,0-7.432,0-7.432" transform="translate(-206.322 -82.026)" fill="none" stroke="#843528" stroke-linecap="round" stroke-miterlimit="10" stroke-width="2"/>
          <path id="Trazado_34471" data-name="Trazado 34471" d="M277.454,120.166s-7.432-3.3-4.129-6.606,0-7.432,0-7.432" transform="translate(-205.996 -82.014)" fill="none" stroke="#843528" stroke-linecap="round" stroke-miterlimit="10" stroke-width="2"/>
          <path id="Trazado_34472" data-name="Trazado 34472" d="M283.718,120.949s-7.432-3.3-4.129-6.606,0-7.432,0-7.432" transform="translate(-205.654 -81.971)" fill="none" stroke="#843528" stroke-linecap="round" stroke-miterlimit="10" stroke-width="2"/>
        </g>
      </g>
      <g id="Grupo_17844" data-name="Grupo 17844" transform="translate(342.523 79.263)">
        <g id="Grupo_17843" data-name="Grupo 17843">
          <g id="Grupo_17838" data-name="Grupo 17838" transform="translate(9.974)">
            <g id="Grupo_17823" data-name="Grupo 17823" transform="translate(9.441)">
              <path id="Trazado_34473" data-name="Trazado 34473" d="M368.16,103.925c-1,4.076-10.824,3.712-10.974,3.7-.15.013-9.969.376-10.975-3.7-.616-2.507,3.1-3.712,2.361-6.143-.31-1.032-1.279-1.728-1.605-2.764a3.258,3.258,0,0,1,.34-2.633c1.042-1.778,2.158-2.644,2.9-4.638.753-2.022.386-4.189,1.772-6.024a6.733,6.733,0,0,1,10.408,0c1.386,1.835,1.02,4,1.772,6.024.746,1.994,1.861,2.86,2.9,4.638a3.253,3.253,0,0,1,.34,2.633c-.326,1.036-1.3,1.732-1.6,2.764C365.064,100.213,368.78,101.419,368.16,103.925Z" transform="translate(-346.142 -79.263)" fill="#cf6223"/>
            </g>
            <g id="Grupo_17824" data-name="Grupo 17824" transform="translate(0.21 16.509)">
              <path id="Trazado_34474" data-name="Trazado 34474" d="M352.592,95.723c-6.147,3.073-15.63,13.863-15.188,15.837.576,2.569,7.265-.555,8.552-1.932a125.176,125.176,0,0,0,8.158-10.165c1.314-2.024,2.63-4.685.8-4.539A8.523,8.523,0,0,0,352.592,95.723Z" transform="translate(-337.389 -94.917)" fill="#ffa539"/>
            </g>
            <g id="Grupo_17825" data-name="Grupo 17825" transform="translate(21.911 16.514)">
              <path id="Trazado_34475" data-name="Trazado 34475" d="M361.832,95.638c3.666,2.153,11.939,7.718,12.776,10.569.741,2.526-3.373,3.885-5.031,3.322-2.687-.912-9.656-7.684-10.862-9.747C357.2,97.185,357.871,93.311,361.832,95.638Z" transform="translate(-357.967 -94.923)" fill="#ffa539"/>
            </g>
            <g id="Grupo_17826" data-name="Grupo 17826" transform="translate(11.082 15.679)">
              <path id="Trazado_34476" data-name="Trazado 34476" d="M367.23,122.056c-.636.539-4.822,4.331-9.724,4.331s-9.088-3.792-9.724-4.331c-.56-.483,1.862-2.417,2.221-4.292a20.72,20.72,0,0,0-.215-7.2,7.526,7.526,0,0,1-1.264-4.175c.044-3.114,4.166-10.549,6.164-11.494a5.612,5.612,0,0,1,5.638,0c2,.945,6.119,8.38,6.163,11.494a7.52,7.52,0,0,1-1.263,4.175,20.72,20.72,0,0,0-.215,7.2C365.367,119.639,367.79,121.573,367.23,122.056Z" transform="translate(-347.698 -94.131)" fill="#ffa539"/>
            </g>
            <g id="Grupo_17832" data-name="Grupo 17832" transform="translate(13.683 0.448)">
              <g id="Grupo_17827" data-name="Grupo 17827" transform="translate(4.729 10.309)">
                <path id="Trazado_34477" data-name="Trazado 34477" d="M359.7,89.463s-.21,3.035-.372,5.186c-.088,1.143-.165,2.037-.184,2.094a2.154,2.154,0,0,1-2.23,1.625,2.1,2.1,0,0,1-1.762-1.487c-.016-.053-.071-.8-.142-1.813-.149-2.165-.362-5.5-.362-5.5Z" transform="translate(-354.648 -89.463)" fill="#f9c28f"/>
                <path id="Trazado_34478" data-name="Trazado 34478" d="M359.7,89.463s-.21,3.035-.372,5.186a4.758,4.758,0,0,1-4.318.42c-.149-2.165-.362-5.5-.362-5.5Z" transform="translate(-354.648 -89.463)" fill="#d3627d"/>
              </g>
              <g id="Grupo_17831" data-name="Grupo 17831">
                <g id="Grupo_17828" data-name="Grupo 17828" transform="translate(11.186 6.963)">
                  <path id="Trazado_34479" data-name="Trazado 34479" d="M360.9,88.04s1.078-2.068,2-1.707.283,3.239-.678,3.746a1.036,1.036,0,0,1-1.448-.373Z" transform="translate(-360.771 -86.29)" fill="#f9c28f"/>
                </g>
                <g id="Grupo_17829" data-name="Grupo 17829" transform="translate(0 7.282)">
                  <path id="Trazado_34480" data-name="Trazado 34480" d="M352.646,88.25s-1.183-2.01-2.086-1.6-.116,3.248.87,3.706a1.036,1.036,0,0,0,1.427-.446Z" transform="translate(-350.164 -86.592)" fill="#f9c28f"/>
                </g>
                <path id="Trazado_34481" data-name="Trazado 34481" d="M351.606,88.069c.6,6.094,4.05,6.092,5.1,6.163,1.2.08,5.772-.554,5.8-6.678s-3-7.768-5.739-7.639S351,81.976,351.606,88.069Z" transform="translate(-350.09 -79.676)" fill="#f9c28f"/>
                <g id="Grupo_17830" data-name="Grupo 17830" transform="translate(0.957)">
                  <path id="Trazado_34482" data-name="Trazado 34482" d="M351.581,87.883c.516,0,.874-1.87.874-1.87s3.63-1.255,4.311-4.117c0,0,.8,4.025,4.735,4.256,0,0,.556,1.385,1.2,1.369-.224,1.569.855-4.226-1.5-6.4a4.819,4.819,0,0,0-4.347-1.339,5.37,5.37,0,0,0-4.6,1.94C350.426,83.978,351.154,87.883,351.581,87.883Z" transform="translate(-351.072 -79.688)" fill="#cf6223"/>
                </g>
              </g>
            </g>
            <path id="Trazado_34483" data-name="Trazado 34483" d="M353.72,94.7l-2.027,1.408s2.8,8.65-1.841,14.065c0,0,1.547,6.962,0,8.509s-4.642,7.736-4.642,9.283h24.756a23.342,23.342,0,0,0-4.9-9.3l.3-8.138s-4.275-8.03-.994-13.862l-2.507-1.254-1.95,7.025h-4.177Z" transform="translate(-336.752 -78.421)" fill="#0f423b"/>
            <path id="Trazado_34484" data-name="Trazado 34484" d="M370.215,127l-12.595,0v0h-12.59c1.281-5.694,6.128-10.459,6.128-10.459h12.928S368.934,121.306,370.215,127Z" transform="translate(-336.761 -77.229)" fill="#0f423b"/>
            <g id="Grupo_17834" data-name="Grupo 17834" transform="translate(18.345 30.211)">
              <g id="Grupo_17833" data-name="Grupo 17833" transform="translate(0 1.853)">
                <path id="Trazado_34485" data-name="Trazado 34485" d="M355.517,124.145a1.318,1.318,0,0,1-.737-.765,3.739,3.739,0,0,1,.191-2.817,10.963,10.963,0,0,1,1.54-2.187,8.838,8.838,0,0,0,1.416-2.034l2.457-6.674.408.15-.057.156-.252-.093-2.4,6.518a8.885,8.885,0,0,1-1.444,2.083,10.9,10.9,0,0,0-1.516,2.149,3.572,3.572,0,0,0-.19,2.684,1.16,1.16,0,0,0,.641.674Z" transform="translate(-354.585 -109.668)" fill="#f4e4d5"/>
                <path id="Trazado_34486" data-name="Trazado 34486" d="M355.855,124.2a1.105,1.105,0,0,1-.386-.067l.057-.156a1.161,1.161,0,0,0,.926-.1,3.57,3.57,0,0,0,1.6-2.166,10.818,10.818,0,0,0,.239-2.62,8.919,8.919,0,0,1,.252-2.521l2.4-6.517-.252-.094.057-.156.409.151-2.458,6.674a8.845,8.845,0,0,0-.242,2.467,10.907,10.907,0,0,1-.247,2.664,3.731,3.731,0,0,1-1.681,2.267A1.5,1.5,0,0,1,355.855,124.2Z" transform="translate(-354.537 -109.66)" fill="#f4e4d5"/>
                <path id="Trazado_34487" data-name="Trazado 34487" d="M355.495,124.143a.654.654,0,0,1-.361-.378,4.46,4.46,0,0,1,.356-3A15.759,15.759,0,0,1,356.8,118.5a12.741,12.741,0,0,0,1.216-2.118l2.458-6.674.293.108-.057.156-.137-.051-2.4,6.518a12.8,12.8,0,0,1-1.232,2.151,15.619,15.619,0,0,0-1.3,2.237,4.37,4.37,0,0,0-.357,2.872.493.493,0,0,0,.265.288Z" transform="translate(-354.562 -109.666)" fill="#f4e4d5"/>
                <path id="Trazado_34488" data-name="Trazado 34488" d="M355.657,124.172a.51.51,0,0,1-.184-.033l-.078-.028,5.275-14.327.372.137-2.458,6.674a12.832,12.832,0,0,0-.447,2.4,15.781,15.781,0,0,1-.469,2.574,4.455,4.455,0,0,1-1.676,2.516A.776.776,0,0,1,355.657,124.172Zm-.044-.17a.562.562,0,0,0,.307-.066,4.362,4.362,0,0,0,1.59-2.418,15.846,15.846,0,0,0,.463-2.545,12.91,12.91,0,0,1,.456-2.436l2.4-6.517-.059-.022Z" transform="translate(-354.541 -109.662)" fill="#f4e4d5"/>
              </g>
              <path id="Trazado_34489" data-name="Trazado 34489" d="M360.577,107.911l-2.475,6.721,1.342.494,2.489-6.76Z" transform="translate(-354.393 -107.911)" fill="#dc9068"/>
            </g>
            <g id="Grupo_17836" data-name="Grupo 17836" transform="translate(0 23.159)">
              <g id="Grupo_17835" data-name="Grupo 17835" transform="translate(15.683)">
                <path id="Trazado_34490" data-name="Trazado 34490" d="M352.369,104.071c-.457-.8-.312-1.248-.159-1.335l1.345-.767,1.261-.72c.153-.088.612.016,1.068.816.542.95.185,1.907.481,2.426.193.339,1.118,1.2.978,1.283l-2.523,1.438c-.14.08-.414-1.155-.607-1.493C353.916,105.2,352.911,105.022,352.369,104.071Z" transform="translate(-352.061 -101.224)" fill="#f4e4d5"/>
                <path id="Rectángulo_4430" data-name="Rectángulo 4430" d="M.972,0H2.186a.972.972,0,0,1,.972.972v.057a.068.068,0,0,1-.068.068H.068A.068.068,0,0,1,0,1.029V.972A.972.972,0,0,1,.972,0Z" transform="matrix(-0.869, 0.496, -0.496, -0.869, 5.794, 5.193)" fill="#0f423b"/>
              </g>
              <path id="Trazado_34491" data-name="Trazado 34491" d="M344.957,112.452a65.178,65.178,0,0,0,6.865-5.179c1.049-.863-.442-3.788-2.255-3.327-4.466,1.136-8.933,1.914-11,4.974-1.217,1.8-1.744,2.388-1.106,3.591C338.554,114.566,341.2,114.753,344.957,112.452Z" transform="translate(-337.189 -101.078)" fill="#f9c28f"/>
              <path id="Trazado_34492" data-name="Trazado 34492" d="M346.746,104.707l3.51-1.19a8.775,8.775,0,0,1,2.8-1.6c1.494-.455,3.8-.033,4.158,1.12s-.29.888-.928,1.1-1.8,1.586-2.842,1.81c0,0-.3.214-1.155.77s-3.57,2.538-3.57,2.538A4.153,4.153,0,0,1,346.746,104.707Z" transform="translate(-336.675 -101.195)" fill="#f9c28f"/>
            </g>
            <g id="Grupo_17837" data-name="Grupo 17837" transform="translate(19.865 26.543)">
              <path id="Trazado_34493" data-name="Trazado 34493" d="M370.055,111.72a66.028,66.028,0,0,1-8.221,2.628c-1.314.343-2.768-2.269-1.332-3.466,3.542-2.949,7.712-6.238,10.445-6.407,2.169-.135,2.957-.011,3.556,1.213C375.525,107.778,374.123,110.032,370.055,111.72Z" transform="translate(-355.815 -104.432)" fill="#f9c28f"/>
              <path id="Trazado_34494" data-name="Trazado 34494" d="M363.4,108.534s-3.363,2.086-4.608,3.03a4.117,4.117,0,0,0-1.358,4.136,1.448,1.448,0,0,0,2.25.742c.545-.393,1.139-1.879,2.09-2.243s4.151-1.4,4.151-1.4A4.154,4.154,0,0,0,363.4,108.534Z" transform="translate(-355.958 -104.208)" fill="#f9c28f"/>
              <path id="Trazado_34495" data-name="Trazado 34495" d="M357.854,112.736c-.394.417-2.028,4.363-1.806,5.161s1.382-.671,2.241-2.485S358.845,111.688,357.854,112.736Z" transform="translate(-356.027 -103.995)" fill="#f9c28f"/>
            </g>
          </g>
          <g id="Grupo_17842" data-name="Grupo 17842" transform="translate(0 42.284)">
            <path id="Trazado_34496" data-name="Trazado 34496" d="M368.113,119.891s-1.849,6.925-4.268,6.925h-12.8c-2.418,0-4.268-6.925-4.268-6.925Z" transform="translate(-326.692 -119.33)" fill="#ec4c30"/>
            <g id="Grupo_17839" data-name="Grupo 17839" transform="translate(10.2)">
              <rect id="Rectángulo_4431" data-name="Rectángulo 4431" width="4.495" height="6.638" transform="translate(0.505 0.849)" fill="#f29f6e"/>
              <rect id="Rectángulo_4432" data-name="Rectángulo 4432" width="5.506" height="1.32" fill="#ec4c30"/>
            </g>
            <g id="Grupo_17841" data-name="Grupo 17841" transform="translate(37.052 1.257)">
              <path id="Trazado_34497" data-name="Trazado 34497" d="M365.167,124.276l.84.422-.208.281.374.193-.628.329.857.157-.681.6.3.369-.953.1,1.017.695-.9.533c-1.041-.472-2.458-1.548-2.307-2.373C363,124.917,364.135,124.463,365.167,124.276Z" transform="translate(-362.865 -120.348)" fill="#f4e4d5"/>
              <path id="Trazado_34498" data-name="Trazado 34498" d="M370.922,125.775c-.3,1.66-1.931,1.778-2.931,1.507a3.76,3.76,0,0,1-.507-.188l.9-.533-1.017-.695.953-.1-.294-.369.681-.6-.858-.157.63-.328-.374-.194.207-.281-.839-.422a4.688,4.688,0,0,1,1.248-.085C369.747,123.434,371.226,124.121,370.922,125.775Z" transform="translate(-362.62 -120.4)" fill="#f4e4d5"/>
              <path id="Trazado_34499" data-name="Trazado 34499" d="M376.64,126.39c-1.686,0-2.1-1.578-2.01-2.61s1.025-3.229,2.01-3.229,1.92,2.2,2.007,3.229S378.323,126.39,376.64,126.39Z" transform="translate(-362.224 -120.551)" fill="#f4e4d5"/>
              <path id="Trazado_34500" data-name="Trazado 34500" d="M380.956,126.39c-1.686,0-2.1-1.578-2.01-2.61s1.025-3.229,2.01-3.229,1.92,2.2,2.007,3.229S382.639,126.39,380.956,126.39Z" transform="translate(-361.988 -120.551)" fill="#f4e4d5"/>
              <path id="Trazado_34501" data-name="Trazado 34501" d="M385.272,126.39c-1.686,0-2.1-1.578-2.01-2.61s1.025-3.229,2.01-3.229,1.92,2.2,2.007,3.229S386.955,126.39,385.272,126.39Z" transform="translate(-361.753 -120.551)" fill="#f4e4d5"/>
              <g id="Grupo_17840" data-name="Grupo 17840" transform="translate(7.586 2.983)">
                <path id="Trazado_34502" data-name="Trazado 34502" d="M374.611,123.38s-.293,3.553-2.274,3.553-2.278-3.553-2.278-3.553Z" transform="translate(-370.059 -123.38)" fill="#0f423b"/>
                <path id="Trazado_34503" data-name="Trazado 34503" d="M378.927,123.38s-.293,3.553-2.274,3.553-2.278-3.553-2.278-3.553Z" transform="translate(-369.823 -123.38)" fill="#0f423b"/>
                <path id="Trazado_34504" data-name="Trazado 34504" d="M383.243,123.38s-.293,3.553-2.274,3.553-2.278-3.553-2.278-3.553Z" transform="translate(-369.588 -123.38)" fill="#0f423b"/>
                <path id="Trazado_34505" data-name="Trazado 34505" d="M387.559,123.38s-.293,3.553-2.274,3.553-2.278-3.553-2.278-3.553Z" transform="translate(-369.352 -123.38)" fill="#0f423b"/>
              </g>
            </g>
            <rect id="Rectángulo_4433" data-name="Rectángulo 4433" width="64.261" height="2.081" transform="translate(0 7.487)" fill="#dc9068"/>
          </g>
        </g>
      </g>
    </g>
  </g>
</svg>
