<svg xmlns="http://www.w3.org/2000/svg" xmlns:xlink="http://www.w3.org/1999/xlink" width="548.524" height="272.27" viewBox="0 0 548.524 272.27">
  <defs>
    <clipPath id="clip-path">
      <path id="Trazado_28702" data-name="Trazado 28702" d="M368.036,153.733a39.435,39.435,0,0,0-.565,12.026s-5.709-3.462-6,4.282c-.214,5.67,5.3,9.613,7.611,6.78,0,0,1.89,8.947,5.762,10.531l.215,5.721s1.367,9.167,10.5,11.715c0,0,8.656-1.684,11.472-11.831l.62-7.741a20.011,20.011,0,0,0,6.083-9.13s2.383,3.027,6.224-4.583c3.585-7.1-2.393-10.852-5.312-5.554a26.72,26.72,0,0,0-.8-17.027C400.491,140.762,371.626,138.775,368.036,153.733Z" transform="translate(-361.464 -142.626)" fill="none"/>
    </clipPath>
    <clipPath id="clip-path-2">
      <path id="Trazado_28709" data-name="Trazado 28709" d="M109.961,123.8s10.473,7.621,5.373,19.382-13.288,25.877-20.589,19.608c0,0-.658,1.445-1.475,3.743-.506,1.419,4.416,7.668,1.573,10.365-7.5,7.125-24.769-5.273-18.354-16.492l1.881-8.842s-9.929-13.751-1.4-28.106C80.9,116.844,99.811,111.508,109.961,123.8Z" transform="translate(-73.51 -116.421)" fill="none"/>
    </clipPath>
    <clipPath id="clip-path-3">
      <path id="Trazado_28726" data-name="Trazado 28726" d="M132.753,167.507s-11.774-10.76-21.69-2.405-16.4,26.233-16.4,26.233l25.924,9.56-8.267,16.694s18.048-4.6,43.682,7.5c0,0-1.128-12.539.914-22.1s.524-23.474.524-23.474l-2.683-6.116-4.56-2.728Z" transform="translate(-94.658 -161.924)" fill="#2e2828"/>
    </clipPath>
    <clipPath id="clip-path-4">
      <path id="Trazado_28729" data-name="Trazado 28729" d="M125.234,174.3a32.968,32.968,0,0,1-5.117-4.834c-2.656,7.5-11.342-4.17-10.115-7.988s5.895-.577,5.895-.577c-8.592-21.049,19.809-27.084,25.7-24.289s7.608,11.472,7.608,11.472c.512-5.231,6.219-4.6,5.958,3.019s-2.6,6.518-2.6,6.518.538,12.779-7.267,18.648c-.174,7.176-4.618,12.931-10.065,12.931-5.558,0-10.07-5.991-10.07-13.368Q125.168,175.055,125.234,174.3Z" transform="translate(-109.884 -135.973)" fill="none"/>
    </clipPath>
  </defs>
  <g id="Grupo_16937" data-name="Grupo 16937" transform="translate(-47 -24)">
    <g id="Grupo_16936" data-name="Grupo 16936" transform="translate(47 24)">
      <g id="Grupo_16846" data-name="Grupo 16846" transform="translate(14.437 87.046)">
        <path id="Trazado_28655" data-name="Trazado 28655" d="M547.272,234.79c-.336,10.3-3.582,20.257-6.8,30.048l-9.99-.1L83.446,260.493l-16.686-.158c-13.92-15.457-10.966-42.858,5.931-54.993,10.469-7.517,24.477-9.356,34.037-18,19.113-17.274,12.8-54.017,35.117-66.886,13.619-7.855,30.961-2.1,44.679,5.586s27.433,17.485,43.155,17.562c20.291.1,36.556-15.772,51.3-29.715s33.826-27.915,53.5-22.971c17.11,4.3,27.409,21.14,36.9,36.009s22.744,30.638,40.384,30.467c14.008-.136,25.494-10.374,37.12-18.184s27.98-13.314,38.917-4.562c14.657,11.728,6.221,37.429,18.022,52.029,7.822,9.682,22.155,11.436,31.267,19.912C544.637,213.607,547.609,224.487,547.272,234.79Z" transform="translate(-57.93 -89.902)" fill="#cbebfb"/>
        <path id="Trazado_28656" data-name="Trazado 28656" d="M524.3,255.546,77.261,251.3A30.727,30.727,0,0,1,80.269,236.1c5.682-11.513,16.8-19.21,27.637-26.1s22.242-13.845,29.139-24.676c4.727-7.423,6.985-16.171,11.39-23.792s12.193-14.445,20.953-13.568c12.534,1.256,18.283,16.246,28.681,23.355,12.552,8.578,30.222,4.126,42.431-4.932s20.994-21.925,32.115-32.293,26.478-18.471,41.158-14.516c28.322,7.631,31.56,51.035,58.313,63.065,27.945,12.565,62.728-17.114,89.716-2.6,9.983,5.369,16.145,15.651,24.1,23.726,9.728,9.873,22.439,16.682,31.024,27.565C522.2,238.021,525.243,247.346,524.3,255.546Z" transform="translate(-51.744 -80.705)" fill="#b6e4f9"/>
      </g>
      <rect id="Rectángulo_4357" data-name="Rectángulo 4357" width="509.874" height="14.163" transform="translate(0 253.926)" fill="#1d1213"/>
      <path id="Trazado_28657" data-name="Trazado 28657" d="M222.394,76.626s18.211-25.292,25.292-24.28,29.339,8.093,31.362,10.116,1.01,31.361,1.01,31.361Z" transform="translate(9.274 -14.914)" fill="#3c5b87"/>
      <ellipse id="Elipse_1135" data-name="Elipse 1135" cx="23.082" cy="47.859" rx="23.082" ry="47.859" transform="translate(209.276 85.26) rotate(-79.359)" fill="#5d77a6"/>
      <g id="Grupo_16887" data-name="Grupo 16887" transform="translate(160.673 57.605)">
        <g id="Grupo_16866" data-name="Grupo 16866" transform="translate(52.69)">
          <g id="Grupo_16856" data-name="Grupo 16856" transform="translate(18.481)">
            <g id="Grupo_16853" data-name="Grupo 16853">
              <g id="Grupo_16847" data-name="Grupo 16847" transform="translate(2.757 41.349)">
                <path id="Trazado_28658" data-name="Trazado 28658" d="M262.071,98.917s-.538,21.626.664,25.442,16.184,11.864,20.489,19.916-60.479-9.2-58.569-21.5c0,0,12.2,11.744,10.178-14.56C234.4,102.548,262.071,98.917,262.071,98.917Z" transform="translate(-224.614 -98.917)" fill="#8e3a38"/>
                <path id="Trazado_28659" data-name="Trazado 28659" d="M262.064,98.917s-.538,21.626.664,25.442,16.184,11.864,20.489,19.916-59.591-9.811-58.569-21.5c0,0,12.2,14.778,10.178-14.56C234.435,102.545,262.064,98.917,262.064,98.917Z" transform="translate(-224.606 -98.917)" fill="#601b1b" opacity="0.5"/>
              </g>
              <g id="Grupo_16849" data-name="Grupo 16849">
                <g id="Grupo_16848" data-name="Grupo 16848" transform="translate(0 16.376)">
                  <path id="Trazado_28660" data-name="Trazado 28660" d="M227.894,80.01s-4.165-.063-4.984,2.963c-1.774,6.553,3.179,14.371,3.179,14.371Z" transform="translate(-222.527 -80.01)" fill="#fff"/>
                  <path id="Trazado_28661" data-name="Trazado 28661" d="M227.894,80.01s-4.165-.063-4.984,2.963c-1.774,6.553,3.179,14.371,3.179,14.371Z" transform="translate(-222.527 -80.01)" fill="#edf0f4"/>
                </g>
                <path id="Trazado_28662" data-name="Trazado 28662" d="M265.15,91.912s.053-16.94-10.259-22.185-26.249-.664-28.849,13.018-5.289,39.788,15.966,41.9c22.194,2.207,23.845-12.338,24.183-17.676C266.392,103.824,265.15,91.912,265.15,91.912Z" transform="translate(-221.956 -67.612)" fill="#8e3a38"/>
              </g>
              <g id="Grupo_16852" data-name="Grupo 16852" transform="translate(36.027 5.938)">
                <g id="Grupo_16850" data-name="Grupo 16850" transform="translate(3.655 12.586)">
                  <path id="Trazado_28663" data-name="Trazado 28663" d="M254.888,89.672s1.075-9.176,6.781-7.917,2.186,20.962-5.336,16.36S254.888,89.672,254.888,89.672Z" transform="translate(-252.569 -81.636)" fill="#8e3a38"/>
                </g>
                <g id="Grupo_16851" data-name="Grupo 16851">
                  <path id="Trazado_28664" data-name="Trazado 28664" d="M257.714,98.386s-1.38-7.966-.211-10.067,5.409-5.884,7.551-.158a2.7,2.7,0,0,0,3.339-1.137c1.372-2.031-2.916-1.445-2.916-1.445s5.458-2.688,3.845-5.962-5.139-4.928-7.266-2.016c0,0,4.643-2.965,1.593-4.684s-5.64-.782-6.007,3.636c0,0-.313-4.424-4.814-2.545s-3.058,11-1.519,15.158,1.849,9.262,2.322,9.876S257.706,99.747,257.714,98.386Z" transform="translate(-249.802 -72.108)" fill="#fff"/>
                  <path id="Trazado_28665" data-name="Trazado 28665" d="M262.951,85.555s5.458-2.688,3.845-5.962c-1.261-2.561-3.692-4.12-5.709-3.289.993-1.012,1.8-2.418.036-3.41a6.365,6.365,0,0,0-1.819-.712c.893,2.1.633,4.424-1.633,5.756a8.1,8.1,0,0,1,2,5.632,4.385,4.385,0,0,1-.456,1.547c1.219-.065,2.438.689,3.31,3.021A2.7,2.7,0,0,0,265.868,87C267.24,84.968,262.951,85.555,262.951,85.555Z" transform="translate(-247.278 -72.084)" fill="#edf0f4"/>
                </g>
              </g>
            </g>
            <g id="Grupo_16855" data-name="Grupo 16855" transform="translate(13.165 31.522)">
              <g id="Grupo_16854" data-name="Grupo 16854">
                <path id="Trazado_28666" data-name="Trazado 28666" d="M232.494,91.477" transform="translate(-232.494 -91.477)" fill="none" stroke="#601b1b" stroke-miterlimit="10" stroke-width="0.881"/>
              </g>
            </g>
          </g>
          <g id="Grupo_16865" data-name="Grupo 16865" transform="translate(0 52.644)">
            <g id="Grupo_16857" data-name="Grupo 16857" transform="translate(7.48 103.568)">
              <path id="Trazado_28667" data-name="Trazado 28667" d="M295.355,187.088s4.589,23.73,5.448,38.653H214.2l4.875-39.862Z" transform="translate(-214.198 -185.879)" fill="#2f3f5c"/>
              <path id="Trazado_28668" data-name="Trazado 28668" d="M223.846,208.854a231.828,231.828,0,0,0,29.866-.062c14.832-.819,30.28-2.7,43.163-10.157-1.108-6.7-2.046-11.547-2.046-11.547l-76.281-1.209-2.709,22.145Q219.826,208.555,223.846,208.854Z" transform="translate(-213.672 -185.879)" fill="#0d1726" opacity="0.4"/>
            </g>
            <g id="Grupo_16864" data-name="Grupo 16864">
              <g id="Grupo_16861" data-name="Grupo 16861">
                <g id="Grupo_16858" data-name="Grupo 16858" transform="translate(0 3.622)">
                  <path id="Trazado_28669" data-name="Trazado 28669" d="M249.137,125.2s-9.678-7.314-13.334-7.314-19.143,4.3-20.649,10.325-16.991,65.6,5.377,83.666,69.687,7.1,77.86,1.935,8.173-85.387,1.075-90.763-19.788-12.045-24.734-12.691S265.483,110.574,249.137,125.2Z" transform="translate(-208.535 -110.21)" fill="#5d77a6"/>
                  <path id="Trazado_28670" data-name="Trazado 28670" d="M237.287,167.642s4.589,4.874-.287,10.9-11.758,13.765-19.5,12.9l-2.868-2.008S230.977,176.531,237.287,167.642Z" transform="translate(-206.579 -91.784)" fill="#3c5b87"/>
                </g>
                <g id="Grupo_16860" data-name="Grupo 16860" transform="translate(19.525)">
                  <g id="Grupo_16859" data-name="Grupo 16859">
                    <path id="Trazado_28671" data-name="Trazado 28671" d="M244.394,123.975s-7.743-9.464-12.9-9.894-8.172,1.936-8.172,4.517C223.317,118.6,235.146,122.038,244.394,123.975Z" transform="translate(-223.317 -105.363)" fill="#3c5b87"/>
                    <path id="Trazado_28672" data-name="Trazado 28672" d="M270.031,112.96a13.836,13.836,0,0,0-7.312-5.377c-4.948-1.506-21.939,12.26-23.445,18.5C239.274,126.08,263.148,112.314,270.031,112.96Z" transform="translate(-218.197 -107.469)" fill="#3c5b87"/>
                  </g>
                </g>
              </g>
              <g id="Grupo_16863" data-name="Grupo 16863" transform="translate(53.831 15.484)">
                <path id="Trazado_28673" data-name="Trazado 28673" d="M256.933,182.326c-4.875,3.442-4.589,16.06,1.146,26.1,0,0,46.393-9.6,52.463-26.8s-13.109-64.081-27.8-62.39c-9.8,1.128-9.75,5.162-12.045,17.78l11.518,37.529-24.279,7.081" transform="translate(-247.937 -119.191)" fill="#8e3a38"/>
                <g id="Grupo_16862" data-name="Grupo 16862" transform="translate(0 61.986)">
                  <path id="Trazado_28674" data-name="Trazado 28674" d="M259.433,166.123s-8.029-.287-9.75,5.735,1.721,26.1,20.362,26.671c0,0-13.766-15.774-13.479-22.942S259.433,166.123,259.433,166.123Z" transform="translate(-249.29 -166.12)" fill="#3c5b87"/>
                </g>
              </g>
            </g>
          </g>
        </g>
        <g id="Grupo_16886" data-name="Grupo 16886" transform="translate(0 32.066)">
          <g id="Grupo_16876" data-name="Grupo 16876" transform="translate(7.11)">
            <g id="Grupo_16874" data-name="Grupo 16874">
              <g id="Grupo_16869" data-name="Grupo 16869">
                <path id="Trazado_28675" data-name="Trazado 28675" d="M198.854,108.988s-4.227-7.806-8.918-4.832,5.12,8.173,5.12,8.173-9.32-11.516-16.919-4.832-.073,13.725,12.2,10.1-14.914-4.652-14.088,3.936,10.2,5.655,15.244,1.063-15.4,3.535-10.354,10.058,11.23-1.791,13.293-5.567-6.4,5.755.2,6.719,11.829-5.01,11.9-11.981S198.854,108.988,198.854,108.988Z" transform="translate(-173.687 -88.17)" fill="#edf0f4"/>
                <g id="Grupo_16867" data-name="Grupo 16867" transform="translate(0 27.898)">
                  <path id="Trazado_28676" data-name="Trazado 28676" d="M202.029,113.01s-3.047,18.533-7.635,19.967-15.2-4.875-20.074,4.587,52.48,11.758,52.48,11.758.86-9.75-12.045-11.184.86-11.758.86-11.758Z" transform="translate(-174.026 -113.01)" fill="#8e3a38"/>
                  <path id="Trazado_28677" data-name="Trazado 28677" d="M196.766,129.921a10.816,10.816,0,0,0,5.945,5.154c-.532-3.531,6.349-8.694,6.349-8.694L195.474,113.01s-.359,2.189-1.018,5.12C194.53,122.179,194.893,126.422,196.766,129.921Z" transform="translate(-167.472 -113.01)" fill="#601b1b" opacity="0.5"/>
                </g>
                <g id="Grupo_16868" data-name="Grupo 16868" transform="translate(23.143)">
                  <path id="Trazado_28678" data-name="Trazado 28678" d="M227.2,101.462s-7.831-12.516-21.783-8.926-15.08,17.236-13.132,22.672S227.2,101.462,227.2,101.462Z" transform="translate(-191.548 -91.889)" fill="#fff"/>
                  <path id="Trazado_28679" data-name="Trazado 28679" d="M206.265,92.23c-.28.059-.563.124-.848.2-13.952,3.591-15.08,17.236-13.132,22.672.734,2.046,5.857.606,11.963-1.985C201.288,107,202.3,98.1,206.265,92.23Z" transform="translate(-191.548 -91.78)" fill="#edf0f4"/>
                </g>
              </g>
              <g id="Grupo_16873" data-name="Grupo 16873" transform="translate(21.976 3.341)">
                <g id="Grupo_16870" data-name="Grupo 16870" transform="translate(0 6.19)">
                  <path id="Trazado_28680" data-name="Trazado 28680" d="M208.114,138.234s-15.343-3.6-12.9-21.374c2.3-16.808,14.85-21.115,27.746-15.309,13.549,6.1,5.233,24.2,2.8,28.006S216.825,140.562,208.114,138.234Z" transform="translate(-189.29 -99.105)" fill="#8e3a38"/>
                  <path id="Trazado_28681" data-name="Trazado 28681" d="M197.766,111.695s-.322-6.345-4.624-5.162-2.795,15.808,2.9,13.12S197.766,111.695,197.766,111.695Z" transform="translate(-190.664 -96.769)" fill="#8e3a38"/>
                </g>
                <g id="Grupo_16872" data-name="Grupo 16872" transform="translate(6.351)">
                  <path id="Trazado_28682" data-name="Trazado 28682" d="M196.1,112.2s-.967,4.516.968,4.947,2.689-2.8,2.689-6.452c0,0-.108,1.613,1.29,1.613s1.506-5.7-1.4-7.312S196.1,112.2,196.1,112.2Z" transform="translate(-195.348 -91.087)" fill="#fff"/>
                  <g id="Grupo_16871" data-name="Grupo 16871">
                    <path id="Trazado_28683" data-name="Trazado 28683" d="M195.472,112.738l.645,3.226s7.636-14.2,18.6-13.98,14.948,8.173,15.487,10.646c0,0,.4-13.09-9.894-17.207C210.1,91.338,196.117,100.227,195.472,112.738Z" transform="translate(-195.472 -94.418)" fill="#ffc330"/>
                    <path id="Trazado_28684" data-name="Trazado 28684" d="M201.874,98.469a18.94,18.94,0,0,0-6.4,12.969l.645,3.226a38.218,38.218,0,0,1,5.171-7.051C200.779,104.5,201.462,101.514,201.874,98.469Z" transform="translate(-195.472 -93.119)" fill="#d28800" opacity="0.5"/>
                  </g>
                </g>
              </g>
            </g>
            <g id="Grupo_16875" data-name="Grupo 16875" transform="translate(23.379 21.319)">
              <path id="Trazado_28685" data-name="Trazado 28685" d="M195.706,117.511s-3.334-2.473.645-2.9c0,0,.108-6.237-2.259-6.561s-2.366,3.764-2.366,3.764" transform="translate(-191.726 -108.029)" fill="none" stroke="#601b1b" stroke-miterlimit="10" stroke-width="1.763"/>
            </g>
          </g>
          <g id="Grupo_16885" data-name="Grupo 16885" transform="translate(0 46.85)">
            <g id="Grupo_16877" data-name="Grupo 16877" transform="translate(0 44.68)">
              <path id="Trazado_28686" data-name="Trazado 28686" d="M183.216,168.852s-24.088,25.38-10.324,64.955h69.687s.861-38.715-13.335-61.513S183.216,168.852,183.216,168.852Z" transform="translate(-168.644 -161.185)" fill="#ff735c"/>
              <path id="Trazado_28687" data-name="Trazado 28687" d="M187.276,181.349c5.709,1.38,11.68,1.87,17.483,2.768,9.184,1.42,18.874,2.746,28.435,2.679a68.89,68.89,0,0,0-6.621-14.5c-14.2-22.8-46.028-3.442-46.028-3.442a40.226,40.226,0,0,0-3.577,4.626C178.566,177.773,182.48,180.188,187.276,181.349Z" transform="translate(-165.973 -161.185)" fill="#cc4036" opacity="0.6"/>
            </g>
            <g id="Grupo_16884" data-name="Grupo 16884" transform="translate(3.1)">
              <g id="Grupo_16881" data-name="Grupo 16881" transform="translate(0.788)">
                <g id="Grupo_16878" data-name="Grupo 16878" transform="translate(55.708 10.765)">
                  <path id="Trazado_28688" data-name="Trazado 28688" d="M216.057,162.9l9.033-1.721s-1.935-18.926-11.328-25.665Z" transform="translate(-213.763 -135.509)" fill="#ffc330"/>
                  <path id="Trazado_28689" data-name="Trazado 28689" d="M220.472,142.7a20.981,20.981,0,0,1-2.054,3.224,17.148,17.148,0,0,1-3.38,3.519c-.077.055-.157.1-.235.155l.921,11,9.033-1.721A60.347,60.347,0,0,0,220.472,142.7Z" transform="translate(-213.429 -133.203)" fill="#d28800" opacity="0.5"/>
                </g>
                <g id="Grupo_16879" data-name="Grupo 16879">
                  <path id="Trazado_28690" data-name="Trazado 28690" d="M184.279,183.721s-15.2-31.546-12.331-43.3,8.029-14.624,18.354-12.33c0,0,4.587,8.889,13.478,9.749s11.758-4.3,11.758-4.3,8.029,1.433,11.757,4.589c0,0,11.758,28.677.575,33.266l-.861,18.067S197.184,191.75,184.279,183.721Z" transform="translate(-171.587 -127.359)" fill="#ffc330"/>
                  <path id="Trazado_28691" data-name="Trazado 28691" d="M229.16,160.248c-19.572,5.592-45.383-22.369-45.383-22.369L173.4,133.7a36.4,36.4,0,0,0-1.448,4.677c-2.868,11.758,12.331,43.3,12.331,43.3,12.9,8.029,42.729,5.735,42.729,5.735l.861-18.067c3.7-1.518,4.887-5.674,4.822-10.555A16.007,16.007,0,0,1,229.16,160.248Z" transform="translate(-171.587 -125.323)" fill="#d28800" opacity="0.5"/>
                </g>
                <g id="Grupo_16880" data-name="Grupo 16880" transform="translate(24.45 36.861)">
                  <path id="Trazado_28692" data-name="Trazado 28692" d="M190.1,161.718l1.29,3.012,18.712,9.893s20.647,1.506,22.368-3.441c1.139-3.276-1.506-15.916-1.506-15.916l-4.517.86s-1.29,5.521-4.516,6.31S190.1,161.718,190.1,161.718Z" transform="translate(-190.098 -155.266)" fill="#8e3a38"/>
                  <path id="Trazado_28693" data-name="Trazado 28693" d="M190.1,161.718l1.29,3.012,18.712,9.893s20.647,1.506,22.368-3.441c1.139-3.276-1.506-15.916-1.506-15.916l-4.517.86s-1.29,5.521-4.516,6.31S190.1,161.718,190.1,161.718Z" transform="translate(-190.098 -155.266)" fill="#601b1b" opacity="0.5"/>
                </g>
              </g>
              <g id="Grupo_16883" data-name="Grupo 16883" transform="translate(0 0.268)">
                <g id="Grupo_16882" data-name="Grupo 16882" transform="translate(4.877 30.572)">
                  <path id="Trazado_28694" data-name="Trazado 28694" d="M174.683,154.721a158.892,158.892,0,0,0,19.213-4.014s2.581,14.624,3.442,15.2,34.746,9.735,35.607,10.882,2.516,7.156,1.655,9.164-10.489-2.872-10.489-2.872-31.076-.543-39.1-3.41S174.683,154.721,174.683,154.721Z" transform="translate(-174.683 -150.707)" fill="#8e3a38"/>
                  <path id="Trazado_28695" data-name="Trazado 28695" d="M195,156.6c-.618-3.156-1.1-5.9-1.1-5.9a158.892,158.892,0,0,1-19.213,4.014s.094.9.309,2.359A51.116,51.116,0,0,0,195,156.6Z" transform="translate(-174.683 -150.707)" fill="#601b1b" opacity="0.5"/>
                </g>
                <path id="Trazado_28696" data-name="Trazado 28696" d="M173.645,163.08s15.486-.861,23.444-4.947c0,0-5.591-29.682-14.626-30.542S167.192,144.8,173.645,163.08Z" transform="translate(-170.991 -127.562)" fill="#ffc330"/>
              </g>
            </g>
          </g>
        </g>
        <path id="Trazado_28697" data-name="Trazado 28697" d="M305.086,147.475s-9.1-37.431-36.42-27.315c0,0-6.069,6.071-4.046,24.28s6.069,18.211,6.069,18.211Z" transform="translate(-137.982 -51.309)" fill="#3c5b87"/>
        <path id="Trazado_28698" data-name="Trazado 28698" d="M271.9,154.3l27.679-13.111,3.885,8.741-29.621,7.77Z" transform="translate(-135.513 -44.007)" fill="#601b1b" opacity="0.5"/>
        <circle id="Elipse_1136" data-name="Elipse 1136" cx="2.023" cy="2.023" r="2.023" transform="translate(92.241 74.922)" fill="#3c5b87"/>
        <circle id="Elipse_1137" data-name="Elipse 1137" cx="2.023" cy="2.023" r="2.023" transform="translate(92.241 83.015)" fill="#3c5b87"/>
        <circle id="Elipse_1138" data-name="Elipse 1138" cx="2.023" cy="2.023" r="2.023" transform="translate(92.241 90.097)" fill="#3c5b87"/>
      </g>
      <g id="Grupo_16896" data-name="Grupo 16896" transform="translate(396.676 143.655)">
        <g id="Grupo_16888" data-name="Grupo 16888" transform="translate(0 57.264)">
          <path id="Trazado_28699" data-name="Trazado 28699" d="M389.85,179.193s-30.5-4.515-37.3,6.188-5.023,44.445-5.023,44.445l60.389.032,44.5-.407s-1.442-36.311-12.21-44.032C433.064,180.3,419.487,171.378,389.85,179.193Z" transform="translate(-347.319 -176.114)" fill="#ffa539" fill-rule="evenodd"/>
        </g>
        <g id="Grupo_16895" data-name="Grupo 16895" transform="translate(17.624)">
          <g id="Grupo_16892" data-name="Grupo 16892" transform="translate(1.06 13.031)">
            <path id="Trazado_28700" data-name="Trazado 28700" d="M368.036,153.733a39.435,39.435,0,0,0-.565,12.026s-5.709-3.462-6,4.282c-.214,5.67,5.3,9.613,7.611,6.78,0,0,1.89,8.947,5.762,10.531l.215,5.721s1.367,9.167,10.5,11.715c0,0,8.656-1.684,11.472-11.831l.62-7.741a20.011,20.011,0,0,0,6.083-9.13s2.383,3.027,6.224-4.583c3.585-7.1-2.393-10.852-5.312-5.554a26.72,26.72,0,0,0-.8-17.027C400.491,140.762,371.626,138.775,368.036,153.733Z" transform="translate(-361.464 -142.626)" fill="#ffb3aa" fill-rule="evenodd"/>
            <g id="Grupo_16891" data-name="Grupo 16891">
              <g id="Grupo_16890" data-name="Grupo 16890" clip-path="url(#clip-path)">
                <g id="Grupo_16889" data-name="Grupo 16889" transform="translate(10.198 39.372)">
                  <path id="Trazado_28701" data-name="Trazado 28701" d="M369.185,176.529s7.232,3.733,14.235,4.021c6.822.281,15.948-8.115,15.948-8.115s-6.68,13.009-15.6,13.1C375.3,185.617,369.185,176.529,369.185,176.529Z" transform="translate(-369.185 -172.434)" fill="#601b1b" fill-rule="evenodd"/>
                </g>
              </g>
            </g>
          </g>
          <g id="Grupo_16893" data-name="Grupo 16893">
            <path id="Trazado_28703" data-name="Trazado 28703" d="M401.035,154.339s-5.631,6.88-17.27,2.216c0,0-6.784,7.027-18.78,1.018,0,0-11.2-9.172,2.454-20.747s16.693,5.644,26.416,1.659,15.2,5.187,14.3,8.706c0,0,9.188,5.485.9,19.568,0,0-2.7-.712-4.221,2.874l-.236,2.1S396.936,166.181,401.035,154.339Z" transform="translate(-360.662 -132.76)" fill="#cf6223" fill-rule="evenodd"/>
          </g>
          <g id="Grupo_16894" data-name="Grupo 16894" transform="translate(3.144 23.058)">
            <path id="Trazado_28704" data-name="Trazado 28704" d="M365.047,150.217l2.362,2.61c-.736,3.639-.174,11.152-.174,11.152-.692-1.227-3.068-1.379-3.068-1.379C361.2,152.824,365.047,150.217,365.047,150.217Z" transform="translate(-363.043 -150.217)" fill="#cf6223" fill-rule="evenodd"/>
          </g>
        </g>
      </g>
      <g id="Grupo_16913" data-name="Grupo 16913" transform="translate(13.209 104.17)">
        <path id="Trazado_28705" data-name="Trazado 28705" d="M116.171,228.479s6.508-21.647-5.887-50.131l-8.74.767Z" transform="translate(-42.709 -78.648)" fill="#ffb2aa" fill-rule="evenodd"/>
        <g id="Grupo_16897" data-name="Grupo 16897" transform="translate(0 62.409)">
          <path id="Trazado_28706" data-name="Trazado 28706" d="M94.265,152.071s16.352,8.35,18.362,12.942c13.063,29.838,18.183,72.448,18.183,72.448l-62.059.292L82.1,217.1s-18.876-21.577-22.178-25.368a12.878,12.878,0,0,0-2.038.28s-.927-9.74-.878-11.423c.347-11.909,4.552-21.556,9.725-23.626s19.9-6.847,19.9-6.847Z" transform="translate(-57.001 -150.115)" fill="#ff7958" fill-rule="evenodd"/>
        </g>
        <g id="Grupo_16911" data-name="Grupo 16911" transform="translate(10.543)">
          <g id="Grupo_16902" data-name="Grupo 16902" transform="translate(11.263 17.904)">
            <g id="Grupo_16901" data-name="Grupo 16901">
              <path id="Trazado_28707" data-name="Trazado 28707" d="M109.961,123.8s10.473,7.621,5.373,19.382-13.288,25.877-20.589,19.608c0,0-.658,1.445-1.475,3.743-.506,1.419,4.416,7.668,1.573,10.365-7.5,7.125-24.769-5.273-18.354-16.492l1.881-8.842s-9.929-13.751-1.4-28.106C80.9,116.844,99.811,111.508,109.961,123.8Z" transform="translate(-73.51 -116.421)" fill="#ffb2ab" fill-rule="evenodd"/>
              <g id="Grupo_16900" data-name="Grupo 16900">
                <g id="Grupo_16899" data-name="Grupo 16899" clip-path="url(#clip-path-2)">
                  <g id="Grupo_16898" data-name="Grupo 16898" transform="translate(10.478 37.827)" opacity="0.5">
                    <path id="Trazado_28708" data-name="Trazado 28708" d="M92.907,154.343s-7.833-5.3-11.464-9.284C81.443,145.059,91.7,165,92.907,154.343Z" transform="translate(-81.443 -145.059)" fill="#601b1b" fill-rule="evenodd"/>
                  </g>
                </g>
              </g>
            </g>
          </g>
          <g id="Grupo_16903" data-name="Grupo 16903" transform="translate(4.641 12.412)">
            <path id="Trazado_28710" data-name="Trazado 28710" d="M115.622,125.7s5.842,1.322,8.883,9.26-.532,17.61-5.746,14.058a17.438,17.438,0,0,1-4.245-5.82s-1.753,4.75-3.75-2.189c0,0-3.236,1.736-3.778-3.465,0,0-3.778,8.191-4.69-2.984,0,0-4,12.452-12.316,9.927,0,0-3.009,1.568-5.122-2.689,0,0,.766,7.475.766,7.594,0,3.008-3.784,4.7-6.3,5.672a3.009,3.009,0,0,1-.917-1.794l-8.834-15.726s-2.429-7.026,0-13.121S94.766,99.718,115.622,125.7Z" transform="translate(-68.497 -112.263)" fill-rule="evenodd"/>
          </g>
          <g id="Grupo_16905" data-name="Grupo 16905" transform="translate(20.226 37.191)">
            <g id="Grupo_16904" data-name="Grupo 16904">
              <path id="Trazado_28711" data-name="Trazado 28711" d="M86.443,138.989a6.459,6.459,0,0,0,1.279-3.245c-.024-1.708-1.187-4.336-3.149-4.7-3.166-.586-7.077,11.716-1.362,11.082C84.008,142.036,85.2,139.551,86.443,138.989Z" transform="translate(-80.295 -131.023)" fill="#ffb3aa" fill-rule="evenodd"/>
            </g>
          </g>
          <g id="Grupo_16906" data-name="Grupo 16906">
            <path id="Trazado_28712" data-name="Trazado 28712" d="M86.724,116.876s5.422-8.621-5.838-13.429-23.3,21.694-10.182,25.009S86.724,116.245,86.724,116.876Z" transform="translate(-64.983 -102.866)" fill-rule="evenodd"/>
          </g>
          <g id="Grupo_16910" data-name="Grupo 16910" transform="translate(5.722 10.391)">
            <g id="Grupo_16907" data-name="Grupo 16907" transform="translate(43.283)">
              <path id="Trazado_28713" data-name="Trazado 28713" d="M105.254,126.4s7.265-5.274.543-15.665C105.8,110.733,97.816,114.755,105.254,126.4Z" transform="translate(-102.084 -110.733)" fill="#ff7958" fill-rule="evenodd"/>
            </g>
            <g id="Grupo_16908" data-name="Grupo 16908" transform="translate(46.566 6.411)">
              <path id="Trazado_28714" data-name="Trazado 28714" d="M104.569,125.783s8.733,2.075,12.236-9.8C116.805,115.987,108.553,112.554,104.569,125.783Z" transform="translate(-104.569 -115.587)" fill="#ff7958" fill-rule="evenodd"/>
            </g>
            <g id="Grupo_16909" data-name="Grupo 16909" transform="translate(0 11.579)">
              <path id="Trazado_28715" data-name="Trazado 28715" d="M118.5,124.31s-29.633.6-40.1,26.643c0,0-9.35-11.929-9.074-15.784a33.727,33.727,0,0,1,9.1-8.427C88.238,120.7,108.435,115.238,118.5,124.31Z" transform="translate(-69.314 -119.499)" fill="#ff7958" fill-rule="evenodd"/>
            </g>
          </g>
        </g>
        <path id="Trazado_28716" data-name="Trazado 28716" d="M103.613,185.4l10.97-.914s-4.717-17.3-15.614-24.646S103.613,185.4,103.613,185.4Z" transform="translate(-44.778 -84.93)" fill="#ff7958" fill-rule="evenodd"/>
        <path id="Trazado_28717" data-name="Trazado 28717" d="M119.826,191.719l1.316,8.227-44.318,4.132-3.657-5.485Z" transform="translate(-51.813 -74.358)" fill="#601b1b" fill-rule="evenodd" opacity="0.5"/>
        <g id="Grupo_16912" data-name="Grupo 16912" transform="translate(3.073 103.185)">
          <path id="Trazado_28718" data-name="Trazado 28718" d="M59.327,181.925s7.631,16.149,15.54,21.027,50.355-5.586,54.849-9.142c0,0,2.775-5.421-2.445-6.038s-41.14,1.036-45.091,2.38l-4.12-9.167Z" transform="translate(-59.327 -180.986)" fill="#ffb2aa" fill-rule="evenodd"/>
        </g>
      </g>
      <g id="Grupo_16925" data-name="Grupo 16925" transform="translate(54.213 135.13)">
        <g id="Grupo_16914" data-name="Grupo 16914" transform="translate(0 76.942)">
          <path id="Trazado_28719" data-name="Trazado 28719" d="M122.752,193.763l-8.28,16.692s19.64-5.215,43.041,6.8l6.438,2.492s8.218,2.765,12.54,8.517,5.715,13.128,5.025,14.3-4.431,2.754-6.156,1.972-6.392-9.147-7.9-10.513-6.64-6.456-7.905-6.911-63.315,1.176-65.933.993-5.558-2.631-5.581-6.744,9.637-36.815,9.637-36.815Z" transform="translate(-88.044 -184.557)" fill="#df6145" fill-rule="evenodd"/>
        </g>
        <g id="Grupo_16918" data-name="Grupo 16918" transform="translate(8.736 47.047)">
          <path id="Trazado_28720" data-name="Trazado 28720" d="M132.753,167.507s-11.774-10.76-21.69-2.405-16.4,26.233-16.4,26.233l25.924,9.56-8.267,16.694s18.048-4.6,43.682,7.5c0,0-1.128-12.539.914-22.1s.524-23.474.524-23.474l-2.683-6.116-4.56-2.728Z" transform="translate(-94.658 -161.924)" fill="#2e2828" fill-rule="evenodd"/>
          <g id="Grupo_16917" data-name="Grupo 16917">
            <path id="Trazado_28721" data-name="Trazado 28721" d="M132.753,167.507s-11.774-10.76-21.69-2.405-16.4,26.233-16.4,26.233l25.924,9.56-8.267,16.694s18.048-4.6,43.682,7.5c0,0-1.128-12.539.914-22.1s.524-23.474.524-23.474l-2.683-6.116-4.56-2.728Z" transform="translate(-94.658 -161.924)" fill="#2e2828"/>
            <g id="Grupo_16916" data-name="Grupo 16916" clip-path="url(#clip-path-3)">
              <g id="Grupo_16915" data-name="Grupo 16915" transform="translate(24.392 11.816)">
                <path id="Trazado_28722" data-name="Trazado 28722" d="M113.435,198.268c.26-.011.007.116.235-.008.015-.007.02-.022.028-.037.069-.132.114-.273.169-.411a42.4,42.4,0,0,1,2.539-4.483q1.092-1.971,2.158-3.959.592-1.111,1.18-2.227.874-1.674,1.755-3.344c.652-1.24,1.3-2.479,2-3.7a.061.061,0,0,0-.018-.083.065.065,0,0,0-.086.02c-.709.983-1.4,1.969-2.054,2.985-.436.679-.852,1.364-1.26,2.058q-.921,1.553-1.791,3.137c-.866,1.58-1.689,3.182-2.552,4.763a44.574,44.574,0,0,0-2.276,4.058,3.731,3.731,0,0,0-.33,1.025.085.085,0,0,0,0,.052c.129.222-.025-.012.2.125a.054.054,0,0,0,.038.066A.056.056,0,0,0,113.435,198.268Z" transform="translate(-113.125 -167.938)" fill="#2e2828" fill-rule="evenodd"/>
                <path id="Trazado_28723" data-name="Trazado 28723" d="M121,170.947c-.028.111-.073.149-.063.264a2.573,2.573,0,0,0,.333.8,22.138,22.138,0,0,0,3.677,5.81,11.424,11.424,0,0,0,2.313,1.969,7.671,7.671,0,0,0,7.38.575,9.562,9.562,0,0,0,1.337-.7,15.424,15.424,0,0,0,1.783-1.317,11.8,11.8,0,0,0,1.528-1.667,17.779,17.779,0,0,0,1.234-1.854.083.083,0,0,0-.026-.114.084.084,0,0,0-.115.026A17.228,17.228,0,0,1,139,176.455a11.062,11.062,0,0,1-1.614,1.461,16.538,16.538,0,0,1-1.464,1.008,9.623,9.623,0,0,1-1.569.777,6.973,6.973,0,0,1-6.6-.666,12.235,12.235,0,0,1-2.169-1.8,25.035,25.035,0,0,1-3.836-5.459,3.051,3.051,0,0,0-.412-.752c-.083-.081-.143-.073-.246-.127a.055.055,0,0,0-.073-.026A.053.053,0,0,0,121,170.947Z" transform="translate(-110.619 -170.87)" fill="#2e2828" fill-rule="evenodd"/>
                <path id="Trazado_28724" data-name="Trazado 28724" d="M130.36,181c.174.118.131.185.345.211.756.092,1.448-.61,2.111-1.1a8.77,8.77,0,0,0,1.687-1.6,8.237,8.237,0,0,0,.792-1.314.159.159,0,0,0-.042-.225.169.169,0,0,0-.23.041c-.271.285-.588.548-.9.852-.423.411-.853.852-1.325,1.246a8.822,8.822,0,0,1-2.273,1.4.123.123,0,0,0-.053.025c-.143.148-.058.174-.141.358a.053.053,0,0,0-.038.066A.057.057,0,0,0,130.36,181Z" transform="translate(-107.618 -168.922)" fill="#2e2828" fill-rule="evenodd"/>
                <path id="Trazado_28725" data-name="Trazado 28725" d="M140.981,217.718c.217-.092.07.112.193-.083.045-.071-.008-.165-.014-.247a23.737,23.737,0,0,0-.366-2.755c-.133-.7-.295-1.4-.472-2.1-.407-1.606-.888-3.2-1.19-4.807-.616-3.052-1.181-6.225-1.609-9.389-.287-2.121-.522-4.235-.616-6.316a.114.114,0,0,0-.116-.111.112.112,0,0,0-.114.114,67.105,67.105,0,0,0,.4,7.966c.287,2.667.717,5.319,1.153,7.895.3,1.668.738,3.329,1.2,4.98.162.586.332,1.17.494,1.754.246.877.483,1.751.66,2.638.029.149-.024.339.087.445.2.185-.066-.011.2.028a.057.057,0,0,0,.062.049A.054.054,0,0,0,140.981,217.718Z" transform="translate(-105.569 -164.119)" fill="#2e2828" fill-rule="evenodd"/>
              </g>
            </g>
          </g>
        </g>
        <g id="Grupo_16922" data-name="Grupo 16922" transform="translate(28.847 12.769)">
          <path id="Trazado_28727" data-name="Trazado 28727" d="M125.234,174.3a32.968,32.968,0,0,1-5.117-4.834c-2.656,7.5-11.342-4.17-10.115-7.988s5.895-.577,5.895-.577c-8.592-21.049,19.809-27.084,25.7-24.289s7.608,11.472,7.608,11.472c.512-5.231,6.219-4.6,5.958,3.019s-2.6,6.518-2.6,6.518.538,12.779-7.267,18.648c-.174,7.176-4.618,12.931-10.065,12.931-5.558,0-10.07-5.991-10.07-13.368Q125.168,175.055,125.234,174.3Z" transform="translate(-109.884 -135.973)" fill="#de6146" fill-rule="evenodd"/>
          <g id="Grupo_16921" data-name="Grupo 16921">
            <g id="Grupo_16920" data-name="Grupo 16920" clip-path="url(#clip-path-4)">
              <g id="Grupo_16919" data-name="Grupo 16919" transform="translate(15.209 36.226)" opacity="0.5">
                <path id="Trazado_28728" data-name="Trazado 28728" d="M121.4,165.544s7.591,5.829,15.261,3.906,10.152-6.051,10.152-6.051-4.309,9.828-11.5,11.052S121.4,165.544,121.4,165.544Z" transform="translate(-121.398 -163.399)" fill="#601b1b" fill-rule="evenodd"/>
              </g>
            </g>
          </g>
        </g>
        <g id="Grupo_16923" data-name="Grupo 16923" transform="translate(24.345)">
          <path id="Trazado_28730" data-name="Trazado 28730" d="M115.437,156.972s4.153.936,9.239-2.553,8.213-1.153,12.275-2,5.909-2.738,6.991-6.347c0,0,1.157-2.716,2.82-2.965,0,0,2.691,4.327,3.108,6.837,0,0-.4,4.15,2.223,5.624.131.073-.494-2.557-.494-4.027,0-2.189,1.779-3.644,2.673-3.261,0,0,1.415-6.971-.629-9.208s-4.368-2.7-5.9-7.3-9.671-7.884-15.128-3.161-14.428-2.091-19.308,4.187-1.594,12.68-5,17.522-1.829,10.248,2.853,14.037c0,0,1.536-3.144,5.874-.223,0,0,2.714,5.853,2.948,4.816C121.27,163.224,115.458,158.021,115.437,156.972Z" transform="translate(-106.475 -126.305)" fill="#031435" fill-rule="evenodd"/>
        </g>
        <g id="Grupo_16924" data-name="Grupo 16924" transform="translate(62.554 32.935)">
          <path id="Trazado_28731" data-name="Trazado 28731" d="M143.629,154.262a65.674,65.674,0,0,1-7.642,18.081c-1.637,2.717.432,5.636,2.964,8.021l3.367,47.993s5.373,7.605,12.482,3.951c21.942-11.281-8.592-57.759-8.592-57.759s5.031-13.525.779-20.787C144.4,149.349,144.122,151.521,143.629,154.262Z" transform="translate(-135.403 -151.24)" fill="#df6145" fill-rule="evenodd"/>
        </g>
      </g>
      <g id="Grupo_16935" data-name="Grupo 16935" transform="translate(321.706 182.174)">
        <g id="Grupo_16926" data-name="Grupo 16926" transform="translate(42.431 44.977)">
          <path id="Trazado_28732" data-name="Trazado 28732" d="M322.685,211.765s46.74-19.644,59.38-15.113,19.873,18.539,12.2,24.844c-4.212,3.461-33.5,1.572-33.5,1.572S329.032,219.258,322.685,211.765Z" transform="translate(-322.685 -195.973)" fill="#ea7d67" fill-rule="evenodd"/>
        </g>
        <g id="Grupo_16927" data-name="Grupo 16927" transform="translate(0 38.694)">
          <path id="Trazado_28733" data-name="Trazado 28733" d="M337.725,191.217s-6.746,1.655-12.335,3.581c-9.566,3.3-20.967,8.261-27.157,13.416-10.3,8.578-9.614,16.895-1.6,16.895,2.918,0,64.29,1.963,72.582-.419,0,0,1.617,1.907,7.458,0s7.238-2.216,8.241-1.991,9.716,5.518,12.775,3.754c0,0,2.948-.775-2.858-4.574a60.232,60.232,0,0,0-15.336-6.851c-2.112-.5-11.273,2.988-11.273,2.988s-25.434-6.168-32.011-8.27l7.484-4.764Z" transform="translate(-290.561 -191.217)" fill="#e06247" fill-rule="evenodd"/>
        </g>
        <g id="Grupo_16928" data-name="Grupo 16928" transform="translate(16.629 37.505)">
          <path id="Trazado_28734" data-name="Trazado 28734" d="M340.46,190.317S325.1,192,318.877,193.959c-5.61,1.771-15.727,8.136-15.727,8.136s7.456,2.309,12.03,3.375c2.766.645,6.557,1.415,9.769,2.378,4.183,1.255,11.172,3.4,10.873,3.27,0,0,21.108-9.327,38.054-11.909,9.326-1.421,11.8-1.421,14.978-.581a116.087,116.087,0,0,0-18.8-6.8c-4.747-1.3-17.8-1.29-17.8-1.29Z" transform="translate(-303.15 -190.317)" fill="#ffb753" fill-rule="evenodd"/>
        </g>
        <g id="Grupo_16929" data-name="Grupo 16929" transform="translate(1.703 66.943)">
          <path id="Trazado_28735" data-name="Trazado 28735" d="M320.28,217.828c-.343-1.774-9.234-7.8-17.176-3.976,0,0-12.467,6.279-11.157,7.644s6.693,1.364,9.525,1.364a37.607,37.607,0,0,0,8.408-2.909C311.14,219.288,320.692,219.952,320.28,217.828Z" transform="translate(-291.85 -212.604)" fill="#ea7d67" fill-rule="evenodd"/>
        </g>
        <g id="Grupo_16934" data-name="Grupo 16934" transform="translate(24.732)">
          <g id="Grupo_16930" data-name="Grupo 16930" transform="translate(13.082 11.006)">
            <path id="Trazado_28736" data-name="Trazado 28736" d="M324.2,185.8l.108,2.251s-2.512-3.653-4.575-.9,2.062,15.845,6.409,10.778c0,0,3.908,11.535,14.059,10.192,10.1-1.337,13.216-12.934,13.216-12.934s1.738,3.008,4.459-.5,3.675-12.811-2.113-8.8l.041-2.033s.379-13.768-13.975-13.6S324.5,180.823,324.2,185.8Z" transform="translate(-319.189 -170.255)" fill="#df6146" fill-rule="evenodd"/>
          </g>
          <g id="Grupo_16931" data-name="Grupo 16931" transform="translate(12.858 1.404)">
            <path id="Trazado_28737" data-name="Trazado 28737" d="M354.04,170.966s-5.392-9.385-16.385-7.8c-8.469,1.219-16.735,6.79-18.41,17.722-1.306,8.523,3.443,11.362,4.816,11.256.119-.008-.1,3.581,2.079,5.063a6.528,6.528,0,0,0,.6-2.617,22.487,22.487,0,0,0-.281-3.381c3.012-1.07,4.851-4.673,5.776-7.952,0,0-.729,5.492,4.9,1.811l3.487-3.626s-3.369,4.229,0,4.067,7.246-4.681,7.587-6.676c0,0,.625,8.788,4.861,9.663.025.007-.207,2.058-.152,3.331a4.541,4.541,0,0,0,1.005,2.762c1.9-2.31,2.1-5.986,2.116-6.2a3.683,3.683,0,0,1,3.182-1.036,6.849,6.849,0,0,0,2.259-5.779C361.156,177.8,359.524,169.906,354.04,170.966Z" transform="translate(-319.02 -162.985)" fill="#1d1213" fill-rule="evenodd"/>
          </g>
          <g id="Grupo_16932" data-name="Grupo 16932">
            <path id="Trazado_28738" data-name="Trazado 28738" d="M332.351,170.07s-3.235-8.122-11.637-8.148-12.374,9.115-9.194,12.65c0,0-6.735,8.5,3.179,10.153,0,0,3.175,10.045,10.111,3.229Z" transform="translate(-309.285 -161.922)" fill="#1d1213" fill-rule="evenodd"/>
          </g>
          <g id="Grupo_16933" data-name="Grupo 16933" transform="translate(46.202)">
            <path id="Trazado_28739" data-name="Trazado 28739" d="M344.264,171.148s4.356-9.2,12.758-9.226,12.374,9.115,9.194,12.65c0,0,6.735,8.5-3.179,10.153,0,0-5.787,9.554-12.722,2.738Z" transform="translate(-344.264 -161.922)" fill="#1d1213" fill-rule="evenodd"/>
          </g>
        </g>
      </g>
      <path id="Trazado_28740" data-name="Trazado 28740" d="M203.541,100.852V93.744c0-4.46,0-4.46,4.343-4.48,7.723-.036,11.715-4.079,11.709-11.853-.008-10.079.009-20.16-.02-30.241-.017-6.3-4.319-10.764-10.609-10.794q-21.558-.1-43.118-.008c-6.781.018-10.683,4.6-10.741,10.785q-.143,15.412-.011,30.826c.057,7.22,4.306,11.287,11.534,11.285,8.974,0,17.949.032,26.923-.055a3.24,3.24,0,0,1,3.225,1.889c1.773,3.1,3.673,6.125,5.534,9.173a5.69,5.69,0,0,0,.6.705Z" transform="translate(-12.338 -20.043)" fill="#cbebfb"/>
      <path id="Trazado_28741" data-name="Trazado 28741" d="M288.755,82.516c1.7-3.214,3.441-6.4,5.061-9.654a2.492,2.492,0,0,1,2.594-1.586c10.127.058,20.253.033,30.379.045,4.834.005,7.036-1.617,8.563-6.234q5.207-15.745,10.464-31.472c1.884-5.652-2.136-10.37-8.062-9.514q-21.477,3.1-42.966,6.147c-6.32.906-12.647,1.774-18.953,2.774-4.614.732-7.04,4.768-5.69,9.249q3.5,11.616,7.037,23.222c1.227,4.029,3.524,5.74,7.722,5.814,3.251.057,3.251.057,3.247,3.376,0,2.079-.007,4.158,0,6.236,0,.5.046,1,.07,1.5Z" transform="translate(24.476 -24)" fill="#3c5b87" opacity="0.5"/>
    </g>
    <path id="Trazado_28742" data-name="Trazado 28742" d="M235.82,95.6s-4.8,1.029-5.8,4.124,3.034,5.7,5.805,2.973c0,0-.81,2.043.63,2.388s2.364-1.992,2.364-1.992.24,1.672,1.485,1.939a2.9,2.9,0,0,0,3.451-2.462s.242,2.235,2.09,2.4,1.742-2.125,1.137-2.59c0,0,1.856,2.424,5.018.409s.168-7.251-7.261-7.827C244.741,94.968,239.953,98.814,235.82,95.6Z" transform="translate(58.672 22.77)" fill="#fff"/>
    <text id="Pág_3_P2" data-name="Pág 3 P2" transform="translate(542.524 161.364)" font-size="15" font-family="MyriadPro-Regular, Myriad Pro"><tspan x="0" y="0">Pág 3 P2</tspan></text>
  </g>
</svg>
