<svg xmlns="http://www.w3.org/2000/svg" width="931" height="502.019" viewBox="0 0 931 502.019">
  <g id="Grupo_16845" data-name="Grupo 16845" transform="translate(270.078 39.259)">
    <line id="Línea_503" data-name="Línea 503" x1="208.277" y1="152.477" transform="translate(275.32 186.38)" fill="none" stroke="#c8c8c8" stroke-miterlimit="10" stroke-width="5"/>
    <line id="Línea_504" data-name="Línea 504" x2="290.679" transform="translate(281.808 188.326)" fill="none" stroke="#c8c8c8" stroke-miterlimit="10" stroke-width="5"/>
    <path id="Trazado_28653" data-name="Trazado 28653" d="M141.5,435.428,306.3,412.07,426.339,311.5V500.311" transform="translate(-144.531 -123.174)" fill="none" stroke="#c8c8c8" stroke-miterlimit="10" stroke-width="5"/>
    <line id="Línea_505" data-name="Línea 505" y1="150.53" x2="151.179" transform="translate(275.32 37.796)" fill="none" stroke="#c8c8c8" stroke-miterlimit="10" stroke-width="5"/>
    <path id="Trazado_28654" data-name="Trazado 28654" d="M-144,264.242H319.918L186.907,176H41.567" transform="translate(-44.274 -75.591)" fill="none" stroke="#c8c8c8" stroke-miterlimit="10" stroke-width="5"/>
    <g id="Grupo_16833" data-name="Grupo 16833" transform="translate(336.585 -39.259)">
      <circle id="Elipse_1124" data-name="Elipse 1124" cx="81.494" cy="81.494" r="81.494" fill="#ffd664"/>
    </g>
    <g id="Grupo_16834" data-name="Grupo 16834" transform="translate(-84.51 19.136)">
      <circle id="Elipse_1125" data-name="Elipse 1125" cx="81.494" cy="81.494" r="81.494" transform="translate(0)" fill="#3ababa"/>
    </g>
    <g id="Grupo_16835" data-name="Grupo 16835" transform="translate(-84.51 230.715)">
      <circle id="Elipse_1126" data-name="Elipse 1126" cx="81.494" cy="81.494" r="81.494" transform="translate(0)" fill="#ffd664"/>
    </g>
    <path id="Trazado_44913" data-name="Trazado 44913" d="M-55.409.186A3.369,3.369,0,0,1-58.28-1.234a6.525,6.525,0,0,1-1.044-3.934,6.532,6.532,0,0,1,1.062-3.975,3.45,3.45,0,0,1,2.927-1.424,3.384,3.384,0,0,1,2.987,1.521h.093a11.568,11.568,0,0,1-.213-2.069v-3.321h2.839V0H-51.8l-.547-1.345h-.121A3.238,3.238,0,0,1-55.409.186Zm.993-2.254A1.917,1.917,0,0,0-52.825-2.7a3.67,3.67,0,0,0,.552-2.143v-.306a4.241,4.241,0,0,0-.515-2.394,1.912,1.912,0,0,0-1.675-.724,1.661,1.661,0,0,0-1.47.8,4.281,4.281,0,0,0-.524,2.333,4.058,4.058,0,0,0,.529,2.3A1.728,1.728,0,0,0-54.416-2.069Zm7.626-10.984q0-1.382,1.54-1.382t1.54,1.382a1.348,1.348,0,0,1-.385,1.025,1.618,1.618,0,0,1-1.155.366Q-46.79-11.662-46.79-13.053ZM-43.84,0h-2.83V-10.372h2.83Zm12.255,0h-2.83V-6.058a3.052,3.052,0,0,0-.376-1.684A1.322,1.322,0,0,0-35.973-8.3a1.713,1.713,0,0,0-1.577.8,5.233,5.233,0,0,0-.492,2.625V0h-2.83V-10.372h2.162l.38,1.327h.158a2.875,2.875,0,0,1,1.206-1.118,3.916,3.916,0,0,1,1.809-.4A3.259,3.259,0,0,1-32-9.045h.25a2.8,2.8,0,0,1,1.229-1.123,4.1,4.1,0,0,1,1.832-.4,3.617,3.617,0,0,1,2.667.9,3.972,3.972,0,0,1,.9,2.9V0h-2.839V-6.058a3.052,3.052,0,0,0-.376-1.684A1.322,1.322,0,0,0-29.516-8.3a1.765,1.765,0,0,0-1.554.742A4.211,4.211,0,0,0-31.585-5.2Zm13.666-8.554a1.8,1.8,0,0,0-1.41.571,2.641,2.641,0,0,0-.584,1.619h3.971a2.359,2.359,0,0,0-.547-1.619A1.853,1.853,0,0,0-17.919-8.554Zm.4,8.739A5.353,5.353,0,0,1-21.435-1.2a5.234,5.234,0,0,1-1.41-3.915,5.757,5.757,0,0,1,1.3-4.031,4.641,4.641,0,0,1,3.6-1.424,4.568,4.568,0,0,1,3.423,1.252,4.738,4.738,0,0,1,1.225,3.46v1.373h-6.689A2.724,2.724,0,0,0-19.264-2.6a2.513,2.513,0,0,0,1.874.677,7.78,7.78,0,0,0,1.772-.195,8.866,8.866,0,0,0,1.744-.622V-.547A6.644,6.644,0,0,1-15.461,0,10,10,0,0,1-17.52.186ZM-1.415,0h-2.83V-6.058a2.91,2.91,0,0,0-.4-1.684A1.451,1.451,0,0,0-5.914-8.3a1.911,1.911,0,0,0-1.716.793,4.919,4.919,0,0,0-.529,2.63V0h-2.83V-10.372h2.162l.38,1.327h.158a2.99,2.99,0,0,1,1.3-1.136A4.439,4.439,0,0,1-5.1-10.567a3.627,3.627,0,0,1,2.746.979,3.928,3.928,0,0,1,.937,2.825ZM8.735-3.08A2.856,2.856,0,0,1,7.626-.649,5.478,5.478,0,0,1,4.309.186,10.417,10.417,0,0,1,2.38.032,7.3,7.3,0,0,1,.886-.417V-2.755a9.864,9.864,0,0,0,1.777.622,7.194,7.194,0,0,0,1.74.25q1.54,0,1.54-.891a.743.743,0,0,0-.2-.543,2.959,2.959,0,0,0-.705-.473q-.5-.264-1.336-.617a8.392,8.392,0,0,1-1.758-.928,2.611,2.611,0,0,1-.816-.979A3.231,3.231,0,0,1,.867-7.672,2.464,2.464,0,0,1,1.939-9.811a5.22,5.22,0,0,1,3.038-.756,8.624,8.624,0,0,1,3.646.816L7.77-7.709q-.779-.334-1.457-.547A4.574,4.574,0,0,0,4.931-8.47q-1.252,0-1.252.677a.8.8,0,0,0,.4.659,10.975,10.975,0,0,0,1.767.826,8.21,8.21,0,0,1,1.781.918,2.716,2.716,0,0,1,.835.983A3.022,3.022,0,0,1,8.735-3.08Zm2.087-9.973q0-1.382,1.54-1.382t1.54,1.382a1.348,1.348,0,0,1-.385,1.025,1.618,1.618,0,0,1-1.155.366Q10.822-11.662,10.822-13.053ZM13.772,0h-2.83V-10.372h2.83ZM19-5.2A4.353,4.353,0,0,0,19.5-2.876a1.808,1.808,0,0,0,1.647.789,1.779,1.779,0,0,0,1.628-.784,4.416,4.416,0,0,0,.5-2.333,4.284,4.284,0,0,0-.5-2.31,1.811,1.811,0,0,0-1.642-.77,1.806,1.806,0,0,0-1.633.765A4.28,4.28,0,0,0,19-5.2Zm7.171,0a5.574,5.574,0,0,1-1.336,3.961A4.844,4.844,0,0,1,21.111.186a5.2,5.2,0,0,1-2.635-.654,4.352,4.352,0,0,1-1.753-1.879A6.313,6.313,0,0,1,16.11-5.2a5.543,5.543,0,0,1,1.327-3.952,4.872,4.872,0,0,1,3.729-1.41,5.234,5.234,0,0,1,2.635.649,4.335,4.335,0,0,1,1.753,1.865A6.254,6.254,0,0,1,26.167-5.2ZM38.079,0h-2.83V-6.058a2.91,2.91,0,0,0-.4-1.684A1.451,1.451,0,0,0,33.579-8.3a1.911,1.911,0,0,0-1.716.793,4.919,4.919,0,0,0-.529,2.63V0H28.5V-10.372h2.162l.38,1.327H31.2a2.99,2.99,0,0,1,1.3-1.136,4.439,4.439,0,0,1,1.888-.385,3.627,3.627,0,0,1,2.746.979,3.928,3.928,0,0,1,.937,2.825Zm7.208-8.554a1.8,1.8,0,0,0-1.41.571,2.641,2.641,0,0,0-.584,1.619h3.971a2.359,2.359,0,0,0-.547-1.619A1.853,1.853,0,0,0,45.287-8.554Zm.4,8.739A5.353,5.353,0,0,1,41.771-1.2a5.234,5.234,0,0,1-1.41-3.915,5.757,5.757,0,0,1,1.3-4.031,4.641,4.641,0,0,1,3.6-1.424,4.568,4.568,0,0,1,3.423,1.252,4.738,4.738,0,0,1,1.225,3.46v1.373H43.228A2.724,2.724,0,0,0,43.942-2.6a2.513,2.513,0,0,0,1.874.677,7.78,7.78,0,0,0,1.772-.195,8.866,8.866,0,0,0,1.744-.622V-.547A6.644,6.644,0,0,1,47.746,0,10,10,0,0,1,45.686.186ZM59.454-3.08A2.856,2.856,0,0,1,58.345-.649a5.478,5.478,0,0,1-3.317.835A10.417,10.417,0,0,1,53.1.032a7.3,7.3,0,0,1-1.494-.45V-2.755a9.864,9.864,0,0,0,1.777.622,7.194,7.194,0,0,0,1.74.25q1.54,0,1.54-.891a.743.743,0,0,0-.2-.543,2.959,2.959,0,0,0-.705-.473q-.5-.264-1.336-.617a8.392,8.392,0,0,1-1.758-.928,2.611,2.611,0,0,1-.816-.979,3.231,3.231,0,0,1-.255-1.359,2.464,2.464,0,0,1,1.072-2.138,5.22,5.22,0,0,1,3.038-.756,8.624,8.624,0,0,1,3.646.816l-.854,2.041q-.779-.334-1.457-.547A4.574,4.574,0,0,0,55.65-8.47q-1.252,0-1.252.677a.8.8,0,0,0,.4.659,10.975,10.975,0,0,0,1.767.826,8.21,8.21,0,0,1,1.781.918,2.716,2.716,0,0,1,.835.983A3.022,3.022,0,0,1,59.454-3.08ZM-22.2,10.446a1.8,1.8,0,0,0-1.41.571,2.641,2.641,0,0,0-.584,1.619h3.971a2.359,2.359,0,0,0-.547-1.619A1.853,1.853,0,0,0-22.2,10.446Zm.4,8.739A5.353,5.353,0,0,1-25.717,17.8a5.234,5.234,0,0,1-1.41-3.915,5.757,5.757,0,0,1,1.3-4.031,4.641,4.641,0,0,1,3.6-1.424A4.568,4.568,0,0,1-18.8,9.686a4.738,4.738,0,0,1,1.225,3.46v1.373H-24.26a2.724,2.724,0,0,0,.714,1.883,2.513,2.513,0,0,0,1.874.677,7.78,7.78,0,0,0,1.772-.195,8.866,8.866,0,0,0,1.744-.622v2.189A6.644,6.644,0,0,1-19.742,19,10,10,0,0,1-21.8,19.186Zm-2.032-11.7v-.25a26.12,26.12,0,0,0,2.18-2.792h3.173v.195q-.482.482-1.647,1.433T-21.95,7.487ZM-10.9,16.931a6.134,6.134,0,0,0,1.781-.325v2.106a6.351,6.351,0,0,1-2.6.473,3.179,3.179,0,0,1-2.472-.858,3.735,3.735,0,0,1-.775-2.574v-5h-1.354v-1.2l1.559-.946.816-2.189h1.809V8.628h2.9v2.125h-2.9v5a1.1,1.1,0,0,0,.339.891A1.336,1.336,0,0,0-10.9,16.931ZM-7.144,5.947q0-1.382,1.54-1.382t1.54,1.382a1.348,1.348,0,0,1-.385,1.025A1.618,1.618,0,0,1-5.6,7.338Q-7.144,7.338-7.144,5.947ZM-4.193,19h-2.83V8.628h2.83Zm7.181.186q-4.843,0-4.843-5.316A5.67,5.67,0,0,1-.538,9.829a4.942,4.942,0,0,1,3.776-1.4,7.2,7.2,0,0,1,3.229.705l-.835,2.189q-.668-.269-1.243-.441a4.006,4.006,0,0,0-1.15-.172q-2.208,0-2.208,3.136,0,3.043,2.208,3.043a5.034,5.034,0,0,0,1.512-.218,5.46,5.46,0,0,0,1.392-.682v2.421a4.56,4.56,0,0,1-1.387.6A7.8,7.8,0,0,1,2.987,19.186ZM15.131,19l-.547-1.41H14.51a4.179,4.179,0,0,1-1.47,1.248,4.752,4.752,0,0,1-1.971.348,3.188,3.188,0,0,1-2.352-.854A3.278,3.278,0,0,1,7.858,15.9a2.737,2.737,0,0,1,1.155-2.435A6.693,6.693,0,0,1,12.5,12.6l1.8-.056v-.455a1.411,1.411,0,0,0-1.614-1.577,7.356,7.356,0,0,0-2.922.751L8.823,9.352a8.432,8.432,0,0,1,3.971-.937,4.946,4.946,0,0,1,3.2.909,3.36,3.36,0,0,1,1.113,2.765V19ZM14.3,14.194l-1.095.037a3.506,3.506,0,0,0-1.837.445,1.4,1.4,0,0,0-.6,1.243q0,1.2,1.373,1.2a2.175,2.175,0,0,0,1.573-.566,1.988,1.988,0,0,0,.589-1.5Zm12.96,1.726a2.856,2.856,0,0,1-1.109,2.431,5.478,5.478,0,0,1-3.317.835,10.417,10.417,0,0,1-1.93-.153,7.3,7.3,0,0,1-1.494-.45V16.245a9.864,9.864,0,0,0,1.777.622,7.194,7.194,0,0,0,1.74.25q1.54,0,1.54-.891a.743.743,0,0,0-.2-.543,2.959,2.959,0,0,0-.705-.473q-.5-.264-1.336-.617a8.392,8.392,0,0,1-1.758-.928,2.611,2.611,0,0,1-.816-.979,3.231,3.231,0,0,1-.255-1.359,2.464,2.464,0,0,1,1.072-2.138A5.22,5.22,0,0,1,23.5,8.433a8.624,8.624,0,0,1,3.646.816l-.854,2.041q-.779-.334-1.457-.547a4.574,4.574,0,0,0-1.382-.213q-1.252,0-1.252.677a.8.8,0,0,0,.4.659,10.975,10.975,0,0,0,1.767.826,8.211,8.211,0,0,1,1.781.918,2.716,2.716,0,0,1,.835.983A3.022,3.022,0,0,1,27.257,15.92Z" transform="translate(-4.656 95.623)" fill="#1a3151"/>
    <g id="Grupo_16836" data-name="Grupo 16836" transform="translate(195.992 106.865)">
      <circle id="Elipse_1127" data-name="Elipse 1127" cx="79.533" cy="79.533" r="79.533" fill="#3ababa"/>
    </g>
    <g id="Grupo_16837" data-name="Grupo 16837" transform="translate(100.978 58.405)">
      <circle id="Elipse_1128" data-name="Elipse 1128" cx="47.105" cy="47.105" r="47.105" transform="translate(0 0)" fill="#145566"/>
    </g>
    <g id="Grupo_16838" data-name="Grupo 16838" transform="translate(114.444 241.53)">
      <circle id="Elipse_1129" data-name="Elipse 1129" cx="47.105" cy="47.105" r="47.105" fill="#ffd664"/>
    </g>
    <g id="Grupo_16839" data-name="Grupo 16839" transform="translate(369.945 225.425)">
      <circle id="Elipse_1130" data-name="Elipse 1130" cx="80.176" cy="80.176" r="80.176" transform="translate(0 113.386) rotate(-45)" fill="#1a3151"/>
    </g>
    <g id="Grupo_16840" data-name="Grupo 16840" transform="translate(484.239 97.892)">
      <circle id="Elipse_1131" data-name="Elipse 1131" cx="62.467" cy="62.467" r="62.467" transform="translate(0 88.342) rotate(-45)" fill="#3ababa"/>
    </g>
    <path id="Trazado_44916" data-name="Trazado 44916" d="M7.181.186A3.44,3.44,0,0,1,4.314-1.141H4.166q.148,1.3.148,1.5v4.2H1.484V-10.372h2.3l.4,1.345h.13a3.273,3.273,0,0,1,2.941-1.54,3.366,3.366,0,0,1,2.876,1.419A6.565,6.565,0,0,1,11.17-5.2a7.786,7.786,0,0,1-.487,2.885A4.047,4.047,0,0,1,9.3-.455,3.554,3.554,0,0,1,7.181.186ZM6.346-8.3a1.787,1.787,0,0,0-1.531.645,3.7,3.7,0,0,0-.5,2.129v.306a4.37,4.37,0,0,0,.5,2.394,1.771,1.771,0,0,0,1.573.724q1.9,0,1.9-3.136a4.478,4.478,0,0,0-.469-2.3A1.6,1.6,0,0,0,6.346-8.3ZM19.3-10.567a4.563,4.563,0,0,1,.956.083L20.039-7.83a3.242,3.242,0,0,0-.835-.093,3,3,0,0,0-2.111.7,2.515,2.515,0,0,0-.756,1.948V0h-2.83V-10.372h2.143l.417,1.744h.139a3.9,3.9,0,0,1,1.3-1.406A3.214,3.214,0,0,1,19.3-10.567ZM24.01-5.2a4.353,4.353,0,0,0,.506,2.329,1.808,1.808,0,0,0,1.647.789,1.779,1.779,0,0,0,1.628-.784,4.416,4.416,0,0,0,.5-2.333,4.284,4.284,0,0,0-.5-2.31,1.811,1.811,0,0,0-1.642-.77,1.806,1.806,0,0,0-1.633.765A4.28,4.28,0,0,0,24.01-5.2Zm7.171,0a5.574,5.574,0,0,1-1.336,3.961A4.844,4.844,0,0,1,26.125.186,5.2,5.2,0,0,1,23.49-.469a4.352,4.352,0,0,1-1.753-1.879A6.313,6.313,0,0,1,21.125-5.2a5.543,5.543,0,0,1,1.327-3.952,4.872,4.872,0,0,1,3.729-1.41,5.234,5.234,0,0,1,2.635.649,4.335,4.335,0,0,1,1.753,1.865A6.254,6.254,0,0,1,31.181-5.2ZM36.8.186a3.369,3.369,0,0,1-2.871-1.419,6.525,6.525,0,0,1-1.044-3.934A6.532,6.532,0,0,1,33.95-9.143a3.45,3.45,0,0,1,2.927-1.424,3.384,3.384,0,0,1,2.987,1.521h.093a11.568,11.568,0,0,1-.213-2.069v-3.321h2.839V0H40.412l-.547-1.345h-.121A3.238,3.238,0,0,1,36.8.186ZM37.8-2.069A1.917,1.917,0,0,0,39.387-2.7a3.67,3.67,0,0,0,.552-2.143v-.306a4.241,4.241,0,0,0-.515-2.394,1.912,1.912,0,0,0-1.675-.724,1.661,1.661,0,0,0-1.47.8,4.281,4.281,0,0,0-.524,2.333,4.058,4.058,0,0,0,.529,2.3A1.728,1.728,0,0,0,37.8-2.069ZM52.89,0l-.38-1.327h-.148a2.985,2.985,0,0,1-1.29,1.118,4.4,4.4,0,0,1-1.9.394,3.622,3.622,0,0,1-2.755-.979,3.938,3.938,0,0,1-.928-2.816v-6.763h2.83v6.058a2.91,2.91,0,0,0,.4,1.684,1.451,1.451,0,0,0,1.271.561A1.911,1.911,0,0,0,51.7-2.862a4.919,4.919,0,0,0,.529-2.63v-4.88h2.83V0Zm9.352.186Q57.4.186,57.4-5.13a5.67,5.67,0,0,1,1.317-4.04,4.942,4.942,0,0,1,3.776-1.4,7.2,7.2,0,0,1,3.229.705l-.835,2.189q-.668-.269-1.243-.441a4.006,4.006,0,0,0-1.15-.172q-2.208,0-2.208,3.136,0,3.043,2.208,3.043A5.034,5.034,0,0,0,64-2.324,5.46,5.46,0,0,0,65.4-3.006V-.584a4.56,4.56,0,0,1-1.387.6A7.8,7.8,0,0,1,62.242.186Zm9.927-2.254a6.134,6.134,0,0,0,1.781-.325V-.288a6.351,6.351,0,0,1-2.6.473A3.179,3.179,0,0,1,68.88-.673,3.735,3.735,0,0,1,68.1-3.247v-5H66.75v-1.2l1.559-.946.816-2.189h1.809v2.208h2.9v2.125h-2.9v5a1.1,1.1,0,0,0,.339.891A1.336,1.336,0,0,0,72.168-2.069Zm3.757-10.984q0-1.382,1.54-1.382t1.54,1.382a1.348,1.348,0,0,1-.385,1.025,1.618,1.618,0,0,1-1.155.366Q75.926-11.662,75.926-13.053ZM78.876,0h-2.83V-10.372h2.83Zm5.437,0L80.36-10.372H83.32l2,5.91a10.545,10.545,0,0,1,.417,2.125H85.8a9.238,9.238,0,0,1,.417-2.125l1.995-5.91h2.959L87.216,0ZM99.24,0l-.547-1.41h-.074a4.179,4.179,0,0,1-1.47,1.248,4.752,4.752,0,0,1-1.971.348,3.188,3.188,0,0,1-2.352-.854A3.278,3.278,0,0,1,91.966-3.1a2.737,2.737,0,0,1,1.155-2.435A6.693,6.693,0,0,1,96.6-6.4l1.8-.056v-.455a1.411,1.411,0,0,0-1.614-1.577,7.356,7.356,0,0,0-2.922.751l-.937-1.911a8.432,8.432,0,0,1,3.971-.937,4.946,4.946,0,0,1,3.2.909,3.36,3.36,0,0,1,1.113,2.765V0ZM98.4-4.806l-1.095.037a3.506,3.506,0,0,0-1.837.445,1.4,1.4,0,0,0-.6,1.243q0,1.2,1.373,1.2a2.175,2.175,0,0,0,1.573-.566,1.988,1.988,0,0,0,.589-1.5Zm12.96,1.726a2.856,2.856,0,0,1-1.109,2.431,5.478,5.478,0,0,1-3.317.835,10.417,10.417,0,0,1-1.93-.153,7.3,7.3,0,0,1-1.494-.45V-2.755a9.864,9.864,0,0,0,1.777.622,7.194,7.194,0,0,0,1.74.25q1.54,0,1.54-.891a.743.743,0,0,0-.2-.543,2.959,2.959,0,0,0-.705-.473q-.5-.264-1.336-.617a8.392,8.392,0,0,1-1.758-.928,2.611,2.611,0,0,1-.816-.979,3.231,3.231,0,0,1-.255-1.359,2.464,2.464,0,0,1,1.072-2.138,5.22,5.22,0,0,1,3.038-.756,8.624,8.624,0,0,1,3.646.816L110.4-7.709q-.779-.334-1.457-.547a4.574,4.574,0,0,0-1.382-.213q-1.252,0-1.252.677a.8.8,0,0,0,.4.659,10.975,10.975,0,0,0,1.767.826,8.211,8.211,0,0,1,1.781.918,2.716,2.716,0,0,1,.835.983A3.022,3.022,0,0,1,111.365-3.08Z" transform="translate(217.914 191.124)" fill="#1a3151"/>
    <path id="Trazado_44917" data-name="Trazado 44917" d="M9.958-9.826v1.362l-1.538.4a2.681,2.681,0,0,1,.422,1.477,2.981,2.981,0,0,1-1.1,2.465,4.777,4.777,0,0,1-3.063.883L4.192-3.27l-.4-.044a.891.891,0,0,0-.413.7q0,.58,1.477.58H6.53A3.809,3.809,0,0,1,9-1.336,2.482,2.482,0,0,1,9.844.7,3.024,3.024,0,0,1,8.407,3.375a7.484,7.484,0,0,1-4.126.949,5.713,5.713,0,0,1-3.142-.716A2.274,2.274,0,0,1,.053,1.6,2.1,2.1,0,0,1,.606.114,3.144,3.144,0,0,1,2.232-.738a1.794,1.794,0,0,1-.721-.576A1.368,1.368,0,0,1,1.2-2.162,1.374,1.374,0,0,1,1.529-3.1a3.76,3.76,0,0,1,.94-.734A2.637,2.637,0,0,1,1.244-4.9a3.263,3.263,0,0,1-.453-1.74A3.069,3.069,0,0,1,1.837-9.132a4.523,4.523,0,0,1,2.988-.879,7.648,7.648,0,0,1,.98.075q.567.075.725.11ZM2.373,1.389a.972.972,0,0,0,.532.87,2.926,2.926,0,0,0,1.49.316,5.277,5.277,0,0,0,2.259-.4A1.205,1.205,0,0,0,7.471,1.1.765.765,0,0,0,6.987.334,3.959,3.959,0,0,0,5.493.123H4.1A2.1,2.1,0,0,0,2.87.47,1.071,1.071,0,0,0,2.373,1.389Zm.976-8a2,2,0,0,0,.365,1.266,1.325,1.325,0,0,0,1.112.466,1.3,1.3,0,0,0,1.107-.466,2.054,2.054,0,0,0,.352-1.266q0-1.775-1.459-1.775Q3.349-8.385,3.349-6.609ZM15.645-8.1a1.7,1.7,0,0,0-1.336.541,2.5,2.5,0,0,0-.554,1.534h3.762A2.235,2.235,0,0,0,17-7.563,1.756,1.756,0,0,0,15.645-8.1ZM16.022.176a5.072,5.072,0,0,1-3.709-1.31,4.959,4.959,0,0,1-1.336-3.709,5.454,5.454,0,0,1,1.235-3.819,4.4,4.4,0,0,1,3.415-1.349A4.328,4.328,0,0,1,18.87-8.824a4.489,4.489,0,0,1,1.16,3.278v1.3H13.693a2.58,2.58,0,0,0,.677,1.784,2.381,2.381,0,0,0,1.775.642A7.37,7.37,0,0,0,17.824-2a8.4,8.4,0,0,0,1.652-.589V-.519a6.294,6.294,0,0,1-1.5.523A9.476,9.476,0,0,1,16.022.176ZM14.1-10.907v-.237a24.745,24.745,0,0,0,2.065-2.646h3.006v.185q-.457.457-1.56,1.358t-1.727,1.34ZM31.28,0H28.6V-5.739a2.757,2.757,0,0,0-.378-1.6,1.375,1.375,0,0,0-1.2-.532,1.81,1.81,0,0,0-1.626.751,4.661,4.661,0,0,0-.5,2.492V0H22.21V-9.826h2.048l.36,1.257h.149A2.833,2.833,0,0,1,26-9.646a4.2,4.2,0,0,1,1.789-.365,3.436,3.436,0,0,1,2.6.927,3.721,3.721,0,0,1,.888,2.676Zm6.829-8.1a1.7,1.7,0,0,0-1.336.541,2.5,2.5,0,0,0-.554,1.534h3.762a2.235,2.235,0,0,0-.519-1.534A1.756,1.756,0,0,0,38.109-8.1ZM38.487.176a5.072,5.072,0,0,1-3.709-1.31,4.959,4.959,0,0,1-1.336-3.709,5.454,5.454,0,0,1,1.235-3.819,4.4,4.4,0,0,1,3.415-1.349,4.328,4.328,0,0,1,3.243,1.187A4.489,4.489,0,0,1,42.5-5.546v1.3H36.158a2.58,2.58,0,0,0,.677,1.784,2.381,2.381,0,0,0,1.775.642A7.37,7.37,0,0,0,40.289-2a8.4,8.4,0,0,0,1.652-.589V-.519a6.294,6.294,0,0,1-1.5.523A9.476,9.476,0,0,1,38.487.176ZM50.159-10.011a4.323,4.323,0,0,1,.905.079l-.2,2.514a3.071,3.071,0,0,0-.791-.088,2.843,2.843,0,0,0-2,.659A2.383,2.383,0,0,0,47.355-5V0H44.675V-9.826h2.03l.4,1.652h.132a3.694,3.694,0,0,1,1.235-1.332A3.045,3.045,0,0,1,50.159-10.011Zm4.465,5.08A4.124,4.124,0,0,0,55.1-2.725a1.713,1.713,0,0,0,1.56.747,1.686,1.686,0,0,0,1.542-.743,4.183,4.183,0,0,0,.47-2.21A4.059,4.059,0,0,0,58.2-7.119a1.716,1.716,0,0,0-1.556-.729,1.711,1.711,0,0,0-1.547.725A4.055,4.055,0,0,0,54.624-4.931Zm6.794,0a5.28,5.28,0,0,1-1.266,3.753A4.589,4.589,0,0,1,56.628.176a4.93,4.93,0,0,1-2.5-.62,4.123,4.123,0,0,1-1.661-1.78,5.981,5.981,0,0,1-.58-2.707,5.251,5.251,0,0,1,1.257-3.744,4.616,4.616,0,0,1,3.533-1.336,4.958,4.958,0,0,1,2.5.615,4.106,4.106,0,0,1,1.661,1.767A5.925,5.925,0,0,1,61.418-4.931Z" transform="translate(114.243 109.236)" fill="#ffd664"/>
    <g id="Grupo_16841" data-name="Grupo 16841" transform="translate(200.25 299.772)">
      <circle id="Elipse_1132" data-name="Elipse 1132" cx="81.494" cy="81.494" r="81.494" fill="#145566"/>
    </g>
    <g id="Grupo_16843" data-name="Grupo 16843" transform="translate(379.575 139.293)">
      <g id="Grupo_16842" data-name="Grupo 16842">
        <circle id="Elipse_1133" data-name="Elipse 1133" cx="47.105" cy="47.105" r="47.105" fill="#1a3151"/>
      </g>
      <text id="etnia" transform="translate(21.885 51.831)" fill="#ffd664" font-size="19" font-family="OpenSans-Bold, Open Sans" font-weight="700"><tspan x="0" y="0">etnia</tspan></text>
    </g>
    <path id="Trazado_44915" data-name="Trazado 44915" d="M5.476-8.1a1.7,1.7,0,0,0-1.336.541,2.5,2.5,0,0,0-.554,1.534H7.348a2.235,2.235,0,0,0-.519-1.534A1.756,1.756,0,0,0,5.476-8.1ZM5.854.176a5.072,5.072,0,0,1-3.709-1.31A4.959,4.959,0,0,1,.809-4.843,5.454,5.454,0,0,1,2.043-8.662a4.4,4.4,0,0,1,3.415-1.349A4.328,4.328,0,0,1,8.7-8.824a4.489,4.489,0,0,1,1.16,3.278v1.3H3.524A2.58,2.58,0,0,0,4.2-2.461a2.381,2.381,0,0,0,1.775.642A7.37,7.37,0,0,0,7.655-2a8.4,8.4,0,0,0,1.652-.589V-.519A6.294,6.294,0,0,1,7.8,0,9.476,9.476,0,0,1,5.854.176Zm9.3,0a3.192,3.192,0,0,1-2.72-1.345A6.182,6.182,0,0,1,11.443-4.9,6.188,6.188,0,0,1,12.45-8.662a3.269,3.269,0,0,1,2.773-1.349,3.206,3.206,0,0,1,2.83,1.441h.088a10.959,10.959,0,0,1-.2-1.96v-3.146h2.689V0H18.571l-.519-1.274h-.114A3.068,3.068,0,0,1,15.152.176Zm.94-2.136a1.817,1.817,0,0,0,1.507-.6,3.477,3.477,0,0,0,.523-2.03v-.29a4.018,4.018,0,0,0-.488-2.268,1.812,1.812,0,0,0-1.586-.686,1.574,1.574,0,0,0-1.393.76,4.056,4.056,0,0,0-.5,2.21,3.844,3.844,0,0,0,.5,2.175A1.637,1.637,0,0,0,16.093-1.96ZM29.672,0l-.519-1.336h-.07A3.959,3.959,0,0,1,27.69-.154a4.5,4.5,0,0,1-1.868.33,3.02,3.02,0,0,1-2.228-.809,3.105,3.105,0,0,1-.813-2.3,2.593,2.593,0,0,1,1.094-2.307,6.341,6.341,0,0,1,3.3-.822l1.705-.053v-.431a1.336,1.336,0,0,0-1.529-1.494,6.969,6.969,0,0,0-2.769.712L23.7-9.141a7.988,7.988,0,0,1,3.762-.888,4.686,4.686,0,0,1,3.032.861,3.183,3.183,0,0,1,1.055,2.619V0Zm-.791-4.553-1.037.035A3.321,3.321,0,0,0,26.1-4.1a1.325,1.325,0,0,0-.571,1.178q0,1.134,1.3,1.134a2.06,2.06,0,0,0,1.49-.536,1.883,1.883,0,0,0,.558-1.424ZM37.415.176a3.192,3.192,0,0,1-2.72-1.345A6.182,6.182,0,0,1,33.706-4.9a6.188,6.188,0,0,1,1.006-3.766,3.269,3.269,0,0,1,2.773-1.349,3.206,3.206,0,0,1,2.83,1.441H40.4a10.959,10.959,0,0,1-.2-1.96v-3.146h2.689V0H40.834l-.519-1.274H40.2A3.068,3.068,0,0,1,37.415.176Zm.94-2.136a1.817,1.817,0,0,0,1.507-.6,3.477,3.477,0,0,0,.523-2.03v-.29A4.018,4.018,0,0,0,39.9-7.146a1.812,1.812,0,0,0-1.586-.686,1.574,1.574,0,0,0-1.393.76,4.056,4.056,0,0,0-.5,2.21,3.844,3.844,0,0,0,.5,2.175A1.637,1.637,0,0,0,38.355-1.96Z" transform="translate(137.603 292.361)" fill="#1a3151"/>
    <path id="Trazado_44919" data-name="Trazado 44919" d="M-35.525,0l-.519-1.336h-.07A3.959,3.959,0,0,1-37.507-.154a4.5,4.5,0,0,1-1.868.33A3.02,3.02,0,0,1-41.6-.633a3.105,3.105,0,0,1-.813-2.3,2.593,2.593,0,0,1,1.094-2.307,6.341,6.341,0,0,1,3.3-.822l1.705-.053v-.431a1.336,1.336,0,0,0-1.529-1.494,6.969,6.969,0,0,0-2.769.712L-41.5-9.141a7.988,7.988,0,0,1,3.762-.888,4.686,4.686,0,0,1,3.032.861,3.183,3.183,0,0,1,1.055,2.619V0Zm-.791-4.553-1.037.035a3.321,3.321,0,0,0-1.74.422,1.325,1.325,0,0,0-.571,1.178q0,1.134,1.3,1.134a2.06,2.06,0,0,0,1.49-.536,1.883,1.883,0,0,0,.558-1.424ZM-22.1,0h-2.681V-5.739a2.891,2.891,0,0,0-.356-1.6,1.252,1.252,0,0,0-1.121-.532,1.623,1.623,0,0,0-1.494.756,4.958,4.958,0,0,0-.466,2.487V0h-2.681V-9.826h2.048l.36,1.257h.149a2.724,2.724,0,0,1,1.143-1.059,3.71,3.71,0,0,1,1.714-.382,3.087,3.087,0,0,1,2.988,1.441h.237a2.655,2.655,0,0,1,1.165-1.063,3.884,3.884,0,0,1,1.736-.378,3.426,3.426,0,0,1,2.527.857,3.763,3.763,0,0,1,.857,2.747V0h-2.689V-5.739a2.891,2.891,0,0,0-.356-1.6,1.252,1.252,0,0,0-1.121-.532,1.672,1.672,0,0,0-1.472.7A3.99,3.99,0,0,0-22.1-4.931ZM-7.752-10.011A3.178,3.178,0,0,1-5.027-8.653a6.231,6.231,0,0,1,.984,3.722A6.121,6.121,0,0,1-5.058-1.16,3.286,3.286,0,0,1-7.822.176a3.259,3.259,0,0,1-2.716-1.257h-.185L-11.171,0h-2.048V-13.676h2.681v3.182q0,.606-.105,1.942h.105A3.1,3.1,0,0,1-7.752-10.011Zm-.861,2.145a1.693,1.693,0,0,0-1.45.611,3.507,3.507,0,0,0-.475,2.017v.29a4.14,4.14,0,0,0,.47,2.268A1.678,1.678,0,0,0-8.578-2a1.5,1.5,0,0,0,1.314-.76,4.115,4.115,0,0,0,.488-2.21,3.9,3.9,0,0,0-.492-2.175A1.543,1.543,0,0,0-8.613-7.866Zm6.671-4.5q0-1.31,1.459-1.31t1.459,1.31a1.277,1.277,0,0,1-.365.971,1.533,1.533,0,0,1-1.094.347Q-1.942-11.048-1.942-12.366ZM.853,0H-1.828V-9.826H.853ZM7.734-8.1A1.7,1.7,0,0,0,6.4-7.563a2.5,2.5,0,0,0-.554,1.534H9.606a2.235,2.235,0,0,0-.519-1.534A1.756,1.756,0,0,0,7.734-8.1ZM8.112.176A5.072,5.072,0,0,1,4.4-1.134,4.959,4.959,0,0,1,3.067-4.843,5.454,5.454,0,0,1,4.3-8.662a4.4,4.4,0,0,1,3.415-1.349A4.328,4.328,0,0,1,10.96-8.824a4.489,4.489,0,0,1,1.16,3.278v1.3H5.783A2.58,2.58,0,0,0,6.46-2.461a2.381,2.381,0,0,0,1.775.642A7.37,7.37,0,0,0,9.914-2a8.4,8.4,0,0,0,1.652-.589V-.519a6.294,6.294,0,0,1-1.5.523A9.476,9.476,0,0,1,8.112.176ZM23.37,0H20.689V-5.739a2.757,2.757,0,0,0-.378-1.6,1.375,1.375,0,0,0-1.2-.532,1.81,1.81,0,0,0-1.626.751,4.661,4.661,0,0,0-.5,2.492V0H14.3V-9.826h2.048l.36,1.257h.149a2.833,2.833,0,0,1,1.235-1.077,4.2,4.2,0,0,1,1.789-.365,3.436,3.436,0,0,1,2.6.927,3.721,3.721,0,0,1,.888,2.676Zm6.9-1.96a5.811,5.811,0,0,0,1.688-.308v2A6.017,6.017,0,0,1,29.5.176a3.012,3.012,0,0,1-2.342-.813,3.539,3.539,0,0,1-.734-2.439V-7.813H25.137V-8.947l1.477-.9.773-2.074H29.1v2.092h2.751v2.013H29.1v4.737a1.046,1.046,0,0,0,.321.844A1.266,1.266,0,0,0,30.27-1.96ZM38.013-8.1a1.7,1.7,0,0,0-1.336.541,2.5,2.5,0,0,0-.554,1.534h3.762a2.235,2.235,0,0,0-.519-1.534A1.756,1.756,0,0,0,38.013-8.1ZM38.391.176a5.072,5.072,0,0,1-3.709-1.31,4.959,4.959,0,0,1-1.336-3.709,5.454,5.454,0,0,1,1.235-3.819A4.4,4.4,0,0,1,38-10.011a4.328,4.328,0,0,1,3.243,1.187A4.489,4.489,0,0,1,42.4-5.546v1.3H36.062a2.58,2.58,0,0,0,.677,1.784,2.381,2.381,0,0,0,1.775.642A7.37,7.37,0,0,0,40.192-2a8.4,8.4,0,0,0,1.652-.589V-.519a6.294,6.294,0,0,1-1.5.523A9.476,9.476,0,0,1,38.391.176Zm-55.714,8V9.536l-1.538.4a2.681,2.681,0,0,1,.422,1.477,2.981,2.981,0,0,1-1.1,2.465,4.777,4.777,0,0,1-3.063.883l-.483-.026-.4-.044a.891.891,0,0,0-.413.7q0,.58,1.477.58h1.67a3.809,3.809,0,0,1,2.465.694,2.482,2.482,0,0,1,.848,2.039,3.024,3.024,0,0,1-1.437,2.672A7.484,7.484,0,0,1-23,22.324a5.713,5.713,0,0,1-3.142-.716A2.274,2.274,0,0,1-27.229,19.6a2.1,2.1,0,0,1,.554-1.485,3.144,3.144,0,0,1,1.626-.853,1.794,1.794,0,0,1-.721-.576,1.368,1.368,0,0,1-.308-.848,1.374,1.374,0,0,1,.325-.936,3.76,3.76,0,0,1,.94-.734A2.637,2.637,0,0,1-26.038,13.1a3.263,3.263,0,0,1-.453-1.74,3.069,3.069,0,0,1,1.046-2.487,4.523,4.523,0,0,1,2.988-.879,7.648,7.648,0,0,1,.98.075q.567.075.725.11Zm-7.585,11.215a.972.972,0,0,0,.532.87,2.926,2.926,0,0,0,1.49.316,5.277,5.277,0,0,0,2.259-.4,1.205,1.205,0,0,0,.817-1.081.765.765,0,0,0-.483-.765,3.959,3.959,0,0,0-1.494-.211h-1.389a2.1,2.1,0,0,0-1.235.347A1.071,1.071,0,0,0-24.908,19.389Zm.976-8a2,2,0,0,0,.365,1.266,1.325,1.325,0,0,0,1.112.466,1.3,1.3,0,0,0,1.107-.466A2.054,2.054,0,0,0-21,11.391q0-1.775-1.459-1.775Q-23.933,9.615-23.933,11.391ZM-13.025,18h-2.681V4.324h2.681Zm4.948-4.931A4.124,4.124,0,0,0-7.6,15.275a1.713,1.713,0,0,0,1.56.747A1.686,1.686,0,0,0-4.5,15.28a4.183,4.183,0,0,0,.47-2.21A4.059,4.059,0,0,0-4.5,10.881a1.716,1.716,0,0,0-1.556-.729,1.711,1.711,0,0,0-1.547.725A4.055,4.055,0,0,0-8.077,13.069Zm6.794,0a5.28,5.28,0,0,1-1.266,3.753,4.589,4.589,0,0,1-3.524,1.354,4.93,4.93,0,0,1-2.5-.62,4.123,4.123,0,0,1-1.661-1.78,5.981,5.981,0,0,1-.58-2.707A5.251,5.251,0,0,1-9.554,9.325,4.616,4.616,0,0,1-6.021,7.989a4.958,4.958,0,0,1,2.5.615,4.106,4.106,0,0,1,1.661,1.767A5.925,5.925,0,0,1-1.283,13.069ZM6.4,7.989A3.178,3.178,0,0,1,9.123,9.347a6.231,6.231,0,0,1,.984,3.722A6.121,6.121,0,0,1,9.092,16.84a3.286,3.286,0,0,1-2.764,1.336,3.259,3.259,0,0,1-2.716-1.257H3.428L2.979,18H.932V4.324H3.612V7.506q0,.606-.105,1.942h.105A3.1,3.1,0,0,1,6.4,7.989Zm-.861,2.145a1.693,1.693,0,0,0-1.45.611,3.507,3.507,0,0,0-.475,2.017v.29a4.14,4.14,0,0,0,.47,2.268A1.678,1.678,0,0,0,5.572,16a1.5,1.5,0,0,0,1.314-.76,4.115,4.115,0,0,0,.488-2.21,3.9,3.9,0,0,0-.492-2.175A1.543,1.543,0,0,0,5.537,10.134ZM18.563,18l-.519-1.336h-.07a3.959,3.959,0,0,1-1.393,1.182,4.5,4.5,0,0,1-1.868.33,3.02,3.02,0,0,1-2.228-.809,3.105,3.105,0,0,1-.813-2.3,2.593,2.593,0,0,1,1.094-2.307,6.341,6.341,0,0,1,3.3-.822l1.705-.053v-.431a1.336,1.336,0,0,0-1.529-1.494,6.969,6.969,0,0,0-2.769.712l-.888-1.811a7.988,7.988,0,0,1,3.762-.888,4.686,4.686,0,0,1,3.032.861,3.183,3.183,0,0,1,1.055,2.619V18Zm-.791-4.553-1.037.035a3.321,3.321,0,0,0-1.74.422,1.325,1.325,0,0,0-.571,1.178q0,1.134,1.3,1.134a2.06,2.06,0,0,0,1.49-.536,1.883,1.883,0,0,0,.558-1.424ZM25.875,18H23.194V4.324h2.681Z" transform="translate(568.864 180.228)" fill="#1a3151"/>
    <path id="Trazado_44920" data-name="Trazado 44920" d="M-55.409.186A3.369,3.369,0,0,1-58.28-1.234a6.525,6.525,0,0,1-1.044-3.934,6.532,6.532,0,0,1,1.062-3.975,3.45,3.45,0,0,1,2.927-1.424,3.384,3.384,0,0,1,2.987,1.521h.093a11.568,11.568,0,0,1-.213-2.069v-3.321h2.839V0H-51.8l-.547-1.345h-.121A3.238,3.238,0,0,1-55.409.186Zm.993-2.254A1.917,1.917,0,0,0-52.825-2.7a3.67,3.67,0,0,0,.552-2.143v-.306a4.241,4.241,0,0,0-.515-2.394,1.912,1.912,0,0,0-1.675-.724,1.661,1.661,0,0,0-1.47.8,4.281,4.281,0,0,0-.524,2.333,4.058,4.058,0,0,0,.529,2.3A1.728,1.728,0,0,0-54.416-2.069Zm7.626-10.984q0-1.382,1.54-1.382t1.54,1.382a1.348,1.348,0,0,1-.385,1.025,1.618,1.618,0,0,1-1.155.366Q-46.79-11.662-46.79-13.053ZM-43.84,0h-2.83V-10.372h2.83Zm12.255,0h-2.83V-6.058a3.052,3.052,0,0,0-.376-1.684A1.322,1.322,0,0,0-35.973-8.3a1.713,1.713,0,0,0-1.577.8,5.233,5.233,0,0,0-.492,2.625V0h-2.83V-10.372h2.162l.38,1.327h.158a2.875,2.875,0,0,1,1.206-1.118,3.916,3.916,0,0,1,1.809-.4A3.259,3.259,0,0,1-32-9.045h.25a2.8,2.8,0,0,1,1.229-1.123,4.1,4.1,0,0,1,1.832-.4,3.617,3.617,0,0,1,2.667.9,3.972,3.972,0,0,1,.9,2.9V0h-2.839V-6.058a3.052,3.052,0,0,0-.376-1.684A1.322,1.322,0,0,0-29.516-8.3a1.765,1.765,0,0,0-1.554.742A4.211,4.211,0,0,0-31.585-5.2Zm13.666-8.554a1.8,1.8,0,0,0-1.41.571,2.641,2.641,0,0,0-.584,1.619h3.971a2.359,2.359,0,0,0-.547-1.619A1.853,1.853,0,0,0-17.919-8.554Zm.4,8.739A5.353,5.353,0,0,1-21.435-1.2a5.234,5.234,0,0,1-1.41-3.915,5.757,5.757,0,0,1,1.3-4.031,4.641,4.641,0,0,1,3.6-1.424,4.568,4.568,0,0,1,3.423,1.252,4.738,4.738,0,0,1,1.225,3.46v1.373h-6.689A2.724,2.724,0,0,0-19.264-2.6a2.513,2.513,0,0,0,1.874.677,7.78,7.78,0,0,0,1.772-.195,8.866,8.866,0,0,0,1.744-.622V-.547A6.644,6.644,0,0,1-15.461,0,10,10,0,0,1-17.52.186ZM-1.415,0h-2.83V-6.058a2.91,2.91,0,0,0-.4-1.684A1.451,1.451,0,0,0-5.914-8.3a1.911,1.911,0,0,0-1.716.793,4.919,4.919,0,0,0-.529,2.63V0h-2.83V-10.372h2.162l.38,1.327h.158a2.99,2.99,0,0,1,1.3-1.136A4.439,4.439,0,0,1-5.1-10.567a3.627,3.627,0,0,1,2.746.979,3.928,3.928,0,0,1,.937,2.825ZM8.735-3.08A2.856,2.856,0,0,1,7.626-.649,5.478,5.478,0,0,1,4.309.186,10.417,10.417,0,0,1,2.38.032,7.3,7.3,0,0,1,.886-.417V-2.755a9.864,9.864,0,0,0,1.777.622,7.194,7.194,0,0,0,1.74.25q1.54,0,1.54-.891a.743.743,0,0,0-.2-.543,2.959,2.959,0,0,0-.705-.473q-.5-.264-1.336-.617a8.392,8.392,0,0,1-1.758-.928,2.611,2.611,0,0,1-.816-.979A3.231,3.231,0,0,1,.867-7.672,2.464,2.464,0,0,1,1.939-9.811a5.22,5.22,0,0,1,3.038-.756,8.624,8.624,0,0,1,3.646.816L7.77-7.709q-.779-.334-1.457-.547A4.574,4.574,0,0,0,4.931-8.47q-1.252,0-1.252.677a.8.8,0,0,0,.4.659,10.975,10.975,0,0,0,1.767.826,8.21,8.21,0,0,1,1.781.918,2.716,2.716,0,0,1,.835.983A3.022,3.022,0,0,1,8.735-3.08Zm2.087-9.973q0-1.382,1.54-1.382t1.54,1.382a1.348,1.348,0,0,1-.385,1.025,1.618,1.618,0,0,1-1.155.366Q10.822-11.662,10.822-13.053ZM13.772,0h-2.83V-10.372h2.83ZM19-5.2A4.353,4.353,0,0,0,19.5-2.876a1.808,1.808,0,0,0,1.647.789,1.779,1.779,0,0,0,1.628-.784,4.416,4.416,0,0,0,.5-2.333,4.284,4.284,0,0,0-.5-2.31,1.811,1.811,0,0,0-1.642-.77,1.806,1.806,0,0,0-1.633.765A4.28,4.28,0,0,0,19-5.2Zm7.171,0a5.574,5.574,0,0,1-1.336,3.961A4.844,4.844,0,0,1,21.111.186a5.2,5.2,0,0,1-2.635-.654,4.352,4.352,0,0,1-1.753-1.879A6.313,6.313,0,0,1,16.11-5.2a5.543,5.543,0,0,1,1.327-3.952,4.872,4.872,0,0,1,3.729-1.41,5.234,5.234,0,0,1,2.635.649,4.335,4.335,0,0,1,1.753,1.865A6.254,6.254,0,0,1,26.167-5.2ZM38.079,0h-2.83V-6.058a2.91,2.91,0,0,0-.4-1.684A1.451,1.451,0,0,0,33.579-8.3a1.911,1.911,0,0,0-1.716.793,4.919,4.919,0,0,0-.529,2.63V0H28.5V-10.372h2.162l.38,1.327H31.2a2.99,2.99,0,0,1,1.3-1.136,4.439,4.439,0,0,1,1.888-.385,3.627,3.627,0,0,1,2.746.979,3.928,3.928,0,0,1,.937,2.825Zm7.208-8.554a1.8,1.8,0,0,0-1.41.571,2.641,2.641,0,0,0-.584,1.619h3.971a2.359,2.359,0,0,0-.547-1.619A1.853,1.853,0,0,0,45.287-8.554Zm.4,8.739A5.353,5.353,0,0,1,41.771-1.2a5.234,5.234,0,0,1-1.41-3.915,5.757,5.757,0,0,1,1.3-4.031,4.641,4.641,0,0,1,3.6-1.424,4.568,4.568,0,0,1,3.423,1.252,4.738,4.738,0,0,1,1.225,3.46v1.373H43.228A2.724,2.724,0,0,0,43.942-2.6a2.513,2.513,0,0,0,1.874.677,7.78,7.78,0,0,0,1.772-.195,8.866,8.866,0,0,0,1.744-.622V-.547A6.644,6.644,0,0,1,47.746,0,10,10,0,0,1,45.686.186ZM59.454-3.08A2.856,2.856,0,0,1,58.345-.649a5.478,5.478,0,0,1-3.317.835A10.417,10.417,0,0,1,53.1.032a7.3,7.3,0,0,1-1.494-.45V-2.755a9.864,9.864,0,0,0,1.777.622,7.194,7.194,0,0,0,1.74.25q1.54,0,1.54-.891a.743.743,0,0,0-.2-.543,2.959,2.959,0,0,0-.705-.473q-.5-.264-1.336-.617a8.392,8.392,0,0,1-1.758-.928,2.611,2.611,0,0,1-.816-.979,3.231,3.231,0,0,1-.255-1.359,2.464,2.464,0,0,1,1.072-2.138,5.22,5.22,0,0,1,3.038-.756,8.624,8.624,0,0,1,3.646.816l-.854,2.041q-.779-.334-1.457-.547A4.574,4.574,0,0,0,55.65-8.47q-1.252,0-1.252.677a.8.8,0,0,0,.4.659,10.975,10.975,0,0,0,1.767.826,8.21,8.21,0,0,1,1.781.918,2.716,2.716,0,0,1,.835.983A3.022,3.022,0,0,1,59.454-3.08Zm-88.093,19a2.856,2.856,0,0,1-1.109,2.431,5.478,5.478,0,0,1-3.317.835,10.417,10.417,0,0,1-1.93-.153,7.3,7.3,0,0,1-1.494-.45V16.245a9.864,9.864,0,0,0,1.777.622,7.194,7.194,0,0,0,1.74.25q1.54,0,1.54-.891a.743.743,0,0,0-.2-.543,2.959,2.959,0,0,0-.705-.473q-.5-.264-1.336-.617a8.392,8.392,0,0,1-1.758-.928,2.611,2.611,0,0,1-.816-.979,3.231,3.231,0,0,1-.255-1.359,2.464,2.464,0,0,1,1.072-2.138A5.22,5.22,0,0,1-32.4,8.433a8.624,8.624,0,0,1,3.646.816l-.854,2.041q-.779-.334-1.457-.547a4.574,4.574,0,0,0-1.382-.213q-1.252,0-1.252.677a.8.8,0,0,0,.4.659,10.975,10.975,0,0,0,1.767.826,8.211,8.211,0,0,1,1.781.918,2.716,2.716,0,0,1,.835.983A3.022,3.022,0,0,1-28.639,15.92Zm4.462-2.125a4.353,4.353,0,0,0,.506,2.329,1.808,1.808,0,0,0,1.647.789,1.779,1.779,0,0,0,1.628-.784,4.416,4.416,0,0,0,.5-2.333,4.284,4.284,0,0,0-.5-2.31,1.811,1.811,0,0,0-1.642-.77,1.806,1.806,0,0,0-1.633.765A4.28,4.28,0,0,0-24.177,13.8Zm7.171,0a5.574,5.574,0,0,1-1.336,3.961,4.844,4.844,0,0,1-3.72,1.429,5.2,5.2,0,0,1-2.635-.654,4.352,4.352,0,0,1-1.753-1.879,6.313,6.313,0,0,1-.612-2.857,5.543,5.543,0,0,1,1.327-3.952,4.872,4.872,0,0,1,3.729-1.41,5.234,5.234,0,0,1,2.635.649,4.335,4.335,0,0,1,1.753,1.865A6.254,6.254,0,0,1-17.005,13.8Zm6.55,5.39q-4.843,0-4.843-5.316a5.67,5.67,0,0,1,1.317-4.04,4.942,4.942,0,0,1,3.776-1.4,7.2,7.2,0,0,1,3.229.705l-.835,2.189q-.668-.269-1.243-.441a4.006,4.006,0,0,0-1.15-.172q-2.208,0-2.208,3.136,0,3.043,2.208,3.043a5.034,5.034,0,0,0,1.512-.218A5.46,5.46,0,0,0-7.3,15.994v2.421a4.56,4.56,0,0,1-1.387.6A7.8,7.8,0,0,1-10.456,19.186ZM-5.019,5.947q0-1.382,1.54-1.382t1.54,1.382a1.348,1.348,0,0,1-.385,1.025,1.618,1.618,0,0,1-1.155.366Q-5.019,7.338-5.019,5.947ZM-2.069,19H-4.9V8.628h2.83Zm9.556,0-.547-1.41H6.865a4.179,4.179,0,0,1-1.47,1.248,4.752,4.752,0,0,1-1.971.348,3.188,3.188,0,0,1-2.352-.854A3.278,3.278,0,0,1,.213,15.9a2.737,2.737,0,0,1,1.155-2.435A6.693,6.693,0,0,1,4.852,12.6l1.8-.056v-.455a1.411,1.411,0,0,0-1.614-1.577,7.356,7.356,0,0,0-2.922.751L1.178,9.352a8.432,8.432,0,0,1,3.971-.937,4.946,4.946,0,0,1,3.2.909,3.36,3.36,0,0,1,1.113,2.765V19Zm-.835-4.806-1.095.037a3.506,3.506,0,0,0-1.837.445,1.4,1.4,0,0,0-.6,1.243q0,1.2,1.373,1.2a2.175,2.175,0,0,0,1.573-.566,1.988,1.988,0,0,0,.589-1.5ZM15.206,19h-2.83V4.564h2.83Zm7.264-8.554a1.8,1.8,0,0,0-1.41.571,2.641,2.641,0,0,0-.584,1.619h3.971a2.359,2.359,0,0,0-.547-1.619A1.853,1.853,0,0,0,22.47,10.446Zm.4,8.739A5.353,5.353,0,0,1,18.954,17.8a5.234,5.234,0,0,1-1.41-3.915,5.757,5.757,0,0,1,1.3-4.031,4.641,4.641,0,0,1,3.6-1.424,4.568,4.568,0,0,1,3.423,1.252,4.738,4.738,0,0,1,1.225,3.46v1.373H20.41a2.724,2.724,0,0,0,.714,1.883A2.513,2.513,0,0,0,23,17.08a7.78,7.78,0,0,0,1.772-.195,8.866,8.866,0,0,0,1.744-.622v2.189A6.644,6.644,0,0,1,24.928,19,10,10,0,0,1,22.869,19.186ZM36.636,15.92a2.856,2.856,0,0,1-1.109,2.431,5.478,5.478,0,0,1-3.317.835,10.417,10.417,0,0,1-1.93-.153,7.3,7.3,0,0,1-1.494-.45V16.245a9.864,9.864,0,0,0,1.777.622,7.194,7.194,0,0,0,1.74.25q1.54,0,1.54-.891a.743.743,0,0,0-.2-.543,2.959,2.959,0,0,0-.705-.473q-.5-.264-1.336-.617a8.392,8.392,0,0,1-1.758-.928,2.611,2.611,0,0,1-.816-.979,3.231,3.231,0,0,1-.255-1.359,2.464,2.464,0,0,1,1.072-2.138,5.22,5.22,0,0,1,3.038-.756,8.624,8.624,0,0,1,3.646.816l-.854,2.041q-.779-.334-1.457-.547a4.574,4.574,0,0,0-1.382-.213q-1.252,0-1.252.677a.8.8,0,0,0,.4.659,10.975,10.975,0,0,0,1.767.826,8.21,8.21,0,0,1,1.781.918,2.716,2.716,0,0,1,.835.983A3.022,3.022,0,0,1,36.636,15.92Z" transform="translate(481.692 333.805)" fill="#ffd664"/>
    <path id="Trazado_44918" data-name="Trazado 44918" d="M-55.409.186A3.369,3.369,0,0,1-58.28-1.234a6.525,6.525,0,0,1-1.044-3.934,6.532,6.532,0,0,1,1.062-3.975,3.45,3.45,0,0,1,2.927-1.424,3.384,3.384,0,0,1,2.987,1.521h.093a11.568,11.568,0,0,1-.213-2.069v-3.321h2.839V0H-51.8l-.547-1.345h-.121A3.238,3.238,0,0,1-55.409.186Zm.993-2.254A1.917,1.917,0,0,0-52.825-2.7a3.67,3.67,0,0,0,.552-2.143v-.306a4.241,4.241,0,0,0-.515-2.394,1.912,1.912,0,0,0-1.675-.724,1.661,1.661,0,0,0-1.47.8,4.281,4.281,0,0,0-.524,2.333,4.058,4.058,0,0,0,.529,2.3A1.728,1.728,0,0,0-54.416-2.069Zm7.626-10.984q0-1.382,1.54-1.382t1.54,1.382a1.348,1.348,0,0,1-.385,1.025,1.618,1.618,0,0,1-1.155.366Q-46.79-11.662-46.79-13.053ZM-43.84,0h-2.83V-10.372h2.83Zm12.255,0h-2.83V-6.058a3.052,3.052,0,0,0-.376-1.684A1.322,1.322,0,0,0-35.973-8.3a1.713,1.713,0,0,0-1.577.8,5.233,5.233,0,0,0-.492,2.625V0h-2.83V-10.372h2.162l.38,1.327h.158a2.875,2.875,0,0,1,1.206-1.118,3.916,3.916,0,0,1,1.809-.4A3.259,3.259,0,0,1-32-9.045h.25a2.8,2.8,0,0,1,1.229-1.123,4.1,4.1,0,0,1,1.832-.4,3.617,3.617,0,0,1,2.667.9,3.972,3.972,0,0,1,.9,2.9V0h-2.839V-6.058a3.052,3.052,0,0,0-.376-1.684A1.322,1.322,0,0,0-29.516-8.3a1.765,1.765,0,0,0-1.554.742A4.211,4.211,0,0,0-31.585-5.2Zm13.666-8.554a1.8,1.8,0,0,0-1.41.571,2.641,2.641,0,0,0-.584,1.619h3.971a2.359,2.359,0,0,0-.547-1.619A1.853,1.853,0,0,0-17.919-8.554Zm.4,8.739A5.353,5.353,0,0,1-21.435-1.2a5.234,5.234,0,0,1-1.41-3.915,5.757,5.757,0,0,1,1.3-4.031,4.641,4.641,0,0,1,3.6-1.424,4.568,4.568,0,0,1,3.423,1.252,4.738,4.738,0,0,1,1.225,3.46v1.373h-6.689A2.724,2.724,0,0,0-19.264-2.6a2.513,2.513,0,0,0,1.874.677,7.78,7.78,0,0,0,1.772-.195,8.866,8.866,0,0,0,1.744-.622V-.547A6.644,6.644,0,0,1-15.461,0,10,10,0,0,1-17.52.186ZM-1.415,0h-2.83V-6.058a2.91,2.91,0,0,0-.4-1.684A1.451,1.451,0,0,0-5.914-8.3a1.911,1.911,0,0,0-1.716.793,4.919,4.919,0,0,0-.529,2.63V0h-2.83V-10.372h2.162l.38,1.327h.158a2.99,2.99,0,0,1,1.3-1.136A4.439,4.439,0,0,1-5.1-10.567a3.627,3.627,0,0,1,2.746.979,3.928,3.928,0,0,1,.937,2.825ZM8.735-3.08A2.856,2.856,0,0,1,7.626-.649,5.478,5.478,0,0,1,4.309.186,10.417,10.417,0,0,1,2.38.032,7.3,7.3,0,0,1,.886-.417V-2.755a9.864,9.864,0,0,0,1.777.622,7.194,7.194,0,0,0,1.74.25q1.54,0,1.54-.891a.743.743,0,0,0-.2-.543,2.959,2.959,0,0,0-.705-.473q-.5-.264-1.336-.617a8.392,8.392,0,0,1-1.758-.928,2.611,2.611,0,0,1-.816-.979A3.231,3.231,0,0,1,.867-7.672,2.464,2.464,0,0,1,1.939-9.811a5.22,5.22,0,0,1,3.038-.756,8.624,8.624,0,0,1,3.646.816L7.77-7.709q-.779-.334-1.457-.547A4.574,4.574,0,0,0,4.931-8.47q-1.252,0-1.252.677a.8.8,0,0,0,.4.659,10.975,10.975,0,0,0,1.767.826,8.21,8.21,0,0,1,1.781.918,2.716,2.716,0,0,1,.835.983A3.022,3.022,0,0,1,8.735-3.08Zm2.087-9.973q0-1.382,1.54-1.382t1.54,1.382a1.348,1.348,0,0,1-.385,1.025,1.618,1.618,0,0,1-1.155.366Q10.822-11.662,10.822-13.053ZM13.772,0h-2.83V-10.372h2.83ZM19-5.2A4.353,4.353,0,0,0,19.5-2.876a1.808,1.808,0,0,0,1.647.789,1.779,1.779,0,0,0,1.628-.784,4.416,4.416,0,0,0,.5-2.333,4.284,4.284,0,0,0-.5-2.31,1.811,1.811,0,0,0-1.642-.77,1.806,1.806,0,0,0-1.633.765A4.28,4.28,0,0,0,19-5.2Zm7.171,0a5.574,5.574,0,0,1-1.336,3.961A4.844,4.844,0,0,1,21.111.186a5.2,5.2,0,0,1-2.635-.654,4.352,4.352,0,0,1-1.753-1.879A6.313,6.313,0,0,1,16.11-5.2a5.543,5.543,0,0,1,1.327-3.952,4.872,4.872,0,0,1,3.729-1.41,5.234,5.234,0,0,1,2.635.649,4.335,4.335,0,0,1,1.753,1.865A6.254,6.254,0,0,1,26.167-5.2ZM38.079,0h-2.83V-6.058a2.91,2.91,0,0,0-.4-1.684A1.451,1.451,0,0,0,33.579-8.3a1.911,1.911,0,0,0-1.716.793,4.919,4.919,0,0,0-.529,2.63V0H28.5V-10.372h2.162l.38,1.327H31.2a2.99,2.99,0,0,1,1.3-1.136,4.439,4.439,0,0,1,1.888-.385,3.627,3.627,0,0,1,2.746.979,3.928,3.928,0,0,1,.937,2.825Zm7.208-8.554a1.8,1.8,0,0,0-1.41.571,2.641,2.641,0,0,0-.584,1.619h3.971a2.359,2.359,0,0,0-.547-1.619A1.853,1.853,0,0,0,45.287-8.554Zm.4,8.739A5.353,5.353,0,0,1,41.771-1.2a5.234,5.234,0,0,1-1.41-3.915,5.757,5.757,0,0,1,1.3-4.031,4.641,4.641,0,0,1,3.6-1.424,4.568,4.568,0,0,1,3.423,1.252,4.738,4.738,0,0,1,1.225,3.46v1.373H43.228A2.724,2.724,0,0,0,43.942-2.6a2.513,2.513,0,0,0,1.874.677,7.78,7.78,0,0,0,1.772-.195,8.866,8.866,0,0,0,1.744-.622V-.547A6.644,6.644,0,0,1,47.746,0,10,10,0,0,1,45.686.186ZM59.454-3.08A2.856,2.856,0,0,1,58.345-.649a5.478,5.478,0,0,1-3.317.835A10.417,10.417,0,0,1,53.1.032a7.3,7.3,0,0,1-1.494-.45V-2.755a9.864,9.864,0,0,0,1.777.622,7.194,7.194,0,0,0,1.74.25q1.54,0,1.54-.891a.743.743,0,0,0-.2-.543,2.959,2.959,0,0,0-.705-.473q-.5-.264-1.336-.617a8.392,8.392,0,0,1-1.758-.928,2.611,2.611,0,0,1-.816-.979,3.231,3.231,0,0,1-.255-1.359,2.464,2.464,0,0,1,1.072-2.138,5.22,5.22,0,0,1,3.038-.756,8.624,8.624,0,0,1,3.646.816l-.854,2.041q-.779-.334-1.457-.547A4.574,4.574,0,0,0,55.65-8.47q-1.252,0-1.252.677a.8.8,0,0,0,.4.659,10.975,10.975,0,0,0,1.767.826,8.21,8.21,0,0,1,1.781.918,2.716,2.716,0,0,1,.835.983A3.022,3.022,0,0,1,59.454-3.08ZM-50.3,10.446a1.8,1.8,0,0,0-1.41.571,2.641,2.641,0,0,0-.584,1.619h3.971a2.359,2.359,0,0,0-.547-1.619A1.853,1.853,0,0,0-50.3,10.446Zm.4,8.739A5.353,5.353,0,0,1-53.813,17.8a5.234,5.234,0,0,1-1.41-3.915,5.757,5.757,0,0,1,1.3-4.031,4.641,4.641,0,0,1,3.6-1.424,4.568,4.568,0,0,1,3.423,1.252,4.738,4.738,0,0,1,1.225,3.46v1.373h-6.689a2.724,2.724,0,0,0,.714,1.883,2.513,2.513,0,0,0,1.874.677A7.78,7.78,0,0,0-48,16.885a8.866,8.866,0,0,0,1.744-.622v2.189A6.644,6.644,0,0,1-47.839,19,10,10,0,0,1-49.9,19.186Zm10.743,0Q-44,19.186-44,13.87a5.67,5.67,0,0,1,1.317-4.04,4.942,4.942,0,0,1,3.776-1.4,7.2,7.2,0,0,1,3.229.705l-.835,2.189q-.668-.269-1.243-.441a4.006,4.006,0,0,0-1.15-.172q-2.208,0-2.208,3.136,0,3.043,2.208,3.043a5.034,5.034,0,0,0,1.512-.218A5.46,5.46,0,0,0-36,15.994v2.421a4.56,4.56,0,0,1-1.387.6A7.8,7.8,0,0,1-39.155,19.186Zm7.812-5.39a4.353,4.353,0,0,0,.506,2.329,1.808,1.808,0,0,0,1.647.789,1.779,1.779,0,0,0,1.628-.784,4.416,4.416,0,0,0,.5-2.333,4.284,4.284,0,0,0-.5-2.31,1.811,1.811,0,0,0-1.642-.77,1.806,1.806,0,0,0-1.633.765A4.28,4.28,0,0,0-31.344,13.8Zm7.171,0a5.574,5.574,0,0,1-1.336,3.961,4.844,4.844,0,0,1-3.72,1.429,5.2,5.2,0,0,1-2.635-.654,4.352,4.352,0,0,1-1.753-1.879,6.313,6.313,0,0,1-.612-2.857A5.543,5.543,0,0,1-32.9,9.843a4.872,4.872,0,0,1,3.729-1.41,5.234,5.234,0,0,1,2.635.649,4.335,4.335,0,0,1,1.753,1.865A6.254,6.254,0,0,1-24.172,13.8ZM-12.26,19h-2.83V12.942a2.91,2.91,0,0,0-.4-1.684A1.451,1.451,0,0,0-16.76,10.7a1.911,1.911,0,0,0-1.716.793A4.919,4.919,0,0,0-19,14.12V19h-2.83V8.628h2.162l.38,1.327h.158a2.99,2.99,0,0,1,1.3-1.136,4.439,4.439,0,0,1,1.888-.385,3.627,3.627,0,0,1,2.746.979,3.928,3.928,0,0,1,.937,2.825Zm5.167-5.2a4.353,4.353,0,0,0,.506,2.329,1.808,1.808,0,0,0,1.647.789,1.779,1.779,0,0,0,1.628-.784,4.416,4.416,0,0,0,.5-2.333,4.284,4.284,0,0,0-.5-2.31,1.811,1.811,0,0,0-1.642-.77,1.806,1.806,0,0,0-1.633.765A4.28,4.28,0,0,0-7.093,13.8Zm7.171,0a5.574,5.574,0,0,1-1.336,3.961,4.844,4.844,0,0,1-3.72,1.429,5.2,5.2,0,0,1-2.635-.654,4.352,4.352,0,0,1-1.753-1.879A6.313,6.313,0,0,1-9.978,13.8,5.543,5.543,0,0,1-8.651,9.843a4.872,4.872,0,0,1,3.729-1.41,5.234,5.234,0,0,1,2.635.649A4.335,4.335,0,0,1-.533,10.947,6.254,6.254,0,0,1,.079,13.8ZM-6.5,7.487v-.25a26.12,26.12,0,0,0,2.18-2.792h3.173v.195q-.482.482-1.647,1.433T-4.615,7.487ZM11.7,19H8.874V12.942A3.052,3.052,0,0,0,8.5,11.258,1.322,1.322,0,0,0,7.315,10.7a1.713,1.713,0,0,0-1.577.8,5.233,5.233,0,0,0-.492,2.625V19H2.417V8.628H4.578l.38,1.327h.158A2.875,2.875,0,0,1,6.323,8.837a3.916,3.916,0,0,1,1.809-.4,3.259,3.259,0,0,1,3.154,1.521h.25a2.8,2.8,0,0,1,1.229-1.123,4.1,4.1,0,0,1,1.832-.4,3.617,3.617,0,0,1,2.667.9,3.972,3.972,0,0,1,.9,2.9V19H15.331V12.942a3.052,3.052,0,0,0-.376-1.684,1.322,1.322,0,0,0-1.183-.561,1.765,1.765,0,0,0-1.554.742A4.211,4.211,0,0,0,11.7,13.8Zm9.25-13.053q0-1.382,1.54-1.382t1.54,1.382a1.348,1.348,0,0,1-.385,1.025,1.618,1.618,0,0,1-1.155.366Q20.953,7.338,20.953,5.947ZM23.9,19h-2.83V8.628H23.9Zm7.181.186q-4.843,0-4.843-5.316a5.67,5.67,0,0,1,1.317-4.04,4.942,4.942,0,0,1,3.776-1.4,7.2,7.2,0,0,1,3.229.705l-.835,2.189q-.668-.269-1.243-.441a4.006,4.006,0,0,0-1.15-.172q-2.208,0-2.208,3.136,0,3.043,2.208,3.043a5.034,5.034,0,0,0,1.512-.218,5.46,5.46,0,0,0,1.392-.682v2.421a4.56,4.56,0,0,1-1.387.6A7.8,7.8,0,0,1,31.084,19.186ZM43.228,19l-.547-1.41h-.074a4.179,4.179,0,0,1-1.47,1.248,4.752,4.752,0,0,1-1.971.348,3.188,3.188,0,0,1-2.352-.854,3.278,3.278,0,0,1-.858-2.431,2.737,2.737,0,0,1,1.155-2.435,6.693,6.693,0,0,1,3.484-.867l1.8-.056v-.455a1.411,1.411,0,0,0-1.614-1.577,7.356,7.356,0,0,0-2.922.751l-.937-1.911a8.432,8.432,0,0,1,3.971-.937,4.946,4.946,0,0,1,3.2.909A3.36,3.36,0,0,1,45.2,12.088V19Zm-.835-4.806-1.095.037a3.506,3.506,0,0,0-1.837.445,1.4,1.4,0,0,0-.6,1.243q0,1.2,1.373,1.2a2.175,2.175,0,0,0,1.573-.566,1.988,1.988,0,0,0,.589-1.5Zm12.96,1.726a2.856,2.856,0,0,1-1.109,2.431,5.478,5.478,0,0,1-3.317.835A10.417,10.417,0,0,1,49,19.032a7.3,7.3,0,0,1-1.494-.45V16.245a9.864,9.864,0,0,0,1.777.622,7.194,7.194,0,0,0,1.74.25q1.54,0,1.54-.891a.743.743,0,0,0-.2-.543,2.959,2.959,0,0,0-.705-.473q-.5-.264-1.336-.617a8.392,8.392,0,0,1-1.758-.928,2.611,2.611,0,0,1-.816-.979,3.231,3.231,0,0,1-.255-1.359,2.464,2.464,0,0,1,1.072-2.138A5.22,5.22,0,0,1,51.6,8.433a8.624,8.624,0,0,1,3.646.816l-.854,2.041q-.779-.334-1.457-.547a4.574,4.574,0,0,0-1.382-.213q-1.252,0-1.252.677a.8.8,0,0,0,.4.659,10.975,10.975,0,0,0,1.767.826,8.21,8.21,0,0,1,1.781.918,2.716,2.716,0,0,1,.835.983A3.022,3.022,0,0,1,55.353,15.92Z" transform="translate(416.439 37.228)" fill="#1a3151"/>
    <path id="Trazado_44914" data-name="Trazado 44914" d="M-55.409.186A3.369,3.369,0,0,1-58.28-1.234a6.525,6.525,0,0,1-1.044-3.934,6.532,6.532,0,0,1,1.062-3.975,3.45,3.45,0,0,1,2.927-1.424,3.384,3.384,0,0,1,2.987,1.521h.093a11.568,11.568,0,0,1-.213-2.069v-3.321h2.839V0H-51.8l-.547-1.345h-.121A3.238,3.238,0,0,1-55.409.186Zm.993-2.254A1.917,1.917,0,0,0-52.825-2.7a3.67,3.67,0,0,0,.552-2.143v-.306a4.241,4.241,0,0,0-.515-2.394,1.912,1.912,0,0,0-1.675-.724,1.661,1.661,0,0,0-1.47.8,4.281,4.281,0,0,0-.524,2.333,4.058,4.058,0,0,0,.529,2.3A1.728,1.728,0,0,0-54.416-2.069Zm7.626-10.984q0-1.382,1.54-1.382t1.54,1.382a1.348,1.348,0,0,1-.385,1.025,1.618,1.618,0,0,1-1.155.366Q-46.79-11.662-46.79-13.053ZM-43.84,0h-2.83V-10.372h2.83Zm12.255,0h-2.83V-6.058a3.052,3.052,0,0,0-.376-1.684A1.322,1.322,0,0,0-35.973-8.3a1.713,1.713,0,0,0-1.577.8,5.233,5.233,0,0,0-.492,2.625V0h-2.83V-10.372h2.162l.38,1.327h.158a2.875,2.875,0,0,1,1.206-1.118,3.916,3.916,0,0,1,1.809-.4A3.259,3.259,0,0,1-32-9.045h.25a2.8,2.8,0,0,1,1.229-1.123,4.1,4.1,0,0,1,1.832-.4,3.617,3.617,0,0,1,2.667.9,3.972,3.972,0,0,1,.9,2.9V0h-2.839V-6.058a3.052,3.052,0,0,0-.376-1.684A1.322,1.322,0,0,0-29.516-8.3a1.765,1.765,0,0,0-1.554.742A4.211,4.211,0,0,0-31.585-5.2Zm13.666-8.554a1.8,1.8,0,0,0-1.41.571,2.641,2.641,0,0,0-.584,1.619h3.971a2.359,2.359,0,0,0-.547-1.619A1.853,1.853,0,0,0-17.919-8.554Zm.4,8.739A5.353,5.353,0,0,1-21.435-1.2a5.234,5.234,0,0,1-1.41-3.915,5.757,5.757,0,0,1,1.3-4.031,4.641,4.641,0,0,1,3.6-1.424,4.568,4.568,0,0,1,3.423,1.252,4.738,4.738,0,0,1,1.225,3.46v1.373h-6.689A2.724,2.724,0,0,0-19.264-2.6a2.513,2.513,0,0,0,1.874.677,7.78,7.78,0,0,0,1.772-.195,8.866,8.866,0,0,0,1.744-.622V-.547A6.644,6.644,0,0,1-15.461,0,10,10,0,0,1-17.52.186ZM-1.415,0h-2.83V-6.058a2.91,2.91,0,0,0-.4-1.684A1.451,1.451,0,0,0-5.914-8.3a1.911,1.911,0,0,0-1.716.793,4.919,4.919,0,0,0-.529,2.63V0h-2.83V-10.372h2.162l.38,1.327h.158a2.99,2.99,0,0,1,1.3-1.136A4.439,4.439,0,0,1-5.1-10.567a3.627,3.627,0,0,1,2.746.979,3.928,3.928,0,0,1,.937,2.825ZM8.735-3.08A2.856,2.856,0,0,1,7.626-.649,5.478,5.478,0,0,1,4.309.186,10.417,10.417,0,0,1,2.38.032,7.3,7.3,0,0,1,.886-.417V-2.755a9.864,9.864,0,0,0,1.777.622,7.194,7.194,0,0,0,1.74.25q1.54,0,1.54-.891a.743.743,0,0,0-.2-.543,2.959,2.959,0,0,0-.705-.473q-.5-.264-1.336-.617a8.392,8.392,0,0,1-1.758-.928,2.611,2.611,0,0,1-.816-.979A3.231,3.231,0,0,1,.867-7.672,2.464,2.464,0,0,1,1.939-9.811a5.22,5.22,0,0,1,3.038-.756,8.624,8.624,0,0,1,3.646.816L7.77-7.709q-.779-.334-1.457-.547A4.574,4.574,0,0,0,4.931-8.47q-1.252,0-1.252.677a.8.8,0,0,0,.4.659,10.975,10.975,0,0,0,1.767.826,8.21,8.21,0,0,1,1.781.918,2.716,2.716,0,0,1,.835.983A3.022,3.022,0,0,1,8.735-3.08Zm2.087-9.973q0-1.382,1.54-1.382t1.54,1.382a1.348,1.348,0,0,1-.385,1.025,1.618,1.618,0,0,1-1.155.366Q10.822-11.662,10.822-13.053ZM13.772,0h-2.83V-10.372h2.83ZM19-5.2A4.353,4.353,0,0,0,19.5-2.876a1.808,1.808,0,0,0,1.647.789,1.779,1.779,0,0,0,1.628-.784,4.416,4.416,0,0,0,.5-2.333,4.284,4.284,0,0,0-.5-2.31,1.811,1.811,0,0,0-1.642-.77,1.806,1.806,0,0,0-1.633.765A4.28,4.28,0,0,0,19-5.2Zm7.171,0a5.574,5.574,0,0,1-1.336,3.961A4.844,4.844,0,0,1,21.111.186a5.2,5.2,0,0,1-2.635-.654,4.352,4.352,0,0,1-1.753-1.879A6.313,6.313,0,0,1,16.11-5.2a5.543,5.543,0,0,1,1.327-3.952,4.872,4.872,0,0,1,3.729-1.41,5.234,5.234,0,0,1,2.635.649,4.335,4.335,0,0,1,1.753,1.865A6.254,6.254,0,0,1,26.167-5.2ZM38.079,0h-2.83V-6.058a2.91,2.91,0,0,0-.4-1.684A1.451,1.451,0,0,0,33.579-8.3a1.911,1.911,0,0,0-1.716.793,4.919,4.919,0,0,0-.529,2.63V0H28.5V-10.372h2.162l.38,1.327H31.2a2.99,2.99,0,0,1,1.3-1.136,4.439,4.439,0,0,1,1.888-.385,3.627,3.627,0,0,1,2.746.979,3.928,3.928,0,0,1,.937,2.825Zm7.208-8.554a1.8,1.8,0,0,0-1.41.571,2.641,2.641,0,0,0-.584,1.619h3.971a2.359,2.359,0,0,0-.547-1.619A1.853,1.853,0,0,0,45.287-8.554Zm.4,8.739A5.353,5.353,0,0,1,41.771-1.2a5.234,5.234,0,0,1-1.41-3.915,5.757,5.757,0,0,1,1.3-4.031,4.641,4.641,0,0,1,3.6-1.424,4.568,4.568,0,0,1,3.423,1.252,4.738,4.738,0,0,1,1.225,3.46v1.373H43.228A2.724,2.724,0,0,0,43.942-2.6a2.513,2.513,0,0,0,1.874.677,7.78,7.78,0,0,0,1.772-.195,8.866,8.866,0,0,0,1.744-.622V-.547A6.644,6.644,0,0,1,47.746,0,10,10,0,0,1,45.686.186ZM59.454-3.08A2.856,2.856,0,0,1,58.345-.649a5.478,5.478,0,0,1-3.317.835A10.417,10.417,0,0,1,53.1.032a7.3,7.3,0,0,1-1.494-.45V-2.755a9.864,9.864,0,0,0,1.777.622,7.194,7.194,0,0,0,1.74.25q1.54,0,1.54-.891a.743.743,0,0,0-.2-.543,2.959,2.959,0,0,0-.705-.473q-.5-.264-1.336-.617a8.392,8.392,0,0,1-1.758-.928,2.611,2.611,0,0,1-.816-.979,3.231,3.231,0,0,1-.255-1.359,2.464,2.464,0,0,1,1.072-2.138,5.22,5.22,0,0,1,3.038-.756,8.624,8.624,0,0,1,3.646.816l-.854,2.041q-.779-.334-1.457-.547A4.574,4.574,0,0,0,55.65-8.47q-1.252,0-1.252.677a.8.8,0,0,0,.4.659,10.975,10.975,0,0,0,1.767.826,8.21,8.21,0,0,1,1.781.918,2.716,2.716,0,0,1,.835.983A3.022,3.022,0,0,1,59.454-3.08ZM-50.858,19l-.547-1.41h-.074a4.179,4.179,0,0,1-1.47,1.248,4.752,4.752,0,0,1-1.971.348,3.188,3.188,0,0,1-2.352-.854,3.278,3.278,0,0,1-.858-2.431,2.737,2.737,0,0,1,1.155-2.435,6.693,6.693,0,0,1,3.484-.867l1.8-.056v-.455a1.411,1.411,0,0,0-1.614-1.577,7.356,7.356,0,0,0-2.922.751l-.937-1.911A8.432,8.432,0,0,1-53.2,8.415a4.946,4.946,0,0,1,3.2.909,3.36,3.36,0,0,1,1.113,2.765V19Zm-.835-4.806-1.095.037a3.506,3.506,0,0,0-1.837.445,1.4,1.4,0,0,0-.6,1.243q0,1.2,1.373,1.2a2.175,2.175,0,0,0,1.573-.566,1.988,1.988,0,0,0,.589-1.5ZM-36.683,19h-2.83V12.942a3.052,3.052,0,0,0-.376-1.684,1.322,1.322,0,0,0-1.183-.561,1.713,1.713,0,0,0-1.577.8,5.233,5.233,0,0,0-.492,2.625V19h-2.83V8.628h2.162l.38,1.327h.158a2.875,2.875,0,0,1,1.206-1.118,3.916,3.916,0,0,1,1.809-.4A3.259,3.259,0,0,1-37.1,9.955h.25A2.8,2.8,0,0,1-35.62,8.832a4.1,4.1,0,0,1,1.832-.4,3.617,3.617,0,0,1,2.667.9,3.972,3.972,0,0,1,.9,2.9V19h-2.839V12.942a3.052,3.052,0,0,0-.376-1.684,1.322,1.322,0,0,0-1.183-.561,1.765,1.765,0,0,0-1.554.742,4.211,4.211,0,0,0-.515,2.356ZM-21.542,8.433a3.355,3.355,0,0,1,2.876,1.433A6.577,6.577,0,0,1-17.627,13.8a6.461,6.461,0,0,1-1.072,3.98,3.468,3.468,0,0,1-2.918,1.41,3.44,3.44,0,0,1-2.867-1.327h-.195L-25.151,19h-2.162V4.564h2.83V7.923q0,.64-.111,2.05h.111A3.273,3.273,0,0,1-21.542,8.433Zm-.909,2.264a1.787,1.787,0,0,0-1.531.645,3.7,3.7,0,0,0-.5,2.129v.306a4.37,4.37,0,0,0,.5,2.394,1.771,1.771,0,0,0,1.573.724,1.578,1.578,0,0,0,1.387-.8,4.344,4.344,0,0,0,.515-2.333,4.115,4.115,0,0,0-.52-2.3A1.629,1.629,0,0,0-22.451,10.7Zm7.042-4.75q0-1.382,1.54-1.382t1.54,1.382a1.348,1.348,0,0,1-.385,1.025,1.618,1.618,0,0,1-1.155.366Q-15.41,7.338-15.41,5.947ZM-12.459,19h-2.83V8.628h2.83ZM-5.2,10.446a1.8,1.8,0,0,0-1.41.571,2.641,2.641,0,0,0-.584,1.619h3.971a2.359,2.359,0,0,0-.547-1.619A1.853,1.853,0,0,0-5.2,10.446Zm.4,8.739A5.353,5.353,0,0,1-8.711,17.8a5.234,5.234,0,0,1-1.41-3.915,5.757,5.757,0,0,1,1.3-4.031,4.641,4.641,0,0,1,3.6-1.424A4.568,4.568,0,0,1-1.791,9.686a4.738,4.738,0,0,1,1.225,3.46v1.373H-7.255A2.724,2.724,0,0,0-6.541,16.4a2.513,2.513,0,0,0,1.874.677,7.78,7.78,0,0,0,1.772-.195,8.866,8.866,0,0,0,1.744-.622v2.189A6.644,6.644,0,0,1-2.737,19,10,10,0,0,1-4.8,19.186ZM11.309,19H8.479V12.942a2.91,2.91,0,0,0-.4-1.684A1.451,1.451,0,0,0,6.81,10.7a1.911,1.911,0,0,0-1.716.793,4.919,4.919,0,0,0-.529,2.63V19H1.735V8.628H3.9l.38,1.327h.158a2.99,2.99,0,0,1,1.3-1.136,4.439,4.439,0,0,1,1.888-.385,3.627,3.627,0,0,1,2.746.979,3.928,3.928,0,0,1,.937,2.825Zm7.283-2.069a6.134,6.134,0,0,0,1.781-.325v2.106a6.351,6.351,0,0,1-2.6.473,3.179,3.179,0,0,1-2.472-.858,3.735,3.735,0,0,1-.775-2.574v-5H13.174v-1.2l1.559-.946.816-2.189h1.809V8.628h2.9v2.125h-2.9v5a1.1,1.1,0,0,0,.339.891A1.336,1.336,0,0,0,18.592,16.931ZM29.057,19l-.547-1.41h-.074a4.179,4.179,0,0,1-1.47,1.248,4.752,4.752,0,0,1-1.971.348,3.188,3.188,0,0,1-2.352-.854,3.278,3.278,0,0,1-.858-2.431,2.737,2.737,0,0,1,1.155-2.435,6.693,6.693,0,0,1,3.484-.867l1.8-.056v-.455a1.411,1.411,0,0,0-1.614-1.577,7.356,7.356,0,0,0-2.922.751l-.937-1.911a8.432,8.432,0,0,1,3.971-.937,4.946,4.946,0,0,1,3.2.909,3.36,3.36,0,0,1,1.113,2.765V19Zm-.835-4.806-1.095.037a3.506,3.506,0,0,0-1.837.445,1.4,1.4,0,0,0-.6,1.243q0,1.2,1.373,1.2a2.175,2.175,0,0,0,1.573-.566,1.988,1.988,0,0,0,.589-1.5ZM36.775,19h-2.83V4.564h2.83Zm7.264-8.554a1.8,1.8,0,0,0-1.41.571,2.641,2.641,0,0,0-.584,1.619h3.971a2.359,2.359,0,0,0-.547-1.619A1.853,1.853,0,0,0,44.04,10.446Zm.4,8.739A5.353,5.353,0,0,1,40.523,17.8a5.234,5.234,0,0,1-1.41-3.915,5.757,5.757,0,0,1,1.3-4.031,4.641,4.641,0,0,1,3.6-1.424,4.568,4.568,0,0,1,3.423,1.252,4.738,4.738,0,0,1,1.225,3.46v1.373H41.98a2.724,2.724,0,0,0,.714,1.883,2.513,2.513,0,0,0,1.874.677,7.78,7.78,0,0,0,1.772-.195,8.866,8.866,0,0,0,1.744-.622v2.189A6.644,6.644,0,0,1,46.5,19,10,10,0,0,1,44.438,19.186ZM58.206,15.92A2.856,2.856,0,0,1,57.1,18.351a5.478,5.478,0,0,1-3.317.835,10.417,10.417,0,0,1-1.93-.153,7.3,7.3,0,0,1-1.494-.45V16.245a9.864,9.864,0,0,0,1.777.622,7.194,7.194,0,0,0,1.74.25q1.54,0,1.54-.891a.743.743,0,0,0-.2-.543,2.959,2.959,0,0,0-.705-.473q-.5-.264-1.336-.617a8.392,8.392,0,0,1-1.758-.928,2.611,2.611,0,0,1-.816-.979,3.231,3.231,0,0,1-.255-1.359A2.464,2.464,0,0,1,51.41,9.189a5.22,5.22,0,0,1,3.038-.756,8.624,8.624,0,0,1,3.646.816l-.854,2.041q-.779-.334-1.457-.547A4.574,4.574,0,0,0,54.4,10.53q-1.252,0-1.252.677a.8.8,0,0,0,.4.659,10.975,10.975,0,0,0,1.767.826,8.21,8.21,0,0,1,1.781.918,2.716,2.716,0,0,1,.835.983A3.022,3.022,0,0,1,58.206,15.92Z" transform="translate(-4.656 307.203)" fill="#1a3151"/>
    <g id="Grupo_16844" data-name="Grupo 16844" transform="translate(-270.078 106.865)">
      <circle id="Elipse_1134" data-name="Elipse 1134" cx="81.494" cy="81.494" r="81.494" fill="#1a3151"/>
    </g>
    <path id="Trazado_44912" data-name="Trazado 44912" d="M-55.409.186A3.369,3.369,0,0,1-58.28-1.234a6.525,6.525,0,0,1-1.044-3.934,6.532,6.532,0,0,1,1.062-3.975,3.45,3.45,0,0,1,2.927-1.424,3.384,3.384,0,0,1,2.987,1.521h.093a11.568,11.568,0,0,1-.213-2.069v-3.321h2.839V0H-51.8l-.547-1.345h-.121A3.238,3.238,0,0,1-55.409.186Zm.993-2.254A1.917,1.917,0,0,0-52.825-2.7a3.67,3.67,0,0,0,.552-2.143v-.306a4.241,4.241,0,0,0-.515-2.394,1.912,1.912,0,0,0-1.675-.724,1.661,1.661,0,0,0-1.47.8,4.281,4.281,0,0,0-.524,2.333,4.058,4.058,0,0,0,.529,2.3A1.728,1.728,0,0,0-54.416-2.069Zm7.626-10.984q0-1.382,1.54-1.382t1.54,1.382a1.348,1.348,0,0,1-.385,1.025,1.618,1.618,0,0,1-1.155.366Q-46.79-11.662-46.79-13.053ZM-43.84,0h-2.83V-10.372h2.83Zm12.255,0h-2.83V-6.058a3.052,3.052,0,0,0-.376-1.684A1.322,1.322,0,0,0-35.973-8.3a1.713,1.713,0,0,0-1.577.8,5.233,5.233,0,0,0-.492,2.625V0h-2.83V-10.372h2.162l.38,1.327h.158a2.875,2.875,0,0,1,1.206-1.118,3.916,3.916,0,0,1,1.809-.4A3.259,3.259,0,0,1-32-9.045h.25a2.8,2.8,0,0,1,1.229-1.123,4.1,4.1,0,0,1,1.832-.4,3.617,3.617,0,0,1,2.667.9,3.972,3.972,0,0,1,.9,2.9V0h-2.839V-6.058a3.052,3.052,0,0,0-.376-1.684A1.322,1.322,0,0,0-29.516-8.3a1.765,1.765,0,0,0-1.554.742A4.211,4.211,0,0,0-31.585-5.2Zm13.666-8.554a1.8,1.8,0,0,0-1.41.571,2.641,2.641,0,0,0-.584,1.619h3.971a2.359,2.359,0,0,0-.547-1.619A1.853,1.853,0,0,0-17.919-8.554Zm.4,8.739A5.353,5.353,0,0,1-21.435-1.2a5.234,5.234,0,0,1-1.41-3.915,5.757,5.757,0,0,1,1.3-4.031,4.641,4.641,0,0,1,3.6-1.424,4.568,4.568,0,0,1,3.423,1.252,4.738,4.738,0,0,1,1.225,3.46v1.373h-6.689A2.724,2.724,0,0,0-19.264-2.6a2.513,2.513,0,0,0,1.874.677,7.78,7.78,0,0,0,1.772-.195,8.866,8.866,0,0,0,1.744-.622V-.547A6.644,6.644,0,0,1-15.461,0,10,10,0,0,1-17.52.186ZM-1.415,0h-2.83V-6.058a2.91,2.91,0,0,0-.4-1.684A1.451,1.451,0,0,0-5.914-8.3a1.911,1.911,0,0,0-1.716.793,4.919,4.919,0,0,0-.529,2.63V0h-2.83V-10.372h2.162l.38,1.327h.158a2.99,2.99,0,0,1,1.3-1.136A4.439,4.439,0,0,1-5.1-10.567a3.627,3.627,0,0,1,2.746.979,3.928,3.928,0,0,1,.937,2.825ZM8.735-3.08A2.856,2.856,0,0,1,7.626-.649,5.478,5.478,0,0,1,4.309.186,10.417,10.417,0,0,1,2.38.032,7.3,7.3,0,0,1,.886-.417V-2.755a9.864,9.864,0,0,0,1.777.622,7.194,7.194,0,0,0,1.74.25q1.54,0,1.54-.891a.743.743,0,0,0-.2-.543,2.959,2.959,0,0,0-.705-.473q-.5-.264-1.336-.617a8.392,8.392,0,0,1-1.758-.928,2.611,2.611,0,0,1-.816-.979A3.231,3.231,0,0,1,.867-7.672,2.464,2.464,0,0,1,1.939-9.811a5.22,5.22,0,0,1,3.038-.756,8.624,8.624,0,0,1,3.646.816L7.77-7.709q-.779-.334-1.457-.547A4.574,4.574,0,0,0,4.931-8.47q-1.252,0-1.252.677a.8.8,0,0,0,.4.659,10.975,10.975,0,0,0,1.767.826,8.21,8.21,0,0,1,1.781.918,2.716,2.716,0,0,1,.835.983A3.022,3.022,0,0,1,8.735-3.08Zm2.087-9.973q0-1.382,1.54-1.382t1.54,1.382a1.348,1.348,0,0,1-.385,1.025,1.618,1.618,0,0,1-1.155.366Q10.822-11.662,10.822-13.053ZM13.772,0h-2.83V-10.372h2.83ZM19-5.2A4.353,4.353,0,0,0,19.5-2.876a1.808,1.808,0,0,0,1.647.789,1.779,1.779,0,0,0,1.628-.784,4.416,4.416,0,0,0,.5-2.333,4.284,4.284,0,0,0-.5-2.31,1.811,1.811,0,0,0-1.642-.77,1.806,1.806,0,0,0-1.633.765A4.28,4.28,0,0,0,19-5.2Zm7.171,0a5.574,5.574,0,0,1-1.336,3.961A4.844,4.844,0,0,1,21.111.186a5.2,5.2,0,0,1-2.635-.654,4.352,4.352,0,0,1-1.753-1.879A6.313,6.313,0,0,1,16.11-5.2a5.543,5.543,0,0,1,1.327-3.952,4.872,4.872,0,0,1,3.729-1.41,5.234,5.234,0,0,1,2.635.649,4.335,4.335,0,0,1,1.753,1.865A6.254,6.254,0,0,1,26.167-5.2ZM38.079,0h-2.83V-6.058a2.91,2.91,0,0,0-.4-1.684A1.451,1.451,0,0,0,33.579-8.3a1.911,1.911,0,0,0-1.716.793,4.919,4.919,0,0,0-.529,2.63V0H28.5V-10.372h2.162l.38,1.327H31.2a2.99,2.99,0,0,1,1.3-1.136,4.439,4.439,0,0,1,1.888-.385,3.627,3.627,0,0,1,2.746.979,3.928,3.928,0,0,1,.937,2.825Zm7.208-8.554a1.8,1.8,0,0,0-1.41.571,2.641,2.641,0,0,0-.584,1.619h3.971a2.359,2.359,0,0,0-.547-1.619A1.853,1.853,0,0,0,45.287-8.554Zm.4,8.739A5.353,5.353,0,0,1,41.771-1.2a5.234,5.234,0,0,1-1.41-3.915,5.757,5.757,0,0,1,1.3-4.031,4.641,4.641,0,0,1,3.6-1.424,4.568,4.568,0,0,1,3.423,1.252,4.738,4.738,0,0,1,1.225,3.46v1.373H43.228A2.724,2.724,0,0,0,43.942-2.6a2.513,2.513,0,0,0,1.874.677,7.78,7.78,0,0,0,1.772-.195,8.866,8.866,0,0,0,1.744-.622V-.547A6.644,6.644,0,0,1,47.746,0,10,10,0,0,1,45.686.186ZM59.454-3.08A2.856,2.856,0,0,1,58.345-.649a5.478,5.478,0,0,1-3.317.835A10.417,10.417,0,0,1,53.1.032a7.3,7.3,0,0,1-1.494-.45V-2.755a9.864,9.864,0,0,0,1.777.622,7.194,7.194,0,0,0,1.74.25q1.54,0,1.54-.891a.743.743,0,0,0-.2-.543,2.959,2.959,0,0,0-.705-.473q-.5-.264-1.336-.617a8.392,8.392,0,0,1-1.758-.928,2.611,2.611,0,0,1-.816-.979,3.231,3.231,0,0,1-.255-1.359,2.464,2.464,0,0,1,1.072-2.138,5.22,5.22,0,0,1,3.038-.756,8.624,8.624,0,0,1,3.646.816l-.854,2.041q-.779-.334-1.457-.547A4.574,4.574,0,0,0,55.65-8.47q-1.252,0-1.252.677a.8.8,0,0,0,.4.659,10.975,10.975,0,0,0,1.767.826,8.21,8.21,0,0,1,1.781.918,2.716,2.716,0,0,1,.835.983A3.022,3.022,0,0,1,59.454-3.08ZM-41.794,19.186q-4.843,0-4.843-5.316a5.67,5.67,0,0,1,1.317-4.04,4.942,4.942,0,0,1,3.776-1.4,7.2,7.2,0,0,1,3.229.705l-.835,2.189q-.668-.269-1.243-.441a4.006,4.006,0,0,0-1.15-.172q-2.208,0-2.208,3.136,0,3.043,2.208,3.043a5.034,5.034,0,0,0,1.512-.218,5.46,5.46,0,0,0,1.392-.682v2.421a4.56,4.56,0,0,1-1.387.6A7.8,7.8,0,0,1-41.794,19.186ZM-28.89,19l-.38-1.327h-.148a2.985,2.985,0,0,1-1.29,1.118,4.4,4.4,0,0,1-1.9.394,3.622,3.622,0,0,1-2.755-.979,3.938,3.938,0,0,1-.928-2.816V8.628h2.83v6.058a2.91,2.91,0,0,0,.4,1.684,1.451,1.451,0,0,0,1.271.561,1.911,1.911,0,0,0,1.716-.793,4.919,4.919,0,0,0,.529-2.63V8.628h2.83V19Zm7.969,0h-2.83V4.564h2.83Zm7.338-2.069a6.134,6.134,0,0,0,1.781-.325v2.106a6.351,6.351,0,0,1-2.6.473,3.179,3.179,0,0,1-2.472-.858,3.735,3.735,0,0,1-.775-2.574v-5H-19v-1.2l1.559-.946.816-2.189h1.809V8.628h2.9v2.125h-2.9v5a1.1,1.1,0,0,0,.339.891A1.336,1.336,0,0,0-13.582,16.931ZM-2.356,19l-.38-1.327h-.148a2.985,2.985,0,0,1-1.29,1.118,4.4,4.4,0,0,1-1.9.394,3.622,3.622,0,0,1-2.755-.979,3.938,3.938,0,0,1-.928-2.816V8.628h2.83v6.058a2.91,2.91,0,0,0,.4,1.684,1.451,1.451,0,0,0,1.271.561,1.911,1.911,0,0,0,1.716-.793,4.919,4.919,0,0,0,.529-2.63V8.628h2.83V19ZM8.572,8.433a4.563,4.563,0,0,1,.956.083L9.314,11.17a3.242,3.242,0,0,0-.835-.093,3,3,0,0,0-2.111.7,2.515,2.515,0,0,0-.756,1.948V19H2.783V8.628H4.926l.417,1.744h.139a3.9,3.9,0,0,1,1.3-1.406A3.214,3.214,0,0,1,8.572,8.433ZM17.618,19l-.547-1.41H17a4.179,4.179,0,0,1-1.47,1.248,4.752,4.752,0,0,1-1.971.348,3.188,3.188,0,0,1-2.352-.854,3.278,3.278,0,0,1-.858-2.431A2.737,2.737,0,0,1,11.5,13.466a6.693,6.693,0,0,1,3.484-.867l1.8-.056v-.455a1.411,1.411,0,0,0-1.614-1.577,7.356,7.356,0,0,0-2.922.751l-.937-1.911a8.432,8.432,0,0,1,3.971-.937,4.946,4.946,0,0,1,3.2.909,3.36,3.36,0,0,1,1.113,2.765V19Zm-.835-4.806-1.095.037a3.506,3.506,0,0,0-1.837.445,1.4,1.4,0,0,0-.6,1.243q0,1.2,1.373,1.2a2.175,2.175,0,0,0,1.573-.566,1.988,1.988,0,0,0,.589-1.5ZM25.336,19h-2.83V4.564h2.83ZM32.6,10.446a1.8,1.8,0,0,0-1.41.571,2.641,2.641,0,0,0-.584,1.619h3.971a2.359,2.359,0,0,0-.547-1.619A1.853,1.853,0,0,0,32.6,10.446Zm.4,8.739A5.353,5.353,0,0,1,29.084,17.8a5.234,5.234,0,0,1-1.41-3.915,5.757,5.757,0,0,1,1.3-4.031,4.641,4.641,0,0,1,3.6-1.424,4.568,4.568,0,0,1,3.423,1.252,4.738,4.738,0,0,1,1.225,3.46v1.373H30.541a2.724,2.724,0,0,0,.714,1.883,2.513,2.513,0,0,0,1.874.677,7.78,7.78,0,0,0,1.772-.195,8.866,8.866,0,0,0,1.744-.622v2.189A6.644,6.644,0,0,1,35.059,19,10,10,0,0,1,33,19.186ZM46.767,15.92a2.856,2.856,0,0,1-1.109,2.431,5.478,5.478,0,0,1-3.317.835,10.417,10.417,0,0,1-1.93-.153,7.3,7.3,0,0,1-1.494-.45V16.245a9.864,9.864,0,0,0,1.777.622,7.194,7.194,0,0,0,1.74.25q1.54,0,1.54-.891a.743.743,0,0,0-.2-.543,2.959,2.959,0,0,0-.705-.473q-.5-.264-1.336-.617a8.392,8.392,0,0,1-1.758-.928,2.611,2.611,0,0,1-.816-.979,3.231,3.231,0,0,1-.255-1.359,2.464,2.464,0,0,1,1.072-2.138,5.22,5.22,0,0,1,3.038-.756,8.624,8.624,0,0,1,3.646.816L45.8,11.291q-.779-.334-1.457-.547a4.574,4.574,0,0,0-1.382-.213q-1.252,0-1.252.677a.8.8,0,0,0,.4.659,10.975,10.975,0,0,0,1.767.826,8.21,8.21,0,0,1,1.781.918,2.716,2.716,0,0,1,.835.983A3.022,3.022,0,0,1,46.767,15.92Z" transform="translate(-190.224 183.352)" fill="#ffd664"/>
    <path id="Trazado_44921" data-name="Trazado 44921" d="M-55.409.186A3.369,3.369,0,0,1-58.28-1.234a6.525,6.525,0,0,1-1.044-3.934,6.532,6.532,0,0,1,1.062-3.975,3.45,3.45,0,0,1,2.927-1.424,3.384,3.384,0,0,1,2.987,1.521h.093a11.568,11.568,0,0,1-.213-2.069v-3.321h2.839V0H-51.8l-.547-1.345h-.121A3.238,3.238,0,0,1-55.409.186Zm.993-2.254A1.917,1.917,0,0,0-52.825-2.7a3.67,3.67,0,0,0,.552-2.143v-.306a4.241,4.241,0,0,0-.515-2.394,1.912,1.912,0,0,0-1.675-.724,1.661,1.661,0,0,0-1.47.8,4.281,4.281,0,0,0-.524,2.333,4.058,4.058,0,0,0,.529,2.3A1.728,1.728,0,0,0-54.416-2.069Zm7.626-10.984q0-1.382,1.54-1.382t1.54,1.382a1.348,1.348,0,0,1-.385,1.025,1.618,1.618,0,0,1-1.155.366Q-46.79-11.662-46.79-13.053ZM-43.84,0h-2.83V-10.372h2.83Zm12.255,0h-2.83V-6.058a3.052,3.052,0,0,0-.376-1.684A1.322,1.322,0,0,0-35.973-8.3a1.713,1.713,0,0,0-1.577.8,5.233,5.233,0,0,0-.492,2.625V0h-2.83V-10.372h2.162l.38,1.327h.158a2.875,2.875,0,0,1,1.206-1.118,3.916,3.916,0,0,1,1.809-.4A3.259,3.259,0,0,1-32-9.045h.25a2.8,2.8,0,0,1,1.229-1.123,4.1,4.1,0,0,1,1.832-.4,3.617,3.617,0,0,1,2.667.9,3.972,3.972,0,0,1,.9,2.9V0h-2.839V-6.058a3.052,3.052,0,0,0-.376-1.684A1.322,1.322,0,0,0-29.516-8.3a1.765,1.765,0,0,0-1.554.742A4.211,4.211,0,0,0-31.585-5.2Zm13.666-8.554a1.8,1.8,0,0,0-1.41.571,2.641,2.641,0,0,0-.584,1.619h3.971a2.359,2.359,0,0,0-.547-1.619A1.853,1.853,0,0,0-17.919-8.554Zm.4,8.739A5.353,5.353,0,0,1-21.435-1.2a5.234,5.234,0,0,1-1.41-3.915,5.757,5.757,0,0,1,1.3-4.031,4.641,4.641,0,0,1,3.6-1.424,4.568,4.568,0,0,1,3.423,1.252,4.738,4.738,0,0,1,1.225,3.46v1.373h-6.689A2.724,2.724,0,0,0-19.264-2.6a2.513,2.513,0,0,0,1.874.677,7.78,7.78,0,0,0,1.772-.195,8.866,8.866,0,0,0,1.744-.622V-.547A6.644,6.644,0,0,1-15.461,0,10,10,0,0,1-17.52.186ZM-1.415,0h-2.83V-6.058a2.91,2.91,0,0,0-.4-1.684A1.451,1.451,0,0,0-5.914-8.3a1.911,1.911,0,0,0-1.716.793,4.919,4.919,0,0,0-.529,2.63V0h-2.83V-10.372h2.162l.38,1.327h.158a2.99,2.99,0,0,1,1.3-1.136A4.439,4.439,0,0,1-5.1-10.567a3.627,3.627,0,0,1,2.746.979,3.928,3.928,0,0,1,.937,2.825ZM8.735-3.08A2.856,2.856,0,0,1,7.626-.649,5.478,5.478,0,0,1,4.309.186,10.417,10.417,0,0,1,2.38.032,7.3,7.3,0,0,1,.886-.417V-2.755a9.864,9.864,0,0,0,1.777.622,7.194,7.194,0,0,0,1.74.25q1.54,0,1.54-.891a.743.743,0,0,0-.2-.543,2.959,2.959,0,0,0-.705-.473q-.5-.264-1.336-.617a8.392,8.392,0,0,1-1.758-.928,2.611,2.611,0,0,1-.816-.979A3.231,3.231,0,0,1,.867-7.672,2.464,2.464,0,0,1,1.939-9.811a5.22,5.22,0,0,1,3.038-.756,8.624,8.624,0,0,1,3.646.816L7.77-7.709q-.779-.334-1.457-.547A4.574,4.574,0,0,0,4.931-8.47q-1.252,0-1.252.677a.8.8,0,0,0,.4.659,10.975,10.975,0,0,0,1.767.826,8.21,8.21,0,0,1,1.781.918,2.716,2.716,0,0,1,.835.983A3.022,3.022,0,0,1,8.735-3.08Zm2.087-9.973q0-1.382,1.54-1.382t1.54,1.382a1.348,1.348,0,0,1-.385,1.025,1.618,1.618,0,0,1-1.155.366Q10.822-11.662,10.822-13.053ZM13.772,0h-2.83V-10.372h2.83ZM19-5.2A4.353,4.353,0,0,0,19.5-2.876a1.808,1.808,0,0,0,1.647.789,1.779,1.779,0,0,0,1.628-.784,4.416,4.416,0,0,0,.5-2.333,4.284,4.284,0,0,0-.5-2.31,1.811,1.811,0,0,0-1.642-.77,1.806,1.806,0,0,0-1.633.765A4.28,4.28,0,0,0,19-5.2Zm7.171,0a5.574,5.574,0,0,1-1.336,3.961A4.844,4.844,0,0,1,21.111.186a5.2,5.2,0,0,1-2.635-.654,4.352,4.352,0,0,1-1.753-1.879A6.313,6.313,0,0,1,16.11-5.2a5.543,5.543,0,0,1,1.327-3.952,4.872,4.872,0,0,1,3.729-1.41,5.234,5.234,0,0,1,2.635.649,4.335,4.335,0,0,1,1.753,1.865A6.254,6.254,0,0,1,26.167-5.2ZM38.079,0h-2.83V-6.058a2.91,2.91,0,0,0-.4-1.684A1.451,1.451,0,0,0,33.579-8.3a1.911,1.911,0,0,0-1.716.793,4.919,4.919,0,0,0-.529,2.63V0H28.5V-10.372h2.162l.38,1.327H31.2a2.99,2.99,0,0,1,1.3-1.136,4.439,4.439,0,0,1,1.888-.385,3.627,3.627,0,0,1,2.746.979,3.928,3.928,0,0,1,.937,2.825Zm7.208-8.554a1.8,1.8,0,0,0-1.41.571,2.641,2.641,0,0,0-.584,1.619h3.971a2.359,2.359,0,0,0-.547-1.619A1.853,1.853,0,0,0,45.287-8.554Zm.4,8.739A5.353,5.353,0,0,1,41.771-1.2a5.234,5.234,0,0,1-1.41-3.915,5.757,5.757,0,0,1,1.3-4.031,4.641,4.641,0,0,1,3.6-1.424,4.568,4.568,0,0,1,3.423,1.252,4.738,4.738,0,0,1,1.225,3.46v1.373H43.228A2.724,2.724,0,0,0,43.942-2.6a2.513,2.513,0,0,0,1.874.677,7.78,7.78,0,0,0,1.772-.195,8.866,8.866,0,0,0,1.744-.622V-.547A6.644,6.644,0,0,1,47.746,0,10,10,0,0,1,45.686.186ZM59.454-3.08A2.856,2.856,0,0,1,58.345-.649a5.478,5.478,0,0,1-3.317.835A10.417,10.417,0,0,1,53.1.032a7.3,7.3,0,0,1-1.494-.45V-2.755a9.864,9.864,0,0,0,1.777.622,7.194,7.194,0,0,0,1.74.25q1.54,0,1.54-.891a.743.743,0,0,0-.2-.543,2.959,2.959,0,0,0-.705-.473q-.5-.264-1.336-.617a8.392,8.392,0,0,1-1.758-.928,2.611,2.611,0,0,1-.816-.979,3.231,3.231,0,0,1-.255-1.359,2.464,2.464,0,0,1,1.072-2.138,5.22,5.22,0,0,1,3.038-.756,8.624,8.624,0,0,1,3.646.816l-.854,2.041q-.779-.334-1.457-.547A4.574,4.574,0,0,0,55.65-8.47q-1.252,0-1.252.677a.8.8,0,0,0,.4.659,10.975,10.975,0,0,0,1.767.826,8.21,8.21,0,0,1,1.781.918,2.716,2.716,0,0,1,.835.983A3.022,3.022,0,0,1,59.454-3.08ZM-32.879,19.186a3.44,3.44,0,0,1-2.867-1.327h-.148q.148,1.3.148,1.5v4.2h-2.83V8.628h2.3l.4,1.345h.13A3.273,3.273,0,0,1-32.8,8.433a3.366,3.366,0,0,1,2.876,1.419A6.565,6.565,0,0,1-28.89,13.8a7.786,7.786,0,0,1-.487,2.885,4.047,4.047,0,0,1-1.387,1.865A3.554,3.554,0,0,1-32.879,19.186Zm-.835-8.489a1.787,1.787,0,0,0-1.531.645,3.7,3.7,0,0,0-.5,2.129v.306a4.37,4.37,0,0,0,.5,2.394,1.771,1.771,0,0,0,1.573.724q1.9,0,1.9-3.136a4.478,4.478,0,0,0-.469-2.3A1.6,1.6,0,0,0-33.714,10.7Zm9.417,3.1a4.353,4.353,0,0,0,.506,2.329,1.808,1.808,0,0,0,1.647.789,1.779,1.779,0,0,0,1.628-.784,4.416,4.416,0,0,0,.5-2.333,4.284,4.284,0,0,0-.5-2.31,1.811,1.811,0,0,0-1.642-.77,1.806,1.806,0,0,0-1.633.765A4.28,4.28,0,0,0-24.3,13.8Zm7.171,0a5.574,5.574,0,0,1-1.336,3.961,4.844,4.844,0,0,1-3.72,1.429,5.2,5.2,0,0,1-2.635-.654,4.352,4.352,0,0,1-1.753-1.879,6.313,6.313,0,0,1-.612-2.857,5.543,5.543,0,0,1,1.327-3.952,4.872,4.872,0,0,1,3.729-1.41,5.234,5.234,0,0,1,2.635.649,4.335,4.335,0,0,1,1.753,1.865A6.254,6.254,0,0,1-17.126,13.8Zm5.167,5.2h-2.83V4.564h2.83Zm5.8,0H-8.99V8.628h2.83ZM-9.129,7.487v-.25a26.12,26.12,0,0,0,2.18-2.792h3.173v.195q-.482.482-1.647,1.433T-7.246,7.487ZM1.178,16.931a6.134,6.134,0,0,0,1.781-.325v2.106a6.351,6.351,0,0,1-2.6.473,3.179,3.179,0,0,1-2.472-.858,3.735,3.735,0,0,1-.775-2.574v-5H-4.24v-1.2l1.559-.946.816-2.189H-.056V8.628h2.9v2.125h-2.9v5a1.1,1.1,0,0,0,.339.891A1.336,1.336,0,0,0,1.178,16.931ZM4.936,5.947q0-1.382,1.54-1.382t1.54,1.382a1.348,1.348,0,0,1-.385,1.025,1.618,1.618,0,0,1-1.155.366Q4.936,7.338,4.936,5.947ZM7.886,19H5.056V8.628h2.83Zm7.181.186q-4.843,0-4.843-5.316a5.67,5.67,0,0,1,1.317-4.04,4.942,4.942,0,0,1,3.776-1.4,7.2,7.2,0,0,1,3.229.705l-.835,2.189q-.668-.269-1.243-.441a4.006,4.006,0,0,0-1.15-.172q-2.208,0-2.208,3.136,0,3.043,2.208,3.043a5.034,5.034,0,0,0,1.512-.218,5.46,5.46,0,0,0,1.392-.682v2.421a4.56,4.56,0,0,1-1.387.6A7.8,7.8,0,0,1,15.066,19.186ZM27.21,19l-.547-1.41h-.074a4.179,4.179,0,0,1-1.47,1.248,4.752,4.752,0,0,1-1.971.348,3.188,3.188,0,0,1-2.352-.854,3.278,3.278,0,0,1-.858-2.431,2.737,2.737,0,0,1,1.155-2.435,6.693,6.693,0,0,1,3.484-.867l1.8-.056v-.455a1.411,1.411,0,0,0-1.614-1.577,7.356,7.356,0,0,0-2.922.751L20.9,9.352a8.432,8.432,0,0,1,3.971-.937,4.946,4.946,0,0,1,3.2.909,3.36,3.36,0,0,1,1.113,2.765V19Zm-.835-4.806-1.095.037a3.506,3.506,0,0,0-1.837.445,1.4,1.4,0,0,0-.6,1.243q0,1.2,1.373,1.2a2.175,2.175,0,0,0,1.573-.566,1.988,1.988,0,0,0,.589-1.5Zm12.96,1.726a2.856,2.856,0,0,1-1.109,2.431,5.478,5.478,0,0,1-3.317.835,10.417,10.417,0,0,1-1.93-.153,7.3,7.3,0,0,1-1.494-.45V16.245a9.864,9.864,0,0,0,1.777.622,7.194,7.194,0,0,0,1.74.25q1.54,0,1.54-.891a.743.743,0,0,0-.2-.543,2.959,2.959,0,0,0-.705-.473q-.5-.264-1.336-.617a8.392,8.392,0,0,1-1.758-.928,2.611,2.611,0,0,1-.816-.979,3.231,3.231,0,0,1-.255-1.359A2.464,2.464,0,0,1,32.54,9.189a5.22,5.22,0,0,1,3.038-.756,8.624,8.624,0,0,1,3.646.816l-.854,2.041q-.779-.334-1.457-.547a4.574,4.574,0,0,0-1.382-.213q-1.252,0-1.252.677a.8.8,0,0,0,.4.659,10.975,10.975,0,0,0,1.767.826,8.21,8.21,0,0,1,1.781.918,2.716,2.716,0,0,1,.835.983A3.022,3.022,0,0,1,39.336,15.92Z" transform="translate(280.104 376.26)" fill="#ffd664"/>
  </g>
</svg>
