<svg xmlns="http://www.w3.org/2000/svg" width="360" height="242" viewBox="0 0 360 242">
  <g id="Grupo_20682" data-name="Grupo 20682" transform="translate(-235 -3181)">
    <rect id="Rect치ngulo_4503" data-name="Rect치ngulo 4503" width="360" height="242" transform="translate(235 3181)" fill="#2ec8ee"/>
    <rect id="Rect치ngulo_4504" data-name="Rect치ngulo 4504" width="360" height="38" transform="translate(235 3385)" fill="#2fb239"/>
    <g id="Grupo_18259" data-name="Grupo 18259" transform="translate(202.75 3166.511)">
      <path id="Trazado_39151" data-name="Trazado 39151" d="M42.5,67.62c-.411-.589-.173-1.259-.239-1.891a59.628,59.628,0,0,1,1.634-10.841A41.532,41.532,0,0,1,79.169,24.764a44.306,44.306,0,0,1,8.33-.147,39.763,39.763,0,0,1,13,3.224,41.615,41.615,0,0,1,24.478,30.524,37.024,37.024,0,0,1,.746,8.488,44.524,44.524,0,0,1-3.531,16.062,41.031,41.031,0,0,1-10.726,14.617,40.354,40.354,0,0,1-19.987,9.615,41.116,41.116,0,0,1-9.449.662,41.785,41.785,0,0,1-38.96-33.822A25.336,25.336,0,0,1,42.5,67.62Z" fill="#a8b09b"/>
      <path id="Trazado_39152" data-name="Trazado 39152" d="M84.017,102.329c-19.594.35-36.9-16.089-36.236-37.351a36.249,36.249,0,1,1,72.441,2.84C119.575,86.318,103.99,102.579,84.017,102.329Z" fill="#616454"/>
      <path id="Trazado_39153" data-name="Trazado 39153" d="M76.12,78.2c.156-.014.313-.02.469-.041,1.676-.22,2.1-.791,1.773-2.408-.644-3.21-1.261-6.427-1.963-9.625-.1-.454-.075-.559.3-.781a3.956,3.956,0,0,0,1.55-4.209,33.8,33.8,0,0,1-1.1-7.55c-.029-2.281-.722-4.394-3.394-4.924a1.8,1.8,0,0,1-1.389-.964c.4-.141.777-.277,1.158-.411A2.794,2.794,0,0,0,75.255,43.4c-.03-.071-.124-.137-.118-.2.19-1.975-1.035-2.935-2.475-4a4.162,4.162,0,0,0-4.248-.5,2.929,2.929,0,0,0-2,3.116,1.787,1.787,0,0,1-.336,1.208,2.755,2.755,0,0,0,2.129,4.267c.383.012.741.047.821.5s-.218.643-.592.752c-2.871.835-3.515,2.976-3.476,5.656a42.047,42.047,0,0,1-.832,7.594,3.328,3.328,0,0,0,1.352,3.6.892.892,0,0,1,.473,1.094A50.943,50.943,0,0,0,64.148,76c-.116,1.932-.971,1.95-2.353,2.2a38.126,38.126,0,0,0-7.331,2.323c-1.826.737-1.416.92-2.162-.8a35.126,35.126,0,0,1-2.672-10.5,34.228,34.228,0,0,1,2.14-15.344,33.164,33.164,0,0,1,5.636-9.666,34.468,34.468,0,0,1,12.745-9.668,32.978,32.978,0,0,1,9.187-2.6,28.32,28.32,0,0,1,4.809-.408,36.119,36.119,0,0,1,14.186,3.212,34.836,34.836,0,0,1,11.39,8.395,33.978,33.978,0,0,1,8.152,16.238,33.042,33.042,0,0,1,.653,8.946,34.861,34.861,0,0,1-2.835,11.536,34.333,34.333,0,0,1-7.721,11.137,34.8,34.8,0,0,1-16.62,8.936,34.536,34.536,0,0,1-25.4-4.36c.805-.458,1.42.066,2.058.139a11.6,11.6,0,0,1,1.926.469,104.911,104.911,0,0,0,11.823,2.77c3.836.655,6.732-.812,9.1-3.832,1.356-1.726,2.9-3.316,4.218-5.083a1.276,1.276,0,0,1,1.292-.394,7.686,7.686,0,0,0,4.741-1.086c.262-.161.581-.228.707-.579.732-2.049,2.69-2.938,4.112-4.337s3.262-2.358,4.4-4.065a1.573,1.573,0,0,0-.969-2.6c-.261-.075-.559-.021-.745-.282-1.2-1.688-2.949-1.732-4.787-1.667-2.069.074-2.368-.12-2.444-2.089-.068-1.741-.407-3.462-.3-5.217.042-.707.152-1.083.932-1.341A5.014,5.014,0,0,0,104.3,64.26c.935-1.281.276-2.312.146-3.446a79.72,79.72,0,0,0-1.742-9.2A5.4,5.4,0,0,0,97.937,47.3c-.3-.058-.6-.17-.9-.232-.82-.166-.586-.767-.249-1.019A4.334,4.334,0,0,0,98.464,41.8c-.067-.663.1-1,.841-1.056.3-.023.917-.2.778-.706s-.666-.512-1.092-.3a.917.917,0,0,1-1.335-.351c-.937-1.614-2.484-1.742-3.964-1.363A3.571,3.571,0,0,0,91.1,41.192c-.2,1.606-.168,3.228,1.277,4.46.719.613.481,1.333-.4,1.657a2.523,2.523,0,0,1-.544.213c-3.593.41-4.751,3.02-5.373,6.038-.615,2.984-.8,6.038-1.414,9.029-.312,1.527,1.216,3.334,2.9,3.582.526.078.651.233.649.719a22.942,22.942,0,0,1-.858,7.708c-.16.454-.321,1.105.194,1.274,1.139.373.879,1.224.894,2.012.008.478-.011.957,0,1.436a.979.979,0,0,1-.555,1.05,3.541,3.541,0,0,0-1.817,1.773c-.21.56-.617.318-.986.2a18.865,18.865,0,0,1-4.112-1.9A22.568,22.568,0,0,0,76.12,78.2Z" fill="#f4f3e8"/>
      <path id="Trazado_39154" data-name="Trazado 39154" d="M94.1,89.452a56.222,56.222,0,0,1-5.979,6.885c-1.661,1.709-3.635,1.921-5.765,1.624-5.451-.758-10.675-2.524-16.035-3.69a15.337,15.337,0,0,0-1.54-.1,5.242,5.242,0,0,1-2.747-1.385,36.2,36.2,0,0,1-8.053-9.612c-.429-.726-.575-1.063.523-1.508A47.064,47.064,0,0,1,63.064,79c6.506-1.286,12.7-.8,18.386,3.028,1.836,1.237,4.056,1.53,6.216,1.883a57.455,57.455,0,0,0,7.124.242,20.778,20.778,0,0,1,4.729.792,1.925,1.925,0,0,1,1.578,1.71c.055.953-.761,1.1-1.377,1.388a8.784,8.784,0,0,1-4.947.507,41.828,41.828,0,0,0-9.934-.15,13.3,13.3,0,0,1-4.15-.089,12.819,12.819,0,0,0-2.014-.1c-.312-.012-.533.056-.535.449,0,.351.132.471.481.511a38.609,38.609,0,0,0,8.157.052,16.752,16.752,0,0,1,4.864.1A17.608,17.608,0,0,0,94.1,89.452Z" fill="#f4f3e8"/>
      <path id="Trazado_39155" data-name="Trazado 39155" d="M90.443,75.528c-2.471,0-2.411.013-1.9-2.455a14.945,14.945,0,0,0,.368-3.29c-.046-2.849-.157-5.8.8-8.454.938-2.6.225-4.953-.006-7.423-.14-1.5.131-3.013-.262-4.537-.176-.681.87-.606,1.365-.835.53-.246.763.208.934.634.975,2.432.978,2.36,3.432,2.463a1.751,1.751,0,0,0,2.036-1.326c.121-.373.32-.724.41-1.1.158-.664.225-1.211,1.208-.807.761.314,1.341.457.837,1.442a6.105,6.105,0,0,0-.491,3.01c.083,3.376-.407,6.807.52,10.106,1.054,3.754.278,7.653,1.144,11.406.221.957-.038,1.611-1.269,1.424-.9-.136-2.058.357-2.661-.194-.581-.533-.006-1.678-.117-2.552-.246-1.951-.444-3.909-.741-5.852-.127-.83-.975-.593-1.518-.727a.812.812,0,0,0-1.127.708,23.668,23.668,0,0,0-.621,7.285c.111.956-.119,1.117-.913,1.081C91.4,75.51,90.922,75.528,90.443,75.528Z" fill="#cdcbad"/>
      <path id="Trazado_39156" data-name="Trazado 39156" d="M70.773,77.664c-1.546.244-3.265-.231-5.007-.231-.692,0-.928-.223-.828-1.078.644-5.513,2.127-10.843,3.39-16.222.137-.581.492-.642.961-.639a21.944,21.944,0,0,0,3.1-.027c1.255-.172,1.666.461,1.913,1.5,1.112,4.69,2.307,9.361,3.091,14.122.071.427-.053.9.059,1.306.161.591-.024.731-.587.831A27.715,27.715,0,0,1,70.773,77.664Z" fill="#cdcbad"/>
      <path id="Trazado_39157" data-name="Trazado 39157" d="M71.22,58.778H71.1c-2.616,0-2.661.005-2.984-2.537-.2-1.592-.764-3.191-.05-4.818a1.529,1.529,0,0,0-.061-1.162c-.236-.462.028-.509.3-.685.515-.33.547.185.631.392A6.742,6.742,0,0,0,70.1,51.72c.648.781,1.209.666,1.845-.182a6.717,6.717,0,0,0,.911-1.634c.087-.229.082-.476.414-.446s.616.248.533.515c-.465,1.49.673,2.766.511,4.2-.14,1.245-.331,2.487-.389,3.736-.039.865-.506.91-1.155.871C72.255,58.752,71.737,58.777,71.22,58.778Z" fill="#eee9d3"/>
      <path id="Trazado_39158" data-name="Trazado 39158" d="M94.213,67.287c.9-.032,1.206.376,1.245,1.224.082,1.754.605,3.462.625,5.23.01.9-.782,1.926.417,2.647a.6.6,0,0,1-.148.393,40.4,40.4,0,0,1-3.9,2.566c.451-1.364.156-2.786,1.144-3.894.367-.41-.121-.89-.141-1.347A24.7,24.7,0,0,1,94.213,67.287Z" fill="#f4f3e8"/>
      <path id="Trazado_39159" data-name="Trazado 39159" d="M100.749,49.684a27.445,27.445,0,0,1,2.019,7.064c.351,1.753.619,3.524.929,5.286.088.495.065.877-.607.818a1.544,1.544,0,0,0-.7.073c-.951.394-1.351.063-1.289-.926a32.179,32.179,0,0,0-1.155-9.411A3.255,3.255,0,0,1,100.749,49.684Z" fill="#f4f3e8"/>
      <path id="Trazado_39160" data-name="Trazado 39160" d="M70.6,39.158a2.187,2.187,0,0,1,1.815,1.018c.224.378.616.476.958.658.534.282,1.064.889.879,1.281-.6,1.263,1.131,2.408.068,3.6a1.786,1.786,0,0,1-.515.488c-.259.116-.52.5-.824.224-.248-.224.012-.5.112-.756a3.085,3.085,0,0,0-1.538-4.14,2.531,2.531,0,0,0-2.845.516,3.268,3.268,0,0,0-.787,3.192c.061.352.456.823.136,1.021-.49.305-.862-.2-1.173-.556-.382-.438-.716-1.073-.409-1.516a6.4,6.4,0,0,0,.768-3.018C67.443,39.832,68.643,39.142,70.6,39.158Z" fill="#cdcbad"/>
      <path id="Trazado_39161" data-name="Trazado 39161" d="M97.753,42.3c0,2.308-1.2,3.534-3.257,3.578-1.59.034-3.045-2.035-2.711-3.994.057-.33.286-.3.521-.34,1.383-.229,2.762-.485,4.146-.705C97.552,40.666,97.755,40.909,97.753,42.3Z" fill="#eee9d3"/>
      <path id="Trazado_39162" data-name="Trazado 39162" d="M89.143,78.119c0-2.241,0-2.217,2.356-2.128.645.025.893.216.7.841-.5,1.615-.554,3.309-.891,4.954A1.578,1.578,0,0,1,89.2,83.223a11.586,11.586,0,0,1-1.984-.232c-.595-.225-.568-.45-.255-.832a7.359,7.359,0,0,1,.751-.768C89.141,80.1,89.143,80.1,89.143,78.119Z" fill="#eee9d3"/>
      <path id="Trazado_39163" data-name="Trazado 39163" d="M97.409,76.31a1.283,1.283,0,0,1,.226-.053c2.729-.124,2.758-.123,2.735,2.556a2.314,2.314,0,0,0,1.239,2.226,1.931,1.931,0,0,1,.291.2c.57.482,1.662.764,1.282,1.717-.341.854-1.37.743-2.183.7-1.412-.07-2.237-.652-2.428-1.993C98.313,79.844,97.68,78.119,97.409,76.31Z" fill="#eee9d3"/>
      <path id="Trazado_39164" data-name="Trazado 39164" d="M67.43,51.486c-.708,2.444.288,4.8.608,7.224a6.971,6.971,0,0,1-.817,3.259c-.169.446-1.356.26-2.017.077-.455-.127-.1-.652-.041-1.025a36.094,36.094,0,0,0,.545-7.071,5.854,5.854,0,0,1,.549-2.739c.187-.413.388-1.068.9-.951S67.243,51.026,67.43,51.486Z" fill="#eee9d3"/>
      <path id="Trazado_39165" data-name="Trazado 39165" d="M77.545,61.789c-2.407.538-2.017.885-2.776-1.743-.572-1.984.054-3.934.161-5.878a16.625,16.625,0,0,0-.473-2.463c-.039-.6-.445-1.44.119-1.688.736-.324.919.688,1.271,1.145a2.276,2.276,0,0,1,.361,1.332,37.992,37.992,0,0,0,.414,4.706C76.8,58.76,77.238,60.259,77.545,61.789Z" fill="#eee9d3"/>
      <path id="Trazado_39166" data-name="Trazado 39166" d="M101.209,84.526a13.621,13.621,0,0,0,1.646-.363c.541-.233,1-.518,1.1-1.1a1.617,1.617,0,0,0-.644-1.768c-.3-.192-.679-.268-.379-.772.7-1.179,4.374-2.824,5.744-2.622a1.171,1.171,0,0,1,.956.588c.223.436-.262.613-.49.833-2.179,2.1-4.5,4.037-6.87,5.907C101.46,85.862,101.718,84.573,101.209,84.526Z" fill="#f4f3e8"/>
      <path id="Trazado_39167" data-name="Trazado 39167" d="M88.672,50.036c.842,1.686.052,3.163-.076,4.624-.206,2.343-.669,4.664-.661,7.033,0,.306.227.76-.3.893a2.494,2.494,0,0,1-1.606-.263c-.416-.181-.178-.577-.113-.924.5-2.687.653-5.431,1.321-8.091A7.166,7.166,0,0,1,88.672,50.036Z" fill="#f4f3e8"/>
      <path id="Trazado_39168" data-name="Trazado 39168" d="M70.624,46.812c-1.232-.052-1.822-.888-2.028-2.444a1.878,1.878,0,0,1,1.983-2.1,1.933,1.933,0,0,1,2.052,2.06A2.513,2.513,0,0,1,70.624,46.812Z" fill="#f4f3e8"/>
      <path id="Trazado_39169" data-name="Trazado 39169" d="M107.389,76.815a10.816,10.816,0,0,0-5.243,2.854c-.793.714-.918.148-1.02-.395a1.969,1.969,0,0,1,1.03-2.178A4.185,4.185,0,0,1,107.389,76.815Z" fill="#f4f3e8"/>
      <path id="Trazado_39170" data-name="Trazado 39170" d="M92.227,48.4a1.3,1.3,0,0,1,1.106-.1,3.632,3.632,0,0,0,2.525-.043c.356-.129.767-.257,1.073.063.278.291-.048.577-.114.869-.122.541-.3,1.3-.732,1.363a6.89,6.89,0,0,1-2.676.287c-.368-.092-.377-.429-.476-.737C92.745,49.526,92.467,48.97,92.227,48.4Z" fill="#f4f3e8"/>
      <path id="Trazado_39171" data-name="Trazado 39171" d="M91.932,83.239c-.332-2.33,1.425-3.085,2.836-4.075.7-.489,1.433-.921,2.146-1.376.61,1.1.073,1.62-.834,2.223C94.635,80.972,93.326,82.138,91.932,83.239Z" fill="#f4f3e8"/>
      <path id="Trazado_39172" data-name="Trazado 39172" d="M97.3,40.231c-1.574.281-3.024.545-4.476.794-.258.044-.574.159-.749-.144-.131-.227.013-.446.137-.657a2.7,2.7,0,0,1,2.074-1.551A2.767,2.767,0,0,1,97.3,40.231Z" fill="#cdcbad"/>
      <path id="Trazado_39173" data-name="Trazado 39173" d="M93.764,83.185c1.279-.984,2.311-1.742,3.3-2.555.481-.4.6-.156.684.274.373,1.81-.076,2.321-1.988,2.283C95.205,83.176,94.65,83.185,93.764,83.185Z" fill="#f4f3e8"/>
      <path id="Trazado_39174" data-name="Trazado 39174" d="M70.7,48.008c1.1-.1.575,1.24,1.341,1.388-.352.578-.391,1.658-1.111,1.618-.742-.042-1.079-1.052-1.081-1.752C69.847,48.9,69.645,47.817,70.7,48.008Z" fill="#f4f3e8"/>
      <path id="Trazado_39175" data-name="Trazado 39175" d="M94.815,47.76c-.807.025-1.362.062-1.378-.793-.011-.575.274-.726.725-.62.586.138,1.5-.1,1.622.691C95.9,47.758,95.127,47.734,94.815,47.76Z" fill="#eee9d3"/>
      <path id="Trazado_39176" data-name="Trazado 39176" d="M85.94,63.63c2.235-.153,2.235-.153,1.911,1.581A2.953,2.953,0,0,1,85.94,63.63Z" fill="#f4f3e8"/>
      <path id="Trazado_39177" data-name="Trazado 39177" d="M101.326,65.715c.141-.774-.341-1.4.392-1.638a5.068,5.068,0,0,1,1.5-.028C102.969,64.784,102.163,64.994,101.326,65.715Z" fill="#f4f3e8"/>
      <path id="Trazado_39178" data-name="Trazado 39178" d="M88.947,60.558a12.426,12.426,0,0,0,.194-2.948C90.14,58.74,89.343,59.635,88.947,60.558Z" fill="#f4f3e8"/>
      <path id="Trazado_39179" data-name="Trazado 39179" d="M76.368,64.221c-.6-.261-.234-.886-.544-1.277.388-.117.885-.28,1.052.082C77.085,63.479,76.712,63.9,76.368,64.221Z" fill="#f4f3e8"/>
      <path id="Trazado_39180" data-name="Trazado 39180" d="M65.976,63.089c.6-.014.417.441.437.756.018.283-.087.642-.4.531-.371-.132-.5-.573-.535-.965C65.449,63.051,65.749,63.1,65.976,63.089Z" fill="#f4f3e8"/>
      <path id="Trazado_39181" data-name="Trazado 39181" d="M100.024,60.223a3.713,3.713,0,0,1,0-1.932A3.7,3.7,0,0,1,100.024,60.223Z" fill="#f4f3e8"/>
      <path id="Trazado_39182" data-name="Trazado 39182" d="M95.62,44.671a1.047,1.047,0,0,1-1.7-.006C94.463,44.062,94.993,44.052,95.62,44.671Z" fill="#616454"/>
      <path id="Trazado_39183" data-name="Trazado 39183" d="M70.61,46.331c-.318.033-.75-.021-.744-.361s.443-.361.777-.358c.293,0,.669.028.683.324C71.346,46.337,70.944,46.336,70.61,46.331Z" fill="#616454"/>
    </g>
    <g id="Grupo_18291" data-name="Grupo 18291" transform="translate(-14.383 3098.294)">
      <path id="Trazado_39184" data-name="Trazado 39184" d="M551.383,215.3c0,12.752-54.622,23.092-122,23.092s-122-10.339-122-23.092,54.62-23.1,122-23.1S551.383,202.539,551.383,215.3Z" transform="translate(0 80.493)" fill="#9bb32b"/>
      <path id="Trazado_39185" data-name="Trazado 39185" d="M414.79,200.7c0,1.537-4.576,2.784-10.221,2.784s-10.221-1.247-10.221-2.784,4.576-2.786,10.221-2.786S414.79,199.156,414.79,200.7Z" transform="translate(93.447 86.627)" fill="#8ba122"/>
      <path id="Trazado_39186" data-name="Trazado 39186" d="M377.564,195.534c0,1.539-4.576,2.786-10.223,2.786s-10.223-1.247-10.223-2.786,4.576-2.784,10.223-2.784S377.564,194,377.564,195.534Z" transform="translate(53.441 81.084)" fill="#8ba122"/>
      <g id="Grupo_18260" data-name="Grupo 18260" transform="translate(402.245 221.116)">
        <path id="Trazado_39187" data-name="Trazado 39187" d="M360.8,221.635c-11-9.4-6.564-26.693-6.564-26.693l3.74,3.261s2.33-22.166,10.429-30.865c0,0,12.534,21.081,12.173,33.236l2.882-4.448s1.093,12.451,0,15.416l3.176-2.077S386.3,216.519,381,220.8a12.959,12.959,0,0,1-6.69,2.562C369.57,223.605,363.8,224.2,360.8,221.635Z" transform="translate(-352.847 -167.338)" fill="#829620"/>
        <path id="Trazado_39188" data-name="Trazado 39188" d="M361.466,191.409c-1.712-10.516,2.514-15.775,2.514-15.775S367.81,184.955,361.466,191.409Z" transform="translate(-344.569 -158.424)" fill="#8ba122"/>
        <path id="Trazado_39189" data-name="Trazado 39189" d="M355.007,180.2s-1.643,8.437,3.95,12.238C358.957,192.435,360.143,183.626,355.007,180.2Z" transform="translate(-351.314 -153.521)" fill="#8ba122"/>
        <path id="Trazado_39190" data-name="Trazado 39190" d="M361.511,189.5a10.485,10.485,0,0,1,5.093-7.512A6.655,6.655,0,0,1,361.511,189.5Z" transform="translate(-344.083 -151.6)" fill="#8ba122"/>
        <path id="Trazado_39191" data-name="Trazado 39191" d="M358.181,194.91s-1.9-5.751,1.4-10.2C359.58,184.71,362.075,190.834,358.181,194.91Z" transform="translate(-348.244 -148.671)" fill="#8ba122"/>
        <path id="Trazado_39192" data-name="Trazado 39192" d="M356.922,173.315s-1.34,9.64,4.363,13.072C361.285,186.387,363.631,178.414,356.922,173.315Z" transform="translate(-349.161 -160.916)" fill="#8ba122"/>
        <path id="Trazado_39193" data-name="Trazado 39193" d="M362.192,170.007a8.138,8.138,0,0,0-1.757,7.974S363.119,175.544,362.192,170.007Z" transform="translate(-345.704 -164.47)" fill="#8ba122"/>
        <path id="Trazado_39194" data-name="Trazado 39194" d="M366.324,194.318s0-6.3,5.093-8.713C371.417,185.605,371.716,192.741,366.324,194.318Z" transform="translate(-338.911 -147.71)" fill="#8ba122"/>
        <path id="Trazado_39195" data-name="Trazado 39195" d="M366.486,194.68s-4.234-2.016-3.116-7.512C363.37,187.168,367.086,188.745,366.486,194.68Z" transform="translate(-342.287 -146.03)" fill="#8ba122"/>
        <path id="Trazado_39196" data-name="Trazado 39196" d="M364.935,184.343s-1.655-6.211,3.176-8.437C368.111,175.906,367.779,183.881,364.935,184.343Z" transform="translate(-340.698 -158.131)" fill="#8ba122"/>
        <path id="Trazado_39197" data-name="Trazado 39197" d="M356.8,194.556s-2.784-.712-3.693-5.385a8.087,8.087,0,0,1,7.1,5.385Z" transform="translate(-353.11 -143.879)" fill="#8ba122"/>
        <path id="Trazado_39198" data-name="Trazado 39198" d="M361.311,195.273s-2.259-2,0-6.1c0,0,2.813,3.815,2.589,6.485S361.311,195.273,361.311,195.273Z" transform="translate(-345.377 -143.879)" fill="#8ba122"/>
      </g>
      <path id="Trazado_39199" data-name="Trazado 39199" d="M403.828,198.1c0,1.8-4.578,3.257-10.223,3.257s-10.221-1.458-10.221-3.257,4.576-3.255,10.221-3.255S403.828,196.3,403.828,198.1Z" transform="translate(81.664 83.338)" fill="#8ba122"/>
      <path id="Trazado_39200" data-name="Trazado 39200" d="M429.382,235.972c67.379,0,122-10.339,122-23.092,0-7.531-19.044-14.217-48.5-18.432,23.316,8,12.068,31.925-82.568,33.593C332.462,229.588,307.383,212.88,309.7,208.4h0a6.365,6.365,0,0,0-2.315,4.483C307.383,225.632,362,235.972,429.382,235.972Z" transform="translate(0 82.908)" fill="#8ba122"/>
      <g id="Grupo_18263" data-name="Grupo 18263" transform="translate(456.814 173.052)">
        <g id="Grupo_18261" data-name="Grupo 18261" transform="translate(5.723 88.071)">
          <path id="Trazado_39201" data-name="Trazado 39201" d="M404.826,188.471c-.417,2.17-2.12,15.9-2.334,17.009-.263,1.367-2.946,2.713-8.744,2.713s-9.252-2.041-9.358-2.633-1.909-18.445-1.909-18.445Z" transform="translate(-381.842 -186.094)" fill="#9e6522"/>
          <path id="Trazado_39202" data-name="Trazado 39202" d="M404.7,188.461l-.176-.172-16.717-1.014-4.406.481-.828,1.048c.1,1.014.239,2.355.394,3.861,3.2,1.386,15.754,1.56,15.754,1.56s.909,7.929-.025,13.339c2.348-.51,3.531-1.375,3.7-2.253.207-1.085,1.83-14.13,2.3-16.8A.458.458,0,0,1,404.7,188.461Z" transform="translate(-381.744 -185.924)" fill="#904a19" opacity="0.7"/>
          <path id="Trazado_39203" data-name="Trazado 39203" d="M405.146,191.862c-2.606,1.212-19.579,1.286-22.353.12l-.62-4.6s12.223,1.782,23.814-.353Z" transform="translate(-382.173 -186.186)" fill="#9e6522"/>
          <path id="Trazado_39204" data-name="Trazado 39204" d="M405.987,187.467c-7.52-1.79-23.353-.27-23.814.353C382.173,187.82,394.4,189.6,405.987,187.467Z" transform="translate(-382.173 -186.623)" fill="#c38733"/>
          <path id="Trazado_39205" data-name="Trazado 39205" d="M392.4,188.006a92.963,92.963,0,0,1-9.325-.477,97.076,97.076,0,0,1,12.1-.743,55.47,55.47,0,0,1,7.912.483,72.634,72.634,0,0,1-10.686.736Z" transform="translate(-381.201 -186.449)" fill="#421800"/>
        </g>
        <g id="Grupo_18262" data-name="Grupo 18262">
          <path id="Trazado_39206" data-name="Trazado 39206" d="M408.847,202.726c2.11-2.286,5.12-16.694,4.518-22.181s-3.012-1.83-3.012-1.83-3.313-33.848-11.445-34.535-13.831,30.645-13.831,30.645c-9.012-7.317-3.037,29.96-3.037,29.96-4.215-5.489-4.6,13.52,8.96,28.614a44.014,44.014,0,0,0,12.124-.255s5.423-7.091,4.518-9.149-2.711-.458-2.711-.458,8.736-17.15,7.23-19.667S408.847,202.726,408.847,202.726Z" transform="translate(-379.379 -144.17)" fill="#8ba122"/>
          <path id="Trazado_39207" data-name="Trazado 39207" d="M386.587,186.535c-2.037-1.676-2.886-5.674-2.037-5.8S386.587,186.535,386.587,186.535Z" transform="translate(-374.246 -104.885)" fill="#829620"/>
          <path id="Trazado_39208" data-name="Trazado 39208" d="M388.637,179.286s-3.672-6.7-.954-7.479S388.637,179.286,388.637,179.286Z" transform="translate(-371.606 -114.527)" fill="#829620"/>
          <path id="Trazado_39209" data-name="Trazado 39209" d="M386.669,184.576c-.7-3.479.266-6.317,1.535-5.8S386.669,184.576,386.669,184.576Z" transform="translate(-371.87 -107.052)" fill="#829620"/>
          <path id="Trazado_39210" data-name="Trazado 39210" d="M385.811,171.251c-1.533-2.062-2.867-6.06-1.18-5.8S385.811,171.251,385.811,171.251Z" transform="translate(-374.652 -121.318)" fill="#829620"/>
          <path id="Trazado_39211" data-name="Trazado 39211" d="M388.462,159.538c-1.359-4.383.68-6.188,1.7-5.674S388.462,159.538,388.462,159.538Z" transform="translate(-370.178 -133.844)" fill="#829620"/>
          <path id="Trazado_39212" data-name="Trazado 39212" d="M388.095,166.968s-1.85-6.06-1.05-6.576S389.362,161.552,388.095,166.968Z" transform="translate(-371.431 -126.834)" fill="#829620"/>
          <path id="Trazado_39213" data-name="Trazado 39213" d="M385.113,170.4c-9.014-7.317-3.037,29.96-3.037,29.96-3.172-4.13-4.3,5.466,1.116,16.9-3.145-9.089-3.637-16.368,0-14.175,0,0-4.112-27.475,0-29.139,3.61-1.46,5.415,2.6,5.415,2.6s.056-19.445,2.749-28.255C387.488,157.361,385.113,170.4,385.113,170.4Z" transform="translate(-379.414 -139.743)" fill="#94ac2e"/>
          <path id="Trazado_39214" data-name="Trazado 39214" d="M385.142,178.991c-1.809-1.738-1.882-5.116-1.019-5.213S385.142,178.991,385.142,178.991Z" transform="translate(-374.93 -112.356)" fill="#94ac2e"/>
          <path id="Trazado_39215" data-name="Trazado 39215" d="M389.409,170.906c.253-3.184.253-4.083,1.906-4.068S389.409,170.906,389.409,170.906Z" transform="translate(-368.675 -119.812)" fill="#94ac2e"/>
          <path id="Trazado_39216" data-name="Trazado 39216" d="M388.5,152.9c-1.562-2.8-1.34-5.5-.562-5.6S389.425,150.973,388.5,152.9Z" transform="translate(-370.904 -140.803)" fill="#94ac2e"/>
          <path id="Trazado_39217" data-name="Trazado 39217" d="M387.731,160.667c-2.1-2.122-2.606-5.4-1.334-5.5S387.731,160.667,387.731,160.667Z" transform="translate(-372.653 -132.353)" fill="#94ac2e"/>
          <path id="Trazado_39218" data-name="Trazado 39218" d="M389.409,160.631c.127-2.317.438-2.7,1.172-2.51S389.409,160.631,389.409,160.631Z" transform="translate(-368.675 -129.226)" fill="#94ac2e"/>
          <path id="Trazado_39219" data-name="Trazado 39219" d="M384.246,172.359s-1.992-2.859-.987-3.336S384.246,172.359,384.246,172.359Z" transform="translate(-375.587 -117.508)" fill="#94ac2e"/>
          <path id="Trazado_39220" data-name="Trazado 39220" d="M382.564,165.2c-.56-1.906-.824-2.574,0-2.763S382.564,165.2,382.564,165.2Z" transform="translate(-376.592 -124.549)" fill="#94ac2e"/>
          <path id="Trazado_39221" data-name="Trazado 39221" d="M399.831,202.72c2.11-2.286,5.12-16.694,4.518-22.181s-3.012-1.83-3.012-1.83-3.313-33.848-11.445-34.535c9.638,5.033,5.12,45.086,5.12,45.086s2.411-3.17,3.614,0-6.927,25.125-6.927,25.125,3.012.456.9,5.946c-1.751,4.558-3.989,11.244-4.765,13.362a45.062,45.062,0,0,0,6.184-.349s5.508-7.3,4.6-9.354-2.711-.458-2.711-.458,8.736-17.152,7.23-19.667S399.831,202.72,399.831,202.72Z" transform="translate(-370.363 -144.164)" fill="#829620"/>
        </g>
      </g>
      <g id="Grupo_18266" data-name="Grupo 18266" transform="translate(483.506 217.346)">
        <g id="Grupo_18264" data-name="Grupo 18264" transform="translate(1.513 50.541)">
          <path id="Trazado_39222" data-name="Trazado 39222" d="M414.8,191.662c-.4,2.089-2.041,15.3-2.245,16.364-.253,1.317-2.834,2.612-8.414,2.612s-8.9-1.963-9.006-2.531-1.832-17.75-1.832-17.75Z" transform="translate(-392.69 -189.375)" fill="#9e6522"/>
          <path id="Trazado_39223" data-name="Trazado 39223" d="M414.683,191.651l-.168-.166-16.086-.975-4.24.463-.795,1.006c.1.977.23,2.267.378,3.715,3.079,1.334,15.161,1.5,15.161,1.5s.873,7.63-.025,12.833c2.259-.49,3.4-1.322,3.56-2.168.2-1.041,1.759-13.594,2.209-16.159Z" transform="translate(-392.597 -189.21)" fill="#904a19" opacity="0.7"/>
          <path id="Trazado_39224" data-name="Trazado 39224" d="M415.114,194.925c-2.506,1.166-18.839,1.236-21.507.116l-.6-4.425a80.8,80.8,0,0,0,22.913-.342Z" transform="translate(-393.01 -189.464)" fill="#9e6522"/>
          <path id="Trazado_39225" data-name="Trazado 39225" d="M415.923,190.694c-7.238-1.72-22.469-.259-22.913.342A80.8,80.8,0,0,0,415.923,190.694Z" transform="translate(-393.01 -189.883)" fill="#c38733"/>
          <path id="Trazado_39226" data-name="Trazado 39226" d="M402.853,191.212a89.677,89.677,0,0,1-8.972-.458,93.392,93.392,0,0,1,11.642-.714,53.355,53.355,0,0,1,7.609.465,69.884,69.884,0,0,1-10.279.707Z" transform="translate(-392.074 -189.715)" fill="#421800"/>
        </g>
        <g id="Grupo_18265" data-name="Grupo 18265">
          <path id="Trazado_39227" data-name="Trazado 39227" d="M413.7,199.5c1.533-1.326,3.726-9.686,3.288-12.87s-2.193-1.062-2.193-1.062-2.411-19.638-8.329-20.036S396.4,183.308,396.4,183.308c-6.558-4.247-2.209,17.382-2.209,17.382-3.068-3.184-3.344,7.844,6.518,16.6a40.09,40.09,0,0,0,8.825-.149s3.948-4.114,3.288-5.307-1.973-.266-1.973-.266,6.358-9.952,5.261-11.412A1.81,1.81,0,0,0,413.7,199.5Z" transform="translate(-392.255 -165.521)" fill="#8ba122"/>
          <path id="Trazado_39228" data-name="Trazado 39228" d="M397.5,190.1c-1.483-.971-2.1-3.29-1.483-3.365S397.5,190.1,397.5,190.1Z" transform="translate(-388.521 -142.727)" fill="#829620"/>
          <path id="Trazado_39229" data-name="Trazado 39229" d="M398.992,185.9s-2.672-3.89-.695-4.338S398.992,185.9,398.992,185.9Z" transform="translate(-386.599 -148.321)" fill="#829620"/>
          <path id="Trazado_39230" data-name="Trazado 39230" d="M397.561,188.965c-.508-2.019.191-3.668,1.118-3.367S397.561,188.965,397.561,188.965Z" transform="translate(-386.791 -143.985)" fill="#829620"/>
          <path id="Trazado_39231" data-name="Trazado 39231" d="M396.936,181.234c-1.118-1.2-2.087-3.516-.861-3.367S396.936,181.234,396.936,181.234Z" transform="translate(-388.816 -152.263)" fill="#829620"/>
          <path id="Trazado_39232" data-name="Trazado 39232" d="M398.864,174.438c-.987-2.543.5-3.591,1.236-3.292S398.864,174.438,398.864,174.438Z" transform="translate(-385.56 -159.53)" fill="#829620"/>
          <path id="Trazado_39233" data-name="Trazado 39233" d="M398.6,178.75s-1.346-3.516-.763-3.817S399.518,175.607,398.6,178.75Z" transform="translate(-386.471 -155.463)" fill="#829620"/>
          <path id="Trazado_39234" data-name="Trazado 39234" d="M396.426,180.74c-6.558-4.247-2.209,17.382-2.209,17.382-2.307-2.4-3.126,3.172.811,9.806-2.288-5.273-2.645-9.5,0-8.226,0,0-2.994-15.941,0-16.905a3.352,3.352,0,0,1,3.942,1.508s.039-11.285,2-16.4A61.71,61.71,0,0,0,396.426,180.74Z" transform="translate(-392.281 -162.953)" fill="#94ac2e"/>
          <path id="Trazado_39235" data-name="Trazado 39235" d="M396.447,185.724c-1.315-1.008-1.367-2.969-.739-3.025S396.447,185.724,396.447,185.724Z" transform="translate(-389.017 -147.063)" fill="#94ac2e"/>
          <path id="Trazado_39236" data-name="Trazado 39236" d="M399.554,181.034c.185-1.848.185-2.369,1.388-2.361S399.554,181.034,399.554,181.034Z" transform="translate(-384.465 -151.389)" fill="#94ac2e"/>
          <path id="Trazado_39237" data-name="Trazado 39237" d="M398.89,170.588c-1.137-1.624-.975-3.193-.409-3.249S399.565,169.468,398.89,170.588Z" transform="translate(-386.088 -163.568)" fill="#94ac2e"/>
          <path id="Trazado_39238" data-name="Trazado 39238" d="M398.332,175.094c-1.525-1.232-1.9-3.135-.969-3.193S398.332,175.094,398.332,175.094Z" transform="translate(-387.361 -158.666)" fill="#94ac2e"/>
          <path id="Trazado_39239" data-name="Trazado 39239" d="M399.554,175.071c.093-1.344.317-1.568.853-1.456S399.554,175.071,399.554,175.071Z" transform="translate(-384.465 -156.851)" fill="#94ac2e"/>
          <path id="Trazado_39240" data-name="Trazado 39240" d="M395.795,181.877s-1.448-1.658-.716-1.936S395.795,181.877,395.795,181.877Z" transform="translate(-389.496 -150.051)" fill="#94ac2e"/>
          <path id="Trazado_39241" data-name="Trazado 39241" d="M394.572,177.724c-.407-1.108-.6-1.494,0-1.6S394.572,177.724,394.572,177.724Z" transform="translate(-390.227 -154.137)" fill="#94ac2e"/>
          <path id="Trazado_39242" data-name="Trazado 39242" d="M407.14,199.492c1.533-1.326,3.726-9.686,3.288-12.87s-2.193-1.062-2.193-1.062-2.411-19.638-8.329-20.036c7.016,2.919,3.728,26.16,3.728,26.16s1.751-1.84,2.628,0-5.041,14.576-5.041,14.576,2.193.266.658,3.45c-1.274,2.645-2.9,6.524-3.469,7.753a40.67,40.67,0,0,0,4.5-.2s4.008-4.232,3.348-5.425-1.973-.266-1.973-.266,6.358-9.952,5.261-11.412A1.81,1.81,0,0,0,407.14,199.492Z" transform="translate(-385.695 -165.518)" fill="#829620"/>
        </g>
      </g>
      <g id="Grupo_18267" data-name="Grupo 18267" transform="translate(335.555 258.739)">
        <path id="Trazado_39243" data-name="Trazado 39243" d="M339.223,206.88a25.43,25.43,0,0,0-1.338-4.168,30.915,30.915,0,0,0-4.981-8.41,20.15,20.15,0,0,0-1.826-1.954,16.5,16.5,0,0,0-1.96-1.707,14.964,14.964,0,0,0-2-1.4,12.134,12.134,0,0,0-1.913-1.077,17.81,17.81,0,0,0-3.052-1.263l-1.193-.413s.446.11,1.224.3a17.687,17.687,0,0,1,3.186,1,12.486,12.486,0,0,1,2.043.919,15.63,15.63,0,0,1,2.18,1.255,17.431,17.431,0,0,1,2.185,1.583,20.748,20.748,0,0,1,2.083,1.867,32.741,32.741,0,0,1,6.026,8.381,27.89,27.89,0,0,1,1.855,4.413Z" transform="translate(-320.963 -184.383)" fill="#a5c033"/>
        <path id="Trazado_39244" data-name="Trazado 39244" d="M330.482,204.123a26.793,26.793,0,0,1-.328-2.734,33.336,33.336,0,0,1,.079-5.939,22.7,22.7,0,0,1,1.344-5.722,13.437,13.437,0,0,1,.813-1.743l.344-.637s-.089.249-.243.682a13.2,13.2,0,0,0-.525,1.815,21.929,21.929,0,0,0-.432,5.645,31.927,31.927,0,0,0,.8,5.568,24.181,24.181,0,0,0,.678,2.413Z" transform="translate(-311.189 -183.46)" fill="#a5c033"/>
        <path id="Trazado_39245" data-name="Trazado 39245" d="M332.287,202.709a15.216,15.216,0,0,1,.716-2.778,20.114,20.114,0,0,1,2.8-5.383,18.164,18.164,0,0,1,4.23-4.164,13.825,13.825,0,0,1,1.637-1.031c.4-.228.633-.359.633-.359l-.568.452a13.421,13.421,0,0,0-1.44,1.251,17.321,17.321,0,0,0-3.381,4.541,18.322,18.322,0,0,0-1.782,5.253,12.4,12.4,0,0,0-.241,2.411Z" transform="translate(-308.795 -181.692)" fill="#a5c033"/>
        <path id="Trazado_39246" data-name="Trazado 39246" d="M331.05,208.4a26.639,26.639,0,0,1,.276-4.1,34.027,34.027,0,0,1,2.249-8.549,26.547,26.547,0,0,1,2.122-4.186,22.82,22.82,0,0,1,2.39-3.288,18.558,18.558,0,0,1,1.983-2.06c.5-.469.788-.739.788-.739l-.707.817a18.086,18.086,0,0,0-1.738,2.23,22.1,22.1,0,0,0-1.99,3.435,25.269,25.269,0,0,0-1.616,4.224,32.414,32.414,0,0,0-1.286,8.292,23.774,23.774,0,0,0,.137,3.74Z" transform="translate(-310.128 -185.474)" fill="#a5c033"/>
        <path id="Trazado_39247" data-name="Trazado 39247" d="M334.913,201.793a25.286,25.286,0,0,1,1.332-2.479,34.386,34.386,0,0,1,3.533-4.9,28.629,28.629,0,0,1,4.34-4.108,17.214,17.214,0,0,1,1.606-1.116c.394-.253.62-.4.62-.4l-.554.485a17.483,17.483,0,0,0-1.4,1.332,27.942,27.942,0,0,0-3.56,4.581,32.824,32.824,0,0,0-2.614,5.112,22.652,22.652,0,0,0-.853,2.4Z" transform="translate(-305.973 -181.911)" fill="#a5c033"/>
      </g>
      <g id="Grupo_18268" data-name="Grupo 18268" transform="translate(468.267 285.578)">
        <path id="Trazado_39248" data-name="Trazado 39248" d="M390.48,212.887s.272-1.033.788-2.458a36.846,36.846,0,0,1,2.29-5.1,21.184,21.184,0,0,1,3.234-4.5,12.327,12.327,0,0,1,1.361-1.2c.344-.263.539-.415.539-.415l-.463.5a12.385,12.385,0,0,0-1.112,1.384,20.153,20.153,0,0,0-2.33,4.788,35.333,35.333,0,0,0-1.324,5.139c-.255,1.436-.332,2.35-.332,2.35Z" transform="translate(-378.977 -197.548)" fill="#a5c033"/>
        <path id="Trazado_39249" data-name="Trazado 39249" d="M388.456,198.411A54.7,54.7,0,0,1,392,204.527a44.283,44.283,0,0,1,1.946,4.533c.471,1.276.709,2.166.709,2.166l-2.649.5a40.8,40.8,0,0,0-1.266-6.721A53.95,53.95,0,0,0,388.456,198.411Z" transform="translate(-381.152 -198.411)" fill="#a5c033"/>
        <path id="Trazado_39250" data-name="Trazado 39250" d="M384.935,199.108a26.394,26.394,0,0,1,2.427,1.562,34.093,34.093,0,0,1,4.865,4.172,25.78,25.78,0,0,1,3.925,5.242,15.984,15.984,0,0,1,.963,2l.328.784-2.591.753-.183-.712a13.694,13.694,0,0,0-.579-1.865,23.977,23.977,0,0,0-2.9-5.342,33.144,33.144,0,0,0-4.1-4.707A26.406,26.406,0,0,0,384.935,199.108Z" transform="translate(-384.935 -197.662)" fill="#a5c033"/>
        <path id="Trazado_39251" data-name="Trazado 39251" d="M392.394,208.514a8.425,8.425,0,0,1,.778-1.467,11.564,11.564,0,0,1,2.282-2.587,10.94,10.94,0,0,1,2.857-1.743,10.1,10.1,0,0,1,1.4-.5,11.126,11.126,0,0,0-3.535,2.946,10.157,10.157,0,0,0-1.49,2.66,6.116,6.116,0,0,0-.355,1.251Z" transform="translate(-376.92 -194.318)" fill="#a5c033"/>
        <path id="Trazado_39252" data-name="Trazado 39252" d="M385.413,202.516a20.192,20.192,0,0,1,4.83,2.6,14.841,14.841,0,0,1,2.819,2.7,9.086,9.086,0,0,1,.757,1.093l.268.438-1.848.824-.149-.394a7.621,7.621,0,0,0-.458-1.029,13.418,13.418,0,0,0-2.06-2.877A20.009,20.009,0,0,0,385.413,202.516Z" transform="translate(-384.421 -194)" fill="#a5c033"/>
        <path id="Trazado_39253" data-name="Trazado 39253" d="M390.8,211.813a14.877,14.877,0,0,1,.6-1.815,19.292,19.292,0,0,1,1.867-3.639,14.407,14.407,0,0,1,2.655-3.031,8.521,8.521,0,0,1,1.054-.784l.413-.274-.359.342a8.028,8.028,0,0,0-.884.94,13.754,13.754,0,0,0-1.992,3.292,17.85,17.85,0,0,0-1.118,3.635,12.529,12.529,0,0,0-.236,1.664Z" transform="translate(-378.63 -194.264)" fill="#a5c033"/>
      </g>
      <path id="Trazado_39254" data-name="Trazado 39254" d="M352.617,202.731c0,2.133-7.923,3.861-17.7,3.861s-17.7-1.728-17.7-3.861,7.925-3.859,17.7-3.859S352.617,200.6,352.617,202.731Z" transform="translate(10.567 87.662)" fill="#6b360a"/>
      <path id="Trazado_39255" data-name="Trazado 39255" d="M365.914,207.91c0,2.311-8.591,4.184-19.189,4.184s-19.189-1.873-19.189-4.184,8.593-4.184,19.189-4.184S365.914,205.6,365.914,207.91Z" transform="translate(21.654 92.878)" fill="#6b360a"/>
      <g id="Grupo_18275" data-name="Grupo 18275" transform="translate(349.801 124.659)">
        <path id="Trazado_39256" data-name="Trazado 39256" d="M341.9,121.095c1.954-1.068,7.263,1.321,9.12,5.888s2.259,22.7,3.226,25.861c0,0-7.219.726-10.947-2.131-1.209-.927-2.962-2.525-2.962-2.525l.6-8.107Z" transform="translate(-314.394 -120.842)" fill="#694329"/>
        <path id="Trazado_39257" data-name="Trazado 39257" d="M355.646,170.459c1.981,9.5,3.029,15.924,2.9,18.16s-3.458,23.3-3.458,23.3l-7.715-.471s-.815-9.939.048-14.978a37.359,37.359,0,0,0,.469-10.717c-.259-1.357-4.744-14.866-4.744-14.866Z" transform="translate(-311.376 -67.528)" fill="#3e3868"/>
        <path id="Trazado_39258" data-name="Trazado 39258" d="M347.5,172.183c0,8.192.226,13.2,0,16.839s-.782,15.474-1.3,16.613-7.346,1.819-8.6,0c0,0-.568-12.19-.683-16.165s-.568-16.264-.568-16.264Z" transform="translate(-318.676 -65.675)" fill="#3e3868"/>
        <path id="Trazado_39259" data-name="Trazado 39259" d="M343.7,172.183l-3.649.334c.664,12.173.1,28.158-.16,34.078,1.288-.195,2.317-.548,2.508-.961.519-1.139,1.075-12.972,1.3-16.613S343.7,180.375,343.7,172.183Z" transform="translate(-314.873 -65.675)" fill="#2e2a4b"/>
        <path id="Trazado_39260" data-name="Trazado 39260" d="M348.4,211.7l2.593-1.1c.73-4.639,3.143-20.084,3.253-21.982.131-2.236-.917-8.663-2.9-18.16l-4.2.143c2.983,11.3,3.419,16.936,2.927,20.72C349.548,195.345,348.4,211.7,348.4,211.7Z" transform="translate(-307.074 -67.528)" fill="#2e2a4b"/>
        <g id="Grupo_18269" data-name="Grupo 18269" transform="translate(75.473 85.065)">
          <path id="Trazado_39261" data-name="Trazado 39261" d="M366.869,162.327c2.589-1.149,5.943-.042,6.931,1.3.475.645.39,1.151-.083,1.344-.668.274-1.612-.531-2.5-1a7.67,7.67,0,0,0-6.251-.643C362.5,164.133,366.869,162.327,366.869,162.327Z" transform="translate(-364.211 -161.847)" fill="#a6ccf8"/>
          <path id="Trazado_39262" data-name="Trazado 39262" d="M366.4,162.531c1.813.566,2.205,1.8,1.583,2C367.344,164.742,367.5,162.969,366.4,162.531Z" transform="translate(-361.854 -161.111)" fill="#a6ccf8"/>
          <path id="Trazado_39263" data-name="Trazado 39263" d="M367.557,163.163c.828.541.784,3.238,1.676,3.245S370.181,164.563,367.557,163.163Z" transform="translate(-360.615 -160.432)" fill="#a6ccf8"/>
          <path id="Trazado_39264" data-name="Trazado 39264" d="M367.67,163.6c.062.716-.7,1.477-.01,1.641C368.178,165.36,367.948,164.089,367.67,163.6Z" transform="translate(-360.819 -159.968)" fill="#a6ccf8"/>
        </g>
        <g id="Grupo_18270" data-name="Grupo 18270" transform="translate(64.69 85.204)">
          <path id="Trazado_39265" data-name="Trazado 39265" d="M360.308,165.868l11.42-3.906a.542.542,0,0,1,.726.293l.425,1.048a.547.547,0,0,1-.168.631l-13.7,9.642Z" transform="translate(-359.013 -161.914)" fill="#f9bd4b"/>
        </g>
        <g id="Grupo_18271" data-name="Grupo 18271" transform="translate(65.288 86.159)" opacity="0.5">
          <path id="Trazado_39266" data-name="Trazado 39266" d="M359.3,172.608l13.1-9.169a.547.547,0,0,0,.168-.631l-.176-.434-11.516,5.336Z" transform="translate(-359.301 -162.374)" fill="#f2ae41"/>
        </g>
        <g id="Grupo_18272" data-name="Grupo 18272" transform="translate(47.592 77.985)">
          <path id="Trazado_39267" data-name="Trazado 39267" d="M356.453,158.644l-5.605,15.293a1.3,1.3,0,0,0,.475,1.5c2.216,1.556,9.713,5.854,16.82,5.184a1.292,1.292,0,0,0,1.122-1.054l2.572-16.953a.314.314,0,0,0-.23-.363l-14.781-3.8A.313.313,0,0,0,356.453,158.644Z" transform="translate(-350.771 -158.434)" fill="#f9bd4b"/>
        </g>
        <g id="Grupo_18273" data-name="Grupo 18273" transform="translate(54.838 71.37)">
          <path id="Trazado_39268" data-name="Trazado 39268" d="M366.107,165.97l-1.324-.288c1.168-5.35,1.033-8.053-2.892-8.935-3.369-.751-4.784,1.537-6.34,6.334l-1.288-.419c1.151-3.545,2.722-8.416,7.925-7.236C367.665,156.656,367.168,161.116,366.107,165.97Z" transform="translate(-354.264 -155.245)" fill="#f9bd4b"/>
        </g>
        <g id="Grupo_18274" data-name="Grupo 18274" transform="translate(47.592 81.516)" opacity="0.5">
          <path id="Trazado_39269" data-name="Trazado 39269" d="M371.607,160.42l-1.1-.284-4.325,15.858s-9.441-.786-15.219-4.2l-.112.313a1.3,1.3,0,0,0,.475,1.5c2.216,1.556,9.713,5.854,16.82,5.184a1.292,1.292,0,0,0,1.122-1.054l2.572-16.953A.314.314,0,0,0,371.607,160.42Z" transform="translate(-350.771 -160.136)" fill="#f2ae41"/>
        </g>
        <path id="Trazado_39270" data-name="Trazado 39270" d="M348.26,134.512a2.6,2.6,0,0,0,1.51,3.771l-.919,9.939L338.825,136.9s1.259-6.163.882-7.672S348.26,134.512,348.26,134.512Z" transform="translate(-316.016 -112.066)" fill="#f0bb8f"/>
        <path id="Trazado_39271" data-name="Trazado 39271" d="M354.355,149.286c3.635,2.27,9.69,5.765,13.113,7.632s3.886,2.765,4.359,5.315.259,2.774-.454,3.817-7.605.6-5.1-.824c.72-.411.956-1.037.375-1.6-.678-.666-.846-2.427-1.263-2.558-.734-.23-16.225-4.666-17.953-6.753l3.614-6.628Z" transform="translate(-306.763 -91.997)" fill="#f0bb8f"/>
        <path id="Trazado_39272" data-name="Trazado 39272" d="M345.637,133.48c3.269,1.51,8.806,2.014,10.692,7.8s3.145,23.272,3.145,23.272-4.141,1.151-4.421,6.736l-12.381-21.409.9-11.061Z" transform="translate(-311.882 -107.263)" fill="#5e0b4e"/>
        <path id="Trazado_39273" data-name="Trazado 39273" d="M350.64,132.813c-5.149,2.369-9.75,1.492-14.569,9.161s-5.282,18.179-6.6,21.245-1.643,4.274-1.643,5.369c0,0,2.832-3.614,8.856-1.533l4.641-10.528,22.7-10.294-4.5-6.7Z" transform="translate(-327.83 -107.979)" fill="#5e0b4e"/>
        <path id="Trazado_39274" data-name="Trazado 39274" d="M361.39,139.249c1.309,3.506,2.8,19.115,3.018,32.329s4.076,38.414,4.076,38.414-13.059,6.792-33.217,4.164c0,0,.046-21.938-.832-29.17s2.415-20.341,1.757-24.942-1.8-10.433-1.8-10.433l6.377-9.734A73.6,73.6,0,0,0,361.39,139.249Z" transform="translate(-320.893 -101.064)" fill="#c3b6a6"/>
        <path id="Trazado_39275" data-name="Trazado 39275" d="M355.055,188.693s-.32,12.854-.32,15.472,3.991,3.769,5.437,4,4.647.415,5.008,2.732c.3,1.9.477,2.587-1.523,3.269s-8.2.3-9.313-.274-3.336-.682-4.116-.112-4.074.643-4.52-.154-.649-5.794.2-8.657c.695-2.353-1.241-14.128-1.241-16.275C344.666,188.693,351.273,186.872,355.055,188.693Z" transform="translate(-309.739 -48.804)" fill="#f9bd4b"/>
        <path id="Trazado_39276" data-name="Trazado 39276" d="M347.74,208.05c-.162-1.122-.627-11.014-.537-15.042s-.019-5.014-.019-5.014a15.3,15.3,0,0,0-6.7,0c-3.848.8-4.3,1.4-4.3,1.4s3.857,15.327,4.207,18.206c.365,2.991.062,3.1-.156,4.189a8.712,8.712,0,0,0-.313,3.292c.355,1.664.452,2.666,2.6,2.844s7.985.151,8.255-.207a4.441,4.441,0,0,0,.309-3.4C350.557,213.064,347.9,209.135,347.74,208.05Z" transform="translate(-318.846 -49.071)" fill="#f9bd4b"/>
        <path id="Trazado_39277" data-name="Trazado 39277" d="M340.5,203.292c2.147.178,7.985.151,8.255-.207a4.39,4.39,0,0,0,.512-1.821c-.815.656-10.671,1.253-11.192-.008C338.356,202.431,338.732,203.145,340.5,203.292Z" transform="translate(-316.818 -34.436)" fill="#f2ae41"/>
        <path id="Trazado_39278" data-name="Trazado 39278" d="M363.253,201.852c1.705-.583,1.821-1.172,1.637-2.51-.4,1.587-10.176,1.909-11.364,1.048s-3.848-.257-4.2.091-3.84.141-4.284-.355a4.049,4.049,0,0,0,.261,1.187c.446.8,3.742.722,4.52.151s3-.454,4.116.114S361.249,202.535,363.253,201.852Z" transform="translate(-309.334 -36.492)" fill="#f2ae41"/>
        <path id="Trazado_39279" data-name="Trazado 39279" d="M361.325,165.322c-1.216.118-5.578-1.407-5.217-1.824s1.373.6,2.869.724,1.351-.691,1.351-.691-1.423-.736-3.369-1.687-3.027-.3-5.4-1.365-7.748-3.911-9.827-5.7-5.043-4.715-5.043-4.715c-5.332-3.491-8.568.456-8.568.456-.743,1.72-.338,3.587,4.819,6.315s14.387,5.207,15.634,5.861,2.738,2.738,3.294,3.218,6.006,3.027,7.182,2.054S362.54,165.206,361.325,165.322Z" transform="translate(-327.829 -90.99)" fill="#f0bb8f"/>
        <path id="Trazado_39280" data-name="Trazado 39280" d="M337.986,147.086s-.326-9.74-1.745-13.179l1.292-.4s2.63,10.792,2.479,12.98S337.986,147.086,337.986,147.086Z" transform="translate(-318.792 -107.233)" fill="#c3b6a6"/>
        <path id="Trazado_39281" data-name="Trazado 39281" d="M348.991,144.763l-2.058-10.215-1.108-.431,1.86,11.663Z" transform="translate(-308.494 -106.577)" fill="#b5a796"/>
        <path id="Trazado_39282" data-name="Trazado 39282" d="M367.986,209.993s-3.859-25.2-4.076-38.414-1.709-28.824-3.018-32.329c-1.419.282-2.844.49-4.257.649,1.572,18.028,3.3,43.511,2.95,52.44-.336,8.64-6.562,16.154-24.834,16.308.023,3.274.019,5.51.019,5.51C354.927,216.785,367.986,209.993,367.986,209.993Z" transform="translate(-320.394 -101.064)" fill="#b5a796"/>
        <path id="Trazado_39283" data-name="Trazado 39283" d="M340.372,136.361a8.436,8.436,0,0,0,7.163,0l0,0a3.106,3.106,0,0,1,.28-1.846s-8.931-6.794-8.553-5.284a8.623,8.623,0,0,1-.031,2.4Z" transform="translate(-315.575 -112.066)" fill="#e8ac86"/>
        <path id="Trazado_39284" data-name="Trazado 39284" d="M343.614,138.591c.533,1.919,3.527,16.493,3.527,16.493s-9.367.612-10.819-1.7c0,0-.517-11.1-.817-14.7-.506-6.1.328-17.739,11.7-17.719l5.887,5.35-4.311,8Z" transform="translate(-319.701 -120.712)" fill="#7a553c"/>
        <path id="Trazado_39285" data-name="Trazado 39285" d="M352.653,125.631l-4.435-4.031c2.79,3.819-7.174,6.91-8.311,10.016s2.184,12.912,1.448,14.982c-.56,1.57-3.946,3.562-5.552,4.433.048,1.021.079,1.67.079,1.67,1.452,2.311,10.819,1.7,10.819,1.7s-2.994-14.574-3.527-16.493l5.168-4.282Z" transform="translate(-319.262 -120.028)" fill="#694329"/>
        <path id="Trazado_39286" data-name="Trazado 39286" d="M340.178,135.873c-.241,3.251,2.4,5.253,6.255,5.933s5.28-4.983,5.429-6.792-.3-3.027.3-4.207-.388-6.4-2.5-7.211-7.881,3.4-8.277,6.6c0,0-1.927-1.3-2.668,1.307C338.3,132.931,338.983,135.912,340.178,135.873Z" transform="translate(-316.265 -117.993)" fill="#f0bb8f"/>
        <path id="Trazado_39287" data-name="Trazado 39287" d="M342.58,122.413s3.207,3.537,5.228,2.738c.72-.282.6-.865.147-1.5-2.338-2.3-5.433-3.325-6.827-2.562l-.077,1.548C341.889,122.519,342.58,122.413,342.58,122.413Z" transform="translate(-313.624 -120.841)" fill="#7a553c"/>
      </g>
      <g id="Grupo_18283" data-name="Grupo 18283" transform="translate(397.624 117.29)">
        <g id="Grupo_18276" data-name="Grupo 18276" transform="translate(7.87 95.384)">
          <path id="Trazado_39288" data-name="Trazado 39288" d="M371.345,182.326c-.338-11.595-2.612-17.474-6.751-17.474-5.217,0-8.333,6.526-8.333,17.451h-1.585c0-11.92,3.707-19.034,9.918-19.034,5.234,0,7.962,6.215,8.338,19.009Z" transform="translate(-354.676 -163.269)" fill="#904a19"/>
        </g>
        <g id="Grupo_18277" data-name="Grupo 18277" transform="translate(0 94.552)">
          <path id="Trazado_39289" data-name="Trazado 39289" d="M364.005,185.244c-1.9-1.014-5.56-5.058-5.56-5.058l1.359-.691-2.1-.452s-5.545-6.867-6.024-9.541l1.126-.664-1.373-.3s-.956-1.869-.359-5.672c0,0,6.147,4.429,7.516,6.313l-.745,1.88,1.234-1.168s3.628,5.244,4.041,8.584l.322-1.139A16.357,16.357,0,0,1,364.005,185.244Z" transform="translate(-350.882 -162.868)" fill="#8a9f26"/>
          <path id="Trazado_39290" data-name="Trazado 39290" d="M351.343,163.578a30.81,30.81,0,0,0,1.867,3.292c1.209,1.927,2.94,4.419,4.641,6.931s3.357,5.062,4.429,7.085a19.888,19.888,0,0,1,1.141,2.529l.284,1.031-.392.071s-.091-.359-.251-.983a19.547,19.547,0,0,0-1.081-2.5c-1.029-2.014-2.633-4.591-4.3-7.126s-3.35-5.058-4.527-7.008A30.773,30.773,0,0,1,351.343,163.578Z" transform="translate(-350.387 -162.105)" fill="#94ac2e"/>
        </g>
        <g id="Grupo_18278" data-name="Grupo 18278" transform="translate(13.695 93.907)">
          <path id="Trazado_39291" data-name="Trazado 39291" d="M358.424,186.765c1.7-1.315,4.643-5.908,4.643-5.908l-1.454-.456,1.992-.792s4.33-7.692,4.359-10.41l-1.222-.467,1.307-.521s.631-2-.585-5.653c0,0-5.329,5.385-6.367,7.47l1.048,1.73-1.413-.948s-2.709,5.775-2.562,9.136l-.506-1.073A16.372,16.372,0,0,0,358.424,186.765Z" transform="translate(-357.484 -162.557)" fill="#71821c"/>
          <path id="Trazado_39292" data-name="Trazado 39292" d="M366.575,163.317a30.582,30.582,0,0,1-1.3,3.558c-.871,2.1-2.166,4.844-3.425,7.6s-2.471,5.549-3.195,7.721a19.767,19.767,0,0,0-.707,2.682l-.108,1.064.4,0s.031-.367.087-1.01a19.336,19.336,0,0,1,.651-2.639c.68-2.16,1.836-4.966,3.056-7.74s2.462-5.545,3.3-7.661A31.21,31.21,0,0,0,366.575,163.317Z" transform="translate(-357.1 -161.74)" fill="#829620"/>
        </g>
        <g id="Grupo_18279" data-name="Grupo 18279" transform="translate(9.752 94.206)">
          <path id="Trazado_39293" data-name="Trazado 39293" d="M359.633,184.826c1.052-1.7,1.888-6.4,1.888-6.4l-1.566.253,1.548-1.421s1.315-4.114.2-6.192l-1.351.145,1.01-.931s-.724-5.3-3.417-7.576c0,0-1.855,4.371-1.954,6.383l1.048,1.187-1.062-.442s-1.021,7.416.539,9.914l-.929-.606A12.454,12.454,0,0,0,359.633,184.826Z" transform="translate(-355.583 -162.701)" fill="#94ac2e"/>
          <path id="Trazado_39294" data-name="Trazado 39294" d="M356.811,163.38a21.912,21.912,0,0,1,.278,3.238c.066,1.956,0,4.572-.023,7.19a59.536,59.536,0,0,0,.245,7.182,14.168,14.168,0,0,0,.465,2.33l.349.857.375-.162s-.124-.292-.344-.8a13.713,13.713,0,0,1-.5-2.276,59.015,59.015,0,0,1-.386-7.141c-.027-2.612-.014-5.23-.118-7.182A21.677,21.677,0,0,0,356.811,163.38Z" transform="translate(-354.264 -161.971)" fill="#a5c033"/>
        </g>
        <g id="Grupo_18280" data-name="Grupo 18280" transform="translate(18.104 102.319)">
          <path id="Trazado_39295" data-name="Trazado 39295" d="M362.125,185.474c-1.052-1.45-1.888-5.458-1.888-5.458l1.564.214-1.543-1.209s-1.317-3.508-.2-5.28l1.351.124-1.01-.792s.724-4.518,3.415-6.46c0,0,1.857,3.726,1.956,5.441l-1.048,1.012,1.06-.378s1.023,6.323-.535,8.452l.929-.517A10.693,10.693,0,0,1,362.125,185.474Z" transform="translate(-359.609 -166.612)" fill="#94ac2e"/>
          <path id="Trazado_39296" data-name="Trazado 39296" d="M362.421,167.19a15.807,15.807,0,0,0-.278,2.761c-.066,1.668,0,3.9.021,6.13a43.033,43.033,0,0,1-.243,6.124,10.572,10.572,0,0,1-.465,1.985c-.222.465-.349.728-.349.728l-.375-.135s.124-.251.344-.687a10.181,10.181,0,0,0,.5-1.94,42.931,42.931,0,0,0,.386-6.089c.027-2.226.015-4.456.118-6.122A15.872,15.872,0,0,1,362.421,167.19Z" transform="translate(-358.402 -165.991)" fill="#a5c033"/>
        </g>
        <g id="Grupo_18281" data-name="Grupo 18281" transform="translate(5.816 112.887)">
          <path id="Trazado_39297" data-name="Trazado 39297" d="M353.686,171.706l1.531,12.917,10.854.638V171.991Z" transform="translate(-353.686 -171.706)" fill="#c38733"/>
          <path id="Trazado_39298" data-name="Trazado 39298" d="M372.041,171.706l-1.531,12.917-10.854.638V171.991Z" transform="translate(-347.271 -171.706)" fill="#9e6522"/>
        </g>
        <path id="Trazado_39299" data-name="Trazado 39299" d="M358.748,161.232c-.616,2.365-1.942,4.184-1.533,5.419a4.615,4.615,0,0,0,3.087,2.57c1.336.413,5.041-.822,5.244-1.44s-.307-1.44,0-2.879a16.364,16.364,0,0,0,.151-3.67Z" transform="translate(-344.16 -70.074)" fill="#f0bb8f"/>
        <path id="Trazado_39300" data-name="Trazado 39300" d="M394,154.774c1.512.191,4.684.492,6.022-1.363l-1.477-5.97-3.05-1.3-4.151,4.388-.485,2.7Z" transform="translate(-307.929 -86.288)" fill="#e8ac86"/>
        <g id="Grupo_18282" data-name="Grupo 18282" transform="translate(85.935 26.306)">
          <path id="Trazado_39301" data-name="Trazado 39301" d="M394.75,277.122l-1.743-.033a.714.714,0,0,1-.7-.728l2.782-146.389,3.172.06L395.478,276.42A.715.715,0,0,1,394.75,277.122Z" transform="translate(-392.306 -129.971)" fill="#ad9676"/>
        </g>
        <path id="Trazado_39302" data-name="Trazado 39302" d="M395.758,146.562c.6-.541,1.118-1.029,1.695-.27a7.113,7.113,0,0,1,1.392,4.763,3.723,3.723,0,0,1-2.33,3.411,2.1,2.1,0,0,1-2.977-1.029c-.6-1.3-.309-2.153-.533-3.122S395.758,146.562,395.758,146.562Z" transform="translate(-305.633 -86.547)" fill="#f0bb8f"/>
        <path id="Trazado_39303" data-name="Trazado 39303" d="M393.6,138.959l-.234,12.368a10.074,10.074,0,0,0,3.17.187l.232-12.325Z" transform="translate(-305.234 -94.007)" fill="#756556"/>
        <path id="Trazado_39304" data-name="Trazado 39304" d="M394,150.884a8.579,8.579,0,0,0,1.838-2.977s2.435.759,3.466.272.162-1.083-1.247-1.463-2.382-1.137-3.085-.921a19.474,19.474,0,0,0-2.649,1.469l-1.465,2.158.919,2.871Z" transform="translate(-307.929 -86.701)" fill="#f0bb8f"/>
        <path id="Trazado_39305" data-name="Trazado 39305" d="M376.5,129.1c-4.44,1.788-10.744,4.066-12.8,5.661s-4.6,8.765-4.827,21.793a237.075,237.075,0,0,1-2.114,28.707c-.353,2.492-.826,4.388,1.483,6.981a4.05,4.05,0,0,1,.1,1.23c.151,2.145.23,2.871.23,2.871s4.964,1.631,8.848-.884a76.366,76.366,0,0,1-1.467-16.509c.114-9.713,2.857-21.6,2.857-21.6Z" transform="translate(-344.878 -104.6)" fill="#cc0001"/>
        <path id="Trazado_39306" data-name="Trazado 39306" d="M377.607,128.563c3.622.915,11.306,2.377,14.051,3.446s10.9,16.057,12.731,20.019,3.5,7.313,5.637,8.835,9.6,3.048,9.6,4.877h3.5s-.61,5.483,1.676,7.923l-5.18,1.218a15.808,15.808,0,0,1-9.445-1.218c-4.57-2.286-10.514-6.553-12.036-8.686s-6.952-10.539-6.952-10.539-.058,2.616.1,7.645,2.438,20.874,2.438,20.874l-31.539-2.286v-35.8l8.178-15.19Z" transform="translate(-338.737 -105.177)" fill="#cc0001"/>
        <path id="Trazado_39307" data-name="Trazado 39307" d="M365.524,151.135c-.625-3.093-1.037-5.149-1.037-5.149l-.815-10.732s-2.5,23.332-3.29,26.5c-.739,2.967-1.346,23.614-.55,28.467a9.371,9.371,0,0,0,4.392-1.377,76.334,76.334,0,0,1-1.467-16.507C362.858,163.667,365.055,153.267,365.524,151.135Z" transform="translate(-341.67 -97.988)" fill="#b00001"/>
        <path id="Trazado_39308" data-name="Trazado 39308" d="M409.078,170.684s-.554.952-3.726.554-12.991-5.607-14.814-7.885a188.762,188.762,0,0,1-11.547-18.113,36.025,36.025,0,0,1-3.344-15.561c-.423-.1-.855-.2-1.288-.295l-2.151,11.8s3.566,18.318,3.8,18.716c.087.143,2.131,2.108,4.736,4.562-.122-1.3-.205-2.429-.23-3.261-.154-5.029-.1-7.645-.1-7.645s5.427,8.406,6.952,10.539,7.466,6.4,12.036,8.686A15.808,15.808,0,0,0,408.856,174l5.18-1.218c-2.286-2.44-1.676-7.923-1.676-7.923h-3.5C407.839,167.039,409.078,170.684,409.078,170.684Z" transform="translate(-327.968 -104.295)" fill="#b00001"/>
        <path id="Trazado_39309" data-name="Trazado 39309" d="M361.712,153.641c.643-5.614,2.207-6.875,2.971-12.968s0-9.2,0-9.2l2-.8s-1.382,12.744,2.655,15.638,10.736.915,11.956-1.218,4.089-15.746,4.089-15.746l1.778.319s-1.971,14.646-.78,18.76,5.89,9.91,5.89,9.91,2.043,13.267,3.61,20.426,1.716,17.826.8,26.208-1.676,26.206-1.523,30.166l.149,3.962H382.661s-.3-7.161-.915-11.122-2.388-17.806-2.388-17.806-.705,17.806-.606,20.851,0,8.076,0,8.076-12.09,1.066-12.547,1.066,0-3.655-.913-8.684-2.589-17.521-3.581-27.425-.081-20.113.757-28.647S361.712,153.641,361.712,153.641Z" transform="translate(-339.71 -104.336)" fill="#3e3868"/>
        <path id="Trazado_39310" data-name="Trazado 39310" d="M374.037,207.2s-2.191-23.739-2.191-24.44a60.955,60.955,0,0,0,13.325,0s-2.35,22.108-2.508,24.459.158,7.84.234,10.974.313,5.566-6.427,5.8-5.334-4.33-5.255-5.037,1.726-4.466,2.195-6.19A35.931,35.931,0,0,0,374.037,207.2Z" transform="translate(-329.22 -46.937)" fill="#f9bd4b"/>
        <path id="Trazado_39311" data-name="Trazado 39311" d="M365.206,184.89s3.518,19.333,3.753,22.075.784,5.566-1.685,7.605-3.487,1.882-4.35,3.527a2.887,2.887,0,0,0,1.1,3.842c.529.2,3.985,1.292,6.649.431s4.168-3.411,5.657-4.744a3.587,3.587,0,0,0,1.49-3.056,72.3,72.3,0,0,1-.479-7.682c.087-3.371,0-23.594,0-23.594A42.7,42.7,0,0,1,365.206,184.89Z" transform="translate(-338.296 -46.366)" fill="#f9bd4b"/>
        <path id="Trazado_39312" data-name="Trazado 39312" d="M363.9,123.3c.587-2.294,1.909-4.747,3.854-5.344,3.114-.961,7.489-.83,9.586.1s2.776,4.651,2.772,5.639S363.9,123.3,363.9,123.3Z" transform="translate(-336.899 -117.29)" fill="#ffe7ad"/>
        <path id="Trazado_39313" data-name="Trazado 39313" d="M364.361,120.03s-.359,1.11-.465,1.521c0,0,16.21,1.384,16.212.4a7.9,7.9,0,0,0-.344-1.979l-.066-.313C370.694,117.79,364.361,120.03,364.361,120.03Z" transform="translate(-336.899 -115.546)" fill="#cc0001"/>
        <path id="Trazado_39314" data-name="Trazado 39314" d="M369.219,135.287c-5.946-1.67-12.341-6.468-9.524-9.754s7.531-6.109,19.424-6.109c11.8,0,16.849,5.45,17.789,8.738s-5.531,6.616-9.914,7.242S374.962,136.895,369.219,135.287Z" transform="translate(-342.15 -114.999)" fill="#f7d49c"/>
        <path id="Trazado_39315" data-name="Trazado 39315" d="M369.219,133.717c5.742,1.608,13.391.743,17.775.116s10.854-3.954,9.914-7.242a10.727,10.727,0,0,0-5-5.707h-.006a4.929,4.929,0,0,1-.485,6.6c-3.17,3.315-15.262,5.9-23,3.523s-9.261-4.359-8.73-7.047C356.878,127.249,363.274,132.047,369.219,133.717Z" transform="translate(-342.15 -113.429)" fill="#edc78a"/>
        <path id="Trazado_39316" data-name="Trazado 39316" d="M374.173,120.884c-2.487,0-4.869.324-6.383,1.946s-3.139,5.41-2.813,7.574a12.491,12.491,0,0,1-.542,7.356c-1.191,2.6-.757,4.979,0,7.792s-1.838,6.168-3.029,6.6a7.079,7.079,0,0,0,6.383-2.379,9.53,9.53,0,0,0,2.184-8.5c-.776-2,3.174-4.408,3.516-6.636.131-.857.683-11.049.683-11.049Z" transform="translate(-339.574 -113.429)" fill="#7a553c"/>
        <path id="Trazado_39317" data-name="Trazado 39317" d="M367.56,120.884c5.41,0,7.79,1.407,8.765,2.7a8.979,8.979,0,0,1,2.38,5.952c0,3.029-1.66,5.12-.473,7.018a6.858,6.858,0,0,1,.407,7.4c-1.651,2.852-1.494,5.537,1.266,8.271,0,0-5.193-1.054-6.628-4.408s.027-4.759,0-7.248-2.641-3.946-2.425-6.653-3.29-10.335-3.29-10.335Z" transform="translate(-332.962 -113.429)" fill="#7a553c"/>
        <path id="Trazado_39318" data-name="Trazado 39318" d="M378.39,149.456c-2.346-2.323-2.811-4.614-1.884-7-1.77,1.185-3.162-1.946-2.749-4.056.5-2.552-1.251-4.352-.552-5.755s.151-7.655-.643-9.178c0,0-2.274,3.234-3.593,5.134a8.465,8.465,0,0,1,.367,2.543c-.216,2.707,2.4,4.164,2.425,6.653s-1.434,3.894,0,7.248S378.39,149.456,378.39,149.456Z" transform="translate(-331.448 -110.652)" fill="#694329"/>
        <path id="Trazado_39319" data-name="Trazado 39319" d="M369.186,123.468c-1.55,3.361-.4,6.412-.467,9.182s-1.081,4.713-.349,7.755-2.823,6.829-3.334,6.039a5.767,5.767,0,0,1-.471-2.392c-.112,2.467-2.147,4.954-3.159,5.323A7.079,7.079,0,0,0,367.789,147a9.53,9.53,0,0,0,2.184-8.5c-.776-2,3.174-4.408,3.516-6.636.046-.3.143-1.726.249-3.458A52.993,52.993,0,0,0,369.186,123.468Z" transform="translate(-339.574 -110.652)" fill="#694329"/>
        <path id="Trazado_39320" data-name="Trazado 39320" d="M366.452,128.392a5.239,5.239,0,0,1-.278,2.832c-.353.819.218,2.415,3.8,3.859,0,0,2.743-.917,3.541-2.458s-.45-1.384-.083-4.232S366.452,128.392,366.452,128.392Z" transform="translate(-334.548 -106.724)" fill="#e8ac86"/>
        <path id="Trazado_39321" data-name="Trazado 39321" d="M370.111,121.175a12.244,12.244,0,0,1-4.846,4.757,12.086,12.086,0,0,0-.18,3.216c.1,1.51,1.6,7.354,5.7,7.354,3.954,0,5.427-3.6,5.661-5.112s.259-5,.322-5.458C376.769,125.932,370.786,124.225,370.111,121.175Z" transform="translate(-335.654 -113.116)" fill="#f0bb8f"/>
        <path id="Trazado_39322" data-name="Trazado 39322" d="M370.354,133.41l-.563-2.176-3.043-2.555-1.016,2.234,3,3.425Z" transform="translate(-334.927 -105.052)" fill="#cc0001"/>
        <path id="Trazado_39323" data-name="Trazado 39323" d="M367.96,133.62l.52-2.258,2.9-2.877,1.145,2.444-2.21,3.31H367.96Z" transform="translate(-332.532 -105.262)" fill="#cc0001"/>
        <path id="Trazado_39324" data-name="Trazado 39324" d="M386.548,143.54a4.555,4.555,0,0,0-3.767,2.191s3.108-1.923,5.114-.931Z" transform="translate(-316.606 -89.113)" fill="#b00001"/>
        <path id="Trazado_39325" data-name="Trazado 39325" d="M361.539,158.268c-.461,4.294-2.668,4-4.211,3.554a4.05,4.05,0,0,1,.1,1.23c.151,2.145.23,2.871.23,2.871a12.956,12.956,0,0,0,5.352.394C362.757,163.408,361.927,154.666,361.539,158.268Z" transform="translate(-343.956 -74.179)" fill="#b00001"/>
        <path id="Trazado_39326" data-name="Trazado 39326" d="M390.432,154.078l19.974.846a1.8,1.8,0,0,0,1.983-1.668c0-6.134-.786-26.328-11.138-26.849-10.4-.525-12.292,19.864-12.622,25.919A1.765,1.765,0,0,0,390.432,154.078Z" transform="translate(-310.325 -107.504)" fill="#6e6e6e"/>
        <path id="Trazado_39327" data-name="Trazado 39327" d="M377.648,214.058a72.3,72.3,0,0,1-.479-7.682c.068-2.62.031-15.432.01-21-.726-.927-1.386-1.682-1.548-1.6-.3.16-7,2.257-10.12,3.234.122.676.263,1.458.413,2.309a17.709,17.709,0,0,0,8.987.425s.4,19.515.56,21.994-1.842,4.72-3.041,6.4-4.933,3.508-9.665,2.153l-.012,0a2.269,2.269,0,0,0,1.1,1.135c.529.2,3.985,1.292,6.649.431s4.168-3.411,5.657-4.744A3.587,3.587,0,0,0,377.648,214.058Z" transform="translate(-338.127 -45.854)" fill="#f2ae41"/>
        <path id="Trazado_39328" data-name="Trazado 39328" d="M406.694,127.727c3.815,5.612,2.228,21.878,1.5,22.847s-15.7,1.529-19.532-.3c-.014.228-.025.44-.037.639a1.765,1.765,0,0,0,1.8,1.751l19.974.846a1.8,1.8,0,0,0,1.983-1.668c0-4.817-.483-18.293-5.7-24.118Z" transform="translate(-310.325 -106.084)" fill="#424242" opacity="0.3"/>
        <path id="Trazado_39329" data-name="Trazado 39329" d="M393.233,148.351s.639-13.98,2.342-16.331c0,0,2.112,1.952,2.112,16.519Z" transform="translate(-305.375 -101.463)" fill="#424242"/>
        <path id="Trazado_39330" data-name="Trazado 39330" d="M392.827,187.318l-.521,27.421a.714.714,0,0,0,.7.728l1.743.033a.717.717,0,0,0,.728-.7l.533-27.33Z" transform="translate(-306.371 -42.043)" fill="#756556"/>
        <path id="Trazado_39331" data-name="Trazado 39331" d="M385.026,183.455a6.415,6.415,0,0,0-1.62-.6c-.705.062-1.415.108-2.116.137-2.189.355-6.292,1.077-9.337,1.8.093,1.075.218,2.487.359,4.079h0c2.67,1.373,9.949,1.295,9.949,1.295s-1.6,17.277-1.361,20.235,1.85,8.956.56,10.96-9.026,1.759-10.352,0l-.008-.01c.349,1.34,1.585,2.674,5.309,2.543,6.74-.234,6.506-2.664,6.427-5.8s-.39-8.622-.234-10.974C382.74,205.037,384.605,187.426,385.026,183.455Z" transform="translate(-329.158 -46.836)" fill="#f2ae41"/>
        <path id="Trazado_39332" data-name="Trazado 39332" d="M363.772,182.569c-.8.118-.373,1.724,0,4.6s.438,3.1,1.359,3.236c2.691.411,10.6-.187,11.447-.8s.554-7.085.461-7.5-2.01-.411-4.61,0S364.768,182.422,363.772,182.569Z" transform="translate(-337.518 -47.979)" fill="#f9bd4b"/>
        <path id="Trazado_39333" data-name="Trazado 39333" d="M376.692,229.215h5.614s0-.062-.149-3.962c-.154-3.96.608-21.787,1.523-30.166s.761-19.046-.8-26.208-3.61-20.426-3.61-20.426-4.7-5.8-5.89-9.91c1.377,11.516,3.62,34.406,4.412,50.465C378.485,203.109,377.053,224.258,376.692,229.215Z" transform="translate(-326.711 -94.454)" fill="#2e2a4b"/>
        <path id="Trazado_39334" data-name="Trazado 39334" d="M367.672,186.48c-.129,5.672-.467,16.922-.62,21.942,1.977-.174,3.85-.338,4.817-.421l.687-.415c.021-1.195.077-5.157-.006-7.721-.1-3.045.606-20.851.606-20.851l-1.938-20.673S367.84,179.049,367.672,186.48Z" transform="translate(-333.508 -73.18)" fill="#2e2a4b"/>
        <path id="Trazado_39335" data-name="Trazado 39335" d="M371.924,181.8c-.757-.056-.716.373-.678,2.24s-.205,4.485.851,5.1,7.923,1.467,12.279.315c0,0,.342-.006.6-1s1.247-6.767-.392-6.659A97.4,97.4,0,0,1,371.924,181.8Z" transform="translate(-329.019 -47.982)" fill="#f9bd4b"/>
        <path id="Trazado_39336" data-name="Trazado 39336" d="M385.409,182.863c-.118-.662-.371-1.1-.832-1.066a97.4,97.4,0,0,1-12.655,0c-.556-.042-.68.18-.693,1.039a21.51,21.51,0,0,0,7.69.973,7.315,7.315,0,0,1-3.039-.975S381.746,183.935,385.409,182.863Z" transform="translate(-329.018 -47.982)" fill="#fcc865"/>
        <path id="Trazado_39337" data-name="Trazado 39337" d="M372.429,182.1c-2.6.411-7.661.319-8.657.467-.425.064-.5.552-.425,1.431.577,0,10.5.021,13.692-1.9C376.945,181.692,375.028,181.692,372.429,182.1Z" transform="translate(-337.517 -47.979)" fill="#fcc865"/>
      </g>
      <g id="Grupo_18290" data-name="Grupo 18290" transform="translate(455.95 124.658)">
        <path id="Trazado_39338" data-name="Trazado 39338" d="M409.235,202.848a33.2,33.2,0,0,0,1.189-7.562c.139-3.288-.778-24.239-.778-24.239l-11.126.961s2.286,19.528,2.989,23.639c0,0-.394,4.313-.9,6.817A17.266,17.266,0,0,1,409.235,202.848Z" transform="translate(-358.02 -66.895)" fill="#c3b6a6"/>
        <path id="Trazado_39339" data-name="Trazado 39339" d="M399.1,176.381a73.9,73.9,0,0,1,8.113,1.075s1.209,14.254.724,17.082A70.824,70.824,0,0,1,406,201.69a13.813,13.813,0,0,1,3.234.66,33.2,33.2,0,0,0,1.189-7.562c.116-2.765-.514-18.028-.716-22.805l-11.188-.473.579,4.863Z" transform="translate(-358.02 -66.398)" fill="#a79788" opacity="0.5"/>
        <g id="Grupo_18284" data-name="Grupo 18284" transform="translate(26.223 107.369)">
          <path id="Trazado_39340" data-name="Trazado 39340" d="M403.77,206.776c.035-.871.064-1.631.089-2.234.183-4.792-.365-14.908-.274-16.594S404.9,173.4,404.9,173.4l-13.26-.8c.365,5.591,1.917,15.262,2.006,15.883a180.764,180.764,0,0,0,.417,19.227A19.493,19.493,0,0,1,403.77,206.776Z" transform="translate(-391.638 -172.598)" fill="#c3b6a6"/>
          <path id="Trazado_39341" data-name="Trazado 39341" d="M396.2,210.79c-.091,3.195-3.008,12.068,2.006,13.045s6.109-6.211,5.562-9.23-1.728-4.969-1.73-6.566c0-1.4,1.064-12.6,1.309-18.638-4.141-1.2-8.935.12-10.784.774.133,1.5.295,3.023.5,4.554C394.613,206.442,396.3,207.6,396.2,210.79Z" transform="translate(-390.64 -155.066)" fill="#f9bd4b"/>
        </g>
        <path id="Trazado_39342" data-name="Trazado 39342" d="M400.706,209.394c1.407,2.33,5.184,5.417,7.576,4.319s.979-4.56-.712-7.026-1.992-2.867-2.058-4.157c-.2-3.767,3-9.039,4.917-15.325-3.906-2.234-8.362-1.1-9.889-.662-1.147,5.674-2.4,15.97-2.473,17.015C397.959,205.067,399.3,207.065,400.706,209.394Z" transform="translate(-358.513 -50.975)" fill="#f9bd4b"/>
        <path id="Trazado_39343" data-name="Trazado 39343" d="M404.9,173.4l-13.26-.8c.037.535.085,1.118.139,1.718a17.887,17.887,0,0,0,9.877,3.265s-.848,11.429-.485,15.316c.251,2.7.388,9.645.446,13.648a15.632,15.632,0,0,1,2.155.23c.035-.871.064-1.631.089-2.234.183-4.792-.365-14.908-.274-16.594S404.9,173.4,404.9,173.4Z" transform="translate(-365.415 -65.229)" fill="#a79788" opacity="0.5"/>
        <path id="Trazado_39344" data-name="Trazado 39344" d="M402.17,214.573c-.546-3.016-1.728-4.969-1.73-6.566,0-1.4,1.064-12.6,1.309-18.638a12.439,12.439,0,0,0-2.554-.425l-.18.037s.131,16.837-.141,17.9,1.817,5.041,2.089,6.634,0,5.749-.817,7.076a3.949,3.949,0,0,1-6.089.878,3.236,3.236,0,0,0,2.552,2.334C401.625,224.777,402.718,217.591,402.17,214.573Z" transform="translate(-362.816 -47.664)" fill="#f2ae41"/>
        <path id="Trazado_39345" data-name="Trazado 39345" d="M403.939,185.916c-1.373,3.549-3.772,16.233-3.423,17.673.363,1.5,6.423,6.674,6.257,8.954.62-1.548-.506-4.02-1.8-5.912-1.689-2.467-1.992-2.867-2.058-4.157-.2-3.767,3-9.039,4.917-15.325A10.173,10.173,0,0,0,403.939,185.916Z" transform="translate(-355.912 -50.918)" fill="#f2ae41"/>
        <path id="Trazado_39346" data-name="Trazado 39346" d="M393.073,140.959c2.207,2.512,6.848,5.1,9.974,6.981s9.014,5.645,9.014,5.645,1.678-4.539.608-6.313a11.537,11.537,0,0,1-1.828-6.3,24.208,24.208,0,0,0-.8-5.612c-.272-1.46.351-8.634-3.242-11.534S393.073,140.959,393.073,140.959Z" transform="translate(-363.873 -117.944)" fill="#2a2b33"/>
        <g id="Grupo_18285" data-name="Grupo 18285" transform="translate(26.082)">
          <path id="Trazado_39347" data-name="Trazado 39347" d="M401.119,147.7c-.7,0-1.442-3.715-2.272-4.338-1.96-1.471-3.989-4.072-3.989-6.489,0,0-1.583.344-1.651-1.1s-.967-2.612-.276-3.1,2,.832,2,1.106c0,0,3.716-2.543,3.236-8.29l2.477-4.645a8.247,8.247,0,0,0-4.885,1.8c-2.064,1.784-4.593,5.1-4.128,13.476.2,3.618,2.342,8.134,4.744,8.908A34.709,34.709,0,0,1,401.119,147.7Z" transform="translate(-391.57 -120.842)" fill="#2a2b33"/>
        </g>
        <g id="Grupo_18288" data-name="Grupo 18288" transform="translate(31.71 19.903)">
          <g id="Grupo_18286" data-name="Grupo 18286" transform="translate(3.925)">
            <path id="Trazado_39348" data-name="Trazado 39348" d="M396.175,133.676v5.51l3.954-3.531a7.6,7.6,0,0,1-.324-5.22Z" transform="translate(-396.175 -130.436)" fill="#f0bb8f"/>
          </g>
          <g id="Grupo_18287" data-name="Grupo 18287">
            <path id="Trazado_39349" data-name="Trazado 39349" d="M398.208,133.676v5.51l-3.925-3.906a6.4,6.4,0,0,0,.3-4.844Z" transform="translate(-394.283 -130.436)" fill="#f0bb8f"/>
          </g>
        </g>
        <path id="Trazado_39350" data-name="Trazado 39350" d="M402.181,129.772c1.477,3.815.413,6.221-3.848,7.4-2.417.666-5.991-.838-7.775,3.085s-4.008,24.722-4.008,24.722l20.534,15.157V131.554Z" transform="translate(-370.883 -111.246)" fill="#5e0b4e"/>
        <path id="Trazado_39351" data-name="Trazado 39351" d="M390.7,168.453c-1.583,4.286,0,38.024,0,38.024s5.342,2.969,15.428,2.176,15.43,0,16.024-.79c0,0,.394-15.144,0-19.243s-3.525-27.687-3.525-27.687l.2-18-15.457-2.29Z" transform="translate(-367.174 -99.566)" fill="#cc0001"/>
        <path id="Trazado_39352" data-name="Trazado 39352" d="M422.132,177.57c-.324-3.34-2.089-20.368-2.734-26.562l-.069-.083-9.24,4.522-18.976.483-.434,1.473a31.965,31.965,0,0,0-.656,7.261c2.307.716,19.2,1.417,22.245-.015l1.373,32.591c5.228-.1,8.066.135,8.489-.427C422.132,196.814,422.526,181.67,422.132,177.57Z" transform="translate(-367.149 -88.517)" fill="#b00001"/>
        <path id="Trazado_39353" data-name="Trazado 39353" d="M408.523,167.514c-.537-4.116-.946-7.192-.946-7.192l.112-10.105-.892-8.041-6.508-.965c1.149,8.767.023,19.953.023,19.953Z" transform="translate(-356.119 -98.955)" fill="#b00001"/>
        <g id="Grupo_18289" data-name="Grupo 18289" transform="translate(30.332)">
          <path id="Trazado_39354" data-name="Trazado 39354" d="M400.343,144.579c.678,0,.135-.786.946-1.38,1.977-1.45,3.886-3.892,3.886-6.327,0,0,1.585.344,1.651-1.1s.967-2.612.278-3.1-2,.832-2,1.106c0,0-11.7-2.749-11.485-10.383l4.817-2.552s3.778,0,5.844,1.8,4.124,5.087,4.124,13.476-4.3,9.85-4.3,9.85Z" transform="translate(-393.619 -120.842)" fill="#2a2b33"/>
        </g>
        <path id="Trazado_39355" data-name="Trazado 39355" d="M400.37,130.115c.127,3.823,1.6,5.439,3.386,5.885s4.95-.811,7.535.973,5.054,19.664,5.232,21.893,1.3,8.338.193,10.3a23.221,23.221,0,0,1-4.288,4.12c-.99.6-2.467,4.288-3.925,5.085v-5.678l-4.062.394a31.323,31.323,0,0,1,1.1-3.081c.446-.936,2.533-.591,3.363-.913.556-.218,1.031-3.083,1.031-3.083L408.5,155.088l-12.055-3.135V132.7Z" transform="translate(-360.248 -110.878)" fill="#f0bb8f"/>
        <path id="Trazado_39356" data-name="Trazado 39356" d="M416.522,158.75c-.178-2.228-2.647-20.111-5.232-21.893s-5.751-.527-7.535-.973c-1.743-.436-3.189-2.008-3.369-5.661l-.654.2-3.286,2.168v19.252l10.288,4.135,3.195,9.922s4.751-2.46,7.207,1.514C417.4,164.766,416.663,160.528,416.522,158.75Z" transform="translate(-360.248 -110.762)" fill="#5e0b4e"/>
        <path id="Trazado_39357" data-name="Trazado 39357" d="M404.475,134.671l-.015-.046a7.376,7.376,0,0,1-1.319-4.313l-.654.2-3.286,2.168v-1.517l-2.8-1.019-1.763.295a4.726,4.726,0,0,1-.33,3.95l-.421.647a8.507,8.507,0,0,0,5.4,3.025C401.954,138.056,404.475,134.671,404.475,134.671Z" transform="translate(-363.002 -110.851)" fill="#f0bb8f"/>
        <path id="Trazado_39358" data-name="Trazado 39358" d="M394.393,133.244c1.892,1.886,5.132,2.911,9.068.367l.01-.008a8.872,8.872,0,0,1-.72-3.29l-.654.2-3.286,2.168v-1.517l-2.8-1.019-1.763.295a5.577,5.577,0,0,1,.131,2.784Z" transform="translate(-362.613 -110.851)" fill="#e8ac86"/>
        <path id="Trazado_39359" data-name="Trazado 39359" d="M408.592,131.211h0c.127-.537.3-1.017.371-1.4l.006-.035a1.608,1.608,0,0,0,.019-.257c0-.031,0-.058-.006-.085a.76.76,0,0,0-.044-.183c-.01-.023-.019-.048-.031-.073a.584.584,0,0,0-.172-.2c-.689-.475-2,.832-2,1.106,0,0-6.85-1.622-9.968-5.807a26.891,26.891,0,0,0-2.413,5.807c0-.274-1.307-1.581-2-1.106s.214,1.66.278,3.1,1.651,1.1,1.651,1.1c0,2.417,1.929,5.238,3.89,6.7a4.261,4.261,0,0,0,2.371,1c2.336,0,6.257-4.269,6.257-7.707,0,0,1.585.344,1.651-1.1a4.652,4.652,0,0,1,.135-.867Z" transform="translate(-364.918 -117.15)" fill="#f0bb8f"/>
        <path id="Trazado_39360" data-name="Trazado 39360" d="M390.024,163.584l3.72-24.44s12.825,1.442,19.864,0l3.224,17.165-8.873-4.707Z" transform="translate(-367.149 -101.176)" fill="#cc0001"/>
        <path id="Trazado_39361" data-name="Trazado 39361" d="M390.024,163.584l3.72-24.44s12.825,1.442,19.864,0l3.224,17.165-8.873-4.707Z" transform="translate(-367.149 -101.176)" fill="#cc0001"/>
        <path id="Trazado_39362" data-name="Trazado 39362" d="M406.17,156.307l-3.224-17.163a27.668,27.668,0,0,1-3,.423l0,0a59.711,59.711,0,0,1,1.224,14.086Z" transform="translate(-356.488 -101.176)" fill="#b00001"/>
        <path id="Trazado_39363" data-name="Trazado 39363" d="M390.282,155.611c-1.973-3.942-1.01-10.738,2.415-9.767s5.319.668,6.456-.848,5.016-.606,5.087,2.579,1.946.985,2.714,1.593,2.438,3.016,3.423,1.62,5.79,2.35,2.705,7.8S390.282,155.611,390.282,155.611Z" transform="translate(-367.961 -95.657)" fill="#829620"/>
        <path id="Trazado_39364" data-name="Trazado 39364" d="M391.817,145.724V133.831a3.409,3.409,0,0,1,2.606-.795l1.131,13.018-3.147,1.1Z" transform="translate(-365.223 -107.756)" fill="#cc0001"/>
        <path id="Trazado_39365" data-name="Trazado 39365" d="M380.627,156.887c-1.261-1.033-2.929-5.844,0-4.954s4.709-2.585,5.78-3.477,2.585.714,3.209,2.052,2.139-6.954,6.952-5.083,9.842.8,7.371,3.477.919,4.9,1.631,4.28-3.12-9.449,2.674-6.329,4.9,3.209,5.973,4.724,5.259-1.247,5.794.446a27.269,27.269,0,0,1,.461,5.842s-8.126,3.962-9.018,3.784S380.627,156.887,380.627,156.887Z" transform="translate(-378.998 -94.724)" fill="#8ba122"/>
        <path id="Trazado_39366" data-name="Trazado 39366" d="M392.646,158c-1.209-1.214.324-4.686,2.475-4.383s-.44-5.035,1.612-5.854,2.736,2.9,3.686,1.763,1.911-4.2,3.363-3.769.921,3.828-.367,5.844,1.869,1.865,1.239,3.079,1.718,1.29.429,2.8S392.646,158,392.646,158Z" transform="translate(-364.79 -94.116)" fill="#9bb32b"/>
        <path id="Trazado_39367" data-name="Trazado 39367" d="M383.161,154.76c-2.35-2.529-1.212-5.79,2.126-3.363s2.954-2.326,4.168-.367,1.33-4.653,3.966-3.547-.326,5.508.888,5.734.836-3.11,3.869-.911,0,5.388,0,5.388Z" transform="translate(-375.858 -92.351)" fill="#9bb32b"/>
        <path id="Trazado_39368" data-name="Trazado 39368" d="M399.946,146.282l.34-13.271a5.9,5.9,0,0,1,2.531.064l.129,12.781-1.5.78Z" transform="translate(-356.488 -107.889)" fill="#b00001"/>
        <path id="Trazado_39369" data-name="Trazado 39369" d="M379.783,150.987,382.874,162h32.9l10.628-2.36v-9l-10.628,1.032Z" transform="translate(-378.154 -88.824)" fill="#c38733"/>
        <path id="Trazado_39370" data-name="Trazado 39370" d="M379.844,152.416c-.722.519,2.1,4.971,2.263,5.558s3.535-1.577,4.066-2.728-.531-2.74-.618-3.272S381.122,151.5,379.844,152.416Z" transform="translate(-378.215 -87.753)" fill="#f0bb8f"/>
        <path id="Trazado_39371" data-name="Trazado 39371" d="M397.135,162V151.671l10.628-1.032v9Z" transform="translate(-359.509 -88.824)" fill="#9e6522"/>
      </g>
    </g>
  </g>
</svg>
