<svg xmlns="http://www.w3.org/2000/svg" width="740" height="476" viewBox="0 0 740 476">
  <g id="Grupo_19171" data-name="Grupo 19171" transform="translate(-89 -297.226)">
    <g id="Grupo_19165" data-name="Grupo 19165" transform="translate(89 297.227)" opacity="0.3">
      <g id="Grupo_19164" data-name="Grupo 19164" transform="translate(0 0)">
        <rect id="Rect치ngulo_4593" data-name="Rect치ngulo 4593" width="740" height="476" transform="translate(0 0)" fill="#adc8fe"/>
      </g>
    </g>
    <g id="Grupo_19166" data-name="Grupo 19166" transform="translate(107.17 321.341)">
      <path id="Trazado_41756" data-name="Trazado 41756" d="M101.019,308.278H95.114v-2.324h14.571v2.324h-5.908v16.164h-2.758Z" transform="translate(-95.114 -304.655)"/>
      <path id="Trazado_41757" data-name="Trazado 41757" d="M110.813,318.317a22.541,22.541,0,0,0,.187,3.061h-2.5a6.941,6.941,0,0,1-.214-1.685c-.478.877-1.528,2.006-4.113,2.006-3.21,0-4.577-2.1-4.577-4.164,0-3.037,2.4-4.428,6.413-4.428h2.238v-1.091c0-1.15-.374-2.511-2.755-2.511-2.134,0-2.508,1.037-2.74,2.08h-2.517c.184-1.973,1.406-4.092,5.343-4.078,3.373.012,5.234,1.373,5.234,4.485Zm-2.55-3.459H106.2c-2.615,0-3.944.734-3.944,2.526a2.258,2.258,0,0,0,2.505,2.315c3.094,0,3.5-2.092,3.5-4.425Z" transform="translate(-86.274 -301.591)"/>
      <path id="Trazado_41758" data-name="Trazado 41758" d="M104.7,305.607h2.612v7.807c.6-1.1,1.822-2.158,4.238-2.158,3.456,0,5.543,2.847,5.543,6.826,0,4.072-2.054,7.364-5.9,7.364-2.14,0-3.224-.761-3.905-2.012a13.932,13.932,0,0,1-.1,1.691h-2.514c.027-1.507.027-3.022.027-4.526Zm9.712,12.526c0-2.8-1.239-4.7-3.528-4.7-2.734,0-3.7,1.828-3.7,4.963,0,2.716.856,4.874,3.6,4.874C113.084,323.275,114.41,321.293,114.41,318.133Z" transform="translate(-76.269 -305.34)"/>
      <path id="Trazado_41759" data-name="Trazado 41759" d="M109.835,325.126V305.607h2.612v19.519Z" transform="translate(-66.086 -305.34)"/>
      <path id="Trazado_41760" data-name="Trazado 41760" d="M122.879,318.317a22.539,22.539,0,0,0,.187,3.061h-2.5a7.258,7.258,0,0,1-.214-1.685c-.478.877-1.528,2.006-4.11,2.006-3.21,0-4.577-2.1-4.577-4.164,0-3.037,2.4-4.428,6.41-4.428h2.241v-1.091c0-1.15-.377-2.511-2.758-2.511-2.131,0-2.505,1.037-2.737,2.08H112.3c.184-1.973,1.406-4.092,5.343-4.078,3.376.012,5.236,1.373,5.236,4.485Zm-2.55-3.459h-2.065c-2.615,0-3.944.734-3.944,2.526a2.257,2.257,0,0,0,2.5,2.315c3.094,0,3.507-2.092,3.507-4.425Z" transform="translate(-62.481 -301.591)"/>
      <path id="Trazado_41761" data-name="Trazado 41761" d="M122.244,323.845V309.422a11.146,11.146,0,0,1-3.54,1.382v-2.071a10.216,10.216,0,0,0,4.262-2.476h1.944v17.588Z" transform="translate(-48.597 -304.058)"/>
      <path id="Trazado_41762" data-name="Trazado 41762" d="M122.037,314.878V310.8h2.758v4.074Z" transform="translate(-42.025 -295.092)"/>
      <path id="Trazado_41763" data-name="Trazado 41763" d="M138.311,315.928h-9.127v6.193h10.033l-.348,2.321H126.5V305.954h12.241v2.324h-9.558V313.6h9.127Z" transform="translate(-33.222 -304.655)"/>
      <path id="Trazado_41764" data-name="Trazado 41764" d="M131.693,311.321c0-1.168,0-2.383-.027-3.492h2.514c.039.389.1,1.34.1,1.991a4.186,4.186,0,0,1,3.908-2.312,3.682,3.682,0,0,1,3.7,2.357,4.624,4.624,0,0,1,4.291-2.357c2.232,0,4.277,1.326,4.277,4.966v8.9h-2.568v-8.586c0-1.5-.541-3.073-2.544-3.073-2.086,0-2.978,1.545-2.978,3.884v7.774h-2.565v-8.5c0-1.679-.464-3.15-2.49-3.15-2.051,0-3.034,1.6-3.034,4.134v7.513h-2.589Z" transform="translate(-23.038 -301.591)"/>
      <path id="Trazado_41765" data-name="Trazado 41765" d="M139.292,305.607H141.9v3h-2.612Zm0,5.971H141.9v13.549h-2.612Z" transform="translate(-8 -305.34)"/>
      <path id="Trazado_41766" data-name="Trazado 41766" d="M143.639,317.464a2.93,2.93,0,0,0,3.174,2.223c1.875,0,2.6-.79,2.6-1.944,0-1.189-.615-1.73-3.076-2.327-3.979-.969-4.77-2.187-4.77-4.042,0-1.935,1.409-3.866,5.008-3.866s5.037,2.065,5.2,3.944h-2.517a2.509,2.509,0,0,0-2.8-1.97c-1.771,0-2.3.841-2.3,1.679,0,.945.529,1.412,2.96,1.991,4.187.99,4.975,2.4,4.975,4.4,0,2.348-1.849,4.143-5.37,4.143-3.629,0-5.343-1.816-5.679-4.235Z" transform="translate(-4.537 -301.591)"/>
      <path id="Trazado_41767" data-name="Trazado 41767" d="M145.736,305.607h2.615v3h-2.615Zm0,5.971h2.615v13.549h-2.615Z" transform="translate(4.707 -305.34)"/>
      <path id="Trazado_41768" data-name="Trazado 41768" d="M160.371,314.575c0,3.941-2.279,7.124-6.452,7.124-3.944,0-6.312-3-6.312-7.07,0-4.039,2.345-7.121,6.473-7.121C157.884,307.508,160.371,310.322,160.371,314.575Zm-10.084.027c0,2.9,1.415,4.951,3.727,4.951,2.357,0,3.676-1.958,3.676-4.936,0-3.01-1.317-4.963-3.73-4.963C151.58,309.654,150.288,311.553,150.288,314.6Z" transform="translate(8.396 -301.591)"/>
      <path id="Trazado_41769" data-name="Trazado 41769" d="M152.913,311.241c0-1.171,0-2.375-.03-3.412h2.541c.065.386.1,1.721.1,2.125a4.231,4.231,0,0,1,4.2-2.446c2.574,0,4.52,1.608,4.52,5.171v8.7h-2.615V313c0-1.947-.743-3.272-2.731-3.272-2.372,0-3.376,1.739-3.376,4.4v7.245h-2.612Z" transform="translate(18.8 -301.591)"/>
      <path id="Trazado_41770" data-name="Trazado 41770" d="M160.325,315.1c.015,2.55,1.3,4.452,3.513,4.452a2.936,2.936,0,0,0,3.1-1.97h2.627a5.589,5.589,0,0,1-5.8,4.116c-4.3,0-6.075-3.441-6.075-6.939,0-4.077,2.059-7.251,6.223-7.251,4.425,0,5.887,3.48,5.887,6.467a10.493,10.493,0,0,1-.039,1.126Zm6.829-1.777c-.027-2.1-1.052-3.8-3.275-3.8-2.271,0-3.254,1.578-3.474,3.8Z" transform="translate(28.271 -301.591)"/>
      <path id="Trazado_41771" data-name="Trazado 41771" d="M165,317.464a2.935,2.935,0,0,0,3.177,2.223c1.872,0,2.6-.79,2.6-1.944,0-1.189-.615-1.73-3.076-2.327-3.979-.969-4.77-2.187-4.77-4.042,0-1.935,1.409-3.866,5.008-3.866s5.04,2.065,5.2,3.944H170.63a2.509,2.509,0,0,0-2.8-1.97c-1.771,0-2.3.841-2.3,1.679,0,.945.529,1.412,2.96,1.991,4.187.99,4.975,2.4,4.975,4.4,0,2.348-1.848,4.143-5.37,4.143-3.626,0-5.343-1.816-5.679-4.235Z" transform="translate(37.592 -301.591)"/>
      <path id="Trazado_41772" data-name="Trazado 41772" d="M181.349,320.076c0,4.342-1.756,6.868-6.318,6.868-4.271,0-5.48-2.392-5.7-4.172h2.663a2.916,2.916,0,0,0,3.15,2.137c2.954,0,3.658-1.86,3.658-4.892v-1.01c-.719,1.453-1.941,2.288-4.155,2.288-3.382,0-5.608-2.761-5.608-6.666,0-4.389,2.568-7.121,5.866-7.121,2.532,0,3.608,1.192,3.9,2.042.027-.571.089-1.453.116-1.721h2.473c-.012.865-.042,2.6-.042,3.905Zm-9.605-5.56c0,2.752,1.423,4.583,3.531,4.583,2.8,0,3.6-1.881,3.6-4.749,0-2.9-.728-4.66-3.522-4.66C173.018,309.689,171.743,311.624,171.743,314.516Z" transform="translate(50.658 -301.591)"/>
      <path id="Trazado_41773" data-name="Trazado 41773" d="M174.477,325.126V305.607h2.612v19.519Z" transform="translate(61.381 -305.34)"/>
      <path id="Trazado_41774" data-name="Trazado 41774" d="M189.112,314.575c0,3.941-2.279,7.124-6.452,7.124-3.944,0-6.312-3-6.312-7.07,0-4.039,2.345-7.121,6.47-7.121C186.625,307.508,189.112,310.322,189.112,314.575Zm-10.084.027c0,2.9,1.415,4.951,3.727,4.951,2.354,0,3.676-1.958,3.676-4.936,0-3.01-1.32-4.963-3.73-4.963C180.321,309.654,179.029,311.553,179.029,314.6Z" transform="translate(65.07 -301.591)"/>
      <path id="Trazado_41775" data-name="Trazado 41775" d="M181.644,305.607h2.615v7.807c.6-1.1,1.822-2.158,4.238-2.158,3.456,0,5.54,2.847,5.54,6.826,0,4.072-2.051,7.364-5.9,7.364-2.14,0-3.221-.761-3.9-2.012a13.93,13.93,0,0,1-.1,1.691H181.62c.024-1.507.024-3.022.024-4.526Zm9.712,12.526c0-2.8-1.239-4.7-3.525-4.7-2.734,0-3.7,1.828-3.7,4.963,0,2.716.856,4.874,3.6,4.874C190.033,323.275,191.356,321.293,191.356,318.133Z" transform="translate(75.466 -305.34)"/>
      <path id="Trazado_41776" data-name="Trazado 41776" d="M197.689,318.317a22.539,22.539,0,0,0,.187,3.061h-2.5a7.258,7.258,0,0,1-.214-1.685c-.478.877-1.528,2.006-4.11,2.006-3.21,0-4.577-2.1-4.577-4.164,0-3.037,2.4-4.428,6.41-4.428h2.241v-1.091c0-1.15-.377-2.511-2.758-2.511-2.131,0-2.505,1.037-2.737,2.08h-2.517c.184-1.973,1.4-4.092,5.34-4.078,3.376.012,5.236,1.373,5.236,4.485Zm-2.55-3.459h-2.065c-2.615,0-3.944.734-3.944,2.526a2.257,2.257,0,0,0,2.5,2.315c3.094,0,3.507-2.092,3.507-4.425Z" transform="translate(85.036 -301.591)"/>
      <path id="Trazado_41777" data-name="Trazado 41777" d="M191.555,325.126V305.607h2.615v19.519Z" transform="translate(95.057 -305.34)"/>
      <path id="Trazado_41778" data-name="Trazado 41778" d="M196.067,315.1c.015,2.55,1.3,4.452,3.513,4.452a2.936,2.936,0,0,0,3.1-1.97H205.3a5.589,5.589,0,0,1-5.8,4.116c-4.3,0-6.078-3.441-6.078-6.939,0-4.077,2.063-7.251,6.226-7.251,4.425,0,5.887,3.48,5.887,6.467a10.489,10.489,0,0,1-.039,1.126Zm6.829-1.777c-.027-2.1-1.055-3.8-3.275-3.8-2.27,0-3.254,1.578-3.474,3.8Z" transform="translate(98.744 -301.591)"/>
      <path id="Trazado_41779" data-name="Trazado 41779" d="M200.744,317.464a2.935,2.935,0,0,0,3.177,2.223c1.872,0,2.6-.79,2.6-1.944,0-1.189-.615-1.73-3.076-2.327-3.976-.969-4.77-2.187-4.77-4.042,0-1.935,1.409-3.866,5.011-3.866s5.037,2.065,5.2,3.944H206.37a2.508,2.508,0,0,0-2.8-1.97c-1.774,0-2.306.841-2.306,1.679,0,.945.529,1.412,2.96,1.991,4.187.99,4.975,2.4,4.975,4.4,0,2.348-1.849,4.143-5.37,4.143-3.626,0-5.34-1.816-5.679-4.235Z" transform="translate(108.067 -301.591)"/>
      <path id="Trazado_41780" data-name="Trazado 41780" d="M216,318.317a22.538,22.538,0,0,0,.187,3.061h-2.5a7.256,7.256,0,0,1-.214-1.685c-.478.877-1.528,2.006-4.11,2.006-3.21,0-4.577-2.1-4.577-4.164,0-3.037,2.4-4.428,6.41-4.428h2.241v-1.091c0-1.15-.377-2.511-2.758-2.511-2.131,0-2.505,1.037-2.737,2.08h-2.52c.187-1.973,1.406-4.092,5.343-4.078,3.376.012,5.236,1.373,5.236,4.485Zm-2.55-3.459h-2.065c-2.615,0-3.944.734-3.944,2.526a2.257,2.257,0,0,0,2.5,2.315c3.094,0,3.507-2.092,3.507-4.425Z" transform="translate(121.147 -301.591)"/>
      <path id="Trazado_41781" data-name="Trazado 41781" d="M209.893,311.241c0-1.171,0-2.375-.03-3.412H212.4c.065.386.1,1.721.1,2.125a4.231,4.231,0,0,1,4.2-2.446c2.574,0,4.52,1.608,4.52,5.171v8.7h-2.615V313c0-1.947-.743-3.272-2.731-3.272-2.372,0-3.376,1.739-3.376,4.4v7.245h-2.612Z" transform="translate(131.158 -301.591)"/>
      <path id="Trazado_41782" data-name="Trazado 41782" d="M214.359,310.229h2.294v-3.938h2.612v3.938h2.927v2.083h-2.927v7.7c0,1.257.321,1.881,1.525,1.881a5.172,5.172,0,0,0,1.117-.1v1.923a6.7,6.7,0,0,1-2.119.253c-2.214,0-3.135-1.153-3.135-3.43v-8.223h-2.294Z" transform="translate(140.024 -303.991)"/>
      <path id="Trazado_41783" data-name="Trazado 41783" d="M217.8,311.508c0-1.789-.015-2.88-.027-3.679h2.562c.039.366.077,1.483.077,2.69a4.7,4.7,0,0,1,4.523-3.011v2.574c-2.77.054-4.523,1.364-4.523,4.847v6.449H217.8Z" transform="translate(146.754 -301.591)"/>
      <path id="Trazado_41784" data-name="Trazado 41784" d="M233.382,314.575c0,3.941-2.279,7.124-6.452,7.124-3.944,0-6.312-3-6.312-7.07,0-4.039,2.345-7.121,6.47-7.121C230.895,307.508,233.382,310.322,233.382,314.575ZM223.3,314.6c0,2.9,1.415,4.951,3.727,4.951,2.354,0,3.676-1.958,3.676-4.936,0-3.01-1.32-4.963-3.73-4.963C224.591,309.654,223.3,311.553,223.3,314.6Z" transform="translate(152.366 -301.591)"/>
      <path id="Trazado_41785" data-name="Trazado 41785" d="M228.517,319.8v6.88h-2.6V311.125c0-1.1,0-2.238-.027-3.3h2.538a19.821,19.821,0,0,1,.089,2.042,4.593,4.593,0,0,1,4.336-2.363c3.118,0,5.409,2.609,5.409,6.749,0,4.829-2.618,7.442-5.9,7.442A4.048,4.048,0,0,1,228.517,319.8Zm7.061-5.439c0-2.8-1.248-4.654-3.459-4.654-2.678,0-3.718,1.7-3.718,4.883,0,3.082.871,4.939,3.543,4.939C234.327,319.526,235.578,317.586,235.578,314.358Z" transform="translate(162.762 -301.591)"/>
      <path id="Trazado_41786" data-name="Trazado 41786" d="M243.55,314.575c0,3.941-2.279,7.124-6.452,7.124-3.944,0-6.312-3-6.312-7.07,0-4.039,2.345-7.121,6.47-7.121C241.063,307.508,243.55,310.322,243.55,314.575Zm-10.084.027c0,2.9,1.415,4.951,3.727,4.951,2.354,0,3.676-1.958,3.676-4.936,0-3.01-1.32-4.963-3.73-4.963C234.759,309.654,233.467,311.553,233.467,314.6Z" transform="translate(172.416 -301.591)"/>
      <path id="Trazado_41787" data-name="Trazado 41787" d="M248.122,320.076c0,4.342-1.759,6.868-6.318,6.868-4.274,0-5.48-2.392-5.7-4.172h2.666a2.912,2.912,0,0,0,3.15,2.137c2.951,0,3.655-1.86,3.655-4.892v-1.01c-.719,1.453-1.938,2.288-4.155,2.288-3.379,0-5.605-2.761-5.605-6.666,0-4.389,2.565-7.121,5.864-7.121,2.535,0,3.608,1.192,3.9,2.042.027-.571.089-1.453.116-1.721h2.473c-.012.865-.039,2.6-.039,3.905Zm-9.605-5.56c0,2.752,1.424,4.583,3.531,4.583,2.794,0,3.6-1.881,3.6-4.749,0-2.9-.728-4.66-3.522-4.66C239.791,309.689,238.516,311.624,238.516,314.516Z" transform="translate(182.327 -301.591)"/>
      <path id="Trazado_41788" data-name="Trazado 41788" d="M243.6,319.027c.015,2.55,1.3,4.452,3.513,4.452a2.93,2.93,0,0,0,3.094-1.97h2.63a5.589,5.589,0,0,1-5.8,4.116c-4.3,0-6.078-3.441-6.078-6.939,0-4.077,2.06-7.251,6.223-7.251,4.428,0,5.89,3.48,5.89,6.467a10.49,10.49,0,0,1-.039,1.126Zm6.829-1.777c-.03-2.1-1.055-3.8-3.275-3.8-2.271,0-3.257,1.578-3.474,3.8Zm1.536-11.733-4.113,4.057h-2.416l3.343-4.057Z" transform="translate(192.466 -305.517)"/>
      <path id="Trazado_41789" data-name="Trazado 41789" d="M246.036,311.241c0-1.171,0-2.375-.03-3.412h2.541c.065.386.1,1.721.1,2.125a4.231,4.231,0,0,1,4.2-2.446c2.574,0,4.52,1.608,4.52,5.171v8.7h-2.615V313c0-1.947-.743-3.272-2.731-3.272-2.372,0-3.376,1.739-3.376,4.4v7.245h-2.612Z" transform="translate(202.428 -301.591)"/>
      <path id="Trazado_41790" data-name="Trazado 41790" d="M251.122,305.607h2.612v3h-2.612Zm0,5.971h2.612v13.549h-2.612Z" transform="translate(212.516 -305.34)"/>
      <path id="Trazado_41791" data-name="Trazado 41791" d="M264.805,317.188a5.434,5.434,0,0,1-5.7,4.511c-3.822,0-6.107-2.728-6.107-7.02,0-3.866,2.223-7.171,6.28-7.171,4.033,0,5.37,2.88,5.525,4.586h-2.58a2.848,2.848,0,0,0-3-2.44c-2.265,0-3.548,1.947-3.548,4.936,0,3.046,1.26,4.975,3.474,4.975a3.033,3.033,0,0,0,3.058-2.377Z" transform="translate(216.221 -301.591)"/>
      <path id="Trazado_41792" data-name="Trazado 41792" d="M268.82,318.317a22.536,22.536,0,0,0,.187,3.061h-2.5a7.054,7.054,0,0,1-.217-1.685c-.476.877-1.525,2.006-4.11,2.006-3.21,0-4.577-2.1-4.577-4.164,0-3.037,2.4-4.428,6.413-4.428h2.238v-1.091c0-1.15-.374-2.511-2.758-2.511-2.131,0-2.505,1.037-2.737,2.08h-2.517c.184-1.973,1.406-4.092,5.344-4.078,3.373.012,5.233,1.373,5.233,4.485Zm-2.55-3.459H264.2c-2.615,0-3.944.734-3.944,2.526a2.258,2.258,0,0,0,2.505,2.315c3.091,0,3.5-2.092,3.5-4.425Z" transform="translate(225.298 -301.591)"/>
      <path id="Trazado_41793" data-name="Trazado 41793" d="M264.832,317.464a2.93,2.93,0,0,0,3.174,2.223c1.875,0,2.6-.79,2.6-1.944,0-1.189-.615-1.73-3.079-2.327-3.976-.969-4.767-2.187-4.767-4.042,0-1.935,1.409-3.866,5.008-3.866s5.037,2.065,5.2,3.944h-2.517a2.509,2.509,0,0,0-2.8-1.97c-1.771,0-2.3.841-2.3,1.679,0,.945.529,1.412,2.96,1.991,4.187.99,4.972,2.4,4.972,4.4,0,2.348-1.849,4.143-5.367,4.143-3.629,0-5.343-1.816-5.679-4.235Z" transform="translate(234.442 -301.591)"/>
      <path id="Trazado_41794" data-name="Trazado 41794" d="M281.281,305.607v15.712c0,1.266,0,2.514.03,3.807H278.8c-.062-.368-.116-1.34-.128-1.825-.666,1.346-2,2.146-4.182,2.146-3.471,0-5.62-2.811-5.62-6.96,0-4.173,2.309-7.231,6.075-7.231,2.312,0,3.376.915,3.727,1.646v-7.3Zm-9.709,12.8c0,3.153,1.453,4.856,3.525,4.856,3.055,0,3.673-2.3,3.673-5.076,0-2.877-.571-4.749-3.5-4.749C272.956,313.438,271.571,315.263,271.571,318.407Z" transform="translate(247.507 -305.34)"/>
      <path id="Trazado_41795" data-name="Trazado 41795" d="M276.669,315.1c.012,2.55,1.3,4.452,3.513,4.452a2.93,2.93,0,0,0,3.094-1.97H285.9a5.585,5.585,0,0,1-5.8,4.116c-4.3,0-6.077-3.441-6.077-6.939,0-4.077,2.06-7.251,6.223-7.251,4.425,0,5.89,3.48,5.89,6.467a9.754,9.754,0,0,1-.042,1.126Zm6.827-1.777c-.027-2.1-1.052-3.8-3.275-3.8-2.268,0-3.254,1.578-3.474,3.8Z" transform="translate(257.682 -301.591)"/>
      <path id="Trazado_41796" data-name="Trazado 41796" d="M281.429,324.442V305.954H285c2.586,4.291,8.072,13.162,9.073,15.174h.039c-.184-2.291-.169-5.263-.169-8.283v-6.892h2.565v18.488h-3.361c-2.357-3.938-8.128-13.584-9.243-15.671h-.039c.134,2.012.143,5.272.143,8.6v7.067Z" transform="translate(272.278 -304.655)"/>
      <path id="Trazado_41797" data-name="Trazado 41797" d="M287.7,324.008v-.166c0-2.627,1.611-5.222,5.254-7.962,2.746-2.077,3.5-2.749,3.5-4.606a2.655,2.655,0,0,0-2.88-2.951c-2.045,0-2.969,1.1-3.311,3.12H287.71a5.473,5.473,0,0,1,5.867-5.269c4.036,0,5.566,2.553,5.566,5.04,0,2.633-1.12,3.706-4.357,6.164-2.363,1.8-3.572,3.126-3.982,4.357h9.02l-.36,2.273Z" transform="translate(284.64 -304.221)"/>
      <path id="Trazado_41798" data-name="Trazado 41798" d="M309.821,315.277c0,5.094-2.9,9.608-8.755,9.608-5.51,0-8.547-4.208-8.547-9.51s3.15-9.51,8.77-9.51C306.531,305.865,309.821,309.749,309.821,315.277Zm-14.44.015c0,3.926,1.958,7.281,5.8,7.281,4.155,0,5.777-3.433,5.777-7.257,0-3.89-1.843-7.141-5.783-7.141C297.146,308.174,295.381,311.417,295.381,315.292Z" transform="translate(294.146 -304.831)"/>
      <path id="Trazado_41799" data-name="Trazado 41799" d="M304.031,315.1c.015,2.55,1.3,4.452,3.513,4.452a2.93,2.93,0,0,0,3.094-1.97h2.63a5.589,5.589,0,0,1-5.8,4.116c-4.3,0-6.078-3.441-6.078-6.939,0-4.077,2.062-7.251,6.223-7.251,4.428,0,5.89,3.48,5.89,6.467a10.489,10.489,0,0,1-.039,1.126Zm6.829-1.777c-.03-2.1-1.055-3.8-3.275-3.8-2.271,0-3.257,1.578-3.474,3.8Z" transform="translate(311.637 -301.591)"/>
      <path id="Trazado_41800" data-name="Trazado 41800" d="M306.471,311.241c0-1.171,0-2.375-.03-3.412h2.541c.065.386.1,1.721.1,2.125a4.231,4.231,0,0,1,4.2-2.446c2.574,0,4.52,1.608,4.52,5.171v8.7H315.19V313c0-1.947-.743-3.272-2.731-3.272-2.372,0-3.376,1.739-3.376,4.4v7.245h-2.612Z" transform="translate(321.599 -301.591)"/>
      <path id="Trazado_41801" data-name="Trazado 41801" d="M313.548,324.008v-.166c0-2.627,1.608-5.222,5.254-7.962,2.743-2.077,3.5-2.749,3.5-4.606a2.657,2.657,0,0,0-2.88-2.951c-2.045,0-2.972,1.1-3.314,3.12h-2.556a5.476,5.476,0,0,1,5.87-5.269c4.036,0,5.563,2.553,5.563,5.04,0,2.633-1.12,3.706-4.354,6.164-2.366,1.8-3.572,3.126-3.982,4.357h9.02l-.36,2.273Z" transform="translate(335.613 -304.221)"/>
      <path id="Trazado_41802" data-name="Trazado 41802" d="M330.861,315.131c0,4.428-1.293,9.2-6.244,9.2-4.853,0-6.229-4.487-6.229-9.079,0-4.55,1.5-9.076,6.309-9.076C329.432,306.174,330.861,310.555,330.861,315.131Zm-9.724.11c0,3.311.538,6.9,3.5,6.9s3.474-3.4,3.474-7c0-3.379-.547-6.785-3.4-6.785C321.806,308.358,321.137,311.4,321.137,315.241Z" transform="translate(345.157 -304.221)"/>
      <path id="Trazado_41803" data-name="Trazado 41803" d="M335.963,315.131c0,4.428-1.293,9.2-6.244,9.2-4.853,0-6.229-4.487-6.229-9.079,0-4.55,1.5-9.076,6.309-9.076C334.537,306.174,335.963,310.555,335.963,315.131Zm-9.724.11c0,3.311.538,6.9,3.5,6.9s3.474-3.4,3.474-7c0-3.379-.547-6.785-3.4-6.785C326.908,308.358,326.239,311.4,326.239,315.241Z" transform="translate(355.218 -304.221)"/>
      <path id="Trazado_41804" data-name="Trazado 41804" d="M341.065,315.131c0,4.428-1.293,9.2-6.244,9.2-4.856,0-6.229-4.487-6.229-9.079,0-4.55,1.5-9.076,6.309-9.076C339.636,306.174,341.065,310.555,341.065,315.131Zm-9.724.11c0,3.311.538,6.9,3.5,6.9s3.471-3.4,3.471-7c0-3.379-.547-6.785-3.4-6.785C332.01,308.358,331.341,311.4,331.341,315.241Z" transform="translate(365.278 -304.221)"/>
    </g>
    <g id="Grupo_19167" data-name="Grupo 19167" transform="translate(109.413 354.64)">
      <rect id="Rect치ngulo_4594" data-name="Rect치ngulo 4594" width="705" height="6" transform="translate(-0.413 -0.414)" fill="#919629"/>
    </g>
    <g id="Grupo_19168" data-name="Grupo 19168" transform="translate(118.056 408.072)">
      <path id="Trazado_41805" data-name="Trazado 41805" d="M101.844,348.259c.487,2.149,1.967,3.275,4.544,3.275,2.743,0,3.84-1.257,3.84-2.93,0-1.786-.906-2.755-4.508-3.62-4.485-1.082-5.947-2.636-5.947-5.216,0-2.838,2.1-5.067,6.274-5.067,4.5,0,6.336,2.565,6.589,5.046H109.85c-.306-1.551-1.257-2.88-3.9-2.88-2.131,0-3.343.948-3.343,2.627,0,1.649,1,2.3,4.187,3.07,5.293,1.281,6.268,3.323,6.268,5.742,0,3.055-2.273,5.388-6.862,5.388-4.66,0-6.749-2.5-7.144-5.436Z" transform="translate(-98.221 -334.701)"/>
      <path id="Trazado_41806" data-name="Trazado 41806" d="M107.2,343.938c.015,2.55,1.3,4.452,3.513,4.452a2.93,2.93,0,0,0,3.094-1.97h2.63a5.587,5.587,0,0,1-5.8,4.113c-4.3,0-6.078-3.438-6.078-6.939,0-4.074,2.063-7.248,6.223-7.248,4.428,0,5.89,3.48,5.89,6.467a10.494,10.494,0,0,1-.039,1.126Zm6.829-1.777c-.03-2.1-1.055-3.8-3.275-3.8-2.271,0-3.257,1.578-3.474,3.8Z" transform="translate(-87.381 -331.459)"/>
      <path id="Trazado_41807" data-name="Trazado 41807" d="M121.166,346.024a5.434,5.434,0,0,1-5.7,4.508c-3.825,0-6.107-2.728-6.107-7.017,0-3.866,2.22-7.171,6.28-7.171,4.033,0,5.37,2.88,5.525,4.586h-2.58a2.848,2.848,0,0,0-3-2.44c-2.265,0-3.548,1.947-3.548,4.936,0,3.046,1.26,4.975,3.474,4.975a3.033,3.033,0,0,0,3.058-2.378Z" transform="translate(-77.905 -331.459)"/>
      <path id="Trazado_41808" data-name="Trazado 41808" d="M113.782,339.063h2.294v-3.935h2.612v3.935h2.924v2.086h-2.924v7.694c0,1.26.321,1.884,1.525,1.884a5.17,5.17,0,0,0,1.117-.1v1.923a6.7,6.7,0,0,1-2.122.25c-2.211,0-3.132-1.15-3.132-3.427v-8.223h-2.294Z" transform="translate(-69.189 -333.859)"/>
      <path id="Trazado_41809" data-name="Trazado 41809" d="M129.648,343.412c0,3.941-2.279,7.121-6.452,7.121-3.944,0-6.315-3-6.315-7.067,0-4.039,2.345-7.121,6.473-7.121C127.161,336.345,129.648,339.159,129.648,343.412Zm-10.084.027c0,2.9,1.412,4.951,3.727,4.951,2.354,0,3.673-1.958,3.673-4.936,0-3.01-1.317-4.963-3.727-4.963C120.857,338.491,119.565,340.39,119.565,343.439Z" transform="translate(-63.078 -331.459)"/>
      <path id="Trazado_41810" data-name="Trazado 41810" d="M122.18,340.345c0-1.789-.015-2.88-.027-3.682h2.565c.039.366.077,1.483.077,2.693a4.7,4.7,0,0,1,4.52-3.011v2.574c-2.767.053-4.52,1.364-4.52,4.847v6.449H122.18Z" transform="translate(-52.682 -331.459)"/>
      <path id="Trazado_41811" data-name="Trazado 41811" d="M111.318,366.245h-9.127v6.193h10.033l-.348,2.321H99.508V356.274h12.241V358.6h-9.558v5.326h9.127Z" transform="translate(-97.336 -292.161)"/>
      <path id="Trazado_41812" data-name="Trazado 41812" d="M104.7,361.56c0-1.168,0-2.375-.027-3.412h2.538c.065.389.1,1.721.1,2.128a4.232,4.232,0,0,1,4.2-2.449c2.574,0,4.52,1.608,4.52,5.174v8.7h-2.612v-8.375c0-1.944-.743-3.272-2.734-3.272-2.369,0-3.376,1.738-3.376,4.4V371.7H104.7Z" transform="translate(-87.143 -289.099)"/>
      <path id="Trazado_41813" data-name="Trazado 41813" d="M112.121,365.42c.015,2.553,1.3,4.452,3.513,4.452a2.93,2.93,0,0,0,3.094-1.97h2.63a5.589,5.589,0,0,1-5.8,4.116c-4.3,0-6.078-3.438-6.078-6.939,0-4.074,2.06-7.251,6.223-7.251,4.428,0,5.89,3.48,5.89,6.467a10.466,10.466,0,0,1-.039,1.126Zm6.829-1.777c-.03-2.1-1.055-3.8-3.278-3.8-2.268,0-3.254,1.578-3.471,3.8Z" transform="translate(-77.674 -289.099)"/>
      <path id="Trazado_41814" data-name="Trazado 41814" d="M114.555,361.827c0-1.786-.015-2.88-.027-3.679h2.562c.039.366.077,1.483.077,2.69a4.7,4.7,0,0,1,4.523-3.011V360.4c-2.77.051-4.523,1.364-4.523,4.844V371.7h-2.612Z" transform="translate(-67.718 -289.099)"/>
      <path id="Trazado_41815" data-name="Trazado 41815" d="M129.652,370.4c0,4.342-1.756,6.868-6.318,6.868-4.271,0-5.477-2.389-5.7-4.172H120.3a2.916,2.916,0,0,0,3.15,2.137c2.954,0,3.658-1.86,3.658-4.892v-1.008c-.719,1.45-1.938,2.285-4.155,2.285-3.382,0-5.608-2.761-5.608-6.666,0-4.389,2.568-7.121,5.867-7.121,2.532,0,3.608,1.195,3.9,2.042.027-.568.089-1.45.116-1.721h2.473c-.012.865-.042,2.606-.042,3.905Zm-9.605-5.56c0,2.755,1.424,4.586,3.531,4.586,2.8,0,3.6-1.884,3.6-4.752,0-2.895-.725-4.657-3.522-4.657C121.324,360.011,120.046,361.943,120.046,364.835Z" transform="translate(-62.169 -289.099)"/>
      <path id="Trazado_41816" data-name="Trazado 41816" d="M122.78,362.074H125.4v13.549H122.78Zm6.553-6.238-4.11,4.057h-2.416l3.343-4.057Z" transform="translate(-51.446 -293.025)"/>
      <path id="Trazado_41817" data-name="Trazado 41817" d="M135.823,368.636a22.545,22.545,0,0,0,.187,3.061h-2.5a7.075,7.075,0,0,1-.214-1.685c-.478.877-1.528,2.006-4.113,2.006-3.21,0-4.577-2.092-4.577-4.164,0-3.037,2.4-4.428,6.413-4.428h2.241v-1.091c0-1.15-.377-2.511-2.758-2.511-2.131,0-2.505,1.037-2.74,2.08h-2.517c.184-1.973,1.406-4.089,5.343-4.077,3.373.012,5.233,1.373,5.233,4.485Zm-2.55-3.459h-2.062c-2.615,0-3.947.734-3.947,2.529a2.259,2.259,0,0,0,2.505,2.312c3.094,0,3.5-2.092,3.5-4.422Z" transform="translate(-47.843 -289.099)"/>
      <path id="Trazado_41818" data-name="Trazado 41818" d="M103.473,390.938l-1.884,5.3H98.867l6.526-18.488h3.4l6.809,18.488h-2.915l-1.95-5.3Zm6.589-2.324c-1.679-4.678-2.621-7.243-3.031-8.7H107c-.452,1.617-1.5,4.7-2.853,8.7Z" transform="translate(-98.6 -249.803)"/>
      <path id="Trazado_41819" data-name="Trazado 41819" d="M117.363,391.874c0,4.342-1.756,6.871-6.318,6.871-4.274,0-5.48-2.392-5.7-4.172h2.666a2.915,2.915,0,0,0,3.15,2.134c2.954,0,3.655-1.86,3.655-4.889v-1.01c-.716,1.45-1.938,2.288-4.155,2.288-3.379,0-5.6-2.761-5.6-6.669,0-4.386,2.568-7.118,5.864-7.118,2.535,0,3.608,1.192,3.9,2.039.027-.568.092-1.45.116-1.721H117.4c-.009.865-.039,2.606-.039,3.908Zm-9.605-5.563c0,2.758,1.424,4.589,3.531,4.589,2.794,0,3.6-1.884,3.6-4.749,0-2.9-.728-4.66-3.522-4.66C109.032,381.49,107.757,383.425,107.757,386.311Z" transform="translate(-86.401 -246.739)"/>
      <path id="Trazado_41820" data-name="Trazado 41820" d="M110.509,383.309c0-1.789-.015-2.88-.027-3.682h2.562c.039.366.077,1.483.077,2.693a4.7,4.7,0,0,1,4.523-3.011v2.574c-2.77.053-4.523,1.364-4.523,4.847v6.449h-2.612Z" transform="translate(-75.696 -246.739)"/>
      <path id="Trazado_41821" data-name="Trazado 41821" d="M113.659,377.408h2.615v3h-2.615Zm0,5.967h2.615v13.552h-2.615Z" transform="translate(-69.431 -250.488)"/>
      <path id="Trazado_41822" data-name="Trazado 41822" d="M127.342,388.988a5.432,5.432,0,0,1-5.7,4.508c-3.822,0-6.107-2.728-6.107-7.017,0-3.866,2.223-7.171,6.28-7.171,4.033,0,5.37,2.88,5.525,4.586h-2.58a2.848,2.848,0,0,0-3-2.44c-2.265,0-3.548,1.947-3.548,4.936,0,3.046,1.26,4.975,3.474,4.975a3.033,3.033,0,0,0,3.058-2.378Z" transform="translate(-65.726 -246.739)"/>
      <path id="Trazado_41823" data-name="Trazado 41823" d="M131.5,389.021c0,1.316.015,3.067.027,3.947h-2.547c-.053-.357-.08-1.165-.1-1.941a3.992,3.992,0,0,1-4.03,2.259c-2.375,0-4.488-1.242-4.488-4.975v-8.895h2.6v8.345c0,1.727.538,3.29,2.666,3.29,2.342,0,3.251-1.29,3.251-4.541v-7.094H131.5Z" transform="translate(-56.21 -246.528)"/>
      <path id="Trazado_41824" data-name="Trazado 41824" d="M125.412,396.927V377.408h2.612v19.519Z" transform="translate(-46.256 -250.488)"/>
      <path id="Trazado_41825" data-name="Trazado 41825" d="M127.074,382.027h2.294v-3.935h2.612v3.935H134.9v2.083h-2.924v7.7c0,1.26.321,1.884,1.525,1.884a5.17,5.17,0,0,0,1.117-.1v1.92a6.624,6.624,0,0,1-2.122.253c-2.211,0-3.132-1.153-3.132-3.427V384.11h-2.294Z" transform="translate(-42.979 -249.139)"/>
      <path id="Trazado_41826" data-name="Trazado 41826" d="M141.555,389.021c0,1.316.015,3.067.03,3.947h-2.55c-.053-.357-.08-1.165-.092-1.941a3.992,3.992,0,0,1-4.03,2.259c-2.378,0-4.488-1.242-4.488-4.975v-8.895h2.6v8.345c0,1.727.541,3.29,2.669,3.29,2.339,0,3.251-1.29,3.251-4.541v-7.094h2.612Z" transform="translate(-36.371 -246.528)"/>
      <path id="Trazado_41827" data-name="Trazado 41827" d="M135.49,383.309c0-1.789-.015-2.88-.027-3.682h2.565c.039.366.077,1.483.077,2.693a4.7,4.7,0,0,1,4.523-3.011v2.574c-2.77.053-4.523,1.364-4.523,4.847v6.449H135.49Z" transform="translate(-26.436 -246.739)"/>
      <path id="Trazado_41828" data-name="Trazado 41828" d="M149.456,390.118a22.548,22.548,0,0,0,.187,3.061h-2.5a7.267,7.267,0,0,1-.214-1.688c-.479.877-1.528,2.006-4.11,2.006-3.21,0-4.577-2.092-4.577-4.161,0-3.037,2.4-4.428,6.41-4.428h2.241v-1.094c0-1.147-.377-2.508-2.758-2.508-2.131,0-2.505,1.034-2.737,2.08h-2.517c.184-1.973,1.4-4.092,5.34-4.077,3.376.012,5.236,1.373,5.236,4.485Zm-2.55-3.459h-2.065c-2.615,0-3.944.734-3.944,2.526A2.257,2.257,0,0,0,143.4,391.5c3.091,0,3.5-2.092,3.5-4.422Z" transform="translate(-20.96 -246.739)"/>
      <path id="Trazado_41829" data-name="Trazado 41829" d="M102.251,399.238v18.485H99.508V399.238Z" transform="translate(-97.336 -207.441)"/>
      <path id="Trazado_41830" data-name="Trazado 41830" d="M101.8,404.524c0-1.168,0-2.375-.027-3.412h2.538c.065.389.1,1.721.1,2.128a4.221,4.221,0,0,1,4.2-2.449c2.574,0,4.52,1.608,4.52,5.174v8.7h-2.612v-8.375c0-1.944-.743-3.272-2.734-3.272-2.369,0-3.373,1.739-3.373,4.4v7.245H101.8Z" transform="translate(-92.861 -204.379)"/>
      <path id="Trazado_41831" data-name="Trazado 41831" d="M119,398.89V414.6c0,1.266,0,2.514.03,3.807h-2.514a18.125,18.125,0,0,1-.128-1.825c-.666,1.346-2,2.146-4.181,2.146-3.471,0-5.623-2.812-5.623-6.96,0-4.17,2.312-7.231,6.078-7.231,2.312,0,3.376.915,3.727,1.646v-7.3Zm-9.709,12.8c0,3.15,1.453,4.853,3.525,4.853,3.055,0,3.673-2.3,3.673-5.076,0-2.874-.571-4.746-3.507-4.746C110.672,406.724,109.29,408.546,109.29,411.693Z" transform="translate(-83.384 -208.127)"/>
      <path id="Trazado_41832" data-name="Trazado 41832" d="M123.173,410.5c0,1.319.015,3.067.027,3.947h-2.547c-.056-.357-.08-1.162-.1-1.941a3.994,3.994,0,0,1-4.03,2.262c-2.378,0-4.488-1.242-4.488-4.975V400.9h2.6v8.342c0,1.727.538,3.293,2.666,3.293,2.342,0,3.251-1.293,3.251-4.544V400.9h2.615Z" transform="translate(-72.624 -204.166)"/>
      <path id="Trazado_41833" data-name="Trazado 41833" d="M119.233,410.747a2.927,2.927,0,0,0,3.174,2.223c1.872,0,2.6-.791,2.6-1.941,0-1.192-.618-1.73-3.079-2.33-3.976-.969-4.77-2.187-4.77-4.042,0-1.932,1.412-3.867,5.011-3.867s5.037,2.068,5.2,3.944h-2.514a2.509,2.509,0,0,0-2.8-1.971c-1.771,0-2.306.844-2.306,1.679,0,.945.532,1.412,2.963,1.991,4.187.99,4.972,2.4,4.972,4.4,0,2.348-1.849,4.143-5.367,4.143-3.629,0-5.343-1.816-5.679-4.235Z" transform="translate(-63.549 -204.379)"/>
      <path id="Trazado_41834" data-name="Trazado 41834" d="M120.737,403.512h2.294v-3.938h2.612v3.938h2.927V405.6h-2.927v7.7c0,1.26.321,1.884,1.525,1.884a5,5,0,0,0,1.117-.1V417a6.709,6.709,0,0,1-2.122.253c-2.211,0-3.132-1.156-3.132-3.43V405.6h-2.294Z" transform="translate(-55.474 -206.779)"/>
      <path id="Trazado_41835" data-name="Trazado 41835" d="M124.177,404.791c0-1.789-.015-2.88-.027-3.679h2.562c.039.366.077,1.483.077,2.69a4.7,4.7,0,0,1,4.523-3.011v2.577c-2.77.051-4.523,1.361-4.523,4.844v6.449h-2.612Z" transform="translate(-48.744 -204.379)"/>
      <path id="Trazado_41836" data-name="Trazado 41836" d="M127.327,398.89h2.615v3h-2.615Zm0,5.97h2.615v13.549h-2.615Z" transform="translate(-42.48 -208.127)"/>
      <path id="Trazado_41837" data-name="Trazado 41837" d="M140.371,411.6a22.541,22.541,0,0,0,.187,3.061h-2.5a7.235,7.235,0,0,1-.214-1.685c-.478.877-1.528,2.006-4.11,2.006-3.21,0-4.577-2.092-4.577-4.164,0-3.034,2.4-4.428,6.413-4.428h2.238V405.3c0-1.15-.377-2.511-2.758-2.511-2.131,0-2.505,1.037-2.737,2.08h-2.517c.184-1.973,1.4-4.092,5.34-4.077,3.376.012,5.236,1.373,5.236,4.485Zm-2.55-3.459h-2.065c-2.615,0-3.944.734-3.944,2.529a2.257,2.257,0,0,0,2.505,2.312c3.091,0,3.5-2.092,3.5-4.422Z" transform="translate(-38.875 -204.379)"/>
      <path id="Trazado_41838" data-name="Trazado 41838" d="M102.215,431.2v8H99.508V420.72H106.9c3.843,0,5.893,2.089,5.893,4.969a4.247,4.247,0,0,1-3.061,4.354c1.394.392,2.722,1.486,2.722,4.716v.814a13.39,13.39,0,0,0,.25,3.635h-2.648a12.687,12.687,0,0,1-.327-4.009v-.369c0-2.52-.7-3.626-3.953-3.626Zm0-2.273h3.893c2.707,0,3.875-1.019,3.875-3,0-1.881-1.224-2.942-3.632-2.942h-4.137Z" transform="translate(-97.336 -165.081)"/>
      <path id="Trazado_41839" data-name="Trazado 41839" d="M107.464,429.864c.015,2.553,1.3,4.452,3.516,4.452a2.929,2.929,0,0,0,3.094-1.97H116.7a5.585,5.585,0,0,1-5.8,4.116c-4.3,0-6.078-3.439-6.078-6.939,0-4.074,2.06-7.249,6.223-7.249,4.425,0,5.887,3.48,5.887,6.464a10.464,10.464,0,0,1-.039,1.126Zm6.829-1.774c-.027-2.1-1.052-3.807-3.275-3.807-2.268,0-3.254,1.581-3.474,3.807Z" transform="translate(-86.851 -162.017)"/>
      <path id="Trazado_41840" data-name="Trazado 41840" d="M112.144,432.227a2.933,2.933,0,0,0,3.177,2.223c1.872,0,2.6-.788,2.6-1.941,0-1.189-.615-1.73-3.076-2.327-3.979-.969-4.77-2.187-4.77-4.045,0-1.932,1.409-3.863,5.011-3.863s5.037,2.065,5.2,3.944h-2.517a2.507,2.507,0,0,0-2.8-1.97c-1.771,0-2.3.841-2.3,1.676,0,.948.529,1.415,2.96,1.991,4.187.99,4.975,2.4,4.975,4.407,0,2.348-1.848,4.14-5.37,4.14-3.626,0-5.34-1.813-5.679-4.235Z" transform="translate(-77.53 -162.017)"/>
      <path id="Trazado_41841" data-name="Trazado 41841" d="M114.241,420.372h2.612v3h-2.612Zm0,5.971h2.612v13.552h-2.612Z" transform="translate(-68.284 -165.767)"/>
      <path id="Trazado_41842" data-name="Trazado 41842" d="M128.53,420.372v15.712c0,1.266,0,2.514.03,3.81h-2.511a18.074,18.074,0,0,1-.131-1.828c-.666,1.349-2,2.146-4.181,2.146-3.471,0-5.62-2.808-5.62-6.96,0-4.169,2.309-7.228,6.075-7.228,2.312,0,3.376.912,3.727,1.644v-7.3Zm-9.709,12.8c0,3.153,1.453,4.856,3.525,4.856,3.055,0,3.673-2.3,3.673-5.076,0-2.877-.571-4.749-3.5-4.749C120.205,428.206,118.82,430.028,118.82,433.175Z" transform="translate(-64.586 -165.767)"/>
      <path id="Trazado_41843" data-name="Trazado 41843" d="M132.7,431.986c0,1.317.015,3.067.027,3.947h-2.547c-.053-.357-.08-1.165-.1-1.944a3.994,3.994,0,0,1-4.03,2.262c-2.375,0-4.488-1.242-4.488-4.975v-8.895h2.6v8.345c0,1.727.538,3.29,2.666,3.29,2.342,0,3.251-1.29,3.251-4.541v-7.094H132.7Z" transform="translate(-53.828 -161.806)"/>
      <path id="Trazado_41844" data-name="Trazado 41844" d="M139.091,429.341c0,3.941-2.279,7.121-6.452,7.121-3.944,0-6.315-3-6.315-7.07,0-4.036,2.345-7.118,6.473-7.118C136.6,422.274,139.091,425.088,139.091,429.341Zm-10.084.024c0,2.9,1.412,4.951,3.724,4.951,2.357,0,3.676-1.958,3.676-4.936,0-3.008-1.32-4.963-3.727-4.963C130.3,424.417,129.008,426.319,129.008,429.365Z" transform="translate(-44.457 -162.017)"/>
      <path id="Trazado_41845" data-name="Trazado 41845" d="M133.876,432.227a2.927,2.927,0,0,0,3.174,2.223c1.872,0,2.6-.788,2.6-1.941,0-1.189-.615-1.73-3.079-2.327-3.976-.969-4.77-2.187-4.77-4.045,0-1.932,1.412-3.863,5.011-3.863s5.037,2.065,5.2,3.944H139.5a2.507,2.507,0,0,0-2.8-1.97c-1.771,0-2.3.841-2.3,1.676,0,.948.529,1.415,2.96,1.991,4.187.99,4.972,2.4,4.972,4.407,0,2.348-1.849,4.14-5.367,4.14-3.629,0-5.343-1.813-5.679-4.235Z" transform="translate(-34.675 -162.017)"/>
      <path id="Trazado_41846" data-name="Trazado 41846" d="M104.682,444.525H98.777V442.2h14.571v2.324H107.44v16.164h-2.758Z" transform="translate(-98.777 -122.723)"/>
      <path id="Trazado_41847" data-name="Trazado 41847" d="M115.98,450.822c0,3.941-2.279,7.124-6.452,7.124-3.944,0-6.315-3-6.315-7.07,0-4.039,2.345-7.121,6.473-7.121C113.493,443.755,115.98,446.569,115.98,450.822Zm-10.084.027c0,2.9,1.412,4.951,3.727,4.951,2.354,0,3.673-1.958,3.673-4.936,0-3.01-1.317-4.963-3.727-4.963C107.189,445.9,105.9,447.8,105.9,450.849Z" transform="translate(-90.03 -119.659)"/>
      <path id="Trazado_41848" data-name="Trazado 41848" d="M107.928,446.476h2.294v-3.938h2.615v3.938h2.924v2.083h-2.924v7.7c0,1.257.318,1.881,1.525,1.881a5.007,5.007,0,0,0,1.117-.1v1.923a6.714,6.714,0,0,1-2.122.253c-2.214,0-3.135-1.153-3.135-3.43v-8.223h-2.294Z" transform="translate(-80.732 -122.059)"/>
      <path id="Trazado_41849" data-name="Trazado 41849" d="M122.3,454.564a23.047,23.047,0,0,0,.187,3.061h-2.5a7.07,7.07,0,0,1-.214-1.685c-.478.877-1.528,2.006-4.11,2.006-3.213,0-4.58-2.1-4.58-4.164,0-3.037,2.4-4.428,6.413-4.428h2.241v-1.091c0-1.15-.377-2.511-2.758-2.511-2.131,0-2.505,1.037-2.737,2.08h-2.52c.184-1.973,1.406-4.092,5.343-4.077,3.373.012,5.233,1.373,5.233,4.484Zm-2.547-3.459h-2.065c-2.615,0-3.944.734-3.944,2.526a2.257,2.257,0,0,0,2.5,2.315c3.094,0,3.507-2.092,3.507-4.425Z" transform="translate(-74.511 -119.659)"/>
      <path id="Trazado_41850" data-name="Trazado 41850" d="M116.166,461.373V441.854h2.612v19.519Z" transform="translate(-64.488 -123.407)"/>
      <path id="Trazado_41851" data-name="Trazado 41851" d="M132.6,456.323c0,4.342-1.756,6.868-6.318,6.868-4.271,0-5.48-2.389-5.7-4.173h2.663a2.916,2.916,0,0,0,3.15,2.137c2.954,0,3.658-1.86,3.658-4.892v-1.01c-.719,1.453-1.941,2.288-4.155,2.288-3.382,0-5.608-2.761-5.608-6.666,0-4.39,2.568-7.121,5.866-7.121,2.532,0,3.608,1.195,3.9,2.042.027-.571.089-1.453.116-1.721h2.473c-.012.865-.042,2.606-.042,3.9Zm-9.605-5.56c0,2.752,1.424,4.586,3.531,4.586,2.8,0,3.6-1.884,3.6-4.752,0-2.9-.725-4.657-3.522-4.657C124.266,445.939,122.991,447.871,122.991,450.763Z" transform="translate(-56.362 -119.659)"/>
      <path id="Trazado_41852" data-name="Trazado 41852" d="M125.725,461.373V441.854h2.612v19.519Z" transform="translate(-45.639 -123.407)"/>
      <path id="Trazado_41853" data-name="Trazado 41853" d="M140.362,450.822c0,3.941-2.279,7.124-6.452,7.124-3.944,0-6.315-3-6.315-7.07,0-4.039,2.345-7.121,6.473-7.121C137.875,443.755,140.362,446.569,140.362,450.822Zm-10.084.027c0,2.9,1.412,4.951,3.724,4.951,2.357,0,3.676-1.958,3.676-4.936,0-3.01-1.317-4.963-3.73-4.963C131.571,445.9,130.279,447.8,130.279,450.849Z" transform="translate(-41.951 -119.659)"/>
      <path id="Trazado_41854" data-name="Trazado 41854" d="M132.892,441.854h2.615v7.807c.6-1.1,1.822-2.158,4.238-2.158,3.456,0,5.54,2.847,5.54,6.826,0,4.071-2.051,7.364-5.9,7.364-2.143,0-3.225-.761-3.905-2.012a13.927,13.927,0,0,1-.1,1.691h-2.514c.024-1.507.024-3.019.024-4.526Zm9.715,12.527c0-2.8-1.239-4.693-3.528-4.693-2.734,0-3.7,1.825-3.7,4.96,0,2.719.856,4.874,3.6,4.874C141.281,459.522,142.607,457.54,142.607,454.381Z" transform="translate(-31.553 -123.407)"/>
      <path id="Trazado_41855" data-name="Trazado 41855" d="M148.937,454.564a22.542,22.542,0,0,0,.187,3.061h-2.5a7.237,7.237,0,0,1-.214-1.685c-.478.877-1.528,2.006-4.11,2.006-3.21,0-4.577-2.1-4.577-4.164,0-3.037,2.4-4.428,6.41-4.428h2.241v-1.091c0-1.15-.377-2.511-2.758-2.511-2.131,0-2.505,1.037-2.737,2.08H138.36c.184-1.973,1.4-4.092,5.34-4.077,3.376.012,5.236,1.373,5.236,4.484Zm-2.55-3.459h-2.065c-2.615,0-3.944.734-3.944,2.526a2.258,2.258,0,0,0,2.505,2.315c3.091,0,3.5-2.092,3.5-4.425Z" transform="translate(-21.984 -119.659)"/>
      <path id="Trazado_41856" data-name="Trazado 41856" d="M142.8,461.373V441.854h2.615v19.519Z" transform="translate(-11.963 -123.407)"/>
    </g>
    <g id="Grupo_19169" data-name="Grupo 19169" transform="translate(389.565 408.667)">
      <path id="Trazado_41857" data-name="Trazado 41857" d="M190.136,353.733V335.245h3.569c2.588,4.291,8.072,13.163,9.073,15.175h.039c-.184-2.291-.169-5.263-.169-8.283v-6.892h2.565v18.488h-3.361c-2.357-3.938-8.128-13.585-9.243-15.671h-.039c.134,2.012.143,5.272.143,8.6v7.067Z" transform="translate(-190.136 -334.223)"/>
      <path id="Trazado_41858" data-name="Trazado 41858" d="M196.4,353.3v-.166c0-2.627,1.611-5.222,5.254-7.962,2.746-2.077,3.5-2.749,3.5-4.606a2.656,2.656,0,0,0-2.88-2.951c-2.045,0-2.969,1.1-3.311,3.121h-2.556a5.473,5.473,0,0,1,5.867-5.269c4.036,0,5.566,2.553,5.566,5.04,0,2.633-1.12,3.706-4.357,6.164-2.363,1.8-3.572,3.126-3.982,4.357h9.02l-.36,2.274Z" transform="translate(-177.774 -333.789)"/>
      <path id="Trazado_41859" data-name="Trazado 41859" d="M218.529,344.568c0,5.094-2.9,9.608-8.755,9.608-5.51,0-8.547-4.208-8.547-9.51s3.147-9.51,8.77-9.51C215.239,335.156,218.529,339.04,218.529,344.568Zm-14.44.015c0,3.926,1.958,7.281,5.8,7.281,4.152,0,5.774-3.433,5.774-7.257,0-3.89-1.84-7.141-5.783-7.141C205.854,337.465,204.089,340.707,204.089,344.583Z" transform="translate(-168.266 -334.398)"/>
      <path id="Trazado_41860" data-name="Trazado 41860" d="M216.875,334.9a19.466,19.466,0,0,0-4.2,11.905,20.24,20.24,0,0,0,4.2,12.2h-2.618a20.394,20.394,0,0,1-3.988-12.232,19.517,19.517,0,0,1,3.988-11.876Z" transform="translate(-150.438 -334.901)"/>
      <path id="Trazado_41861" data-name="Trazado 41861" d="M229.383,346.033c0-3.379.039-6.88.119-8.85h-.1c-.805,3.141-3.581,10.74-5.638,16.55h-2.425c-1.554-4.794-4.428-13.332-5.254-16.592h-.089c.143,2.143.208,6.19.208,9.361v7.231h-2.559V335.245h4.089c1.976,5.566,4.363,12.717,4.981,15.145h.042c.437-1.9,3.281-9.715,5.332-15.145h3.97v18.488h-2.672Z" transform="translate(-143.787 -334.223)"/>
      <path id="Trazado_41862" data-name="Trazado 41862" d="M220.674,339.52h2.294v-3.938h2.612v3.938h2.927V341.6h-2.927v7.7c0,1.257.321,1.881,1.525,1.881a5.168,5.168,0,0,0,1.117-.1V353a6.706,6.706,0,0,1-2.122.253c-2.211,0-3.132-1.153-3.132-3.43V341.6h-2.294Z" transform="translate(-129.919 -333.558)"/>
      <path id="Trazado_41863" data-name="Trazado 41863" d="M239.909,348.58c-.805,3.195-3.195,5.566-7.474,5.566-5.59,0-8.375-4.187-8.375-9.418,0-5.031,2.8-9.572,8.488-9.572,4.467,0,6.835,2.562,7.364,5.653h-2.743a4.476,4.476,0,0,0-4.725-3.406c-3.929,0-5.522,3.569-5.522,7.239,0,3.531,1.492,7.251,5.629,7.251a4.55,4.55,0,0,0,4.6-3.314Z" transform="translate(-123.242 -334.398)"/>
      <path id="Trazado_41864" data-name="Trazado 41864" d="M247.583,344.568c0,5.094-2.9,9.608-8.755,9.608-5.51,0-8.547-4.208-8.547-9.51s3.147-9.51,8.77-9.51C244.293,335.156,247.583,339.04,247.583,344.568Zm-14.44.015c0,3.926,1.958,7.281,5.8,7.281,4.152,0,5.777-3.433,5.777-7.257,0-3.89-1.843-7.141-5.786-7.141C234.908,337.465,233.143,340.707,233.143,344.583Z" transform="translate(-110.975 -334.398)"/>
      <path id="Trazado_41865" data-name="Trazado 41865" d="M236.961,353.3v-.166c0-2.627,1.608-5.222,5.254-7.962,2.743-2.077,3.5-2.749,3.5-4.606a2.657,2.657,0,0,0-2.88-2.951c-2.045,0-2.969,1.1-3.314,3.121H236.97a5.476,5.476,0,0,1,5.869-5.269c4.036,0,5.566,2.553,5.566,5.04,0,2.633-1.12,3.706-4.357,6.164-2.366,1.8-3.572,3.126-3.985,4.357h9.023l-.36,2.274Z" transform="translate(-97.802 -333.789)"/>
      <path id="Trazado_41866" data-name="Trazado 41866" d="M244.3,344.392c.015,2.55,1.3,4.452,3.516,4.452a2.932,2.932,0,0,0,3.094-1.97h2.627a5.585,5.585,0,0,1-5.8,4.116c-4.3,0-6.078-3.442-6.078-6.939,0-4.078,2.06-7.251,6.223-7.251,4.425,0,5.887,3.48,5.887,6.467a10.465,10.465,0,0,1-.039,1.126Zm6.829-1.777c-.027-2.1-1.052-3.8-3.275-3.8-2.268,0-3.254,1.578-3.474,3.8Z" transform="translate(-88.542 -331.158)"/>
      <path id="Trazado_41867" data-name="Trazado 41867" d="M256.285,348.817c-.713,1.385-1.953,2.173-4.187,2.173-3.064,0-5.644-2.41-5.644-6.948,0-4.52,2.693-7.242,5.976-7.242,2.449,0,3.534,1.1,3.855,1.952,0-.466.051-1.123.089-1.631h2.476c-.015,1.352-.027,2.5-.027,3.733v15.115h-2.538Zm-7.124-4.883c0,2.675,1.129,4.871,3.584,4.871,2.805,0,3.593-1.944,3.593-4.969,0-3.076-.71-4.841-3.51-4.841C250.4,339,249.161,341.043,249.161,343.935Z" transform="translate(-79.083 -331.158)"/>
      <path id="Trazado_41868" data-name="Trazado 41868" d="M251.563,359.009a19.473,19.473,0,0,0,4.2-11.9,20.213,20.213,0,0,0-4.2-12.206h2.621a20.428,20.428,0,0,1,3.988,12.232,19.543,19.543,0,0,1-3.988,11.876Z" transform="translate(-69.009 -334.901)"/>
      <path id="Trazado_41869" data-name="Trazado 41869" d="M215.251,374.782v-.166c0-2.63,1.611-5.225,5.257-7.965,2.743-2.077,3.5-2.749,3.5-4.606a2.655,2.655,0,0,0-2.88-2.951c-2.042,0-2.969,1.1-3.311,3.12h-2.556a5.472,5.472,0,0,1,5.866-5.266c4.036,0,5.566,2.553,5.566,5.04,0,2.633-1.12,3.706-4.357,6.161-2.363,1.8-3.569,3.129-3.982,4.36h9.023l-.363,2.274Z" transform="translate(-140.612 -291.427)"/>
      <path id="Trazado_41870" data-name="Trazado 41870" d="M220.421,361.5c.267-2.158,1.8-4.547,5.659-4.547,3.715,0,5.394,2.229,5.394,4.586a3.653,3.653,0,0,1-2.306,3.611v.065a4.282,4.282,0,0,1,3.043,4.381c0,2.737-1.694,5.51-6.176,5.51-4.146,0-5.831-2.582-6.077-4.912h2.58a3.428,3.428,0,0,0,3.608,2.788,3.126,3.126,0,0,0,3.379-3.391c0-2.19-1.317-3.233-3.62-3.233h-1.317v-2.107H225.7c2.19,0,3.135-.844,3.135-2.6,0-1.51-.987-2.547-2.85-2.547a2.777,2.777,0,0,0-3.052,2.4Z" transform="translate(-131.332 -291.427)"/>
      <path id="Trazado_41871" data-name="Trazado 41871" d="M236.284,357.055v2.089a39.887,39.887,0,0,0-6.666,15.427h-2.707a39.57,39.57,0,0,1,6.648-15.27h-8.892v-2.247Z" transform="translate(-122.045 -291.216)"/>
      <path id="Trazado_41872" data-name="Trazado 41872" d="M212.119,396.263V396.1c0-2.627,1.608-5.225,5.254-7.962,2.743-2.08,3.5-2.749,3.5-4.606A2.655,2.655,0,0,0,218,380.578c-2.045,0-2.972,1.1-3.314,3.117h-2.556a5.473,5.473,0,0,1,5.87-5.266c4.036,0,5.563,2.553,5.563,5.04,0,2.633-1.12,3.706-4.357,6.164-2.363,1.8-3.569,3.126-3.979,4.357h9.02l-.36,2.273Z" transform="translate(-146.788 -249.069)"/>
      <path id="Trazado_41873" data-name="Trazado 41873" d="M217.254,387.134v-4.075h2.761v4.075Z" transform="translate(-136.662 -239.939)"/>
      <path id="Trazado_41874" data-name="Trazado 41874" d="M228.281,382.649a2.621,2.621,0,0,0-2.817-2.122c-2.835,0-3.73,2.657-3.822,6.1a4.746,4.746,0,0,1,4.351-2.282c3.358,0,5.4,2.443,5.4,5.834,0,3.5-2.1,6.4-6.012,6.4-4.877,0-6.342-3.911-6.342-8.847,0-4.776,1.578-9.3,6.541-9.3,3.614,0,5.07,2.336,5.287,4.22Zm.434,7.73c0-1.9-.731-3.881-3.311-3.881-2.077,0-3.507,1.31-3.507,3.84,0,1.438.725,4.074,3.447,4.074C227.743,394.412,228.714,392.492,228.714,390.379Z" transform="translate(-133.15 -249.069)"/>
      <path id="Trazado_41875" data-name="Trazado 41875" d="M227.489,396.1V381.674a11.07,11.07,0,0,1-3.542,1.385v-2.071a10.226,10.226,0,0,0,4.265-2.476h1.944V396.1Z" transform="translate(-123.467 -248.905)"/>
      <path id="Trazado_41876" data-name="Trazado 41876" d="M236.614,382.649a2.621,2.621,0,0,0-2.817-2.122c-2.835,0-3.73,2.657-3.822,6.1a4.746,4.746,0,0,1,4.351-2.282c3.358,0,5.4,2.443,5.4,5.834,0,3.5-2.1,6.4-6.012,6.4-4.877,0-6.342-3.911-6.342-8.847,0-4.776,1.578-9.3,6.541-9.3,3.614,0,5.07,2.336,5.287,4.22Zm.434,7.73c0-1.9-.731-3.881-3.311-3.881-2.074,0-3.507,1.31-3.507,3.84,0,1.438.725,4.074,3.447,4.074C236.076,394.412,237.047,392.492,237.047,390.379Z" transform="translate(-116.719 -249.069)"/>
      <path id="Trazado_41877" data-name="Trazado 41877" d="M219.118,417.582V403.159a11.2,11.2,0,0,1-3.54,1.385V402.47a10.214,10.214,0,0,0,4.262-2.476h1.944v17.588Z" transform="translate(-139.967 -206.545)"/>
      <path id="Trazado_41878" data-name="Trazado 41878" d="M230.208,402.254h-7.269c-.148,1.32-.562,3.783-.725,4.684a4.65,4.65,0,0,1,3.572-1.319c3.254,0,5.3,2.279,5.3,5.816,0,3.409-1.8,6.419-6.14,6.419-3.192,0-5.51-1.738-5.956-4.749h2.645a3.268,3.268,0,0,0,3.391,2.624c2.27,0,3.391-1.629,3.391-4.1,0-2.178-.889-3.828-3.242-3.828a3.238,3.238,0,0,0-3.433,2.19l-2.419-.407c.508-2.285,1.192-7.323,1.456-9.569h9.8Z" transform="translate(-133.241 -206.496)"/>
      <path id="Trazado_41879" data-name="Trazado 41879" d="M235.166,402.254H227.9c-.148,1.32-.562,3.783-.725,4.684a4.643,4.643,0,0,1,3.569-1.319c3.254,0,5.3,2.279,5.3,5.816,0,3.409-1.807,6.419-6.143,6.419-3.192,0-5.51-1.738-5.956-4.749h2.645a3.268,3.268,0,0,0,3.391,2.624c2.273,0,3.391-1.629,3.391-4.1,0-2.178-.889-3.828-3.239-3.828A3.241,3.241,0,0,0,226.7,410l-2.419-.407c.511-2.285,1.195-7.323,1.459-9.569h9.8Z" transform="translate(-123.464 -206.496)"/>
      <path id="Trazado_41880" data-name="Trazado 41880" d="M219.024,439.065V424.639a11.1,11.1,0,0,1-3.54,1.385v-2.071a10.216,10.216,0,0,0,4.262-2.476h1.944v17.588Z" transform="translate(-140.153 -164.183)"/>
      <path id="Trazado_41881" data-name="Trazado 41881" d="M231.361,430.351c0,4.428-1.293,9.2-6.244,9.2-4.853,0-6.229-4.488-6.229-9.076,0-4.553,1.5-9.076,6.309-9.076C229.932,421.394,231.361,425.772,231.361,430.351Zm-9.724.11c0,3.311.538,6.9,3.5,6.9s3.474-3.406,3.474-7c0-3.376-.547-6.782-3.4-6.782C222.306,423.578,221.637,426.625,221.637,430.461Z" transform="translate(-133.44 -164.347)"/>
      <path id="Trazado_41882" data-name="Trazado 41882" d="M233.215,425.614a2.616,2.616,0,0,0-2.817-2.122c-2.832,0-3.73,2.654-3.822,6.1a4.751,4.751,0,0,1,4.354-2.282c3.355,0,5.394,2.443,5.394,5.834,0,3.5-2.1,6.4-6.012,6.4-4.874,0-6.339-3.911-6.339-8.847,0-4.776,1.578-9.3,6.538-9.3,3.614,0,5.07,2.336,5.29,4.22Zm.437,7.73c0-1.9-.734-3.881-3.311-3.881-2.077,0-3.507,1.311-3.507,3.84,0,1.438.722,4.074,3.444,4.074C232.68,437.377,233.651,435.457,233.651,433.344Z" transform="translate(-123.415 -164.347)"/>
      <path id="Trazado_41883" data-name="Trazado 41883" d="M212.942,447.425c.27-2.158,1.8-4.55,5.658-4.55,3.718,0,5.394,2.229,5.394,4.586a3.659,3.659,0,0,1-2.3,3.614v.065a4.277,4.277,0,0,1,3.04,4.381c0,2.737-1.694,5.51-6.173,5.51-4.149,0-5.834-2.583-6.081-4.916h2.583a3.429,3.429,0,0,0,3.6,2.791,3.13,3.13,0,0,0,3.382-3.391c0-2.19-1.32-3.236-3.623-3.236h-1.314v-2.107h1.114c2.19,0,3.132-.841,3.132-2.6,0-1.507-.987-2.544-2.847-2.544a2.773,2.773,0,0,0-3.052,2.4Z" transform="translate(-146.08 -121.988)"/>
      <path id="Trazado_41884" data-name="Trazado 41884" d="M217.572,451.58V447.5h2.758v4.075Z" transform="translate(-136.035 -112.859)"/>
      <path id="Trazado_41885" data-name="Trazado 41885" d="M222.176,460.546V446.123a11.184,11.184,0,0,1-3.542,1.385v-2.075a10.225,10.225,0,0,0,4.265-2.475h1.944v17.588Z" transform="translate(-133.941 -121.825)"/>
      <path id="Trazado_41886" data-name="Trazado 41886" d="M230.115,460.5v-4.4h-8.173V453.75l7.843-10.767H232.6v10.9h2.235l-.27,2.208H232.6v4.4Zm0-10.782c0-1.456.015-3.058.065-4.193-.707,1.373-3.908,5.786-5.736,8.366h5.67Z" transform="translate(-127.418 -121.776)"/>
      <path id="Trazado_41887" data-name="Trazado 41887" d="M235.19,460.5v-4.4h-8.173V453.75l7.843-10.767h2.811v10.9h2.235l-.27,2.208h-1.964v4.4Zm0-10.782c0-1.456.012-3.058.065-4.193-.707,1.373-3.908,5.786-5.739,8.366h5.673Z" transform="translate(-117.411 -121.776)"/>
    </g>
    <g id="Grupo_19170" data-name="Grupo 19170" transform="translate(761.823 410.346)">
      <path id="Trazado_41888" data-name="Trazado 41888" d="M327.152,340.453c0,2.862-1.566,5.04-4.547,5.04-2.8,0-4.455-1.938-4.455-5.011,0-2.731,1.542-5.016,4.5-5.016C325.387,335.466,327.152,337.317,327.152,340.453Zm-6.838,0c0,1.938.82,3.2,2.363,3.2,1.486,0,2.345-1.168,2.345-3.2,0-2.054-.895-3.144-2.386-3.144C321.232,337.309,320.314,338.4,320.314,340.453Zm2.015,12.848L333.6,335.775h2.152L324.483,353.3Zm17.605-4.7c0,2.847-1.551,5.04-4.544,5.04-2.832,0-4.455-2.009-4.455-5.011,0-2.731,1.528-5.016,4.5-5.016C338.2,343.618,339.934,345.469,339.934,348.6Zm-6.835,0c0,1.923.82,3.2,2.363,3.2,1.486,0,2.345-1.165,2.345-3.2s-.894-3.144-2.389-3.144C334.044,345.461,333.1,346.611,333.1,348.6Z" transform="translate(-309.965 -335.466)"/>
      <path id="Trazado_41889" data-name="Trazado 41889" d="M319.681,369.811a4.716,4.716,0,0,1,3.115-4.431,3.943,3.943,0,0,1-2.378-3.706c0-2.755,1.959-4.725,5.632-4.725,3.352,0,5.438,1.92,5.438,4.69a3.637,3.637,0,0,1-2.4,3.614,4.635,4.635,0,0,1,3.073,4.47c0,3.4-2.651,5.379-6.36,5.379C322.368,375.1,319.681,373.107,319.681,369.811Zm9.819-.113c0-2.131-1.379-3.228-3.572-3.228-2.44,0-3.575,1.379-3.575,3.216,0,1.884,1.337,3.281,3.6,3.281C328.032,372.967,329.5,371.868,329.5,369.7Zm-6.52-7.994c0,1.424.927,2.58,3.031,2.58,1.988,0,2.915-.924,2.915-2.52a2.624,2.624,0,0,0-2.957-2.7C323.865,359.068,322.98,360.126,322.98,361.7Z" transform="translate(-306.946 -293.104)"/>
      <path id="Trazado_41890" data-name="Trazado 41890" d="M317.229,391.292a4.708,4.708,0,0,1,3.115-4.428,3.944,3.944,0,0,1-2.38-3.706c0-2.758,1.961-4.728,5.632-4.728,3.355,0,5.442,1.92,5.442,4.69a3.645,3.645,0,0,1-2.4,3.617,4.633,4.633,0,0,1,3.07,4.47c0,3.394-2.648,5.376-6.36,5.376C319.916,396.582,317.229,394.588,317.229,391.292Zm9.816-.113c0-2.131-1.376-3.227-3.569-3.227-2.44,0-3.578,1.382-3.578,3.216,0,1.887,1.337,3.284,3.6,3.284C325.58,394.452,327.045,393.349,327.045,391.179Zm-6.52-7.991c0,1.421.927,2.579,3.031,2.579,1.988,0,2.915-.927,2.915-2.523a2.62,2.62,0,0,0-2.957-2.692C321.413,380.552,320.525,381.607,320.525,383.188Z" transform="translate(-311.782 -250.746)"/>
      <path id="Trazado_41891" data-name="Trazado 41891" d="M330.395,396.053v-4.4h-8.173V389.3l7.843-10.767h2.811v10.9h2.235l-.27,2.208h-1.964v4.4Zm0-10.782c0-1.456.015-3.058.065-4.193-.707,1.373-3.908,5.786-5.739,8.363h5.673Z" transform="translate(-301.936 -250.535)"/>
      <path id="Trazado_41892" data-name="Trazado 41892" d="M330.993,402.255h-7.266c-.152,1.32-.562,3.783-.728,4.684a4.654,4.654,0,0,1,3.572-1.32c3.254,0,5.3,2.279,5.3,5.816,0,3.409-1.807,6.419-6.143,6.419-3.192,0-5.51-1.739-5.956-4.749h2.645a3.268,3.268,0,0,0,3.391,2.624c2.271,0,3.391-1.629,3.391-4.1,0-2.178-.889-3.828-3.242-3.828a3.24,3.24,0,0,0-3.433,2.19l-2.419-.407c.511-2.285,1.195-7.323,1.456-9.569h9.8Z" transform="translate(-306.763 -208.173)"/>
      <path id="Trazado_41893" data-name="Trazado 41893" d="M330.993,423.737h-7.266c-.152,1.323-.562,3.786-.728,4.684a4.665,4.665,0,0,1,3.572-1.32c3.254,0,5.3,2.282,5.3,5.816,0,3.412-1.807,6.419-6.143,6.419-3.192,0-5.51-1.738-5.956-4.746h2.645a3.268,3.268,0,0,0,3.391,2.621c2.271,0,3.391-1.626,3.391-4.1,0-2.178-.889-3.828-3.242-3.828a3.239,3.239,0,0,0-3.433,2.193l-2.419-.41c.511-2.285,1.195-7.323,1.456-9.569h9.8Z" transform="translate(-306.763 -165.813)"/>
      <path id="Trazado_41894" data-name="Trazado 41894" d="M318.939,460.547V446.124a11.188,11.188,0,0,1-3.543,1.385v-2.074a10.228,10.228,0,0,0,4.265-2.476H321.6v17.588Z" transform="translate(-315.396 -123.502)"/>
      <path id="Trazado_41895" data-name="Trazado 41895" d="M331.274,451.833c0,4.428-1.293,9.2-6.244,9.2-4.856,0-6.229-4.487-6.229-9.079,0-4.55,1.5-9.076,6.309-9.076C329.845,442.876,331.274,447.257,331.274,451.833Zm-9.724.11c0,3.311.538,6.9,3.5,6.9s3.471-3.4,3.471-7c0-3.379-.547-6.782-3.4-6.782C322.219,445.063,321.55,448.107,321.55,451.943Z" transform="translate(-308.682 -123.666)"/>
      <path id="Trazado_41896" data-name="Trazado 41896" d="M336.376,451.833c0,4.428-1.293,9.2-6.244,9.2-4.856,0-6.229-4.487-6.229-9.079,0-4.55,1.5-9.076,6.309-9.076C334.947,442.876,336.376,447.257,336.376,451.833Zm-9.724.11c0,3.311.538,6.9,3.5,6.9s3.471-3.4,3.471-7c0-3.379-.547-6.782-3.4-6.782C327.321,445.063,326.652,448.107,326.652,451.943Z" transform="translate(-298.621 -123.666)"/>
    </g>
  </g>
</svg>
